G04 #@! TF.FileFunction,Profile,NP*
%FSLAX46Y46*%
G04 Gerber Fmt 4.6, Leading zero omitted, Abs format (unit mm)*
G04 Created by KiCad (PCBNEW 4.0.5) date 01/10/17 14:27:19*
%MOMM*%
%LPD*%
G01*
G04 APERTURE LIST*
%ADD10C,0.100000*%
%ADD11C,0.150000*%
G04 APERTURE END LIST*
D10*
D11*
X61100000Y-97400000D02*
X61100000Y-102600000D01*
X62100000Y-102600000D02*
X62100000Y-97400000D01*
X62100000Y-102600000D02*
G75*
G02X61100000Y-102600000I-500000J0D01*
G01*
X62100000Y-97400000D02*
G75*
G03X61100000Y-97400000I-500000J0D01*
G01*
X62600000Y-111700000D02*
X65000000Y-111700000D01*
X61100000Y-111200000D02*
X61100000Y-109100000D01*
X62100000Y-111200000D02*
X62100000Y-109100000D01*
X61100000Y-109100000D02*
G75*
G02X62100000Y-109100000I500000J0D01*
G01*
X62599127Y-111699999D02*
G75*
G02X62100000Y-111200000I873J499999D01*
G01*
X61100000Y-111200000D02*
G75*
G02X60600000Y-111700000I-500000J0D01*
G01*
X62600000Y-88300000D02*
X65000000Y-88300000D01*
X61100000Y-88800000D02*
G75*
G03X60600000Y-88300000I-500000J0D01*
G01*
X61100000Y-88800000D02*
X61100000Y-90900000D01*
X61100000Y-90900000D02*
G75*
G03X62100000Y-90900000I500000J0D01*
G01*
X62100000Y-88800000D02*
X62100000Y-90900000D01*
X46500000Y-110200000D02*
G75*
G03X48000000Y-111700000I1500000J0D01*
G01*
X48000000Y-88300000D02*
G75*
G03X46500000Y-89800000I0J-1500000D01*
G01*
X62599127Y-88300001D02*
G75*
G03X62100000Y-88800000I873J-499999D01*
G01*
X48000000Y-111700000D02*
X60600000Y-111700000D01*
X68100000Y-113800000D02*
X67400000Y-112900000D01*
X68100000Y-113800000D02*
G75*
G03X70500000Y-115000000I2400000J1800000D01*
G01*
X67400000Y-112900000D02*
G75*
G03X65000000Y-111700000I-2400000J-1800000D01*
G01*
X67400000Y-87100000D02*
G75*
G02X65000000Y-88300000I-2400000J1800000D01*
G01*
X68100000Y-86200000D02*
G75*
G02X70500000Y-85000000I2400000J-1800000D01*
G01*
X68100000Y-86200000D02*
X67400000Y-87100000D01*
X48000000Y-88300000D02*
X60600000Y-88300000D01*
X46500000Y-110200000D02*
X46500000Y-89800000D01*
X132500000Y-112000000D02*
X132500000Y-88000000D01*
X70500000Y-115000000D02*
X129500000Y-115000000D01*
X129500000Y-85000000D02*
X70500000Y-85000000D01*
X129500000Y-115000000D02*
G75*
G03X132500000Y-112000000I0J3000000D01*
G01*
X132500000Y-88000000D02*
G75*
G03X129500000Y-85000000I-3000000J0D01*
G01*
M02*
