G04 #@! TF.FileFunction,Soldermask,Bot*
%FSLAX46Y46*%
G04 Gerber Fmt 4.6, Leading zero omitted, Abs format (unit mm)*
G04 Created by KiCad (PCBNEW 4.0.5) date 01/10/17 14:27:18*
%MOMM*%
%LPD*%
G01*
G04 APERTURE LIST*
%ADD10C,0.100000*%
%ADD11C,0.200000*%
%ADD12C,1.200000*%
G04 APERTURE END LIST*
D10*
D11*
X123306497Y-90712132D02*
X124437868Y-91843503D01*
X125993503Y-90287868D02*
X124862132Y-89156497D01*
D12*
X124684315Y-89934315D02*
G75*
G03X124684315Y-89934315I-600000J0D01*
G01*
X125815685Y-91065685D02*
G75*
G03X125815685Y-91065685I-600000J0D01*
G01*
D11*
X125427817Y-90005025D02*
X125144975Y-89722183D01*
X124155025Y-91277817D02*
X123872183Y-90994975D01*
D10*
G36*
X71283592Y-108801797D02*
X71802277Y-108908268D01*
X72290398Y-109113455D01*
X72729373Y-109409546D01*
X73102477Y-109785265D01*
X73395496Y-110226293D01*
X73597271Y-110715836D01*
X73700050Y-111234908D01*
X73700050Y-111234917D01*
X73700116Y-111235251D01*
X73691671Y-111840037D01*
X73691595Y-111840371D01*
X73691595Y-111840383D01*
X73574365Y-112356375D01*
X73358998Y-112840097D01*
X73053779Y-113272772D01*
X72670327Y-113637928D01*
X72223262Y-113921644D01*
X71729597Y-114113125D01*
X71208146Y-114205070D01*
X70678765Y-114193982D01*
X70161612Y-114080278D01*
X69676404Y-113868296D01*
X69241608Y-113566104D01*
X68873786Y-113185213D01*
X68586955Y-112740139D01*
X68392034Y-112247824D01*
X68296448Y-111727020D01*
X68303842Y-111197576D01*
X68413930Y-110679652D01*
X68622522Y-110192970D01*
X68921671Y-109756075D01*
X69299984Y-109385603D01*
X69743047Y-109095670D01*
X70233989Y-108897317D01*
X70754104Y-108798100D01*
X71283592Y-108801797D01*
X71283592Y-108801797D01*
G37*
G36*
X129283592Y-108801797D02*
X129802277Y-108908268D01*
X130290398Y-109113455D01*
X130729373Y-109409546D01*
X131102477Y-109785265D01*
X131395496Y-110226293D01*
X131597271Y-110715836D01*
X131700050Y-111234908D01*
X131700050Y-111234917D01*
X131700116Y-111235251D01*
X131691671Y-111840037D01*
X131691595Y-111840371D01*
X131691595Y-111840383D01*
X131574365Y-112356375D01*
X131358998Y-112840097D01*
X131053779Y-113272772D01*
X130670327Y-113637928D01*
X130223262Y-113921644D01*
X129729597Y-114113125D01*
X129208146Y-114205070D01*
X128678765Y-114193982D01*
X128161612Y-114080278D01*
X127676404Y-113868296D01*
X127241608Y-113566104D01*
X126873786Y-113185213D01*
X126586955Y-112740139D01*
X126392034Y-112247824D01*
X126296448Y-111727020D01*
X126303842Y-111197576D01*
X126413930Y-110679652D01*
X126622522Y-110192970D01*
X126921671Y-109756075D01*
X127299984Y-109385603D01*
X127743047Y-109095670D01*
X128233989Y-108897317D01*
X128754104Y-108798100D01*
X129283592Y-108801797D01*
X129283592Y-108801797D01*
G37*
G36*
X103915034Y-111770664D02*
X104107141Y-111810098D01*
X104287925Y-111886093D01*
X104450509Y-111995756D01*
X104588697Y-112134913D01*
X104697223Y-112298256D01*
X104771954Y-112479567D01*
X104809978Y-112671601D01*
X104809978Y-112671616D01*
X104810043Y-112671945D01*
X104806916Y-112895940D01*
X104806839Y-112896278D01*
X104806839Y-112896286D01*
X104763471Y-113087175D01*
X104683705Y-113266333D01*
X104570661Y-113426583D01*
X104428639Y-113561828D01*
X104263061Y-113666906D01*
X104080221Y-113737827D01*
X103887093Y-113771879D01*
X103691025Y-113767773D01*
X103499485Y-113725660D01*
X103319779Y-113647147D01*
X103158742Y-113535225D01*
X103022511Y-113394153D01*
X102916279Y-113229313D01*
X102844085Y-113046974D01*
X102808682Y-112854080D01*
X102811421Y-112657990D01*
X102852194Y-112466168D01*
X102929451Y-112285914D01*
X103040247Y-112124101D01*
X103180364Y-111986887D01*
X103344461Y-111879505D01*
X103526292Y-111806041D01*
X103718925Y-111769294D01*
X103915034Y-111770664D01*
X103915034Y-111770664D01*
G37*
G36*
X78515034Y-111770664D02*
X78707141Y-111810098D01*
X78887925Y-111886093D01*
X79050509Y-111995756D01*
X79188697Y-112134913D01*
X79297223Y-112298256D01*
X79371954Y-112479567D01*
X79409978Y-112671601D01*
X79409978Y-112671616D01*
X79410043Y-112671945D01*
X79406916Y-112895940D01*
X79406839Y-112896278D01*
X79406839Y-112896286D01*
X79363471Y-113087175D01*
X79283705Y-113266333D01*
X79170661Y-113426583D01*
X79028639Y-113561828D01*
X78863061Y-113666906D01*
X78680221Y-113737827D01*
X78487093Y-113771879D01*
X78291025Y-113767773D01*
X78099485Y-113725660D01*
X77919779Y-113647147D01*
X77758742Y-113535225D01*
X77622511Y-113394153D01*
X77516279Y-113229313D01*
X77444085Y-113046974D01*
X77408682Y-112854080D01*
X77411421Y-112657990D01*
X77452194Y-112466168D01*
X77529451Y-112285914D01*
X77640247Y-112124101D01*
X77780364Y-111986887D01*
X77944461Y-111879505D01*
X78126292Y-111806041D01*
X78318925Y-111769294D01*
X78515034Y-111770664D01*
X78515034Y-111770664D01*
G37*
G36*
X96295034Y-111770664D02*
X96487141Y-111810098D01*
X96667925Y-111886093D01*
X96830509Y-111995756D01*
X96968697Y-112134913D01*
X97077223Y-112298256D01*
X97151954Y-112479567D01*
X97189978Y-112671601D01*
X97189978Y-112671616D01*
X97190043Y-112671945D01*
X97186916Y-112895940D01*
X97186839Y-112896278D01*
X97186839Y-112896286D01*
X97143471Y-113087175D01*
X97063705Y-113266333D01*
X96950661Y-113426583D01*
X96808639Y-113561828D01*
X96643061Y-113666906D01*
X96460221Y-113737827D01*
X96267093Y-113771879D01*
X96071025Y-113767773D01*
X95879485Y-113725660D01*
X95699779Y-113647147D01*
X95538742Y-113535225D01*
X95402511Y-113394153D01*
X95296279Y-113229313D01*
X95224085Y-113046974D01*
X95188682Y-112854080D01*
X95191421Y-112657990D01*
X95232194Y-112466168D01*
X95309451Y-112285914D01*
X95420247Y-112124101D01*
X95560364Y-111986887D01*
X95724461Y-111879505D01*
X95906292Y-111806041D01*
X96098925Y-111769294D01*
X96295034Y-111770664D01*
X96295034Y-111770664D01*
G37*
G36*
X81055034Y-111770664D02*
X81247141Y-111810098D01*
X81427925Y-111886093D01*
X81590509Y-111995756D01*
X81728697Y-112134913D01*
X81837223Y-112298256D01*
X81911954Y-112479567D01*
X81949978Y-112671601D01*
X81949978Y-112671616D01*
X81950043Y-112671945D01*
X81946916Y-112895940D01*
X81946839Y-112896278D01*
X81946839Y-112896286D01*
X81903471Y-113087175D01*
X81823705Y-113266333D01*
X81710661Y-113426583D01*
X81568639Y-113561828D01*
X81403061Y-113666906D01*
X81220221Y-113737827D01*
X81027093Y-113771879D01*
X80831025Y-113767773D01*
X80639485Y-113725660D01*
X80459779Y-113647147D01*
X80298742Y-113535225D01*
X80162511Y-113394153D01*
X80056279Y-113229313D01*
X79984085Y-113046974D01*
X79948682Y-112854080D01*
X79951421Y-112657990D01*
X79992194Y-112466168D01*
X80069451Y-112285914D01*
X80180247Y-112124101D01*
X80320364Y-111986887D01*
X80484461Y-111879505D01*
X80666292Y-111806041D01*
X80858925Y-111769294D01*
X81055034Y-111770664D01*
X81055034Y-111770664D01*
G37*
G36*
X83595034Y-111770664D02*
X83787141Y-111810098D01*
X83967925Y-111886093D01*
X84130509Y-111995756D01*
X84268697Y-112134913D01*
X84377223Y-112298256D01*
X84451954Y-112479567D01*
X84489978Y-112671601D01*
X84489978Y-112671616D01*
X84490043Y-112671945D01*
X84486916Y-112895940D01*
X84486839Y-112896278D01*
X84486839Y-112896286D01*
X84443471Y-113087175D01*
X84363705Y-113266333D01*
X84250661Y-113426583D01*
X84108639Y-113561828D01*
X83943061Y-113666906D01*
X83760221Y-113737827D01*
X83567093Y-113771879D01*
X83371025Y-113767773D01*
X83179485Y-113725660D01*
X82999779Y-113647147D01*
X82838742Y-113535225D01*
X82702511Y-113394153D01*
X82596279Y-113229313D01*
X82524085Y-113046974D01*
X82488682Y-112854080D01*
X82491421Y-112657990D01*
X82532194Y-112466168D01*
X82609451Y-112285914D01*
X82720247Y-112124101D01*
X82860364Y-111986887D01*
X83024461Y-111879505D01*
X83206292Y-111806041D01*
X83398925Y-111769294D01*
X83595034Y-111770664D01*
X83595034Y-111770664D01*
G37*
G36*
X88675034Y-111770664D02*
X88867141Y-111810098D01*
X89047925Y-111886093D01*
X89210509Y-111995756D01*
X89348697Y-112134913D01*
X89457223Y-112298256D01*
X89531954Y-112479567D01*
X89569978Y-112671601D01*
X89569978Y-112671616D01*
X89570043Y-112671945D01*
X89566916Y-112895940D01*
X89566839Y-112896278D01*
X89566839Y-112896286D01*
X89523471Y-113087175D01*
X89443705Y-113266333D01*
X89330661Y-113426583D01*
X89188639Y-113561828D01*
X89023061Y-113666906D01*
X88840221Y-113737827D01*
X88647093Y-113771879D01*
X88451025Y-113767773D01*
X88259485Y-113725660D01*
X88079779Y-113647147D01*
X87918742Y-113535225D01*
X87782511Y-113394153D01*
X87676279Y-113229313D01*
X87604085Y-113046974D01*
X87568682Y-112854080D01*
X87571421Y-112657990D01*
X87612194Y-112466168D01*
X87689451Y-112285914D01*
X87800247Y-112124101D01*
X87940364Y-111986887D01*
X88104461Y-111879505D01*
X88286292Y-111806041D01*
X88478925Y-111769294D01*
X88675034Y-111770664D01*
X88675034Y-111770664D01*
G37*
G36*
X98835034Y-111770664D02*
X99027141Y-111810098D01*
X99207925Y-111886093D01*
X99370509Y-111995756D01*
X99508697Y-112134913D01*
X99617223Y-112298256D01*
X99691954Y-112479567D01*
X99729978Y-112671601D01*
X99729978Y-112671616D01*
X99730043Y-112671945D01*
X99726916Y-112895940D01*
X99726839Y-112896278D01*
X99726839Y-112896286D01*
X99683471Y-113087175D01*
X99603705Y-113266333D01*
X99490661Y-113426583D01*
X99348639Y-113561828D01*
X99183061Y-113666906D01*
X99000221Y-113737827D01*
X98807093Y-113771879D01*
X98611025Y-113767773D01*
X98419485Y-113725660D01*
X98239779Y-113647147D01*
X98078742Y-113535225D01*
X97942511Y-113394153D01*
X97836279Y-113229313D01*
X97764085Y-113046974D01*
X97728682Y-112854080D01*
X97731421Y-112657990D01*
X97772194Y-112466168D01*
X97849451Y-112285914D01*
X97960247Y-112124101D01*
X98100364Y-111986887D01*
X98264461Y-111879505D01*
X98446292Y-111806041D01*
X98638925Y-111769294D01*
X98835034Y-111770664D01*
X98835034Y-111770664D01*
G37*
G36*
X101375034Y-111770664D02*
X101567141Y-111810098D01*
X101747925Y-111886093D01*
X101910509Y-111995756D01*
X102048697Y-112134913D01*
X102157223Y-112298256D01*
X102231954Y-112479567D01*
X102269978Y-112671601D01*
X102269978Y-112671616D01*
X102270043Y-112671945D01*
X102266916Y-112895940D01*
X102266839Y-112896278D01*
X102266839Y-112896286D01*
X102223471Y-113087175D01*
X102143705Y-113266333D01*
X102030661Y-113426583D01*
X101888639Y-113561828D01*
X101723061Y-113666906D01*
X101540221Y-113737827D01*
X101347093Y-113771879D01*
X101151025Y-113767773D01*
X100959485Y-113725660D01*
X100779779Y-113647147D01*
X100618742Y-113535225D01*
X100482511Y-113394153D01*
X100376279Y-113229313D01*
X100304085Y-113046974D01*
X100268682Y-112854080D01*
X100271421Y-112657990D01*
X100312194Y-112466168D01*
X100389451Y-112285914D01*
X100500247Y-112124101D01*
X100640364Y-111986887D01*
X100804461Y-111879505D01*
X100986292Y-111806041D01*
X101178925Y-111769294D01*
X101375034Y-111770664D01*
X101375034Y-111770664D01*
G37*
G36*
X86135034Y-111770664D02*
X86327141Y-111810098D01*
X86507925Y-111886093D01*
X86670509Y-111995756D01*
X86808697Y-112134913D01*
X86917223Y-112298256D01*
X86991954Y-112479567D01*
X87029978Y-112671601D01*
X87029978Y-112671616D01*
X87030043Y-112671945D01*
X87026916Y-112895940D01*
X87026839Y-112896278D01*
X87026839Y-112896286D01*
X86983471Y-113087175D01*
X86903705Y-113266333D01*
X86790661Y-113426583D01*
X86648639Y-113561828D01*
X86483061Y-113666906D01*
X86300221Y-113737827D01*
X86107093Y-113771879D01*
X85911025Y-113767773D01*
X85719485Y-113725660D01*
X85539779Y-113647147D01*
X85378742Y-113535225D01*
X85242511Y-113394153D01*
X85136279Y-113229313D01*
X85064085Y-113046974D01*
X85028682Y-112854080D01*
X85031421Y-112657990D01*
X85072194Y-112466168D01*
X85149451Y-112285914D01*
X85260247Y-112124101D01*
X85400364Y-111986887D01*
X85564461Y-111879505D01*
X85746292Y-111806041D01*
X85938925Y-111769294D01*
X86135034Y-111770664D01*
X86135034Y-111770664D01*
G37*
G36*
X93734027Y-111970531D02*
X93887713Y-112002078D01*
X94032340Y-112062874D01*
X94162407Y-112150605D01*
X94272958Y-112261931D01*
X94359779Y-112392605D01*
X94419563Y-112537653D01*
X94449969Y-112691212D01*
X94449969Y-112691227D01*
X94450034Y-112691556D01*
X94447532Y-112870752D01*
X94447456Y-112871086D01*
X94447456Y-112871097D01*
X94412776Y-113023741D01*
X94348964Y-113167066D01*
X94258529Y-113295266D01*
X94144910Y-113403463D01*
X94012449Y-113487526D01*
X93866177Y-113544262D01*
X93711675Y-113571504D01*
X93554821Y-113568219D01*
X93401588Y-113534528D01*
X93257825Y-113471720D01*
X93128991Y-113382178D01*
X93020008Y-113269322D01*
X92935023Y-113137451D01*
X92877268Y-112991579D01*
X92848946Y-112837263D01*
X92851137Y-112680391D01*
X92883754Y-112526936D01*
X92945561Y-112382731D01*
X93034197Y-112253281D01*
X93146292Y-112143509D01*
X93277567Y-112057605D01*
X93423035Y-111998832D01*
X93577140Y-111969435D01*
X93734027Y-111970531D01*
X93734027Y-111970531D01*
G37*
G36*
X91194027Y-111970531D02*
X91347713Y-112002078D01*
X91492340Y-112062874D01*
X91622407Y-112150605D01*
X91732958Y-112261931D01*
X91819779Y-112392605D01*
X91879563Y-112537653D01*
X91909969Y-112691212D01*
X91909969Y-112691227D01*
X91910034Y-112691556D01*
X91907532Y-112870752D01*
X91907456Y-112871086D01*
X91907456Y-112871097D01*
X91872776Y-113023741D01*
X91808964Y-113167066D01*
X91718529Y-113295266D01*
X91604910Y-113403463D01*
X91472449Y-113487526D01*
X91326177Y-113544262D01*
X91171675Y-113571504D01*
X91014821Y-113568219D01*
X90861588Y-113534528D01*
X90717825Y-113471720D01*
X90588991Y-113382178D01*
X90480008Y-113269322D01*
X90395023Y-113137451D01*
X90337268Y-112991579D01*
X90308946Y-112837263D01*
X90311137Y-112680391D01*
X90343754Y-112526936D01*
X90405561Y-112382731D01*
X90494197Y-112253281D01*
X90606292Y-112143509D01*
X90737567Y-112057605D01*
X90883035Y-111998832D01*
X91037140Y-111969435D01*
X91194027Y-111970531D01*
X91194027Y-111970531D01*
G37*
G36*
X125312189Y-111900039D02*
X125312196Y-111900040D01*
X125314211Y-111900054D01*
X125420883Y-111912019D01*
X125523200Y-111944476D01*
X125617264Y-111996188D01*
X125699492Y-112065185D01*
X125766752Y-112148840D01*
X125816483Y-112243966D01*
X125846790Y-112346940D01*
X125846793Y-112346974D01*
X125846797Y-112346987D01*
X125856521Y-112453838D01*
X125845306Y-112560544D01*
X125845302Y-112560558D01*
X125845298Y-112560593D01*
X125813557Y-112663134D01*
X125762503Y-112757556D01*
X125694081Y-112840264D01*
X125610897Y-112908107D01*
X125516121Y-112958500D01*
X125413361Y-112989525D01*
X125306532Y-113000000D01*
X123693428Y-113000000D01*
X123687811Y-112999961D01*
X123687804Y-112999960D01*
X123685789Y-112999946D01*
X123579117Y-112987981D01*
X123476800Y-112955524D01*
X123382736Y-112903812D01*
X123300508Y-112834815D01*
X123233248Y-112751160D01*
X123183517Y-112656034D01*
X123153210Y-112553060D01*
X123153207Y-112553026D01*
X123153203Y-112553013D01*
X123143479Y-112446162D01*
X123154694Y-112339456D01*
X123154698Y-112339442D01*
X123154702Y-112339407D01*
X123186443Y-112236866D01*
X123237497Y-112142444D01*
X123305919Y-112059736D01*
X123389103Y-111991893D01*
X123483879Y-111941500D01*
X123586639Y-111910475D01*
X123693468Y-111900000D01*
X125306572Y-111900000D01*
X125312189Y-111900039D01*
X125312189Y-111900039D01*
G37*
G36*
X107312189Y-111900039D02*
X107312196Y-111900040D01*
X107314211Y-111900054D01*
X107420883Y-111912019D01*
X107523200Y-111944476D01*
X107617264Y-111996188D01*
X107699492Y-112065185D01*
X107766752Y-112148840D01*
X107816483Y-112243966D01*
X107846790Y-112346940D01*
X107846793Y-112346974D01*
X107846797Y-112346987D01*
X107856521Y-112453838D01*
X107845306Y-112560544D01*
X107845302Y-112560558D01*
X107845298Y-112560593D01*
X107813557Y-112663134D01*
X107762503Y-112757556D01*
X107694081Y-112840264D01*
X107610897Y-112908107D01*
X107516121Y-112958500D01*
X107413361Y-112989525D01*
X107306532Y-113000000D01*
X105693428Y-113000000D01*
X105687811Y-112999961D01*
X105687804Y-112999960D01*
X105685789Y-112999946D01*
X105579117Y-112987981D01*
X105476800Y-112955524D01*
X105382736Y-112903812D01*
X105300508Y-112834815D01*
X105233248Y-112751160D01*
X105183517Y-112656034D01*
X105153210Y-112553060D01*
X105153207Y-112553026D01*
X105153203Y-112553013D01*
X105143479Y-112446162D01*
X105154694Y-112339456D01*
X105154698Y-112339442D01*
X105154702Y-112339407D01*
X105186443Y-112236866D01*
X105237497Y-112142444D01*
X105305919Y-112059736D01*
X105389103Y-111991893D01*
X105483879Y-111941500D01*
X105586639Y-111910475D01*
X105693468Y-111900000D01*
X107306572Y-111900000D01*
X107312189Y-111900039D01*
X107312189Y-111900039D01*
G37*
G36*
X92464027Y-110700531D02*
X92617713Y-110732078D01*
X92762340Y-110792874D01*
X92892407Y-110880605D01*
X93002958Y-110991931D01*
X93089779Y-111122605D01*
X93149563Y-111267653D01*
X93179969Y-111421212D01*
X93179969Y-111421227D01*
X93180034Y-111421556D01*
X93177532Y-111600752D01*
X93177456Y-111601086D01*
X93177456Y-111601097D01*
X93142776Y-111753741D01*
X93078964Y-111897066D01*
X92988529Y-112025266D01*
X92874910Y-112133463D01*
X92742449Y-112217526D01*
X92596177Y-112274262D01*
X92441675Y-112301504D01*
X92284821Y-112298219D01*
X92131588Y-112264528D01*
X91987825Y-112201720D01*
X91858991Y-112112178D01*
X91750008Y-111999322D01*
X91665023Y-111867451D01*
X91607268Y-111721579D01*
X91578946Y-111567263D01*
X91581137Y-111410391D01*
X91613754Y-111256936D01*
X91675561Y-111112731D01*
X91764197Y-110983281D01*
X91876292Y-110873509D01*
X92007567Y-110787605D01*
X92153035Y-110728832D01*
X92307140Y-110699435D01*
X92464027Y-110700531D01*
X92464027Y-110700531D01*
G37*
G36*
X107312189Y-110630039D02*
X107312196Y-110630040D01*
X107314211Y-110630054D01*
X107420883Y-110642019D01*
X107523200Y-110674476D01*
X107617264Y-110726188D01*
X107699492Y-110795185D01*
X107766752Y-110878840D01*
X107816483Y-110973966D01*
X107846790Y-111076940D01*
X107846793Y-111076974D01*
X107846797Y-111076987D01*
X107856521Y-111183838D01*
X107845306Y-111290544D01*
X107845302Y-111290558D01*
X107845298Y-111290593D01*
X107813557Y-111393134D01*
X107762503Y-111487556D01*
X107694081Y-111570264D01*
X107610897Y-111638107D01*
X107516121Y-111688500D01*
X107413361Y-111719525D01*
X107306532Y-111730000D01*
X105693428Y-111730000D01*
X105687811Y-111729961D01*
X105687804Y-111729960D01*
X105685789Y-111729946D01*
X105579117Y-111717981D01*
X105476800Y-111685524D01*
X105382736Y-111633812D01*
X105300508Y-111564815D01*
X105233248Y-111481160D01*
X105183517Y-111386034D01*
X105153210Y-111283060D01*
X105153207Y-111283026D01*
X105153203Y-111283013D01*
X105143479Y-111176162D01*
X105154694Y-111069456D01*
X105154698Y-111069442D01*
X105154702Y-111069407D01*
X105186443Y-110966866D01*
X105237497Y-110872444D01*
X105305919Y-110789736D01*
X105389103Y-110721893D01*
X105483879Y-110671500D01*
X105586639Y-110640475D01*
X105693468Y-110630000D01*
X107306572Y-110630000D01*
X107312189Y-110630039D01*
X107312189Y-110630039D01*
G37*
G36*
X125312189Y-110630039D02*
X125312196Y-110630040D01*
X125314211Y-110630054D01*
X125420883Y-110642019D01*
X125523200Y-110674476D01*
X125617264Y-110726188D01*
X125699492Y-110795185D01*
X125766752Y-110878840D01*
X125816483Y-110973966D01*
X125846790Y-111076940D01*
X125846793Y-111076974D01*
X125846797Y-111076987D01*
X125856521Y-111183838D01*
X125845306Y-111290544D01*
X125845302Y-111290558D01*
X125845298Y-111290593D01*
X125813557Y-111393134D01*
X125762503Y-111487556D01*
X125694081Y-111570264D01*
X125610897Y-111638107D01*
X125516121Y-111688500D01*
X125413361Y-111719525D01*
X125306532Y-111730000D01*
X123693428Y-111730000D01*
X123687811Y-111729961D01*
X123687804Y-111729960D01*
X123685789Y-111729946D01*
X123579117Y-111717981D01*
X123476800Y-111685524D01*
X123382736Y-111633812D01*
X123300508Y-111564815D01*
X123233248Y-111481160D01*
X123183517Y-111386034D01*
X123153210Y-111283060D01*
X123153207Y-111283026D01*
X123153203Y-111283013D01*
X123143479Y-111176162D01*
X123154694Y-111069456D01*
X123154698Y-111069442D01*
X123154702Y-111069407D01*
X123186443Y-110966866D01*
X123237497Y-110872444D01*
X123305919Y-110789736D01*
X123389103Y-110721893D01*
X123483879Y-110671500D01*
X123586639Y-110640475D01*
X123693468Y-110630000D01*
X125306572Y-110630000D01*
X125312189Y-110630039D01*
X125312189Y-110630039D01*
G37*
G36*
X101375034Y-109230664D02*
X101567141Y-109270098D01*
X101747925Y-109346093D01*
X101910509Y-109455756D01*
X102048697Y-109594913D01*
X102157223Y-109758256D01*
X102231954Y-109939567D01*
X102269978Y-110131601D01*
X102269978Y-110131616D01*
X102270043Y-110131945D01*
X102266916Y-110355940D01*
X102266839Y-110356278D01*
X102266839Y-110356286D01*
X102223471Y-110547175D01*
X102143705Y-110726333D01*
X102030661Y-110886583D01*
X101888639Y-111021828D01*
X101723061Y-111126906D01*
X101540221Y-111197827D01*
X101347093Y-111231879D01*
X101151025Y-111227773D01*
X100959485Y-111185660D01*
X100779779Y-111107147D01*
X100618742Y-110995225D01*
X100482511Y-110854153D01*
X100376279Y-110689313D01*
X100304085Y-110506974D01*
X100268682Y-110314080D01*
X100271421Y-110117990D01*
X100312194Y-109926168D01*
X100389451Y-109745914D01*
X100500247Y-109584101D01*
X100640364Y-109446887D01*
X100804461Y-109339505D01*
X100986292Y-109266041D01*
X101178925Y-109229294D01*
X101375034Y-109230664D01*
X101375034Y-109230664D01*
G37*
G36*
X103915034Y-109230664D02*
X104107141Y-109270098D01*
X104287925Y-109346093D01*
X104450509Y-109455756D01*
X104588697Y-109594913D01*
X104697223Y-109758256D01*
X104771954Y-109939567D01*
X104809978Y-110131601D01*
X104809978Y-110131616D01*
X104810043Y-110131945D01*
X104806916Y-110355940D01*
X104806839Y-110356278D01*
X104806839Y-110356286D01*
X104763471Y-110547175D01*
X104683705Y-110726333D01*
X104570661Y-110886583D01*
X104428639Y-111021828D01*
X104263061Y-111126906D01*
X104080221Y-111197827D01*
X103887093Y-111231879D01*
X103691025Y-111227773D01*
X103499485Y-111185660D01*
X103319779Y-111107147D01*
X103158742Y-110995225D01*
X103022511Y-110854153D01*
X102916279Y-110689313D01*
X102844085Y-110506974D01*
X102808682Y-110314080D01*
X102811421Y-110117990D01*
X102852194Y-109926168D01*
X102929451Y-109745914D01*
X103040247Y-109584101D01*
X103180364Y-109446887D01*
X103344461Y-109339505D01*
X103526292Y-109266041D01*
X103718925Y-109229294D01*
X103915034Y-109230664D01*
X103915034Y-109230664D01*
G37*
G36*
X78515034Y-109230664D02*
X78707141Y-109270098D01*
X78887925Y-109346093D01*
X79050509Y-109455756D01*
X79188697Y-109594913D01*
X79297223Y-109758256D01*
X79371954Y-109939567D01*
X79409978Y-110131601D01*
X79409978Y-110131616D01*
X79410043Y-110131945D01*
X79406916Y-110355940D01*
X79406839Y-110356278D01*
X79406839Y-110356286D01*
X79363471Y-110547175D01*
X79283705Y-110726333D01*
X79170661Y-110886583D01*
X79028639Y-111021828D01*
X78863061Y-111126906D01*
X78680221Y-111197827D01*
X78487093Y-111231879D01*
X78291025Y-111227773D01*
X78099485Y-111185660D01*
X77919779Y-111107147D01*
X77758742Y-110995225D01*
X77622511Y-110854153D01*
X77516279Y-110689313D01*
X77444085Y-110506974D01*
X77408682Y-110314080D01*
X77411421Y-110117990D01*
X77452194Y-109926168D01*
X77529451Y-109745914D01*
X77640247Y-109584101D01*
X77780364Y-109446887D01*
X77944461Y-109339505D01*
X78126292Y-109266041D01*
X78318925Y-109229294D01*
X78515034Y-109230664D01*
X78515034Y-109230664D01*
G37*
G36*
X81055034Y-109230664D02*
X81247141Y-109270098D01*
X81427925Y-109346093D01*
X81590509Y-109455756D01*
X81728697Y-109594913D01*
X81837223Y-109758256D01*
X81911954Y-109939567D01*
X81949978Y-110131601D01*
X81949978Y-110131616D01*
X81950043Y-110131945D01*
X81946916Y-110355940D01*
X81946839Y-110356278D01*
X81946839Y-110356286D01*
X81903471Y-110547175D01*
X81823705Y-110726333D01*
X81710661Y-110886583D01*
X81568639Y-111021828D01*
X81403061Y-111126906D01*
X81220221Y-111197827D01*
X81027093Y-111231879D01*
X80831025Y-111227773D01*
X80639485Y-111185660D01*
X80459779Y-111107147D01*
X80298742Y-110995225D01*
X80162511Y-110854153D01*
X80056279Y-110689313D01*
X79984085Y-110506974D01*
X79948682Y-110314080D01*
X79951421Y-110117990D01*
X79992194Y-109926168D01*
X80069451Y-109745914D01*
X80180247Y-109584101D01*
X80320364Y-109446887D01*
X80484461Y-109339505D01*
X80666292Y-109266041D01*
X80858925Y-109229294D01*
X81055034Y-109230664D01*
X81055034Y-109230664D01*
G37*
G36*
X83595034Y-109230664D02*
X83787141Y-109270098D01*
X83967925Y-109346093D01*
X84130509Y-109455756D01*
X84268697Y-109594913D01*
X84377223Y-109758256D01*
X84451954Y-109939567D01*
X84489978Y-110131601D01*
X84489978Y-110131616D01*
X84490043Y-110131945D01*
X84486916Y-110355940D01*
X84486839Y-110356278D01*
X84486839Y-110356286D01*
X84443471Y-110547175D01*
X84363705Y-110726333D01*
X84250661Y-110886583D01*
X84108639Y-111021828D01*
X83943061Y-111126906D01*
X83760221Y-111197827D01*
X83567093Y-111231879D01*
X83371025Y-111227773D01*
X83179485Y-111185660D01*
X82999779Y-111107147D01*
X82838742Y-110995225D01*
X82702511Y-110854153D01*
X82596279Y-110689313D01*
X82524085Y-110506974D01*
X82488682Y-110314080D01*
X82491421Y-110117990D01*
X82532194Y-109926168D01*
X82609451Y-109745914D01*
X82720247Y-109584101D01*
X82860364Y-109446887D01*
X83024461Y-109339505D01*
X83206292Y-109266041D01*
X83398925Y-109229294D01*
X83595034Y-109230664D01*
X83595034Y-109230664D01*
G37*
G36*
X86135034Y-109230664D02*
X86327141Y-109270098D01*
X86507925Y-109346093D01*
X86670509Y-109455756D01*
X86808697Y-109594913D01*
X86917223Y-109758256D01*
X86991954Y-109939567D01*
X87029978Y-110131601D01*
X87029978Y-110131616D01*
X87030043Y-110131945D01*
X87026916Y-110355940D01*
X87026839Y-110356278D01*
X87026839Y-110356286D01*
X86983471Y-110547175D01*
X86903705Y-110726333D01*
X86790661Y-110886583D01*
X86648639Y-111021828D01*
X86483061Y-111126906D01*
X86300221Y-111197827D01*
X86107093Y-111231879D01*
X85911025Y-111227773D01*
X85719485Y-111185660D01*
X85539779Y-111107147D01*
X85378742Y-110995225D01*
X85242511Y-110854153D01*
X85136279Y-110689313D01*
X85064085Y-110506974D01*
X85028682Y-110314080D01*
X85031421Y-110117990D01*
X85072194Y-109926168D01*
X85149451Y-109745914D01*
X85260247Y-109584101D01*
X85400364Y-109446887D01*
X85564461Y-109339505D01*
X85746292Y-109266041D01*
X85938925Y-109229294D01*
X86135034Y-109230664D01*
X86135034Y-109230664D01*
G37*
G36*
X88675034Y-109230664D02*
X88867141Y-109270098D01*
X89047925Y-109346093D01*
X89210509Y-109455756D01*
X89348697Y-109594913D01*
X89457223Y-109758256D01*
X89531954Y-109939567D01*
X89569978Y-110131601D01*
X89569978Y-110131616D01*
X89570043Y-110131945D01*
X89566916Y-110355940D01*
X89566839Y-110356278D01*
X89566839Y-110356286D01*
X89523471Y-110547175D01*
X89443705Y-110726333D01*
X89330661Y-110886583D01*
X89188639Y-111021828D01*
X89023061Y-111126906D01*
X88840221Y-111197827D01*
X88647093Y-111231879D01*
X88451025Y-111227773D01*
X88259485Y-111185660D01*
X88079779Y-111107147D01*
X87918742Y-110995225D01*
X87782511Y-110854153D01*
X87676279Y-110689313D01*
X87604085Y-110506974D01*
X87568682Y-110314080D01*
X87571421Y-110117990D01*
X87612194Y-109926168D01*
X87689451Y-109745914D01*
X87800247Y-109584101D01*
X87940364Y-109446887D01*
X88104461Y-109339505D01*
X88286292Y-109266041D01*
X88478925Y-109229294D01*
X88675034Y-109230664D01*
X88675034Y-109230664D01*
G37*
G36*
X96295034Y-109230664D02*
X96487141Y-109270098D01*
X96667925Y-109346093D01*
X96830509Y-109455756D01*
X96968697Y-109594913D01*
X97077223Y-109758256D01*
X97151954Y-109939567D01*
X97189978Y-110131601D01*
X97189978Y-110131616D01*
X97190043Y-110131945D01*
X97186916Y-110355940D01*
X97186839Y-110356278D01*
X97186839Y-110356286D01*
X97143471Y-110547175D01*
X97063705Y-110726333D01*
X96950661Y-110886583D01*
X96808639Y-111021828D01*
X96643061Y-111126906D01*
X96460221Y-111197827D01*
X96267093Y-111231879D01*
X96071025Y-111227773D01*
X95879485Y-111185660D01*
X95699779Y-111107147D01*
X95538742Y-110995225D01*
X95402511Y-110854153D01*
X95296279Y-110689313D01*
X95224085Y-110506974D01*
X95188682Y-110314080D01*
X95191421Y-110117990D01*
X95232194Y-109926168D01*
X95309451Y-109745914D01*
X95420247Y-109584101D01*
X95560364Y-109446887D01*
X95724461Y-109339505D01*
X95906292Y-109266041D01*
X96098925Y-109229294D01*
X96295034Y-109230664D01*
X96295034Y-109230664D01*
G37*
G36*
X98835034Y-109230664D02*
X99027141Y-109270098D01*
X99207925Y-109346093D01*
X99370509Y-109455756D01*
X99508697Y-109594913D01*
X99617223Y-109758256D01*
X99691954Y-109939567D01*
X99729978Y-110131601D01*
X99729978Y-110131616D01*
X99730043Y-110131945D01*
X99726916Y-110355940D01*
X99726839Y-110356278D01*
X99726839Y-110356286D01*
X99683471Y-110547175D01*
X99603705Y-110726333D01*
X99490661Y-110886583D01*
X99348639Y-111021828D01*
X99183061Y-111126906D01*
X99000221Y-111197827D01*
X98807093Y-111231879D01*
X98611025Y-111227773D01*
X98419485Y-111185660D01*
X98239779Y-111107147D01*
X98078742Y-110995225D01*
X97942511Y-110854153D01*
X97836279Y-110689313D01*
X97764085Y-110506974D01*
X97728682Y-110314080D01*
X97731421Y-110117990D01*
X97772194Y-109926168D01*
X97849451Y-109745914D01*
X97960247Y-109584101D01*
X98100364Y-109446887D01*
X98264461Y-109339505D01*
X98446292Y-109266041D01*
X98638925Y-109229294D01*
X98835034Y-109230664D01*
X98835034Y-109230664D01*
G37*
G36*
X48225349Y-109213467D02*
X48404805Y-109269705D01*
X48569920Y-109359728D01*
X48569947Y-109359751D01*
X48569955Y-109359755D01*
X48714407Y-109480108D01*
X48832727Y-109626221D01*
X48832730Y-109626227D01*
X48832757Y-109626260D01*
X48920465Y-109792616D01*
X48974193Y-109972839D01*
X48991891Y-110160066D01*
X48972886Y-110347166D01*
X48917902Y-110527011D01*
X48829033Y-110692750D01*
X48709665Y-110838071D01*
X48703071Y-110844665D01*
X48693491Y-110854112D01*
X48546517Y-110971440D01*
X48379553Y-111057986D01*
X48198958Y-111110453D01*
X48011613Y-111126845D01*
X47824651Y-111106534D01*
X47645195Y-111050295D01*
X47480080Y-110960272D01*
X47480053Y-110960249D01*
X47480045Y-110960245D01*
X47335593Y-110839892D01*
X47217273Y-110693779D01*
X47217270Y-110693773D01*
X47217243Y-110693740D01*
X47129534Y-110527384D01*
X47075807Y-110347161D01*
X47058109Y-110159934D01*
X47077114Y-109972834D01*
X47132098Y-109792989D01*
X47220967Y-109627251D01*
X47340335Y-109481929D01*
X47346929Y-109475335D01*
X47356509Y-109465888D01*
X47503483Y-109348560D01*
X47670446Y-109262014D01*
X47851041Y-109209547D01*
X48038387Y-109193156D01*
X48225349Y-109213467D01*
X48225349Y-109213467D01*
G37*
G36*
X50765349Y-109213467D02*
X50944805Y-109269705D01*
X51109920Y-109359728D01*
X51109947Y-109359751D01*
X51109955Y-109359755D01*
X51254407Y-109480108D01*
X51372727Y-109626221D01*
X51372730Y-109626227D01*
X51372757Y-109626260D01*
X51460465Y-109792616D01*
X51514193Y-109972839D01*
X51531891Y-110160066D01*
X51512886Y-110347166D01*
X51457902Y-110527011D01*
X51369033Y-110692750D01*
X51249665Y-110838071D01*
X51243071Y-110844665D01*
X51233491Y-110854112D01*
X51086517Y-110971440D01*
X50919553Y-111057986D01*
X50738958Y-111110453D01*
X50551613Y-111126845D01*
X50364651Y-111106534D01*
X50185195Y-111050295D01*
X50020080Y-110960272D01*
X50020053Y-110960249D01*
X50020045Y-110960245D01*
X49875593Y-110839892D01*
X49757273Y-110693779D01*
X49757270Y-110693773D01*
X49757243Y-110693740D01*
X49669534Y-110527384D01*
X49615807Y-110347161D01*
X49598109Y-110159934D01*
X49617114Y-109972834D01*
X49672098Y-109792989D01*
X49760967Y-109627251D01*
X49880335Y-109481929D01*
X49886929Y-109475335D01*
X49896509Y-109465888D01*
X50043483Y-109348560D01*
X50210446Y-109262014D01*
X50391041Y-109209547D01*
X50578387Y-109193156D01*
X50765349Y-109213467D01*
X50765349Y-109213467D01*
G37*
G36*
X54068600Y-111123600D02*
X52141400Y-111123600D01*
X52141400Y-109196400D01*
X54068600Y-109196400D01*
X54068600Y-111123600D01*
X54068600Y-111123600D01*
G37*
G36*
X91194027Y-109430531D02*
X91347713Y-109462078D01*
X91492340Y-109522874D01*
X91622407Y-109610605D01*
X91732958Y-109721931D01*
X91819779Y-109852605D01*
X91879563Y-109997653D01*
X91909969Y-110151212D01*
X91909969Y-110151227D01*
X91910034Y-110151556D01*
X91907532Y-110330752D01*
X91907456Y-110331086D01*
X91907456Y-110331097D01*
X91872776Y-110483741D01*
X91808964Y-110627066D01*
X91718529Y-110755266D01*
X91604910Y-110863463D01*
X91472449Y-110947526D01*
X91326177Y-111004262D01*
X91171675Y-111031504D01*
X91014821Y-111028219D01*
X90861588Y-110994528D01*
X90717825Y-110931720D01*
X90588991Y-110842178D01*
X90480008Y-110729322D01*
X90395023Y-110597451D01*
X90337268Y-110451579D01*
X90308946Y-110297263D01*
X90311137Y-110140391D01*
X90343754Y-109986936D01*
X90405561Y-109842731D01*
X90494197Y-109713281D01*
X90606292Y-109603509D01*
X90737567Y-109517605D01*
X90883035Y-109458832D01*
X91037140Y-109429435D01*
X91194027Y-109430531D01*
X91194027Y-109430531D01*
G37*
G36*
X93734027Y-109430531D02*
X93887713Y-109462078D01*
X94032340Y-109522874D01*
X94162407Y-109610605D01*
X94272958Y-109721931D01*
X94359779Y-109852605D01*
X94419563Y-109997653D01*
X94449969Y-110151212D01*
X94449969Y-110151227D01*
X94450034Y-110151556D01*
X94447532Y-110330752D01*
X94447456Y-110331086D01*
X94447456Y-110331097D01*
X94412776Y-110483741D01*
X94348964Y-110627066D01*
X94258529Y-110755266D01*
X94144910Y-110863463D01*
X94012449Y-110947526D01*
X93866177Y-111004262D01*
X93711675Y-111031504D01*
X93554821Y-111028219D01*
X93401588Y-110994528D01*
X93257825Y-110931720D01*
X93128991Y-110842178D01*
X93020008Y-110729322D01*
X92935023Y-110597451D01*
X92877268Y-110451579D01*
X92848946Y-110297263D01*
X92851137Y-110140391D01*
X92883754Y-109986936D01*
X92945561Y-109842731D01*
X93034197Y-109713281D01*
X93146292Y-109603509D01*
X93277567Y-109517605D01*
X93423035Y-109458832D01*
X93577140Y-109429435D01*
X93734027Y-109430531D01*
X93734027Y-109430531D01*
G37*
G36*
X125312189Y-109360039D02*
X125312196Y-109360040D01*
X125314211Y-109360054D01*
X125420883Y-109372019D01*
X125523200Y-109404476D01*
X125617264Y-109456188D01*
X125699492Y-109525185D01*
X125766752Y-109608840D01*
X125816483Y-109703966D01*
X125846790Y-109806940D01*
X125846793Y-109806974D01*
X125846797Y-109806987D01*
X125856521Y-109913838D01*
X125845306Y-110020544D01*
X125845302Y-110020558D01*
X125845298Y-110020593D01*
X125813557Y-110123134D01*
X125762503Y-110217556D01*
X125694081Y-110300264D01*
X125610897Y-110368107D01*
X125516121Y-110418500D01*
X125413361Y-110449525D01*
X125306532Y-110460000D01*
X123693428Y-110460000D01*
X123687811Y-110459961D01*
X123687804Y-110459960D01*
X123685789Y-110459946D01*
X123579117Y-110447981D01*
X123476800Y-110415524D01*
X123382736Y-110363812D01*
X123300508Y-110294815D01*
X123233248Y-110211160D01*
X123183517Y-110116034D01*
X123153210Y-110013060D01*
X123153207Y-110013026D01*
X123153203Y-110013013D01*
X123143479Y-109906162D01*
X123154694Y-109799456D01*
X123154698Y-109799442D01*
X123154702Y-109799407D01*
X123186443Y-109696866D01*
X123237497Y-109602444D01*
X123305919Y-109519736D01*
X123389103Y-109451893D01*
X123483879Y-109401500D01*
X123586639Y-109370475D01*
X123693468Y-109360000D01*
X125306572Y-109360000D01*
X125312189Y-109360039D01*
X125312189Y-109360039D01*
G37*
G36*
X107312189Y-109360039D02*
X107312196Y-109360040D01*
X107314211Y-109360054D01*
X107420883Y-109372019D01*
X107523200Y-109404476D01*
X107617264Y-109456188D01*
X107699492Y-109525185D01*
X107766752Y-109608840D01*
X107816483Y-109703966D01*
X107846790Y-109806940D01*
X107846793Y-109806974D01*
X107846797Y-109806987D01*
X107856521Y-109913838D01*
X107845306Y-110020544D01*
X107845302Y-110020558D01*
X107845298Y-110020593D01*
X107813557Y-110123134D01*
X107762503Y-110217556D01*
X107694081Y-110300264D01*
X107610897Y-110368107D01*
X107516121Y-110418500D01*
X107413361Y-110449525D01*
X107306532Y-110460000D01*
X105693428Y-110460000D01*
X105687811Y-110459961D01*
X105687804Y-110459960D01*
X105685789Y-110459946D01*
X105579117Y-110447981D01*
X105476800Y-110415524D01*
X105382736Y-110363812D01*
X105300508Y-110294815D01*
X105233248Y-110211160D01*
X105183517Y-110116034D01*
X105153210Y-110013060D01*
X105153207Y-110013026D01*
X105153203Y-110013013D01*
X105143479Y-109906162D01*
X105154694Y-109799456D01*
X105154698Y-109799442D01*
X105154702Y-109799407D01*
X105186443Y-109696866D01*
X105237497Y-109602444D01*
X105305919Y-109519736D01*
X105389103Y-109451893D01*
X105483879Y-109401500D01*
X105586639Y-109370475D01*
X105693468Y-109360000D01*
X107306572Y-109360000D01*
X107312189Y-109360039D01*
X107312189Y-109360039D01*
G37*
G36*
X125312189Y-108090039D02*
X125312196Y-108090040D01*
X125314211Y-108090054D01*
X125420883Y-108102019D01*
X125523200Y-108134476D01*
X125617264Y-108186188D01*
X125699492Y-108255185D01*
X125766752Y-108338840D01*
X125816483Y-108433966D01*
X125846790Y-108536940D01*
X125846793Y-108536974D01*
X125846797Y-108536987D01*
X125856521Y-108643838D01*
X125845306Y-108750544D01*
X125845302Y-108750558D01*
X125845298Y-108750593D01*
X125813557Y-108853134D01*
X125762503Y-108947556D01*
X125694081Y-109030264D01*
X125610897Y-109098107D01*
X125516121Y-109148500D01*
X125413361Y-109179525D01*
X125306532Y-109190000D01*
X123693428Y-109190000D01*
X123687811Y-109189961D01*
X123687804Y-109189960D01*
X123685789Y-109189946D01*
X123579117Y-109177981D01*
X123476800Y-109145524D01*
X123382736Y-109093812D01*
X123300508Y-109024815D01*
X123233248Y-108941160D01*
X123183517Y-108846034D01*
X123153210Y-108743060D01*
X123153207Y-108743026D01*
X123153203Y-108743013D01*
X123143479Y-108636162D01*
X123154694Y-108529456D01*
X123154698Y-108529442D01*
X123154702Y-108529407D01*
X123186443Y-108426866D01*
X123237497Y-108332444D01*
X123305919Y-108249736D01*
X123389103Y-108181893D01*
X123483879Y-108131500D01*
X123586639Y-108100475D01*
X123693468Y-108090000D01*
X125306572Y-108090000D01*
X125312189Y-108090039D01*
X125312189Y-108090039D01*
G37*
G36*
X107312189Y-108090039D02*
X107312196Y-108090040D01*
X107314211Y-108090054D01*
X107420883Y-108102019D01*
X107523200Y-108134476D01*
X107617264Y-108186188D01*
X107699492Y-108255185D01*
X107766752Y-108338840D01*
X107816483Y-108433966D01*
X107846790Y-108536940D01*
X107846793Y-108536974D01*
X107846797Y-108536987D01*
X107856521Y-108643838D01*
X107845306Y-108750544D01*
X107845302Y-108750558D01*
X107845298Y-108750593D01*
X107813557Y-108853134D01*
X107762503Y-108947556D01*
X107694081Y-109030264D01*
X107610897Y-109098107D01*
X107516121Y-109148500D01*
X107413361Y-109179525D01*
X107306532Y-109190000D01*
X105693428Y-109190000D01*
X105687811Y-109189961D01*
X105687804Y-109189960D01*
X105685789Y-109189946D01*
X105579117Y-109177981D01*
X105476800Y-109145524D01*
X105382736Y-109093812D01*
X105300508Y-109024815D01*
X105233248Y-108941160D01*
X105183517Y-108846034D01*
X105153210Y-108743060D01*
X105153207Y-108743026D01*
X105153203Y-108743013D01*
X105143479Y-108636162D01*
X105154694Y-108529456D01*
X105154698Y-108529442D01*
X105154702Y-108529407D01*
X105186443Y-108426866D01*
X105237497Y-108332444D01*
X105305919Y-108249736D01*
X105389103Y-108181893D01*
X105483879Y-108131500D01*
X105586639Y-108100475D01*
X105693468Y-108090000D01*
X107306572Y-108090000D01*
X107312189Y-108090039D01*
X107312189Y-108090039D01*
G37*
G36*
X78500597Y-106656925D02*
X78500610Y-106656929D01*
X78500647Y-106656933D01*
X78612509Y-106691560D01*
X78715516Y-106747255D01*
X78805742Y-106821897D01*
X78879753Y-106912643D01*
X78934728Y-107016036D01*
X78968573Y-107128137D01*
X78980000Y-107244678D01*
X78980000Y-108255322D01*
X78979942Y-108263699D01*
X78966889Y-108380069D01*
X78931481Y-108491687D01*
X78875068Y-108594302D01*
X78799798Y-108684006D01*
X78708538Y-108757381D01*
X78604764Y-108811632D01*
X78492429Y-108844694D01*
X78492399Y-108844697D01*
X78492381Y-108844702D01*
X78375813Y-108855310D01*
X78259403Y-108843075D01*
X78259390Y-108843071D01*
X78259353Y-108843067D01*
X78147491Y-108808440D01*
X78044484Y-108752745D01*
X77954258Y-108678103D01*
X77880247Y-108587357D01*
X77825272Y-108483964D01*
X77791427Y-108371863D01*
X77780000Y-108255322D01*
X77780000Y-107244678D01*
X77780058Y-107236301D01*
X77793111Y-107119931D01*
X77828519Y-107008313D01*
X77884932Y-106905698D01*
X77960202Y-106815994D01*
X78051462Y-106742619D01*
X78155236Y-106688368D01*
X78267571Y-106655306D01*
X78267601Y-106655303D01*
X78267619Y-106655298D01*
X78384187Y-106644690D01*
X78500597Y-106656925D01*
X78500597Y-106656925D01*
G37*
G36*
X80500597Y-106656925D02*
X80500610Y-106656929D01*
X80500647Y-106656933D01*
X80612509Y-106691560D01*
X80715516Y-106747255D01*
X80805742Y-106821897D01*
X80879753Y-106912643D01*
X80934728Y-107016036D01*
X80968573Y-107128137D01*
X80980000Y-107244678D01*
X80980000Y-108255322D01*
X80979942Y-108263699D01*
X80966889Y-108380069D01*
X80931481Y-108491687D01*
X80875068Y-108594302D01*
X80799798Y-108684006D01*
X80708538Y-108757381D01*
X80604764Y-108811632D01*
X80492429Y-108844694D01*
X80492399Y-108844697D01*
X80492381Y-108844702D01*
X80375813Y-108855310D01*
X80259403Y-108843075D01*
X80259390Y-108843071D01*
X80259353Y-108843067D01*
X80147491Y-108808440D01*
X80044484Y-108752745D01*
X79954258Y-108678103D01*
X79880247Y-108587357D01*
X79825272Y-108483964D01*
X79791427Y-108371863D01*
X79780000Y-108255322D01*
X79780000Y-107244678D01*
X79780058Y-107236301D01*
X79793111Y-107119931D01*
X79828519Y-107008313D01*
X79884932Y-106905698D01*
X79960202Y-106815994D01*
X80051462Y-106742619D01*
X80155236Y-106688368D01*
X80267571Y-106655306D01*
X80267601Y-106655303D01*
X80267619Y-106655298D01*
X80384187Y-106644690D01*
X80500597Y-106656925D01*
X80500597Y-106656925D01*
G37*
G36*
X82500597Y-106656925D02*
X82500610Y-106656929D01*
X82500647Y-106656933D01*
X82612509Y-106691560D01*
X82715516Y-106747255D01*
X82805742Y-106821897D01*
X82879753Y-106912643D01*
X82934728Y-107016036D01*
X82968573Y-107128137D01*
X82980000Y-107244678D01*
X82980000Y-108255322D01*
X82979942Y-108263699D01*
X82966889Y-108380069D01*
X82931481Y-108491687D01*
X82875068Y-108594302D01*
X82799798Y-108684006D01*
X82708538Y-108757381D01*
X82604764Y-108811632D01*
X82492429Y-108844694D01*
X82492399Y-108844697D01*
X82492381Y-108844702D01*
X82375813Y-108855310D01*
X82259403Y-108843075D01*
X82259390Y-108843071D01*
X82259353Y-108843067D01*
X82147491Y-108808440D01*
X82044484Y-108752745D01*
X81954258Y-108678103D01*
X81880247Y-108587357D01*
X81825272Y-108483964D01*
X81791427Y-108371863D01*
X81780000Y-108255322D01*
X81780000Y-107244678D01*
X81780058Y-107236301D01*
X81793111Y-107119931D01*
X81828519Y-107008313D01*
X81884932Y-106905698D01*
X81960202Y-106815994D01*
X82051462Y-106742619D01*
X82155236Y-106688368D01*
X82267571Y-106655306D01*
X82267601Y-106655303D01*
X82267619Y-106655298D01*
X82384187Y-106644690D01*
X82500597Y-106656925D01*
X82500597Y-106656925D01*
G37*
G36*
X92500597Y-106656925D02*
X92500610Y-106656929D01*
X92500647Y-106656933D01*
X92612509Y-106691560D01*
X92715516Y-106747255D01*
X92805742Y-106821897D01*
X92879753Y-106912643D01*
X92934728Y-107016036D01*
X92968573Y-107128137D01*
X92980000Y-107244678D01*
X92980000Y-108255322D01*
X92979942Y-108263699D01*
X92966889Y-108380069D01*
X92931481Y-108491687D01*
X92875068Y-108594302D01*
X92799798Y-108684006D01*
X92708538Y-108757381D01*
X92604764Y-108811632D01*
X92492429Y-108844694D01*
X92492399Y-108844697D01*
X92492381Y-108844702D01*
X92375813Y-108855310D01*
X92259403Y-108843075D01*
X92259390Y-108843071D01*
X92259353Y-108843067D01*
X92147491Y-108808440D01*
X92044484Y-108752745D01*
X91954258Y-108678103D01*
X91880247Y-108587357D01*
X91825272Y-108483964D01*
X91791427Y-108371863D01*
X91780000Y-108255322D01*
X91780000Y-107244678D01*
X91780058Y-107236301D01*
X91793111Y-107119931D01*
X91828519Y-107008313D01*
X91884932Y-106905698D01*
X91960202Y-106815994D01*
X92051462Y-106742619D01*
X92155236Y-106688368D01*
X92267571Y-106655306D01*
X92267601Y-106655303D01*
X92267619Y-106655298D01*
X92384187Y-106644690D01*
X92500597Y-106656925D01*
X92500597Y-106656925D01*
G37*
G36*
X90500597Y-106656925D02*
X90500610Y-106656929D01*
X90500647Y-106656933D01*
X90612509Y-106691560D01*
X90715516Y-106747255D01*
X90805742Y-106821897D01*
X90879753Y-106912643D01*
X90934728Y-107016036D01*
X90968573Y-107128137D01*
X90980000Y-107244678D01*
X90980000Y-108255322D01*
X90979942Y-108263699D01*
X90966889Y-108380069D01*
X90931481Y-108491687D01*
X90875068Y-108594302D01*
X90799798Y-108684006D01*
X90708538Y-108757381D01*
X90604764Y-108811632D01*
X90492429Y-108844694D01*
X90492399Y-108844697D01*
X90492381Y-108844702D01*
X90375813Y-108855310D01*
X90259403Y-108843075D01*
X90259390Y-108843071D01*
X90259353Y-108843067D01*
X90147491Y-108808440D01*
X90044484Y-108752745D01*
X89954258Y-108678103D01*
X89880247Y-108587357D01*
X89825272Y-108483964D01*
X89791427Y-108371863D01*
X89780000Y-108255322D01*
X89780000Y-107244678D01*
X89780058Y-107236301D01*
X89793111Y-107119931D01*
X89828519Y-107008313D01*
X89884932Y-106905698D01*
X89960202Y-106815994D01*
X90051462Y-106742619D01*
X90155236Y-106688368D01*
X90267571Y-106655306D01*
X90267601Y-106655303D01*
X90267619Y-106655298D01*
X90384187Y-106644690D01*
X90500597Y-106656925D01*
X90500597Y-106656925D01*
G37*
G36*
X88500597Y-106656925D02*
X88500610Y-106656929D01*
X88500647Y-106656933D01*
X88612509Y-106691560D01*
X88715516Y-106747255D01*
X88805742Y-106821897D01*
X88879753Y-106912643D01*
X88934728Y-107016036D01*
X88968573Y-107128137D01*
X88980000Y-107244678D01*
X88980000Y-108255322D01*
X88979942Y-108263699D01*
X88966889Y-108380069D01*
X88931481Y-108491687D01*
X88875068Y-108594302D01*
X88799798Y-108684006D01*
X88708538Y-108757381D01*
X88604764Y-108811632D01*
X88492429Y-108844694D01*
X88492399Y-108844697D01*
X88492381Y-108844702D01*
X88375813Y-108855310D01*
X88259403Y-108843075D01*
X88259390Y-108843071D01*
X88259353Y-108843067D01*
X88147491Y-108808440D01*
X88044484Y-108752745D01*
X87954258Y-108678103D01*
X87880247Y-108587357D01*
X87825272Y-108483964D01*
X87791427Y-108371863D01*
X87780000Y-108255322D01*
X87780000Y-107244678D01*
X87780058Y-107236301D01*
X87793111Y-107119931D01*
X87828519Y-107008313D01*
X87884932Y-106905698D01*
X87960202Y-106815994D01*
X88051462Y-106742619D01*
X88155236Y-106688368D01*
X88267571Y-106655306D01*
X88267601Y-106655303D01*
X88267619Y-106655298D01*
X88384187Y-106644690D01*
X88500597Y-106656925D01*
X88500597Y-106656925D01*
G37*
G36*
X86500597Y-106656925D02*
X86500610Y-106656929D01*
X86500647Y-106656933D01*
X86612509Y-106691560D01*
X86715516Y-106747255D01*
X86805742Y-106821897D01*
X86879753Y-106912643D01*
X86934728Y-107016036D01*
X86968573Y-107128137D01*
X86980000Y-107244678D01*
X86980000Y-108255322D01*
X86979942Y-108263699D01*
X86966889Y-108380069D01*
X86931481Y-108491687D01*
X86875068Y-108594302D01*
X86799798Y-108684006D01*
X86708538Y-108757381D01*
X86604764Y-108811632D01*
X86492429Y-108844694D01*
X86492399Y-108844697D01*
X86492381Y-108844702D01*
X86375813Y-108855310D01*
X86259403Y-108843075D01*
X86259390Y-108843071D01*
X86259353Y-108843067D01*
X86147491Y-108808440D01*
X86044484Y-108752745D01*
X85954258Y-108678103D01*
X85880247Y-108587357D01*
X85825272Y-108483964D01*
X85791427Y-108371863D01*
X85780000Y-108255322D01*
X85780000Y-107244678D01*
X85780058Y-107236301D01*
X85793111Y-107119931D01*
X85828519Y-107008313D01*
X85884932Y-106905698D01*
X85960202Y-106815994D01*
X86051462Y-106742619D01*
X86155236Y-106688368D01*
X86267571Y-106655306D01*
X86267601Y-106655303D01*
X86267619Y-106655298D01*
X86384187Y-106644690D01*
X86500597Y-106656925D01*
X86500597Y-106656925D01*
G37*
G36*
X84500597Y-106656925D02*
X84500610Y-106656929D01*
X84500647Y-106656933D01*
X84612509Y-106691560D01*
X84715516Y-106747255D01*
X84805742Y-106821897D01*
X84879753Y-106912643D01*
X84934728Y-107016036D01*
X84968573Y-107128137D01*
X84980000Y-107244678D01*
X84980000Y-108255322D01*
X84979942Y-108263699D01*
X84966889Y-108380069D01*
X84931481Y-108491687D01*
X84875068Y-108594302D01*
X84799798Y-108684006D01*
X84708538Y-108757381D01*
X84604764Y-108811632D01*
X84492429Y-108844694D01*
X84492399Y-108844697D01*
X84492381Y-108844702D01*
X84375813Y-108855310D01*
X84259403Y-108843075D01*
X84259390Y-108843071D01*
X84259353Y-108843067D01*
X84147491Y-108808440D01*
X84044484Y-108752745D01*
X83954258Y-108678103D01*
X83880247Y-108587357D01*
X83825272Y-108483964D01*
X83791427Y-108371863D01*
X83780000Y-108255322D01*
X83780000Y-107244678D01*
X83780058Y-107236301D01*
X83793111Y-107119931D01*
X83828519Y-107008313D01*
X83884932Y-106905698D01*
X83960202Y-106815994D01*
X84051462Y-106742619D01*
X84155236Y-106688368D01*
X84267571Y-106655306D01*
X84267601Y-106655303D01*
X84267619Y-106655298D01*
X84384187Y-106644690D01*
X84500597Y-106656925D01*
X84500597Y-106656925D01*
G37*
G36*
X48225349Y-106673467D02*
X48404805Y-106729705D01*
X48569920Y-106819728D01*
X48569947Y-106819751D01*
X48569955Y-106819755D01*
X48714407Y-106940108D01*
X48832727Y-107086221D01*
X48832730Y-107086227D01*
X48832757Y-107086260D01*
X48920465Y-107252616D01*
X48974193Y-107432839D01*
X48991891Y-107620066D01*
X48972886Y-107807166D01*
X48917902Y-107987011D01*
X48829033Y-108152750D01*
X48709665Y-108298071D01*
X48703071Y-108304665D01*
X48693491Y-108314112D01*
X48546517Y-108431440D01*
X48379553Y-108517986D01*
X48198958Y-108570453D01*
X48011613Y-108586845D01*
X47824651Y-108566534D01*
X47645195Y-108510295D01*
X47480080Y-108420272D01*
X47480053Y-108420249D01*
X47480045Y-108420245D01*
X47335593Y-108299892D01*
X47217273Y-108153779D01*
X47217270Y-108153773D01*
X47217243Y-108153740D01*
X47129534Y-107987384D01*
X47075807Y-107807161D01*
X47058109Y-107619934D01*
X47077114Y-107432834D01*
X47132098Y-107252989D01*
X47220967Y-107087251D01*
X47340335Y-106941929D01*
X47346929Y-106935335D01*
X47356509Y-106925888D01*
X47503483Y-106808560D01*
X47670446Y-106722014D01*
X47851041Y-106669547D01*
X48038387Y-106653156D01*
X48225349Y-106673467D01*
X48225349Y-106673467D01*
G37*
G36*
X50765349Y-106673467D02*
X50944805Y-106729705D01*
X51109920Y-106819728D01*
X51109947Y-106819751D01*
X51109955Y-106819755D01*
X51254407Y-106940108D01*
X51372727Y-107086221D01*
X51372730Y-107086227D01*
X51372757Y-107086260D01*
X51460465Y-107252616D01*
X51514193Y-107432839D01*
X51531891Y-107620066D01*
X51512886Y-107807166D01*
X51457902Y-107987011D01*
X51369033Y-108152750D01*
X51249665Y-108298071D01*
X51243071Y-108304665D01*
X51233491Y-108314112D01*
X51086517Y-108431440D01*
X50919553Y-108517986D01*
X50738958Y-108570453D01*
X50551613Y-108586845D01*
X50364651Y-108566534D01*
X50185195Y-108510295D01*
X50020080Y-108420272D01*
X50020053Y-108420249D01*
X50020045Y-108420245D01*
X49875593Y-108299892D01*
X49757273Y-108153779D01*
X49757270Y-108153773D01*
X49757243Y-108153740D01*
X49669534Y-107987384D01*
X49615807Y-107807161D01*
X49598109Y-107619934D01*
X49617114Y-107432834D01*
X49672098Y-107252989D01*
X49760967Y-107087251D01*
X49880335Y-106941929D01*
X49886929Y-106935335D01*
X49896509Y-106925888D01*
X50043483Y-106808560D01*
X50210446Y-106722014D01*
X50391041Y-106669547D01*
X50578387Y-106653156D01*
X50765349Y-106673467D01*
X50765349Y-106673467D01*
G37*
G36*
X53116920Y-106656451D02*
X53123116Y-106656494D01*
X53310006Y-106677457D01*
X53489264Y-106734321D01*
X53654064Y-106824921D01*
X53798128Y-106945804D01*
X53915968Y-107092368D01*
X54003096Y-107259029D01*
X54056194Y-107439439D01*
X54056198Y-107439478D01*
X54056200Y-107439486D01*
X54073241Y-107626725D01*
X54053588Y-107813710D01*
X54053585Y-107813719D01*
X54053581Y-107813759D01*
X53997969Y-107993410D01*
X53908523Y-108158838D01*
X53788648Y-108303742D01*
X53642910Y-108422603D01*
X53476861Y-108510893D01*
X53296826Y-108565248D01*
X53109662Y-108583600D01*
X53100303Y-108583600D01*
X53093080Y-108583549D01*
X53086884Y-108583506D01*
X52899994Y-108562543D01*
X52720736Y-108505679D01*
X52555936Y-108415079D01*
X52411872Y-108294196D01*
X52294032Y-108147632D01*
X52206904Y-107980971D01*
X52153806Y-107800561D01*
X52153802Y-107800522D01*
X52153800Y-107800514D01*
X52136759Y-107613275D01*
X52156412Y-107426290D01*
X52156415Y-107426281D01*
X52156419Y-107426241D01*
X52212031Y-107246590D01*
X52301477Y-107081162D01*
X52421352Y-106936258D01*
X52567090Y-106817397D01*
X52733139Y-106729107D01*
X52913174Y-106674752D01*
X53100338Y-106656400D01*
X53109697Y-106656400D01*
X53116920Y-106656451D01*
X53116920Y-106656451D01*
G37*
G36*
X61631511Y-107550198D02*
X61689143Y-107562027D01*
X61743377Y-107584825D01*
X61792153Y-107617725D01*
X61833613Y-107659476D01*
X61866168Y-107708475D01*
X61888588Y-107762868D01*
X61899948Y-107820239D01*
X61899948Y-107820254D01*
X61900013Y-107820583D01*
X61899075Y-107887782D01*
X61898999Y-107888116D01*
X61898999Y-107888127D01*
X61886043Y-107945153D01*
X61862112Y-107998902D01*
X61828203Y-108046973D01*
X61785590Y-108087552D01*
X61735921Y-108119073D01*
X61681067Y-108140349D01*
X61623129Y-108150565D01*
X61564309Y-108149334D01*
X61506845Y-108136699D01*
X61452936Y-108113147D01*
X61404619Y-108079566D01*
X61363751Y-108037246D01*
X61331883Y-107987797D01*
X61310224Y-107933093D01*
X61299603Y-107875222D01*
X61300425Y-107816397D01*
X61312656Y-107758851D01*
X61335834Y-107704773D01*
X61369073Y-107656229D01*
X61411109Y-107615065D01*
X61460336Y-107582851D01*
X61514889Y-107560810D01*
X61572675Y-107549786D01*
X61631511Y-107550198D01*
X61631511Y-107550198D01*
G37*
G36*
X107312189Y-106820039D02*
X107312196Y-106820040D01*
X107314211Y-106820054D01*
X107420883Y-106832019D01*
X107523200Y-106864476D01*
X107617264Y-106916188D01*
X107699492Y-106985185D01*
X107766752Y-107068840D01*
X107816483Y-107163966D01*
X107846790Y-107266940D01*
X107846793Y-107266974D01*
X107846797Y-107266987D01*
X107856521Y-107373838D01*
X107845306Y-107480544D01*
X107845302Y-107480558D01*
X107845298Y-107480593D01*
X107813557Y-107583134D01*
X107762503Y-107677556D01*
X107694081Y-107760264D01*
X107610897Y-107828107D01*
X107516121Y-107878500D01*
X107413361Y-107909525D01*
X107306532Y-107920000D01*
X105693428Y-107920000D01*
X105687811Y-107919961D01*
X105687804Y-107919960D01*
X105685789Y-107919946D01*
X105579117Y-107907981D01*
X105476800Y-107875524D01*
X105382736Y-107823812D01*
X105300508Y-107754815D01*
X105233248Y-107671160D01*
X105183517Y-107576034D01*
X105153210Y-107473060D01*
X105153207Y-107473026D01*
X105153203Y-107473013D01*
X105143479Y-107366162D01*
X105154694Y-107259456D01*
X105154698Y-107259442D01*
X105154702Y-107259407D01*
X105186443Y-107156866D01*
X105237497Y-107062444D01*
X105305919Y-106979736D01*
X105389103Y-106911893D01*
X105483879Y-106861500D01*
X105586639Y-106830475D01*
X105693468Y-106820000D01*
X107306572Y-106820000D01*
X107312189Y-106820039D01*
X107312189Y-106820039D01*
G37*
G36*
X125312189Y-106820039D02*
X125312196Y-106820040D01*
X125314211Y-106820054D01*
X125420883Y-106832019D01*
X125523200Y-106864476D01*
X125617264Y-106916188D01*
X125699492Y-106985185D01*
X125766752Y-107068840D01*
X125816483Y-107163966D01*
X125846790Y-107266940D01*
X125846793Y-107266974D01*
X125846797Y-107266987D01*
X125856521Y-107373838D01*
X125845306Y-107480544D01*
X125845302Y-107480558D01*
X125845298Y-107480593D01*
X125813557Y-107583134D01*
X125762503Y-107677556D01*
X125694081Y-107760264D01*
X125610897Y-107828107D01*
X125516121Y-107878500D01*
X125413361Y-107909525D01*
X125306532Y-107920000D01*
X123693428Y-107920000D01*
X123687811Y-107919961D01*
X123687804Y-107919960D01*
X123685789Y-107919946D01*
X123579117Y-107907981D01*
X123476800Y-107875524D01*
X123382736Y-107823812D01*
X123300508Y-107754815D01*
X123233248Y-107671160D01*
X123183517Y-107576034D01*
X123153210Y-107473060D01*
X123153207Y-107473026D01*
X123153203Y-107473013D01*
X123143479Y-107366162D01*
X123154694Y-107259456D01*
X123154698Y-107259442D01*
X123154702Y-107259407D01*
X123186443Y-107156866D01*
X123237497Y-107062444D01*
X123305919Y-106979736D01*
X123389103Y-106911893D01*
X123483879Y-106861500D01*
X123586639Y-106830475D01*
X123693468Y-106820000D01*
X125306572Y-106820000D01*
X125312189Y-106820039D01*
X125312189Y-106820039D01*
G37*
G36*
X118300000Y-107850000D02*
X112100000Y-107850000D01*
X112100000Y-101650000D01*
X118300000Y-101650000D01*
X118300000Y-107850000D01*
X118300000Y-107850000D01*
G37*
G36*
X61631511Y-106550198D02*
X61689143Y-106562027D01*
X61743377Y-106584825D01*
X61792153Y-106617725D01*
X61833613Y-106659476D01*
X61866168Y-106708475D01*
X61888588Y-106762868D01*
X61899948Y-106820239D01*
X61899948Y-106820254D01*
X61900013Y-106820583D01*
X61899075Y-106887782D01*
X61898999Y-106888116D01*
X61898999Y-106888127D01*
X61886043Y-106945153D01*
X61862112Y-106998902D01*
X61828203Y-107046973D01*
X61785590Y-107087552D01*
X61735921Y-107119073D01*
X61681067Y-107140349D01*
X61623129Y-107150565D01*
X61564309Y-107149334D01*
X61506845Y-107136699D01*
X61452936Y-107113147D01*
X61404619Y-107079566D01*
X61363751Y-107037246D01*
X61331883Y-106987797D01*
X61310224Y-106933093D01*
X61299603Y-106875222D01*
X61300425Y-106816397D01*
X61312656Y-106758851D01*
X61335834Y-106704773D01*
X61369073Y-106656229D01*
X61411109Y-106615065D01*
X61460336Y-106582851D01*
X61514889Y-106560810D01*
X61572675Y-106549786D01*
X61631511Y-106550198D01*
X61631511Y-106550198D01*
G37*
G36*
X125312189Y-105550039D02*
X125312196Y-105550040D01*
X125314211Y-105550054D01*
X125420883Y-105562019D01*
X125523200Y-105594476D01*
X125617264Y-105646188D01*
X125699492Y-105715185D01*
X125766752Y-105798840D01*
X125816483Y-105893966D01*
X125846790Y-105996940D01*
X125846793Y-105996974D01*
X125846797Y-105996987D01*
X125856521Y-106103838D01*
X125845306Y-106210544D01*
X125845302Y-106210558D01*
X125845298Y-106210593D01*
X125813557Y-106313134D01*
X125762503Y-106407556D01*
X125694081Y-106490264D01*
X125610897Y-106558107D01*
X125516121Y-106608500D01*
X125413361Y-106639525D01*
X125306532Y-106650000D01*
X123693428Y-106650000D01*
X123687811Y-106649961D01*
X123687804Y-106649960D01*
X123685789Y-106649946D01*
X123579117Y-106637981D01*
X123476800Y-106605524D01*
X123382736Y-106553812D01*
X123300508Y-106484815D01*
X123233248Y-106401160D01*
X123183517Y-106306034D01*
X123153210Y-106203060D01*
X123153207Y-106203026D01*
X123153203Y-106203013D01*
X123143479Y-106096162D01*
X123154694Y-105989456D01*
X123154698Y-105989442D01*
X123154702Y-105989407D01*
X123186443Y-105886866D01*
X123237497Y-105792444D01*
X123305919Y-105709736D01*
X123389103Y-105641893D01*
X123483879Y-105591500D01*
X123586639Y-105560475D01*
X123693468Y-105550000D01*
X125306572Y-105550000D01*
X125312189Y-105550039D01*
X125312189Y-105550039D01*
G37*
G36*
X107312189Y-105550039D02*
X107312196Y-105550040D01*
X107314211Y-105550054D01*
X107420883Y-105562019D01*
X107523200Y-105594476D01*
X107617264Y-105646188D01*
X107699492Y-105715185D01*
X107766752Y-105798840D01*
X107816483Y-105893966D01*
X107846790Y-105996940D01*
X107846793Y-105996974D01*
X107846797Y-105996987D01*
X107856521Y-106103838D01*
X107845306Y-106210544D01*
X107845302Y-106210558D01*
X107845298Y-106210593D01*
X107813557Y-106313134D01*
X107762503Y-106407556D01*
X107694081Y-106490264D01*
X107610897Y-106558107D01*
X107516121Y-106608500D01*
X107413361Y-106639525D01*
X107306532Y-106650000D01*
X105693428Y-106650000D01*
X105687811Y-106649961D01*
X105687804Y-106649960D01*
X105685789Y-106649946D01*
X105579117Y-106637981D01*
X105476800Y-106605524D01*
X105382736Y-106553812D01*
X105300508Y-106484815D01*
X105233248Y-106401160D01*
X105183517Y-106306034D01*
X105153210Y-106203060D01*
X105153207Y-106203026D01*
X105153203Y-106203013D01*
X105143479Y-106096162D01*
X105154694Y-105989456D01*
X105154698Y-105989442D01*
X105154702Y-105989407D01*
X105186443Y-105886866D01*
X105237497Y-105792444D01*
X105305919Y-105709736D01*
X105389103Y-105641893D01*
X105483879Y-105591500D01*
X105586639Y-105560475D01*
X105693468Y-105550000D01*
X107306572Y-105550000D01*
X107312189Y-105550039D01*
X107312189Y-105550039D01*
G37*
G36*
X61631511Y-105550198D02*
X61689143Y-105562027D01*
X61743377Y-105584825D01*
X61792153Y-105617725D01*
X61833613Y-105659476D01*
X61866168Y-105708475D01*
X61888588Y-105762868D01*
X61899948Y-105820239D01*
X61899948Y-105820254D01*
X61900013Y-105820583D01*
X61899075Y-105887782D01*
X61898999Y-105888116D01*
X61898999Y-105888127D01*
X61886043Y-105945153D01*
X61862112Y-105998902D01*
X61828203Y-106046973D01*
X61785590Y-106087552D01*
X61735921Y-106119073D01*
X61681067Y-106140349D01*
X61623129Y-106150565D01*
X61564309Y-106149334D01*
X61506845Y-106136699D01*
X61452936Y-106113147D01*
X61404619Y-106079566D01*
X61363751Y-106037246D01*
X61331883Y-105987797D01*
X61310224Y-105933093D01*
X61299603Y-105875222D01*
X61300425Y-105816397D01*
X61312656Y-105758851D01*
X61335834Y-105704773D01*
X61369073Y-105656229D01*
X61411109Y-105615065D01*
X61460336Y-105582851D01*
X61514889Y-105560810D01*
X61572675Y-105549786D01*
X61631511Y-105550198D01*
X61631511Y-105550198D01*
G37*
G36*
X50765349Y-104133467D02*
X50944805Y-104189705D01*
X51109920Y-104279728D01*
X51109947Y-104279751D01*
X51109955Y-104279755D01*
X51254407Y-104400108D01*
X51372727Y-104546221D01*
X51372730Y-104546227D01*
X51372757Y-104546260D01*
X51460465Y-104712616D01*
X51514193Y-104892839D01*
X51531891Y-105080066D01*
X51512886Y-105267166D01*
X51457902Y-105447011D01*
X51369033Y-105612750D01*
X51249665Y-105758071D01*
X51243071Y-105764665D01*
X51233491Y-105774112D01*
X51086517Y-105891440D01*
X50919553Y-105977986D01*
X50738958Y-106030453D01*
X50551613Y-106046845D01*
X50364651Y-106026534D01*
X50185195Y-105970295D01*
X50020080Y-105880272D01*
X50020053Y-105880249D01*
X50020045Y-105880245D01*
X49875593Y-105759892D01*
X49757273Y-105613779D01*
X49757270Y-105613773D01*
X49757243Y-105613740D01*
X49669534Y-105447384D01*
X49615807Y-105267161D01*
X49598109Y-105079934D01*
X49617114Y-104892834D01*
X49672098Y-104712989D01*
X49760967Y-104547251D01*
X49880335Y-104401929D01*
X49886929Y-104395335D01*
X49896509Y-104385888D01*
X50043483Y-104268560D01*
X50210446Y-104182014D01*
X50391041Y-104129547D01*
X50578387Y-104113156D01*
X50765349Y-104133467D01*
X50765349Y-104133467D01*
G37*
G36*
X48225349Y-104133467D02*
X48404805Y-104189705D01*
X48569920Y-104279728D01*
X48569947Y-104279751D01*
X48569955Y-104279755D01*
X48714407Y-104400108D01*
X48832727Y-104546221D01*
X48832730Y-104546227D01*
X48832757Y-104546260D01*
X48920465Y-104712616D01*
X48974193Y-104892839D01*
X48991891Y-105080066D01*
X48972886Y-105267166D01*
X48917902Y-105447011D01*
X48829033Y-105612750D01*
X48709665Y-105758071D01*
X48703071Y-105764665D01*
X48693491Y-105774112D01*
X48546517Y-105891440D01*
X48379553Y-105977986D01*
X48198958Y-106030453D01*
X48011613Y-106046845D01*
X47824651Y-106026534D01*
X47645195Y-105970295D01*
X47480080Y-105880272D01*
X47480053Y-105880249D01*
X47480045Y-105880245D01*
X47335593Y-105759892D01*
X47217273Y-105613779D01*
X47217270Y-105613773D01*
X47217243Y-105613740D01*
X47129534Y-105447384D01*
X47075807Y-105267161D01*
X47058109Y-105079934D01*
X47077114Y-104892834D01*
X47132098Y-104712989D01*
X47220967Y-104547251D01*
X47340335Y-104401929D01*
X47346929Y-104395335D01*
X47356509Y-104385888D01*
X47503483Y-104268560D01*
X47670446Y-104182014D01*
X47851041Y-104129547D01*
X48038387Y-104113156D01*
X48225349Y-104133467D01*
X48225349Y-104133467D01*
G37*
G36*
X53116920Y-104116451D02*
X53123116Y-104116494D01*
X53310006Y-104137457D01*
X53489264Y-104194321D01*
X53654064Y-104284921D01*
X53798128Y-104405804D01*
X53915968Y-104552368D01*
X54003096Y-104719029D01*
X54056194Y-104899439D01*
X54056198Y-104899478D01*
X54056200Y-104899486D01*
X54073241Y-105086725D01*
X54053588Y-105273710D01*
X54053585Y-105273719D01*
X54053581Y-105273759D01*
X53997969Y-105453410D01*
X53908523Y-105618838D01*
X53788648Y-105763742D01*
X53642910Y-105882603D01*
X53476861Y-105970893D01*
X53296826Y-106025248D01*
X53109662Y-106043600D01*
X53100303Y-106043600D01*
X53093080Y-106043549D01*
X53086884Y-106043506D01*
X52899994Y-106022543D01*
X52720736Y-105965679D01*
X52555936Y-105875079D01*
X52411872Y-105754196D01*
X52294032Y-105607632D01*
X52206904Y-105440971D01*
X52153806Y-105260561D01*
X52153802Y-105260522D01*
X52153800Y-105260514D01*
X52136759Y-105073275D01*
X52156412Y-104886290D01*
X52156415Y-104886281D01*
X52156419Y-104886241D01*
X52212031Y-104706590D01*
X52301477Y-104541162D01*
X52421352Y-104396258D01*
X52567090Y-104277397D01*
X52733139Y-104189107D01*
X52913174Y-104134752D01*
X53100338Y-104116400D01*
X53109697Y-104116400D01*
X53116920Y-104116451D01*
X53116920Y-104116451D01*
G37*
G36*
X107312189Y-104280039D02*
X107312196Y-104280040D01*
X107314211Y-104280054D01*
X107420883Y-104292019D01*
X107523200Y-104324476D01*
X107617264Y-104376188D01*
X107699492Y-104445185D01*
X107766752Y-104528840D01*
X107816483Y-104623966D01*
X107846790Y-104726940D01*
X107846793Y-104726974D01*
X107846797Y-104726987D01*
X107856521Y-104833838D01*
X107845306Y-104940544D01*
X107845302Y-104940558D01*
X107845298Y-104940593D01*
X107813557Y-105043134D01*
X107762503Y-105137556D01*
X107694081Y-105220264D01*
X107610897Y-105288107D01*
X107516121Y-105338500D01*
X107413361Y-105369525D01*
X107306532Y-105380000D01*
X105693428Y-105380000D01*
X105687811Y-105379961D01*
X105687804Y-105379960D01*
X105685789Y-105379946D01*
X105579117Y-105367981D01*
X105476800Y-105335524D01*
X105382736Y-105283812D01*
X105300508Y-105214815D01*
X105233248Y-105131160D01*
X105183517Y-105036034D01*
X105153210Y-104933060D01*
X105153207Y-104933026D01*
X105153203Y-104933013D01*
X105143479Y-104826162D01*
X105154694Y-104719456D01*
X105154698Y-104719442D01*
X105154702Y-104719407D01*
X105186443Y-104616866D01*
X105237497Y-104522444D01*
X105305919Y-104439736D01*
X105389103Y-104371893D01*
X105483879Y-104321500D01*
X105586639Y-104290475D01*
X105693468Y-104280000D01*
X107306572Y-104280000D01*
X107312189Y-104280039D01*
X107312189Y-104280039D01*
G37*
G36*
X125312189Y-104280039D02*
X125312196Y-104280040D01*
X125314211Y-104280054D01*
X125420883Y-104292019D01*
X125523200Y-104324476D01*
X125617264Y-104376188D01*
X125699492Y-104445185D01*
X125766752Y-104528840D01*
X125816483Y-104623966D01*
X125846790Y-104726940D01*
X125846793Y-104726974D01*
X125846797Y-104726987D01*
X125856521Y-104833838D01*
X125845306Y-104940544D01*
X125845302Y-104940558D01*
X125845298Y-104940593D01*
X125813557Y-105043134D01*
X125762503Y-105137556D01*
X125694081Y-105220264D01*
X125610897Y-105288107D01*
X125516121Y-105338500D01*
X125413361Y-105369525D01*
X125306532Y-105380000D01*
X123693428Y-105380000D01*
X123687811Y-105379961D01*
X123687804Y-105379960D01*
X123685789Y-105379946D01*
X123579117Y-105367981D01*
X123476800Y-105335524D01*
X123382736Y-105283812D01*
X123300508Y-105214815D01*
X123233248Y-105131160D01*
X123183517Y-105036034D01*
X123153210Y-104933060D01*
X123153207Y-104933026D01*
X123153203Y-104933013D01*
X123143479Y-104826162D01*
X123154694Y-104719456D01*
X123154698Y-104719442D01*
X123154702Y-104719407D01*
X123186443Y-104616866D01*
X123237497Y-104522444D01*
X123305919Y-104439736D01*
X123389103Y-104371893D01*
X123483879Y-104321500D01*
X123586639Y-104290475D01*
X123693468Y-104280000D01*
X125306572Y-104280000D01*
X125312189Y-104280039D01*
X125312189Y-104280039D01*
G37*
G36*
X61631511Y-104550198D02*
X61689143Y-104562027D01*
X61743377Y-104584825D01*
X61792153Y-104617725D01*
X61833613Y-104659476D01*
X61866168Y-104708475D01*
X61888588Y-104762868D01*
X61899948Y-104820239D01*
X61899948Y-104820254D01*
X61900013Y-104820583D01*
X61899075Y-104887782D01*
X61898999Y-104888116D01*
X61898999Y-104888127D01*
X61886043Y-104945153D01*
X61862112Y-104998902D01*
X61828203Y-105046973D01*
X61785590Y-105087552D01*
X61735921Y-105119073D01*
X61681067Y-105140349D01*
X61623129Y-105150565D01*
X61564309Y-105149334D01*
X61506845Y-105136699D01*
X61452936Y-105113147D01*
X61404619Y-105079566D01*
X61363751Y-105037246D01*
X61331883Y-104987797D01*
X61310224Y-104933093D01*
X61299603Y-104875222D01*
X61300425Y-104816397D01*
X61312656Y-104758851D01*
X61335834Y-104704773D01*
X61369073Y-104656229D01*
X61411109Y-104615065D01*
X61460336Y-104582851D01*
X61514889Y-104560810D01*
X61572675Y-104549786D01*
X61631511Y-104550198D01*
X61631511Y-104550198D01*
G37*
G36*
X61631511Y-103550198D02*
X61689143Y-103562027D01*
X61743377Y-103584825D01*
X61792153Y-103617725D01*
X61833613Y-103659476D01*
X61866168Y-103708475D01*
X61888588Y-103762868D01*
X61899948Y-103820239D01*
X61899948Y-103820254D01*
X61900013Y-103820583D01*
X61899075Y-103887782D01*
X61898999Y-103888116D01*
X61898999Y-103888127D01*
X61886043Y-103945153D01*
X61862112Y-103998902D01*
X61828203Y-104046973D01*
X61785590Y-104087552D01*
X61735921Y-104119073D01*
X61681067Y-104140349D01*
X61623129Y-104150565D01*
X61564309Y-104149334D01*
X61506845Y-104136699D01*
X61452936Y-104113147D01*
X61404619Y-104079566D01*
X61363751Y-104037246D01*
X61331883Y-103987797D01*
X61310224Y-103933093D01*
X61299603Y-103875222D01*
X61300425Y-103816397D01*
X61312656Y-103758851D01*
X61335834Y-103704773D01*
X61369073Y-103656229D01*
X61411109Y-103615065D01*
X61460336Y-103582851D01*
X61514889Y-103560810D01*
X61572675Y-103549786D01*
X61631511Y-103550198D01*
X61631511Y-103550198D01*
G37*
G36*
X107312189Y-103010039D02*
X107312196Y-103010040D01*
X107314211Y-103010054D01*
X107420883Y-103022019D01*
X107523200Y-103054476D01*
X107617264Y-103106188D01*
X107699492Y-103175185D01*
X107766752Y-103258840D01*
X107816483Y-103353966D01*
X107846790Y-103456940D01*
X107846793Y-103456974D01*
X107846797Y-103456987D01*
X107856521Y-103563838D01*
X107845306Y-103670544D01*
X107845302Y-103670558D01*
X107845298Y-103670593D01*
X107813557Y-103773134D01*
X107762503Y-103867556D01*
X107694081Y-103950264D01*
X107610897Y-104018107D01*
X107516121Y-104068500D01*
X107413361Y-104099525D01*
X107306532Y-104110000D01*
X105693428Y-104110000D01*
X105687811Y-104109961D01*
X105687804Y-104109960D01*
X105685789Y-104109946D01*
X105579117Y-104097981D01*
X105476800Y-104065524D01*
X105382736Y-104013812D01*
X105300508Y-103944815D01*
X105233248Y-103861160D01*
X105183517Y-103766034D01*
X105153210Y-103663060D01*
X105153207Y-103663026D01*
X105153203Y-103663013D01*
X105143479Y-103556162D01*
X105154694Y-103449456D01*
X105154698Y-103449442D01*
X105154702Y-103449407D01*
X105186443Y-103346866D01*
X105237497Y-103252444D01*
X105305919Y-103169736D01*
X105389103Y-103101893D01*
X105483879Y-103051500D01*
X105586639Y-103020475D01*
X105693468Y-103010000D01*
X107306572Y-103010000D01*
X107312189Y-103010039D01*
X107312189Y-103010039D01*
G37*
G36*
X125312189Y-103010039D02*
X125312196Y-103010040D01*
X125314211Y-103010054D01*
X125420883Y-103022019D01*
X125523200Y-103054476D01*
X125617264Y-103106188D01*
X125699492Y-103175185D01*
X125766752Y-103258840D01*
X125816483Y-103353966D01*
X125846790Y-103456940D01*
X125846793Y-103456974D01*
X125846797Y-103456987D01*
X125856521Y-103563838D01*
X125845306Y-103670544D01*
X125845302Y-103670558D01*
X125845298Y-103670593D01*
X125813557Y-103773134D01*
X125762503Y-103867556D01*
X125694081Y-103950264D01*
X125610897Y-104018107D01*
X125516121Y-104068500D01*
X125413361Y-104099525D01*
X125306532Y-104110000D01*
X123693428Y-104110000D01*
X123687811Y-104109961D01*
X123687804Y-104109960D01*
X123685789Y-104109946D01*
X123579117Y-104097981D01*
X123476800Y-104065524D01*
X123382736Y-104013812D01*
X123300508Y-103944815D01*
X123233248Y-103861160D01*
X123183517Y-103766034D01*
X123153210Y-103663060D01*
X123153207Y-103663026D01*
X123153203Y-103663013D01*
X123143479Y-103556162D01*
X123154694Y-103449456D01*
X123154698Y-103449442D01*
X123154702Y-103449407D01*
X123186443Y-103346866D01*
X123237497Y-103252444D01*
X123305919Y-103169736D01*
X123389103Y-103101893D01*
X123483879Y-103051500D01*
X123586639Y-103020475D01*
X123693468Y-103010000D01*
X125306572Y-103010000D01*
X125312189Y-103010039D01*
X125312189Y-103010039D01*
G37*
G36*
X50765349Y-101593467D02*
X50944805Y-101649705D01*
X51109920Y-101739728D01*
X51109947Y-101739751D01*
X51109955Y-101739755D01*
X51254407Y-101860108D01*
X51372727Y-102006221D01*
X51372730Y-102006227D01*
X51372757Y-102006260D01*
X51460465Y-102172616D01*
X51514193Y-102352839D01*
X51531891Y-102540066D01*
X51512886Y-102727166D01*
X51457902Y-102907011D01*
X51369033Y-103072750D01*
X51249665Y-103218071D01*
X51243071Y-103224665D01*
X51233491Y-103234112D01*
X51086517Y-103351440D01*
X50919553Y-103437986D01*
X50738958Y-103490453D01*
X50551613Y-103506845D01*
X50364651Y-103486534D01*
X50185195Y-103430295D01*
X50020080Y-103340272D01*
X50020053Y-103340249D01*
X50020045Y-103340245D01*
X49875593Y-103219892D01*
X49757273Y-103073779D01*
X49757270Y-103073773D01*
X49757243Y-103073740D01*
X49669534Y-102907384D01*
X49615807Y-102727161D01*
X49598109Y-102539934D01*
X49617114Y-102352834D01*
X49672098Y-102172989D01*
X49760967Y-102007251D01*
X49880335Y-101861929D01*
X49886929Y-101855335D01*
X49896509Y-101845888D01*
X50043483Y-101728560D01*
X50210446Y-101642014D01*
X50391041Y-101589547D01*
X50578387Y-101573156D01*
X50765349Y-101593467D01*
X50765349Y-101593467D01*
G37*
G36*
X48225349Y-101593467D02*
X48404805Y-101649705D01*
X48569920Y-101739728D01*
X48569947Y-101739751D01*
X48569955Y-101739755D01*
X48714407Y-101860108D01*
X48832727Y-102006221D01*
X48832730Y-102006227D01*
X48832757Y-102006260D01*
X48920465Y-102172616D01*
X48974193Y-102352839D01*
X48991891Y-102540066D01*
X48972886Y-102727166D01*
X48917902Y-102907011D01*
X48829033Y-103072750D01*
X48709665Y-103218071D01*
X48703071Y-103224665D01*
X48693491Y-103234112D01*
X48546517Y-103351440D01*
X48379553Y-103437986D01*
X48198958Y-103490453D01*
X48011613Y-103506845D01*
X47824651Y-103486534D01*
X47645195Y-103430295D01*
X47480080Y-103340272D01*
X47480053Y-103340249D01*
X47480045Y-103340245D01*
X47335593Y-103219892D01*
X47217273Y-103073779D01*
X47217270Y-103073773D01*
X47217243Y-103073740D01*
X47129534Y-102907384D01*
X47075807Y-102727161D01*
X47058109Y-102539934D01*
X47077114Y-102352834D01*
X47132098Y-102172989D01*
X47220967Y-102007251D01*
X47340335Y-101861929D01*
X47346929Y-101855335D01*
X47356509Y-101845888D01*
X47503483Y-101728560D01*
X47670446Y-101642014D01*
X47851041Y-101589547D01*
X48038387Y-101573156D01*
X48225349Y-101593467D01*
X48225349Y-101593467D01*
G37*
G36*
X53116920Y-101576451D02*
X53123116Y-101576494D01*
X53310006Y-101597457D01*
X53489264Y-101654321D01*
X53654064Y-101744921D01*
X53798128Y-101865804D01*
X53915968Y-102012368D01*
X54003096Y-102179029D01*
X54056194Y-102359439D01*
X54056198Y-102359478D01*
X54056200Y-102359486D01*
X54073241Y-102546725D01*
X54053588Y-102733710D01*
X54053585Y-102733719D01*
X54053581Y-102733759D01*
X53997969Y-102913410D01*
X53908523Y-103078838D01*
X53788648Y-103223742D01*
X53642910Y-103342603D01*
X53476861Y-103430893D01*
X53296826Y-103485248D01*
X53109662Y-103503600D01*
X53100303Y-103503600D01*
X53093080Y-103503549D01*
X53086884Y-103503506D01*
X52899994Y-103482543D01*
X52720736Y-103425679D01*
X52555936Y-103335079D01*
X52411872Y-103214196D01*
X52294032Y-103067632D01*
X52206904Y-102900971D01*
X52153806Y-102720561D01*
X52153802Y-102720522D01*
X52153800Y-102720514D01*
X52136759Y-102533275D01*
X52156412Y-102346290D01*
X52156415Y-102346281D01*
X52156419Y-102346241D01*
X52212031Y-102166590D01*
X52301477Y-102001162D01*
X52421352Y-101856258D01*
X52567090Y-101737397D01*
X52733139Y-101649107D01*
X52913174Y-101594752D01*
X53100338Y-101576400D01*
X53109697Y-101576400D01*
X53116920Y-101576451D01*
X53116920Y-101576451D01*
G37*
G36*
X125312189Y-101740039D02*
X125312196Y-101740040D01*
X125314211Y-101740054D01*
X125420883Y-101752019D01*
X125523200Y-101784476D01*
X125617264Y-101836188D01*
X125699492Y-101905185D01*
X125766752Y-101988840D01*
X125816483Y-102083966D01*
X125846790Y-102186940D01*
X125846793Y-102186974D01*
X125846797Y-102186987D01*
X125856521Y-102293838D01*
X125845306Y-102400544D01*
X125845302Y-102400558D01*
X125845298Y-102400593D01*
X125813557Y-102503134D01*
X125762503Y-102597556D01*
X125694081Y-102680264D01*
X125610897Y-102748107D01*
X125516121Y-102798500D01*
X125413361Y-102829525D01*
X125306532Y-102840000D01*
X123693428Y-102840000D01*
X123687811Y-102839961D01*
X123687804Y-102839960D01*
X123685789Y-102839946D01*
X123579117Y-102827981D01*
X123476800Y-102795524D01*
X123382736Y-102743812D01*
X123300508Y-102674815D01*
X123233248Y-102591160D01*
X123183517Y-102496034D01*
X123153210Y-102393060D01*
X123153207Y-102393026D01*
X123153203Y-102393013D01*
X123143479Y-102286162D01*
X123154694Y-102179456D01*
X123154698Y-102179442D01*
X123154702Y-102179407D01*
X123186443Y-102076866D01*
X123237497Y-101982444D01*
X123305919Y-101899736D01*
X123389103Y-101831893D01*
X123483879Y-101781500D01*
X123586639Y-101750475D01*
X123693468Y-101740000D01*
X125306572Y-101740000D01*
X125312189Y-101740039D01*
X125312189Y-101740039D01*
G37*
G36*
X107312189Y-101740039D02*
X107312196Y-101740040D01*
X107314211Y-101740054D01*
X107420883Y-101752019D01*
X107523200Y-101784476D01*
X107617264Y-101836188D01*
X107699492Y-101905185D01*
X107766752Y-101988840D01*
X107816483Y-102083966D01*
X107846790Y-102186940D01*
X107846793Y-102186974D01*
X107846797Y-102186987D01*
X107856521Y-102293838D01*
X107845306Y-102400544D01*
X107845302Y-102400558D01*
X107845298Y-102400593D01*
X107813557Y-102503134D01*
X107762503Y-102597556D01*
X107694081Y-102680264D01*
X107610897Y-102748107D01*
X107516121Y-102798500D01*
X107413361Y-102829525D01*
X107306532Y-102840000D01*
X105693428Y-102840000D01*
X105687811Y-102839961D01*
X105687804Y-102839960D01*
X105685789Y-102839946D01*
X105579117Y-102827981D01*
X105476800Y-102795524D01*
X105382736Y-102743812D01*
X105300508Y-102674815D01*
X105233248Y-102591160D01*
X105183517Y-102496034D01*
X105153210Y-102393060D01*
X105153207Y-102393026D01*
X105153203Y-102393013D01*
X105143479Y-102286162D01*
X105154694Y-102179456D01*
X105154698Y-102179442D01*
X105154702Y-102179407D01*
X105186443Y-102076866D01*
X105237497Y-101982444D01*
X105305919Y-101899736D01*
X105389103Y-101831893D01*
X105483879Y-101781500D01*
X105586639Y-101750475D01*
X105693468Y-101740000D01*
X107306572Y-101740000D01*
X107312189Y-101740039D01*
X107312189Y-101740039D01*
G37*
G36*
X125312189Y-100470039D02*
X125312196Y-100470040D01*
X125314211Y-100470054D01*
X125420883Y-100482019D01*
X125523200Y-100514476D01*
X125617264Y-100566188D01*
X125699492Y-100635185D01*
X125766752Y-100718840D01*
X125816483Y-100813966D01*
X125846790Y-100916940D01*
X125846793Y-100916974D01*
X125846797Y-100916987D01*
X125856521Y-101023838D01*
X125845306Y-101130544D01*
X125845302Y-101130558D01*
X125845298Y-101130593D01*
X125813557Y-101233134D01*
X125762503Y-101327556D01*
X125694081Y-101410264D01*
X125610897Y-101478107D01*
X125516121Y-101528500D01*
X125413361Y-101559525D01*
X125306532Y-101570000D01*
X123693428Y-101570000D01*
X123687811Y-101569961D01*
X123687804Y-101569960D01*
X123685789Y-101569946D01*
X123579117Y-101557981D01*
X123476800Y-101525524D01*
X123382736Y-101473812D01*
X123300508Y-101404815D01*
X123233248Y-101321160D01*
X123183517Y-101226034D01*
X123153210Y-101123060D01*
X123153207Y-101123026D01*
X123153203Y-101123013D01*
X123143479Y-101016162D01*
X123154694Y-100909456D01*
X123154698Y-100909442D01*
X123154702Y-100909407D01*
X123186443Y-100806866D01*
X123237497Y-100712444D01*
X123305919Y-100629736D01*
X123389103Y-100561893D01*
X123483879Y-100511500D01*
X123586639Y-100480475D01*
X123693468Y-100470000D01*
X125306572Y-100470000D01*
X125312189Y-100470039D01*
X125312189Y-100470039D01*
G37*
G36*
X107312189Y-100470039D02*
X107312196Y-100470040D01*
X107314211Y-100470054D01*
X107420883Y-100482019D01*
X107523200Y-100514476D01*
X107617264Y-100566188D01*
X107699492Y-100635185D01*
X107766752Y-100718840D01*
X107816483Y-100813966D01*
X107846790Y-100916940D01*
X107846793Y-100916974D01*
X107846797Y-100916987D01*
X107856521Y-101023838D01*
X107845306Y-101130544D01*
X107845302Y-101130558D01*
X107845298Y-101130593D01*
X107813557Y-101233134D01*
X107762503Y-101327556D01*
X107694081Y-101410264D01*
X107610897Y-101478107D01*
X107516121Y-101528500D01*
X107413361Y-101559525D01*
X107306532Y-101570000D01*
X105693428Y-101570000D01*
X105687811Y-101569961D01*
X105687804Y-101569960D01*
X105685789Y-101569946D01*
X105579117Y-101557981D01*
X105476800Y-101525524D01*
X105382736Y-101473812D01*
X105300508Y-101404815D01*
X105233248Y-101321160D01*
X105183517Y-101226034D01*
X105153210Y-101123060D01*
X105153207Y-101123026D01*
X105153203Y-101123013D01*
X105143479Y-101016162D01*
X105154694Y-100909456D01*
X105154698Y-100909442D01*
X105154702Y-100909407D01*
X105186443Y-100806866D01*
X105237497Y-100712444D01*
X105305919Y-100629736D01*
X105389103Y-100561893D01*
X105483879Y-100511500D01*
X105586639Y-100480475D01*
X105693468Y-100470000D01*
X107306572Y-100470000D01*
X107312189Y-100470039D01*
X107312189Y-100470039D01*
G37*
G36*
X48225349Y-99053467D02*
X48404805Y-99109705D01*
X48569920Y-99199728D01*
X48569947Y-99199751D01*
X48569955Y-99199755D01*
X48714407Y-99320108D01*
X48832727Y-99466221D01*
X48832730Y-99466227D01*
X48832757Y-99466260D01*
X48920465Y-99632616D01*
X48974193Y-99812839D01*
X48991891Y-100000066D01*
X48972886Y-100187166D01*
X48917902Y-100367011D01*
X48829033Y-100532750D01*
X48709665Y-100678071D01*
X48703071Y-100684665D01*
X48693491Y-100694112D01*
X48546517Y-100811440D01*
X48379553Y-100897986D01*
X48198958Y-100950453D01*
X48011613Y-100966845D01*
X47824651Y-100946534D01*
X47645195Y-100890295D01*
X47480080Y-100800272D01*
X47480053Y-100800249D01*
X47480045Y-100800245D01*
X47335593Y-100679892D01*
X47217273Y-100533779D01*
X47217270Y-100533773D01*
X47217243Y-100533740D01*
X47129534Y-100367384D01*
X47075807Y-100187161D01*
X47058109Y-99999934D01*
X47077114Y-99812834D01*
X47132098Y-99632989D01*
X47220967Y-99467251D01*
X47340335Y-99321929D01*
X47346929Y-99315335D01*
X47356509Y-99305888D01*
X47503483Y-99188560D01*
X47670446Y-99102014D01*
X47851041Y-99049547D01*
X48038387Y-99033156D01*
X48225349Y-99053467D01*
X48225349Y-99053467D01*
G37*
G36*
X50765349Y-99053467D02*
X50944805Y-99109705D01*
X51109920Y-99199728D01*
X51109947Y-99199751D01*
X51109955Y-99199755D01*
X51254407Y-99320108D01*
X51372727Y-99466221D01*
X51372730Y-99466227D01*
X51372757Y-99466260D01*
X51460465Y-99632616D01*
X51514193Y-99812839D01*
X51531891Y-100000066D01*
X51512886Y-100187166D01*
X51457902Y-100367011D01*
X51369033Y-100532750D01*
X51249665Y-100678071D01*
X51243071Y-100684665D01*
X51233491Y-100694112D01*
X51086517Y-100811440D01*
X50919553Y-100897986D01*
X50738958Y-100950453D01*
X50551613Y-100966845D01*
X50364651Y-100946534D01*
X50185195Y-100890295D01*
X50020080Y-100800272D01*
X50020053Y-100800249D01*
X50020045Y-100800245D01*
X49875593Y-100679892D01*
X49757273Y-100533779D01*
X49757270Y-100533773D01*
X49757243Y-100533740D01*
X49669534Y-100367384D01*
X49615807Y-100187161D01*
X49598109Y-99999934D01*
X49617114Y-99812834D01*
X49672098Y-99632989D01*
X49760967Y-99467251D01*
X49880335Y-99321929D01*
X49886929Y-99315335D01*
X49896509Y-99305888D01*
X50043483Y-99188560D01*
X50210446Y-99102014D01*
X50391041Y-99049547D01*
X50578387Y-99033156D01*
X50765349Y-99053467D01*
X50765349Y-99053467D01*
G37*
G36*
X53116920Y-99036451D02*
X53123116Y-99036494D01*
X53310006Y-99057457D01*
X53489264Y-99114321D01*
X53654064Y-99204921D01*
X53798128Y-99325804D01*
X53915968Y-99472368D01*
X54003096Y-99639029D01*
X54056194Y-99819439D01*
X54056198Y-99819478D01*
X54056200Y-99819486D01*
X54073241Y-100006725D01*
X54053588Y-100193710D01*
X54053585Y-100193719D01*
X54053581Y-100193759D01*
X53997969Y-100373410D01*
X53908523Y-100538838D01*
X53788648Y-100683742D01*
X53642910Y-100802603D01*
X53476861Y-100890893D01*
X53296826Y-100945248D01*
X53109662Y-100963600D01*
X53100303Y-100963600D01*
X53093080Y-100963549D01*
X53086884Y-100963506D01*
X52899994Y-100942543D01*
X52720736Y-100885679D01*
X52555936Y-100795079D01*
X52411872Y-100674196D01*
X52294032Y-100527632D01*
X52206904Y-100360971D01*
X52153806Y-100180561D01*
X52153802Y-100180522D01*
X52153800Y-100180514D01*
X52136759Y-99993275D01*
X52156412Y-99806290D01*
X52156415Y-99806281D01*
X52156419Y-99806241D01*
X52212031Y-99626590D01*
X52301477Y-99461162D01*
X52421352Y-99316258D01*
X52567090Y-99197397D01*
X52733139Y-99109107D01*
X52913174Y-99054752D01*
X53100338Y-99036400D01*
X53109697Y-99036400D01*
X53116920Y-99036451D01*
X53116920Y-99036451D01*
G37*
G36*
X107312189Y-99200039D02*
X107312196Y-99200040D01*
X107314211Y-99200054D01*
X107420883Y-99212019D01*
X107523200Y-99244476D01*
X107617264Y-99296188D01*
X107699492Y-99365185D01*
X107766752Y-99448840D01*
X107816483Y-99543966D01*
X107846790Y-99646940D01*
X107846793Y-99646974D01*
X107846797Y-99646987D01*
X107856521Y-99753838D01*
X107845306Y-99860544D01*
X107845302Y-99860558D01*
X107845298Y-99860593D01*
X107813557Y-99963134D01*
X107762503Y-100057556D01*
X107694081Y-100140264D01*
X107610897Y-100208107D01*
X107516121Y-100258500D01*
X107413361Y-100289525D01*
X107306532Y-100300000D01*
X105693428Y-100300000D01*
X105687811Y-100299961D01*
X105687804Y-100299960D01*
X105685789Y-100299946D01*
X105579117Y-100287981D01*
X105476800Y-100255524D01*
X105382736Y-100203812D01*
X105300508Y-100134815D01*
X105233248Y-100051160D01*
X105183517Y-99956034D01*
X105153210Y-99853060D01*
X105153207Y-99853026D01*
X105153203Y-99853013D01*
X105143479Y-99746162D01*
X105154694Y-99639456D01*
X105154698Y-99639442D01*
X105154702Y-99639407D01*
X105186443Y-99536866D01*
X105237497Y-99442444D01*
X105305919Y-99359736D01*
X105389103Y-99291893D01*
X105483879Y-99241500D01*
X105586639Y-99210475D01*
X105693468Y-99200000D01*
X107306572Y-99200000D01*
X107312189Y-99200039D01*
X107312189Y-99200039D01*
G37*
G36*
X125312189Y-99200039D02*
X125312196Y-99200040D01*
X125314211Y-99200054D01*
X125420883Y-99212019D01*
X125523200Y-99244476D01*
X125617264Y-99296188D01*
X125699492Y-99365185D01*
X125766752Y-99448840D01*
X125816483Y-99543966D01*
X125846790Y-99646940D01*
X125846793Y-99646974D01*
X125846797Y-99646987D01*
X125856521Y-99753838D01*
X125845306Y-99860544D01*
X125845302Y-99860558D01*
X125845298Y-99860593D01*
X125813557Y-99963134D01*
X125762503Y-100057556D01*
X125694081Y-100140264D01*
X125610897Y-100208107D01*
X125516121Y-100258500D01*
X125413361Y-100289525D01*
X125306532Y-100300000D01*
X123693428Y-100300000D01*
X123687811Y-100299961D01*
X123687804Y-100299960D01*
X123685789Y-100299946D01*
X123579117Y-100287981D01*
X123476800Y-100255524D01*
X123382736Y-100203812D01*
X123300508Y-100134815D01*
X123233248Y-100051160D01*
X123183517Y-99956034D01*
X123153210Y-99853060D01*
X123153207Y-99853026D01*
X123153203Y-99853013D01*
X123143479Y-99746162D01*
X123154694Y-99639456D01*
X123154698Y-99639442D01*
X123154702Y-99639407D01*
X123186443Y-99536866D01*
X123237497Y-99442444D01*
X123305919Y-99359736D01*
X123389103Y-99291893D01*
X123483879Y-99241500D01*
X123586639Y-99210475D01*
X123693468Y-99200000D01*
X125306572Y-99200000D01*
X125312189Y-99200039D01*
X125312189Y-99200039D01*
G37*
G36*
X107312189Y-97930039D02*
X107312196Y-97930040D01*
X107314211Y-97930054D01*
X107420883Y-97942019D01*
X107523200Y-97974476D01*
X107617264Y-98026188D01*
X107699492Y-98095185D01*
X107766752Y-98178840D01*
X107816483Y-98273966D01*
X107846790Y-98376940D01*
X107846793Y-98376974D01*
X107846797Y-98376987D01*
X107856521Y-98483838D01*
X107845306Y-98590544D01*
X107845302Y-98590558D01*
X107845298Y-98590593D01*
X107813557Y-98693134D01*
X107762503Y-98787556D01*
X107694081Y-98870264D01*
X107610897Y-98938107D01*
X107516121Y-98988500D01*
X107413361Y-99019525D01*
X107306532Y-99030000D01*
X105693428Y-99030000D01*
X105687811Y-99029961D01*
X105687804Y-99029960D01*
X105685789Y-99029946D01*
X105579117Y-99017981D01*
X105476800Y-98985524D01*
X105382736Y-98933812D01*
X105300508Y-98864815D01*
X105233248Y-98781160D01*
X105183517Y-98686034D01*
X105153210Y-98583060D01*
X105153207Y-98583026D01*
X105153203Y-98583013D01*
X105143479Y-98476162D01*
X105154694Y-98369456D01*
X105154698Y-98369442D01*
X105154702Y-98369407D01*
X105186443Y-98266866D01*
X105237497Y-98172444D01*
X105305919Y-98089736D01*
X105389103Y-98021893D01*
X105483879Y-97971500D01*
X105586639Y-97940475D01*
X105693468Y-97930000D01*
X107306572Y-97930000D01*
X107312189Y-97930039D01*
X107312189Y-97930039D01*
G37*
G36*
X125312189Y-97930039D02*
X125312196Y-97930040D01*
X125314211Y-97930054D01*
X125420883Y-97942019D01*
X125523200Y-97974476D01*
X125617264Y-98026188D01*
X125699492Y-98095185D01*
X125766752Y-98178840D01*
X125816483Y-98273966D01*
X125846790Y-98376940D01*
X125846793Y-98376974D01*
X125846797Y-98376987D01*
X125856521Y-98483838D01*
X125845306Y-98590544D01*
X125845302Y-98590558D01*
X125845298Y-98590593D01*
X125813557Y-98693134D01*
X125762503Y-98787556D01*
X125694081Y-98870264D01*
X125610897Y-98938107D01*
X125516121Y-98988500D01*
X125413361Y-99019525D01*
X125306532Y-99030000D01*
X123693428Y-99030000D01*
X123687811Y-99029961D01*
X123687804Y-99029960D01*
X123685789Y-99029946D01*
X123579117Y-99017981D01*
X123476800Y-98985524D01*
X123382736Y-98933812D01*
X123300508Y-98864815D01*
X123233248Y-98781160D01*
X123183517Y-98686034D01*
X123153210Y-98583060D01*
X123153207Y-98583026D01*
X123153203Y-98583013D01*
X123143479Y-98476162D01*
X123154694Y-98369456D01*
X123154698Y-98369442D01*
X123154702Y-98369407D01*
X123186443Y-98266866D01*
X123237497Y-98172444D01*
X123305919Y-98089736D01*
X123389103Y-98021893D01*
X123483879Y-97971500D01*
X123586639Y-97940475D01*
X123693468Y-97930000D01*
X125306572Y-97930000D01*
X125312189Y-97930039D01*
X125312189Y-97930039D01*
G37*
G36*
X50765349Y-96513467D02*
X50944805Y-96569705D01*
X51109920Y-96659728D01*
X51109947Y-96659751D01*
X51109955Y-96659755D01*
X51254407Y-96780108D01*
X51372727Y-96926221D01*
X51372730Y-96926227D01*
X51372757Y-96926260D01*
X51460465Y-97092616D01*
X51514193Y-97272839D01*
X51531891Y-97460066D01*
X51512886Y-97647166D01*
X51457902Y-97827011D01*
X51369033Y-97992750D01*
X51249665Y-98138071D01*
X51243071Y-98144665D01*
X51233491Y-98154112D01*
X51086517Y-98271440D01*
X50919553Y-98357986D01*
X50738958Y-98410453D01*
X50551613Y-98426845D01*
X50364651Y-98406534D01*
X50185195Y-98350295D01*
X50020080Y-98260272D01*
X50020053Y-98260249D01*
X50020045Y-98260245D01*
X49875593Y-98139892D01*
X49757273Y-97993779D01*
X49757270Y-97993773D01*
X49757243Y-97993740D01*
X49669534Y-97827384D01*
X49615807Y-97647161D01*
X49598109Y-97459934D01*
X49617114Y-97272834D01*
X49672098Y-97092989D01*
X49760967Y-96927251D01*
X49880335Y-96781929D01*
X49886929Y-96775335D01*
X49896509Y-96765888D01*
X50043483Y-96648560D01*
X50210446Y-96562014D01*
X50391041Y-96509547D01*
X50578387Y-96493156D01*
X50765349Y-96513467D01*
X50765349Y-96513467D01*
G37*
G36*
X48225349Y-96513467D02*
X48404805Y-96569705D01*
X48569920Y-96659728D01*
X48569947Y-96659751D01*
X48569955Y-96659755D01*
X48714407Y-96780108D01*
X48832727Y-96926221D01*
X48832730Y-96926227D01*
X48832757Y-96926260D01*
X48920465Y-97092616D01*
X48974193Y-97272839D01*
X48991891Y-97460066D01*
X48972886Y-97647166D01*
X48917902Y-97827011D01*
X48829033Y-97992750D01*
X48709665Y-98138071D01*
X48703071Y-98144665D01*
X48693491Y-98154112D01*
X48546517Y-98271440D01*
X48379553Y-98357986D01*
X48198958Y-98410453D01*
X48011613Y-98426845D01*
X47824651Y-98406534D01*
X47645195Y-98350295D01*
X47480080Y-98260272D01*
X47480053Y-98260249D01*
X47480045Y-98260245D01*
X47335593Y-98139892D01*
X47217273Y-97993779D01*
X47217270Y-97993773D01*
X47217243Y-97993740D01*
X47129534Y-97827384D01*
X47075807Y-97647161D01*
X47058109Y-97459934D01*
X47077114Y-97272834D01*
X47132098Y-97092989D01*
X47220967Y-96927251D01*
X47340335Y-96781929D01*
X47346929Y-96775335D01*
X47356509Y-96765888D01*
X47503483Y-96648560D01*
X47670446Y-96562014D01*
X47851041Y-96509547D01*
X48038387Y-96493156D01*
X48225349Y-96513467D01*
X48225349Y-96513467D01*
G37*
G36*
X53116920Y-96496451D02*
X53123116Y-96496494D01*
X53310006Y-96517457D01*
X53489264Y-96574321D01*
X53654064Y-96664921D01*
X53798128Y-96785804D01*
X53915968Y-96932368D01*
X54003096Y-97099029D01*
X54056194Y-97279439D01*
X54056198Y-97279478D01*
X54056200Y-97279486D01*
X54073241Y-97466725D01*
X54053588Y-97653710D01*
X54053585Y-97653719D01*
X54053581Y-97653759D01*
X53997969Y-97833410D01*
X53908523Y-97998838D01*
X53788648Y-98143742D01*
X53642910Y-98262603D01*
X53476861Y-98350893D01*
X53296826Y-98405248D01*
X53109662Y-98423600D01*
X53100303Y-98423600D01*
X53093080Y-98423549D01*
X53086884Y-98423506D01*
X52899994Y-98402543D01*
X52720736Y-98345679D01*
X52555936Y-98255079D01*
X52411872Y-98134196D01*
X52294032Y-97987632D01*
X52206904Y-97820971D01*
X52153806Y-97640561D01*
X52153802Y-97640522D01*
X52153800Y-97640514D01*
X52136759Y-97453275D01*
X52156412Y-97266290D01*
X52156415Y-97266281D01*
X52156419Y-97266241D01*
X52212031Y-97086590D01*
X52301477Y-96921162D01*
X52421352Y-96776258D01*
X52567090Y-96657397D01*
X52733139Y-96569107D01*
X52913174Y-96514752D01*
X53100338Y-96496400D01*
X53109697Y-96496400D01*
X53116920Y-96496451D01*
X53116920Y-96496451D01*
G37*
G36*
X125312189Y-96660039D02*
X125312196Y-96660040D01*
X125314211Y-96660054D01*
X125420883Y-96672019D01*
X125523200Y-96704476D01*
X125617264Y-96756188D01*
X125699492Y-96825185D01*
X125766752Y-96908840D01*
X125816483Y-97003966D01*
X125846790Y-97106940D01*
X125846793Y-97106974D01*
X125846797Y-97106987D01*
X125856521Y-97213838D01*
X125845306Y-97320544D01*
X125845302Y-97320558D01*
X125845298Y-97320593D01*
X125813557Y-97423134D01*
X125762503Y-97517556D01*
X125694081Y-97600264D01*
X125610897Y-97668107D01*
X125516121Y-97718500D01*
X125413361Y-97749525D01*
X125306532Y-97760000D01*
X123693428Y-97760000D01*
X123687811Y-97759961D01*
X123687804Y-97759960D01*
X123685789Y-97759946D01*
X123579117Y-97747981D01*
X123476800Y-97715524D01*
X123382736Y-97663812D01*
X123300508Y-97594815D01*
X123233248Y-97511160D01*
X123183517Y-97416034D01*
X123153210Y-97313060D01*
X123153207Y-97313026D01*
X123153203Y-97313013D01*
X123143479Y-97206162D01*
X123154694Y-97099456D01*
X123154698Y-97099442D01*
X123154702Y-97099407D01*
X123186443Y-96996866D01*
X123237497Y-96902444D01*
X123305919Y-96819736D01*
X123389103Y-96751893D01*
X123483879Y-96701500D01*
X123586639Y-96670475D01*
X123693468Y-96660000D01*
X125306572Y-96660000D01*
X125312189Y-96660039D01*
X125312189Y-96660039D01*
G37*
G36*
X107312189Y-96660039D02*
X107312196Y-96660040D01*
X107314211Y-96660054D01*
X107420883Y-96672019D01*
X107523200Y-96704476D01*
X107617264Y-96756188D01*
X107699492Y-96825185D01*
X107766752Y-96908840D01*
X107816483Y-97003966D01*
X107846790Y-97106940D01*
X107846793Y-97106974D01*
X107846797Y-97106987D01*
X107856521Y-97213838D01*
X107845306Y-97320544D01*
X107845302Y-97320558D01*
X107845298Y-97320593D01*
X107813557Y-97423134D01*
X107762503Y-97517556D01*
X107694081Y-97600264D01*
X107610897Y-97668107D01*
X107516121Y-97718500D01*
X107413361Y-97749525D01*
X107306532Y-97760000D01*
X105693428Y-97760000D01*
X105687811Y-97759961D01*
X105687804Y-97759960D01*
X105685789Y-97759946D01*
X105579117Y-97747981D01*
X105476800Y-97715524D01*
X105382736Y-97663812D01*
X105300508Y-97594815D01*
X105233248Y-97511160D01*
X105183517Y-97416034D01*
X105153210Y-97313060D01*
X105153207Y-97313026D01*
X105153203Y-97313013D01*
X105143479Y-97206162D01*
X105154694Y-97099456D01*
X105154698Y-97099442D01*
X105154702Y-97099407D01*
X105186443Y-96996866D01*
X105237497Y-96902444D01*
X105305919Y-96819736D01*
X105389103Y-96751893D01*
X105483879Y-96701500D01*
X105586639Y-96670475D01*
X105693468Y-96660000D01*
X107306572Y-96660000D01*
X107312189Y-96660039D01*
X107312189Y-96660039D01*
G37*
G36*
X107312189Y-95390039D02*
X107312196Y-95390040D01*
X107314211Y-95390054D01*
X107420883Y-95402019D01*
X107523200Y-95434476D01*
X107617264Y-95486188D01*
X107699492Y-95555185D01*
X107766752Y-95638840D01*
X107816483Y-95733966D01*
X107846790Y-95836940D01*
X107846793Y-95836974D01*
X107846797Y-95836987D01*
X107856521Y-95943838D01*
X107845306Y-96050544D01*
X107845302Y-96050558D01*
X107845298Y-96050593D01*
X107813557Y-96153134D01*
X107762503Y-96247556D01*
X107694081Y-96330264D01*
X107610897Y-96398107D01*
X107516121Y-96448500D01*
X107413361Y-96479525D01*
X107306532Y-96490000D01*
X105693428Y-96490000D01*
X105687811Y-96489961D01*
X105687804Y-96489960D01*
X105685789Y-96489946D01*
X105579117Y-96477981D01*
X105476800Y-96445524D01*
X105382736Y-96393812D01*
X105300508Y-96324815D01*
X105233248Y-96241160D01*
X105183517Y-96146034D01*
X105153210Y-96043060D01*
X105153207Y-96043026D01*
X105153203Y-96043013D01*
X105143479Y-95936162D01*
X105154694Y-95829456D01*
X105154698Y-95829442D01*
X105154702Y-95829407D01*
X105186443Y-95726866D01*
X105237497Y-95632444D01*
X105305919Y-95549736D01*
X105389103Y-95481893D01*
X105483879Y-95431500D01*
X105586639Y-95400475D01*
X105693468Y-95390000D01*
X107306572Y-95390000D01*
X107312189Y-95390039D01*
X107312189Y-95390039D01*
G37*
G36*
X125312189Y-95390039D02*
X125312196Y-95390040D01*
X125314211Y-95390054D01*
X125420883Y-95402019D01*
X125523200Y-95434476D01*
X125617264Y-95486188D01*
X125699492Y-95555185D01*
X125766752Y-95638840D01*
X125816483Y-95733966D01*
X125846790Y-95836940D01*
X125846793Y-95836974D01*
X125846797Y-95836987D01*
X125856521Y-95943838D01*
X125845306Y-96050544D01*
X125845302Y-96050558D01*
X125845298Y-96050593D01*
X125813557Y-96153134D01*
X125762503Y-96247556D01*
X125694081Y-96330264D01*
X125610897Y-96398107D01*
X125516121Y-96448500D01*
X125413361Y-96479525D01*
X125306532Y-96490000D01*
X123693428Y-96490000D01*
X123687811Y-96489961D01*
X123687804Y-96489960D01*
X123685789Y-96489946D01*
X123579117Y-96477981D01*
X123476800Y-96445524D01*
X123382736Y-96393812D01*
X123300508Y-96324815D01*
X123233248Y-96241160D01*
X123183517Y-96146034D01*
X123153210Y-96043060D01*
X123153207Y-96043026D01*
X123153203Y-96043013D01*
X123143479Y-95936162D01*
X123154694Y-95829456D01*
X123154698Y-95829442D01*
X123154702Y-95829407D01*
X123186443Y-95726866D01*
X123237497Y-95632444D01*
X123305919Y-95549736D01*
X123389103Y-95481893D01*
X123483879Y-95431500D01*
X123586639Y-95400475D01*
X123693468Y-95390000D01*
X125306572Y-95390000D01*
X125312189Y-95390039D01*
X125312189Y-95390039D01*
G37*
G36*
X61631511Y-95850198D02*
X61689143Y-95862027D01*
X61743377Y-95884825D01*
X61792153Y-95917725D01*
X61833613Y-95959476D01*
X61866168Y-96008475D01*
X61888588Y-96062868D01*
X61899948Y-96120239D01*
X61899948Y-96120254D01*
X61900013Y-96120583D01*
X61899075Y-96187782D01*
X61898999Y-96188116D01*
X61898999Y-96188127D01*
X61886043Y-96245153D01*
X61862112Y-96298902D01*
X61828203Y-96346973D01*
X61785590Y-96387552D01*
X61735921Y-96419073D01*
X61681067Y-96440349D01*
X61623129Y-96450565D01*
X61564309Y-96449334D01*
X61506845Y-96436699D01*
X61452936Y-96413147D01*
X61404619Y-96379566D01*
X61363751Y-96337246D01*
X61331883Y-96287797D01*
X61310224Y-96233093D01*
X61299603Y-96175222D01*
X61300425Y-96116397D01*
X61312656Y-96058851D01*
X61335834Y-96004773D01*
X61369073Y-95956229D01*
X61411109Y-95915065D01*
X61460336Y-95882851D01*
X61514889Y-95860810D01*
X61572675Y-95849786D01*
X61631511Y-95850198D01*
X61631511Y-95850198D01*
G37*
G36*
X48225349Y-93973467D02*
X48404805Y-94029705D01*
X48569920Y-94119728D01*
X48569947Y-94119751D01*
X48569955Y-94119755D01*
X48714407Y-94240108D01*
X48832727Y-94386221D01*
X48832730Y-94386227D01*
X48832757Y-94386260D01*
X48920465Y-94552616D01*
X48974193Y-94732839D01*
X48991891Y-94920066D01*
X48972886Y-95107166D01*
X48917902Y-95287011D01*
X48829033Y-95452750D01*
X48709665Y-95598071D01*
X48703071Y-95604665D01*
X48693491Y-95614112D01*
X48546517Y-95731440D01*
X48379553Y-95817986D01*
X48198958Y-95870453D01*
X48011613Y-95886845D01*
X47824651Y-95866534D01*
X47645195Y-95810295D01*
X47480080Y-95720272D01*
X47480053Y-95720249D01*
X47480045Y-95720245D01*
X47335593Y-95599892D01*
X47217273Y-95453779D01*
X47217270Y-95453773D01*
X47217243Y-95453740D01*
X47129534Y-95287384D01*
X47075807Y-95107161D01*
X47058109Y-94919934D01*
X47077114Y-94732834D01*
X47132098Y-94552989D01*
X47220967Y-94387251D01*
X47340335Y-94241929D01*
X47346929Y-94235335D01*
X47356509Y-94225888D01*
X47503483Y-94108560D01*
X47670446Y-94022014D01*
X47851041Y-93969547D01*
X48038387Y-93953156D01*
X48225349Y-93973467D01*
X48225349Y-93973467D01*
G37*
G36*
X50765349Y-93973467D02*
X50944805Y-94029705D01*
X51109920Y-94119728D01*
X51109947Y-94119751D01*
X51109955Y-94119755D01*
X51254407Y-94240108D01*
X51372727Y-94386221D01*
X51372730Y-94386227D01*
X51372757Y-94386260D01*
X51460465Y-94552616D01*
X51514193Y-94732839D01*
X51531891Y-94920066D01*
X51512886Y-95107166D01*
X51457902Y-95287011D01*
X51369033Y-95452750D01*
X51249665Y-95598071D01*
X51243071Y-95604665D01*
X51233491Y-95614112D01*
X51086517Y-95731440D01*
X50919553Y-95817986D01*
X50738958Y-95870453D01*
X50551613Y-95886845D01*
X50364651Y-95866534D01*
X50185195Y-95810295D01*
X50020080Y-95720272D01*
X50020053Y-95720249D01*
X50020045Y-95720245D01*
X49875593Y-95599892D01*
X49757273Y-95453779D01*
X49757270Y-95453773D01*
X49757243Y-95453740D01*
X49669534Y-95287384D01*
X49615807Y-95107161D01*
X49598109Y-94919934D01*
X49617114Y-94732834D01*
X49672098Y-94552989D01*
X49760967Y-94387251D01*
X49880335Y-94241929D01*
X49886929Y-94235335D01*
X49896509Y-94225888D01*
X50043483Y-94108560D01*
X50210446Y-94022014D01*
X50391041Y-93969547D01*
X50578387Y-93953156D01*
X50765349Y-93973467D01*
X50765349Y-93973467D01*
G37*
G36*
X53116920Y-93956451D02*
X53123116Y-93956494D01*
X53310006Y-93977457D01*
X53489264Y-94034321D01*
X53654064Y-94124921D01*
X53798128Y-94245804D01*
X53915968Y-94392368D01*
X54003096Y-94559029D01*
X54056194Y-94739439D01*
X54056198Y-94739478D01*
X54056200Y-94739486D01*
X54073241Y-94926725D01*
X54053588Y-95113710D01*
X54053585Y-95113719D01*
X54053581Y-95113759D01*
X53997969Y-95293410D01*
X53908523Y-95458838D01*
X53788648Y-95603742D01*
X53642910Y-95722603D01*
X53476861Y-95810893D01*
X53296826Y-95865248D01*
X53109662Y-95883600D01*
X53100303Y-95883600D01*
X53093080Y-95883549D01*
X53086884Y-95883506D01*
X52899994Y-95862543D01*
X52720736Y-95805679D01*
X52555936Y-95715079D01*
X52411872Y-95594196D01*
X52294032Y-95447632D01*
X52206904Y-95280971D01*
X52153806Y-95100561D01*
X52153802Y-95100522D01*
X52153800Y-95100514D01*
X52136759Y-94913275D01*
X52156412Y-94726290D01*
X52156415Y-94726281D01*
X52156419Y-94726241D01*
X52212031Y-94546590D01*
X52301477Y-94381162D01*
X52421352Y-94236258D01*
X52567090Y-94117397D01*
X52733139Y-94029107D01*
X52913174Y-93974752D01*
X53100338Y-93956400D01*
X53109697Y-93956400D01*
X53116920Y-93956451D01*
X53116920Y-93956451D01*
G37*
G36*
X121325544Y-93104694D02*
X121325558Y-93104698D01*
X121325593Y-93104702D01*
X121428134Y-93136443D01*
X121522556Y-93187497D01*
X121605264Y-93255919D01*
X121673107Y-93339103D01*
X121723500Y-93433879D01*
X121754525Y-93536639D01*
X121765000Y-93643468D01*
X121765000Y-95256572D01*
X121764961Y-95262189D01*
X121764960Y-95262196D01*
X121764946Y-95264211D01*
X121752981Y-95370883D01*
X121720524Y-95473200D01*
X121668812Y-95567264D01*
X121599815Y-95649492D01*
X121516160Y-95716752D01*
X121421034Y-95766483D01*
X121318060Y-95796790D01*
X121318026Y-95796793D01*
X121318013Y-95796797D01*
X121211162Y-95806521D01*
X121104456Y-95795306D01*
X121104442Y-95795302D01*
X121104407Y-95795298D01*
X121001866Y-95763557D01*
X120907444Y-95712503D01*
X120824736Y-95644081D01*
X120756893Y-95560897D01*
X120706500Y-95466121D01*
X120675475Y-95363361D01*
X120665000Y-95256532D01*
X120665000Y-93643428D01*
X120665039Y-93637811D01*
X120665040Y-93637804D01*
X120665054Y-93635789D01*
X120677019Y-93529117D01*
X120709476Y-93426800D01*
X120761188Y-93332736D01*
X120830185Y-93250508D01*
X120913840Y-93183248D01*
X121008966Y-93133517D01*
X121111940Y-93103210D01*
X121111974Y-93103207D01*
X121111987Y-93103203D01*
X121218838Y-93093479D01*
X121325544Y-93104694D01*
X121325544Y-93104694D01*
G37*
G36*
X120055544Y-93104694D02*
X120055558Y-93104698D01*
X120055593Y-93104702D01*
X120158134Y-93136443D01*
X120252556Y-93187497D01*
X120335264Y-93255919D01*
X120403107Y-93339103D01*
X120453500Y-93433879D01*
X120484525Y-93536639D01*
X120495000Y-93643468D01*
X120495000Y-95256572D01*
X120494961Y-95262189D01*
X120494960Y-95262196D01*
X120494946Y-95264211D01*
X120482981Y-95370883D01*
X120450524Y-95473200D01*
X120398812Y-95567264D01*
X120329815Y-95649492D01*
X120246160Y-95716752D01*
X120151034Y-95766483D01*
X120048060Y-95796790D01*
X120048026Y-95796793D01*
X120048013Y-95796797D01*
X119941162Y-95806521D01*
X119834456Y-95795306D01*
X119834442Y-95795302D01*
X119834407Y-95795298D01*
X119731866Y-95763557D01*
X119637444Y-95712503D01*
X119554736Y-95644081D01*
X119486893Y-95560897D01*
X119436500Y-95466121D01*
X119405475Y-95363361D01*
X119395000Y-95256532D01*
X119395000Y-93643428D01*
X119395039Y-93637811D01*
X119395040Y-93637804D01*
X119395054Y-93635789D01*
X119407019Y-93529117D01*
X119439476Y-93426800D01*
X119491188Y-93332736D01*
X119560185Y-93250508D01*
X119643840Y-93183248D01*
X119738966Y-93133517D01*
X119841940Y-93103210D01*
X119841974Y-93103207D01*
X119841987Y-93103203D01*
X119948838Y-93093479D01*
X120055544Y-93104694D01*
X120055544Y-93104694D01*
G37*
G36*
X112435544Y-93104694D02*
X112435558Y-93104698D01*
X112435593Y-93104702D01*
X112538134Y-93136443D01*
X112632556Y-93187497D01*
X112715264Y-93255919D01*
X112783107Y-93339103D01*
X112833500Y-93433879D01*
X112864525Y-93536639D01*
X112875000Y-93643468D01*
X112875000Y-95256572D01*
X112874961Y-95262189D01*
X112874960Y-95262196D01*
X112874946Y-95264211D01*
X112862981Y-95370883D01*
X112830524Y-95473200D01*
X112778812Y-95567264D01*
X112709815Y-95649492D01*
X112626160Y-95716752D01*
X112531034Y-95766483D01*
X112428060Y-95796790D01*
X112428026Y-95796793D01*
X112428013Y-95796797D01*
X112321162Y-95806521D01*
X112214456Y-95795306D01*
X112214442Y-95795302D01*
X112214407Y-95795298D01*
X112111866Y-95763557D01*
X112017444Y-95712503D01*
X111934736Y-95644081D01*
X111866893Y-95560897D01*
X111816500Y-95466121D01*
X111785475Y-95363361D01*
X111775000Y-95256532D01*
X111775000Y-93643428D01*
X111775039Y-93637811D01*
X111775040Y-93637804D01*
X111775054Y-93635789D01*
X111787019Y-93529117D01*
X111819476Y-93426800D01*
X111871188Y-93332736D01*
X111940185Y-93250508D01*
X112023840Y-93183248D01*
X112118966Y-93133517D01*
X112221940Y-93103210D01*
X112221974Y-93103207D01*
X112221987Y-93103203D01*
X112328838Y-93093479D01*
X112435544Y-93104694D01*
X112435544Y-93104694D01*
G37*
G36*
X118785544Y-93104694D02*
X118785558Y-93104698D01*
X118785593Y-93104702D01*
X118888134Y-93136443D01*
X118982556Y-93187497D01*
X119065264Y-93255919D01*
X119133107Y-93339103D01*
X119183500Y-93433879D01*
X119214525Y-93536639D01*
X119225000Y-93643468D01*
X119225000Y-95256572D01*
X119224961Y-95262189D01*
X119224960Y-95262196D01*
X119224946Y-95264211D01*
X119212981Y-95370883D01*
X119180524Y-95473200D01*
X119128812Y-95567264D01*
X119059815Y-95649492D01*
X118976160Y-95716752D01*
X118881034Y-95766483D01*
X118778060Y-95796790D01*
X118778026Y-95796793D01*
X118778013Y-95796797D01*
X118671162Y-95806521D01*
X118564456Y-95795306D01*
X118564442Y-95795302D01*
X118564407Y-95795298D01*
X118461866Y-95763557D01*
X118367444Y-95712503D01*
X118284736Y-95644081D01*
X118216893Y-95560897D01*
X118166500Y-95466121D01*
X118135475Y-95363361D01*
X118125000Y-95256532D01*
X118125000Y-93643428D01*
X118125039Y-93637811D01*
X118125040Y-93637804D01*
X118125054Y-93635789D01*
X118137019Y-93529117D01*
X118169476Y-93426800D01*
X118221188Y-93332736D01*
X118290185Y-93250508D01*
X118373840Y-93183248D01*
X118468966Y-93133517D01*
X118571940Y-93103210D01*
X118571974Y-93103207D01*
X118571987Y-93103203D01*
X118678838Y-93093479D01*
X118785544Y-93104694D01*
X118785544Y-93104694D01*
G37*
G36*
X117515544Y-93104694D02*
X117515558Y-93104698D01*
X117515593Y-93104702D01*
X117618134Y-93136443D01*
X117712556Y-93187497D01*
X117795264Y-93255919D01*
X117863107Y-93339103D01*
X117913500Y-93433879D01*
X117944525Y-93536639D01*
X117955000Y-93643468D01*
X117955000Y-95256572D01*
X117954961Y-95262189D01*
X117954960Y-95262196D01*
X117954946Y-95264211D01*
X117942981Y-95370883D01*
X117910524Y-95473200D01*
X117858812Y-95567264D01*
X117789815Y-95649492D01*
X117706160Y-95716752D01*
X117611034Y-95766483D01*
X117508060Y-95796790D01*
X117508026Y-95796793D01*
X117508013Y-95796797D01*
X117401162Y-95806521D01*
X117294456Y-95795306D01*
X117294442Y-95795302D01*
X117294407Y-95795298D01*
X117191866Y-95763557D01*
X117097444Y-95712503D01*
X117014736Y-95644081D01*
X116946893Y-95560897D01*
X116896500Y-95466121D01*
X116865475Y-95363361D01*
X116855000Y-95256532D01*
X116855000Y-93643428D01*
X116855039Y-93637811D01*
X116855040Y-93637804D01*
X116855054Y-93635789D01*
X116867019Y-93529117D01*
X116899476Y-93426800D01*
X116951188Y-93332736D01*
X117020185Y-93250508D01*
X117103840Y-93183248D01*
X117198966Y-93133517D01*
X117301940Y-93103210D01*
X117301974Y-93103207D01*
X117301987Y-93103203D01*
X117408838Y-93093479D01*
X117515544Y-93104694D01*
X117515544Y-93104694D01*
G37*
G36*
X114975544Y-93104694D02*
X114975558Y-93104698D01*
X114975593Y-93104702D01*
X115078134Y-93136443D01*
X115172556Y-93187497D01*
X115255264Y-93255919D01*
X115323107Y-93339103D01*
X115373500Y-93433879D01*
X115404525Y-93536639D01*
X115415000Y-93643468D01*
X115415000Y-95256572D01*
X115414961Y-95262189D01*
X115414960Y-95262196D01*
X115414946Y-95264211D01*
X115402981Y-95370883D01*
X115370524Y-95473200D01*
X115318812Y-95567264D01*
X115249815Y-95649492D01*
X115166160Y-95716752D01*
X115071034Y-95766483D01*
X114968060Y-95796790D01*
X114968026Y-95796793D01*
X114968013Y-95796797D01*
X114861162Y-95806521D01*
X114754456Y-95795306D01*
X114754442Y-95795302D01*
X114754407Y-95795298D01*
X114651866Y-95763557D01*
X114557444Y-95712503D01*
X114474736Y-95644081D01*
X114406893Y-95560897D01*
X114356500Y-95466121D01*
X114325475Y-95363361D01*
X114315000Y-95256532D01*
X114315000Y-93643428D01*
X114315039Y-93637811D01*
X114315040Y-93637804D01*
X114315054Y-93635789D01*
X114327019Y-93529117D01*
X114359476Y-93426800D01*
X114411188Y-93332736D01*
X114480185Y-93250508D01*
X114563840Y-93183248D01*
X114658966Y-93133517D01*
X114761940Y-93103210D01*
X114761974Y-93103207D01*
X114761987Y-93103203D01*
X114868838Y-93093479D01*
X114975544Y-93104694D01*
X114975544Y-93104694D01*
G37*
G36*
X113705544Y-93104694D02*
X113705558Y-93104698D01*
X113705593Y-93104702D01*
X113808134Y-93136443D01*
X113902556Y-93187497D01*
X113985264Y-93255919D01*
X114053107Y-93339103D01*
X114103500Y-93433879D01*
X114134525Y-93536639D01*
X114145000Y-93643468D01*
X114145000Y-95256572D01*
X114144961Y-95262189D01*
X114144960Y-95262196D01*
X114144946Y-95264211D01*
X114132981Y-95370883D01*
X114100524Y-95473200D01*
X114048812Y-95567264D01*
X113979815Y-95649492D01*
X113896160Y-95716752D01*
X113801034Y-95766483D01*
X113698060Y-95796790D01*
X113698026Y-95796793D01*
X113698013Y-95796797D01*
X113591162Y-95806521D01*
X113484456Y-95795306D01*
X113484442Y-95795302D01*
X113484407Y-95795298D01*
X113381866Y-95763557D01*
X113287444Y-95712503D01*
X113204736Y-95644081D01*
X113136893Y-95560897D01*
X113086500Y-95466121D01*
X113055475Y-95363361D01*
X113045000Y-95256532D01*
X113045000Y-93643428D01*
X113045039Y-93637811D01*
X113045040Y-93637804D01*
X113045054Y-93635789D01*
X113057019Y-93529117D01*
X113089476Y-93426800D01*
X113141188Y-93332736D01*
X113210185Y-93250508D01*
X113293840Y-93183248D01*
X113388966Y-93133517D01*
X113491940Y-93103210D01*
X113491974Y-93103207D01*
X113491987Y-93103203D01*
X113598838Y-93093479D01*
X113705544Y-93104694D01*
X113705544Y-93104694D01*
G37*
G36*
X111165544Y-93104694D02*
X111165558Y-93104698D01*
X111165593Y-93104702D01*
X111268134Y-93136443D01*
X111362556Y-93187497D01*
X111445264Y-93255919D01*
X111513107Y-93339103D01*
X111563500Y-93433879D01*
X111594525Y-93536639D01*
X111605000Y-93643468D01*
X111605000Y-95256572D01*
X111604961Y-95262189D01*
X111604960Y-95262196D01*
X111604946Y-95264211D01*
X111592981Y-95370883D01*
X111560524Y-95473200D01*
X111508812Y-95567264D01*
X111439815Y-95649492D01*
X111356160Y-95716752D01*
X111261034Y-95766483D01*
X111158060Y-95796790D01*
X111158026Y-95796793D01*
X111158013Y-95796797D01*
X111051162Y-95806521D01*
X110944456Y-95795306D01*
X110944442Y-95795302D01*
X110944407Y-95795298D01*
X110841866Y-95763557D01*
X110747444Y-95712503D01*
X110664736Y-95644081D01*
X110596893Y-95560897D01*
X110546500Y-95466121D01*
X110515475Y-95363361D01*
X110505000Y-95256532D01*
X110505000Y-93643428D01*
X110505039Y-93637811D01*
X110505040Y-93637804D01*
X110505054Y-93635789D01*
X110517019Y-93529117D01*
X110549476Y-93426800D01*
X110601188Y-93332736D01*
X110670185Y-93250508D01*
X110753840Y-93183248D01*
X110848966Y-93133517D01*
X110951940Y-93103210D01*
X110951974Y-93103207D01*
X110951987Y-93103203D01*
X111058838Y-93093479D01*
X111165544Y-93104694D01*
X111165544Y-93104694D01*
G37*
G36*
X109895544Y-93104694D02*
X109895558Y-93104698D01*
X109895593Y-93104702D01*
X109998134Y-93136443D01*
X110092556Y-93187497D01*
X110175264Y-93255919D01*
X110243107Y-93339103D01*
X110293500Y-93433879D01*
X110324525Y-93536639D01*
X110335000Y-93643468D01*
X110335000Y-95256572D01*
X110334961Y-95262189D01*
X110334960Y-95262196D01*
X110334946Y-95264211D01*
X110322981Y-95370883D01*
X110290524Y-95473200D01*
X110238812Y-95567264D01*
X110169815Y-95649492D01*
X110086160Y-95716752D01*
X109991034Y-95766483D01*
X109888060Y-95796790D01*
X109888026Y-95796793D01*
X109888013Y-95796797D01*
X109781162Y-95806521D01*
X109674456Y-95795306D01*
X109674442Y-95795302D01*
X109674407Y-95795298D01*
X109571866Y-95763557D01*
X109477444Y-95712503D01*
X109394736Y-95644081D01*
X109326893Y-95560897D01*
X109276500Y-95466121D01*
X109245475Y-95363361D01*
X109235000Y-95256532D01*
X109235000Y-93643428D01*
X109235039Y-93637811D01*
X109235040Y-93637804D01*
X109235054Y-93635789D01*
X109247019Y-93529117D01*
X109279476Y-93426800D01*
X109331188Y-93332736D01*
X109400185Y-93250508D01*
X109483840Y-93183248D01*
X109578966Y-93133517D01*
X109681940Y-93103210D01*
X109681974Y-93103207D01*
X109681987Y-93103203D01*
X109788838Y-93093479D01*
X109895544Y-93104694D01*
X109895544Y-93104694D01*
G37*
G36*
X116245544Y-93104694D02*
X116245558Y-93104698D01*
X116245593Y-93104702D01*
X116348134Y-93136443D01*
X116442556Y-93187497D01*
X116525264Y-93255919D01*
X116593107Y-93339103D01*
X116643500Y-93433879D01*
X116674525Y-93536639D01*
X116685000Y-93643468D01*
X116685000Y-95256572D01*
X116684961Y-95262189D01*
X116684960Y-95262196D01*
X116684946Y-95264211D01*
X116672981Y-95370883D01*
X116640524Y-95473200D01*
X116588812Y-95567264D01*
X116519815Y-95649492D01*
X116436160Y-95716752D01*
X116341034Y-95766483D01*
X116238060Y-95796790D01*
X116238026Y-95796793D01*
X116238013Y-95796797D01*
X116131162Y-95806521D01*
X116024456Y-95795306D01*
X116024442Y-95795302D01*
X116024407Y-95795298D01*
X115921866Y-95763557D01*
X115827444Y-95712503D01*
X115744736Y-95644081D01*
X115676893Y-95560897D01*
X115626500Y-95466121D01*
X115595475Y-95363361D01*
X115585000Y-95256532D01*
X115585000Y-93643428D01*
X115585039Y-93637811D01*
X115585040Y-93637804D01*
X115585054Y-93635789D01*
X115597019Y-93529117D01*
X115629476Y-93426800D01*
X115681188Y-93332736D01*
X115750185Y-93250508D01*
X115833840Y-93183248D01*
X115928966Y-93133517D01*
X116031940Y-93103210D01*
X116031974Y-93103207D01*
X116031987Y-93103203D01*
X116138838Y-93093479D01*
X116245544Y-93104694D01*
X116245544Y-93104694D01*
G37*
G36*
X61631511Y-94850198D02*
X61689143Y-94862027D01*
X61743377Y-94884825D01*
X61792153Y-94917725D01*
X61833613Y-94959476D01*
X61866168Y-95008475D01*
X61888588Y-95062868D01*
X61899948Y-95120239D01*
X61899948Y-95120254D01*
X61900013Y-95120583D01*
X61899075Y-95187782D01*
X61898999Y-95188116D01*
X61898999Y-95188127D01*
X61886043Y-95245153D01*
X61862112Y-95298902D01*
X61828203Y-95346973D01*
X61785590Y-95387552D01*
X61735921Y-95419073D01*
X61681067Y-95440349D01*
X61623129Y-95450565D01*
X61564309Y-95449334D01*
X61506845Y-95436699D01*
X61452936Y-95413147D01*
X61404619Y-95379566D01*
X61363751Y-95337246D01*
X61331883Y-95287797D01*
X61310224Y-95233093D01*
X61299603Y-95175222D01*
X61300425Y-95116397D01*
X61312656Y-95058851D01*
X61335834Y-95004773D01*
X61369073Y-94956229D01*
X61411109Y-94915065D01*
X61460336Y-94882851D01*
X61514889Y-94860810D01*
X61572675Y-94849786D01*
X61631511Y-94850198D01*
X61631511Y-94850198D01*
G37*
G36*
X61631511Y-93850198D02*
X61689143Y-93862027D01*
X61743377Y-93884825D01*
X61792153Y-93917725D01*
X61833613Y-93959476D01*
X61866168Y-94008475D01*
X61888588Y-94062868D01*
X61899948Y-94120239D01*
X61899948Y-94120254D01*
X61900013Y-94120583D01*
X61899075Y-94187782D01*
X61898999Y-94188116D01*
X61898999Y-94188127D01*
X61886043Y-94245153D01*
X61862112Y-94298902D01*
X61828203Y-94346973D01*
X61785590Y-94387552D01*
X61735921Y-94419073D01*
X61681067Y-94440349D01*
X61623129Y-94450565D01*
X61564309Y-94449334D01*
X61506845Y-94436699D01*
X61452936Y-94413147D01*
X61404619Y-94379566D01*
X61363751Y-94337246D01*
X61331883Y-94287797D01*
X61310224Y-94233093D01*
X61299603Y-94175222D01*
X61300425Y-94116397D01*
X61312656Y-94058851D01*
X61335834Y-94004773D01*
X61369073Y-93956229D01*
X61411109Y-93915065D01*
X61460336Y-93882851D01*
X61514889Y-93860810D01*
X61572675Y-93849786D01*
X61631511Y-93850198D01*
X61631511Y-93850198D01*
G37*
G36*
X61631511Y-92850198D02*
X61689143Y-92862027D01*
X61743377Y-92884825D01*
X61792153Y-92917725D01*
X61833613Y-92959476D01*
X61866168Y-93008475D01*
X61888588Y-93062868D01*
X61899948Y-93120239D01*
X61899948Y-93120254D01*
X61900013Y-93120583D01*
X61899075Y-93187782D01*
X61898999Y-93188116D01*
X61898999Y-93188127D01*
X61886043Y-93245153D01*
X61862112Y-93298902D01*
X61828203Y-93346973D01*
X61785590Y-93387552D01*
X61735921Y-93419073D01*
X61681067Y-93440349D01*
X61623129Y-93450565D01*
X61564309Y-93449334D01*
X61506845Y-93436699D01*
X61452936Y-93413147D01*
X61404619Y-93379566D01*
X61363751Y-93337246D01*
X61331883Y-93287797D01*
X61310224Y-93233093D01*
X61299603Y-93175222D01*
X61300425Y-93116397D01*
X61312656Y-93058851D01*
X61335834Y-93004773D01*
X61369073Y-92956229D01*
X61411109Y-92915065D01*
X61460336Y-92882851D01*
X61514889Y-92860810D01*
X61572675Y-92849786D01*
X61631511Y-92850198D01*
X61631511Y-92850198D01*
G37*
G36*
X50765349Y-91433467D02*
X50944805Y-91489705D01*
X51109920Y-91579728D01*
X51109947Y-91579751D01*
X51109955Y-91579755D01*
X51254407Y-91700108D01*
X51372727Y-91846221D01*
X51372730Y-91846227D01*
X51372757Y-91846260D01*
X51460465Y-92012616D01*
X51514193Y-92192839D01*
X51531891Y-92380066D01*
X51512886Y-92567166D01*
X51457902Y-92747011D01*
X51369033Y-92912750D01*
X51249665Y-93058071D01*
X51243071Y-93064665D01*
X51233491Y-93074112D01*
X51086517Y-93191440D01*
X50919553Y-93277986D01*
X50738958Y-93330453D01*
X50551613Y-93346845D01*
X50364651Y-93326534D01*
X50185195Y-93270295D01*
X50020080Y-93180272D01*
X50020053Y-93180249D01*
X50020045Y-93180245D01*
X49875593Y-93059892D01*
X49757273Y-92913779D01*
X49757270Y-92913773D01*
X49757243Y-92913740D01*
X49669534Y-92747384D01*
X49615807Y-92567161D01*
X49598109Y-92379934D01*
X49617114Y-92192834D01*
X49672098Y-92012989D01*
X49760967Y-91847251D01*
X49880335Y-91701929D01*
X49886929Y-91695335D01*
X49896509Y-91685888D01*
X50043483Y-91568560D01*
X50210446Y-91482014D01*
X50391041Y-91429547D01*
X50578387Y-91413156D01*
X50765349Y-91433467D01*
X50765349Y-91433467D01*
G37*
G36*
X48225349Y-91433467D02*
X48404805Y-91489705D01*
X48569920Y-91579728D01*
X48569947Y-91579751D01*
X48569955Y-91579755D01*
X48714407Y-91700108D01*
X48832727Y-91846221D01*
X48832730Y-91846227D01*
X48832757Y-91846260D01*
X48920465Y-92012616D01*
X48974193Y-92192839D01*
X48991891Y-92380066D01*
X48972886Y-92567166D01*
X48917902Y-92747011D01*
X48829033Y-92912750D01*
X48709665Y-93058071D01*
X48703071Y-93064665D01*
X48693491Y-93074112D01*
X48546517Y-93191440D01*
X48379553Y-93277986D01*
X48198958Y-93330453D01*
X48011613Y-93346845D01*
X47824651Y-93326534D01*
X47645195Y-93270295D01*
X47480080Y-93180272D01*
X47480053Y-93180249D01*
X47480045Y-93180245D01*
X47335593Y-93059892D01*
X47217273Y-92913779D01*
X47217270Y-92913773D01*
X47217243Y-92913740D01*
X47129534Y-92747384D01*
X47075807Y-92567161D01*
X47058109Y-92379934D01*
X47077114Y-92192834D01*
X47132098Y-92012989D01*
X47220967Y-91847251D01*
X47340335Y-91701929D01*
X47346929Y-91695335D01*
X47356509Y-91685888D01*
X47503483Y-91568560D01*
X47670446Y-91482014D01*
X47851041Y-91429547D01*
X48038387Y-91413156D01*
X48225349Y-91433467D01*
X48225349Y-91433467D01*
G37*
G36*
X53116920Y-91416451D02*
X53123116Y-91416494D01*
X53310006Y-91437457D01*
X53489264Y-91494321D01*
X53654064Y-91584921D01*
X53798128Y-91705804D01*
X53915968Y-91852368D01*
X54003096Y-92019029D01*
X54056194Y-92199439D01*
X54056198Y-92199478D01*
X54056200Y-92199486D01*
X54073241Y-92386725D01*
X54053588Y-92573710D01*
X54053585Y-92573719D01*
X54053581Y-92573759D01*
X53997969Y-92753410D01*
X53908523Y-92918838D01*
X53788648Y-93063742D01*
X53642910Y-93182603D01*
X53476861Y-93270893D01*
X53296826Y-93325248D01*
X53109662Y-93343600D01*
X53100303Y-93343600D01*
X53093080Y-93343549D01*
X53086884Y-93343506D01*
X52899994Y-93322543D01*
X52720736Y-93265679D01*
X52555936Y-93175079D01*
X52411872Y-93054196D01*
X52294032Y-92907632D01*
X52206904Y-92740971D01*
X52153806Y-92560561D01*
X52153802Y-92560522D01*
X52153800Y-92560514D01*
X52136759Y-92373275D01*
X52156412Y-92186290D01*
X52156415Y-92186281D01*
X52156419Y-92186241D01*
X52212031Y-92006590D01*
X52301477Y-91841162D01*
X52421352Y-91696258D01*
X52567090Y-91577397D01*
X52733139Y-91489107D01*
X52913174Y-91434752D01*
X53100338Y-91416400D01*
X53109697Y-91416400D01*
X53116920Y-91416451D01*
X53116920Y-91416451D01*
G37*
G36*
X88500597Y-90656925D02*
X88500610Y-90656929D01*
X88500647Y-90656933D01*
X88612509Y-90691560D01*
X88715516Y-90747255D01*
X88805742Y-90821897D01*
X88879753Y-90912643D01*
X88934728Y-91016036D01*
X88968573Y-91128137D01*
X88980000Y-91244678D01*
X88980000Y-92255322D01*
X88979942Y-92263699D01*
X88966889Y-92380069D01*
X88931481Y-92491687D01*
X88875068Y-92594302D01*
X88799798Y-92684006D01*
X88708538Y-92757381D01*
X88604764Y-92811632D01*
X88492429Y-92844694D01*
X88492399Y-92844697D01*
X88492381Y-92844702D01*
X88375813Y-92855310D01*
X88259403Y-92843075D01*
X88259390Y-92843071D01*
X88259353Y-92843067D01*
X88147491Y-92808440D01*
X88044484Y-92752745D01*
X87954258Y-92678103D01*
X87880247Y-92587357D01*
X87825272Y-92483964D01*
X87791427Y-92371863D01*
X87780000Y-92255322D01*
X87780000Y-91244678D01*
X87780058Y-91236301D01*
X87793111Y-91119931D01*
X87828519Y-91008313D01*
X87884932Y-90905698D01*
X87960202Y-90815994D01*
X88051462Y-90742619D01*
X88155236Y-90688368D01*
X88267571Y-90655306D01*
X88267601Y-90655303D01*
X88267619Y-90655298D01*
X88384187Y-90644690D01*
X88500597Y-90656925D01*
X88500597Y-90656925D01*
G37*
G36*
X82500597Y-90656925D02*
X82500610Y-90656929D01*
X82500647Y-90656933D01*
X82612509Y-90691560D01*
X82715516Y-90747255D01*
X82805742Y-90821897D01*
X82879753Y-90912643D01*
X82934728Y-91016036D01*
X82968573Y-91128137D01*
X82980000Y-91244678D01*
X82980000Y-92255322D01*
X82979942Y-92263699D01*
X82966889Y-92380069D01*
X82931481Y-92491687D01*
X82875068Y-92594302D01*
X82799798Y-92684006D01*
X82708538Y-92757381D01*
X82604764Y-92811632D01*
X82492429Y-92844694D01*
X82492399Y-92844697D01*
X82492381Y-92844702D01*
X82375813Y-92855310D01*
X82259403Y-92843075D01*
X82259390Y-92843071D01*
X82259353Y-92843067D01*
X82147491Y-92808440D01*
X82044484Y-92752745D01*
X81954258Y-92678103D01*
X81880247Y-92587357D01*
X81825272Y-92483964D01*
X81791427Y-92371863D01*
X81780000Y-92255322D01*
X81780000Y-91244678D01*
X81780058Y-91236301D01*
X81793111Y-91119931D01*
X81828519Y-91008313D01*
X81884932Y-90905698D01*
X81960202Y-90815994D01*
X82051462Y-90742619D01*
X82155236Y-90688368D01*
X82267571Y-90655306D01*
X82267601Y-90655303D01*
X82267619Y-90655298D01*
X82384187Y-90644690D01*
X82500597Y-90656925D01*
X82500597Y-90656925D01*
G37*
G36*
X80500597Y-90656925D02*
X80500610Y-90656929D01*
X80500647Y-90656933D01*
X80612509Y-90691560D01*
X80715516Y-90747255D01*
X80805742Y-90821897D01*
X80879753Y-90912643D01*
X80934728Y-91016036D01*
X80968573Y-91128137D01*
X80980000Y-91244678D01*
X80980000Y-92255322D01*
X80979942Y-92263699D01*
X80966889Y-92380069D01*
X80931481Y-92491687D01*
X80875068Y-92594302D01*
X80799798Y-92684006D01*
X80708538Y-92757381D01*
X80604764Y-92811632D01*
X80492429Y-92844694D01*
X80492399Y-92844697D01*
X80492381Y-92844702D01*
X80375813Y-92855310D01*
X80259403Y-92843075D01*
X80259390Y-92843071D01*
X80259353Y-92843067D01*
X80147491Y-92808440D01*
X80044484Y-92752745D01*
X79954258Y-92678103D01*
X79880247Y-92587357D01*
X79825272Y-92483964D01*
X79791427Y-92371863D01*
X79780000Y-92255322D01*
X79780000Y-91244678D01*
X79780058Y-91236301D01*
X79793111Y-91119931D01*
X79828519Y-91008313D01*
X79884932Y-90905698D01*
X79960202Y-90815994D01*
X80051462Y-90742619D01*
X80155236Y-90688368D01*
X80267571Y-90655306D01*
X80267601Y-90655303D01*
X80267619Y-90655298D01*
X80384187Y-90644690D01*
X80500597Y-90656925D01*
X80500597Y-90656925D01*
G37*
G36*
X78500597Y-90656925D02*
X78500610Y-90656929D01*
X78500647Y-90656933D01*
X78612509Y-90691560D01*
X78715516Y-90747255D01*
X78805742Y-90821897D01*
X78879753Y-90912643D01*
X78934728Y-91016036D01*
X78968573Y-91128137D01*
X78980000Y-91244678D01*
X78980000Y-92255322D01*
X78979942Y-92263699D01*
X78966889Y-92380069D01*
X78931481Y-92491687D01*
X78875068Y-92594302D01*
X78799798Y-92684006D01*
X78708538Y-92757381D01*
X78604764Y-92811632D01*
X78492429Y-92844694D01*
X78492399Y-92844697D01*
X78492381Y-92844702D01*
X78375813Y-92855310D01*
X78259403Y-92843075D01*
X78259390Y-92843071D01*
X78259353Y-92843067D01*
X78147491Y-92808440D01*
X78044484Y-92752745D01*
X77954258Y-92678103D01*
X77880247Y-92587357D01*
X77825272Y-92483964D01*
X77791427Y-92371863D01*
X77780000Y-92255322D01*
X77780000Y-91244678D01*
X77780058Y-91236301D01*
X77793111Y-91119931D01*
X77828519Y-91008313D01*
X77884932Y-90905698D01*
X77960202Y-90815994D01*
X78051462Y-90742619D01*
X78155236Y-90688368D01*
X78267571Y-90655306D01*
X78267601Y-90655303D01*
X78267619Y-90655298D01*
X78384187Y-90644690D01*
X78500597Y-90656925D01*
X78500597Y-90656925D01*
G37*
G36*
X92500597Y-90656925D02*
X92500610Y-90656929D01*
X92500647Y-90656933D01*
X92612509Y-90691560D01*
X92715516Y-90747255D01*
X92805742Y-90821897D01*
X92879753Y-90912643D01*
X92934728Y-91016036D01*
X92968573Y-91128137D01*
X92980000Y-91244678D01*
X92980000Y-92255322D01*
X92979942Y-92263699D01*
X92966889Y-92380069D01*
X92931481Y-92491687D01*
X92875068Y-92594302D01*
X92799798Y-92684006D01*
X92708538Y-92757381D01*
X92604764Y-92811632D01*
X92492429Y-92844694D01*
X92492399Y-92844697D01*
X92492381Y-92844702D01*
X92375813Y-92855310D01*
X92259403Y-92843075D01*
X92259390Y-92843071D01*
X92259353Y-92843067D01*
X92147491Y-92808440D01*
X92044484Y-92752745D01*
X91954258Y-92678103D01*
X91880247Y-92587357D01*
X91825272Y-92483964D01*
X91791427Y-92371863D01*
X91780000Y-92255322D01*
X91780000Y-91244678D01*
X91780058Y-91236301D01*
X91793111Y-91119931D01*
X91828519Y-91008313D01*
X91884932Y-90905698D01*
X91960202Y-90815994D01*
X92051462Y-90742619D01*
X92155236Y-90688368D01*
X92267571Y-90655306D01*
X92267601Y-90655303D01*
X92267619Y-90655298D01*
X92384187Y-90644690D01*
X92500597Y-90656925D01*
X92500597Y-90656925D01*
G37*
G36*
X90500597Y-90656925D02*
X90500610Y-90656929D01*
X90500647Y-90656933D01*
X90612509Y-90691560D01*
X90715516Y-90747255D01*
X90805742Y-90821897D01*
X90879753Y-90912643D01*
X90934728Y-91016036D01*
X90968573Y-91128137D01*
X90980000Y-91244678D01*
X90980000Y-92255322D01*
X90979942Y-92263699D01*
X90966889Y-92380069D01*
X90931481Y-92491687D01*
X90875068Y-92594302D01*
X90799798Y-92684006D01*
X90708538Y-92757381D01*
X90604764Y-92811632D01*
X90492429Y-92844694D01*
X90492399Y-92844697D01*
X90492381Y-92844702D01*
X90375813Y-92855310D01*
X90259403Y-92843075D01*
X90259390Y-92843071D01*
X90259353Y-92843067D01*
X90147491Y-92808440D01*
X90044484Y-92752745D01*
X89954258Y-92678103D01*
X89880247Y-92587357D01*
X89825272Y-92483964D01*
X89791427Y-92371863D01*
X89780000Y-92255322D01*
X89780000Y-91244678D01*
X89780058Y-91236301D01*
X89793111Y-91119931D01*
X89828519Y-91008313D01*
X89884932Y-90905698D01*
X89960202Y-90815994D01*
X90051462Y-90742619D01*
X90155236Y-90688368D01*
X90267571Y-90655306D01*
X90267601Y-90655303D01*
X90267619Y-90655298D01*
X90384187Y-90644690D01*
X90500597Y-90656925D01*
X90500597Y-90656925D01*
G37*
G36*
X86500597Y-90656925D02*
X86500610Y-90656929D01*
X86500647Y-90656933D01*
X86612509Y-90691560D01*
X86715516Y-90747255D01*
X86805742Y-90821897D01*
X86879753Y-90912643D01*
X86934728Y-91016036D01*
X86968573Y-91128137D01*
X86980000Y-91244678D01*
X86980000Y-92255322D01*
X86979942Y-92263699D01*
X86966889Y-92380069D01*
X86931481Y-92491687D01*
X86875068Y-92594302D01*
X86799798Y-92684006D01*
X86708538Y-92757381D01*
X86604764Y-92811632D01*
X86492429Y-92844694D01*
X86492399Y-92844697D01*
X86492381Y-92844702D01*
X86375813Y-92855310D01*
X86259403Y-92843075D01*
X86259390Y-92843071D01*
X86259353Y-92843067D01*
X86147491Y-92808440D01*
X86044484Y-92752745D01*
X85954258Y-92678103D01*
X85880247Y-92587357D01*
X85825272Y-92483964D01*
X85791427Y-92371863D01*
X85780000Y-92255322D01*
X85780000Y-91244678D01*
X85780058Y-91236301D01*
X85793111Y-91119931D01*
X85828519Y-91008313D01*
X85884932Y-90905698D01*
X85960202Y-90815994D01*
X86051462Y-90742619D01*
X86155236Y-90688368D01*
X86267571Y-90655306D01*
X86267601Y-90655303D01*
X86267619Y-90655298D01*
X86384187Y-90644690D01*
X86500597Y-90656925D01*
X86500597Y-90656925D01*
G37*
G36*
X84500597Y-90656925D02*
X84500610Y-90656929D01*
X84500647Y-90656933D01*
X84612509Y-90691560D01*
X84715516Y-90747255D01*
X84805742Y-90821897D01*
X84879753Y-90912643D01*
X84934728Y-91016036D01*
X84968573Y-91128137D01*
X84980000Y-91244678D01*
X84980000Y-92255322D01*
X84979942Y-92263699D01*
X84966889Y-92380069D01*
X84931481Y-92491687D01*
X84875068Y-92594302D01*
X84799798Y-92684006D01*
X84708538Y-92757381D01*
X84604764Y-92811632D01*
X84492429Y-92844694D01*
X84492399Y-92844697D01*
X84492381Y-92844702D01*
X84375813Y-92855310D01*
X84259403Y-92843075D01*
X84259390Y-92843071D01*
X84259353Y-92843067D01*
X84147491Y-92808440D01*
X84044484Y-92752745D01*
X83954258Y-92678103D01*
X83880247Y-92587357D01*
X83825272Y-92483964D01*
X83791427Y-92371863D01*
X83780000Y-92255322D01*
X83780000Y-91244678D01*
X83780058Y-91236301D01*
X83793111Y-91119931D01*
X83828519Y-91008313D01*
X83884932Y-90905698D01*
X83960202Y-90815994D01*
X84051462Y-90742619D01*
X84155236Y-90688368D01*
X84267571Y-90655306D01*
X84267601Y-90655303D01*
X84267619Y-90655298D01*
X84384187Y-90644690D01*
X84500597Y-90656925D01*
X84500597Y-90656925D01*
G37*
G36*
X61631511Y-91850198D02*
X61689143Y-91862027D01*
X61743377Y-91884825D01*
X61792153Y-91917725D01*
X61833613Y-91959476D01*
X61866168Y-92008475D01*
X61888588Y-92062868D01*
X61899948Y-92120239D01*
X61899948Y-92120254D01*
X61900013Y-92120583D01*
X61899075Y-92187782D01*
X61898999Y-92188116D01*
X61898999Y-92188127D01*
X61886043Y-92245153D01*
X61862112Y-92298902D01*
X61828203Y-92346973D01*
X61785590Y-92387552D01*
X61735921Y-92419073D01*
X61681067Y-92440349D01*
X61623129Y-92450565D01*
X61564309Y-92449334D01*
X61506845Y-92436699D01*
X61452936Y-92413147D01*
X61404619Y-92379566D01*
X61363751Y-92337246D01*
X61331883Y-92287797D01*
X61310224Y-92233093D01*
X61299603Y-92175222D01*
X61300425Y-92116397D01*
X61312656Y-92058851D01*
X61335834Y-92004773D01*
X61369073Y-91956229D01*
X61411109Y-91915065D01*
X61460336Y-91882851D01*
X61514889Y-91860810D01*
X61572675Y-91849786D01*
X61631511Y-91850198D01*
X61631511Y-91850198D01*
G37*
G36*
X129283592Y-85801797D02*
X129802277Y-85908268D01*
X130290398Y-86113455D01*
X130729373Y-86409546D01*
X131102477Y-86785265D01*
X131395496Y-87226293D01*
X131597271Y-87715836D01*
X131700050Y-88234908D01*
X131700050Y-88234917D01*
X131700116Y-88235251D01*
X131691671Y-88840037D01*
X131691595Y-88840371D01*
X131691595Y-88840383D01*
X131574365Y-89356375D01*
X131358998Y-89840097D01*
X131053779Y-90272772D01*
X130670327Y-90637928D01*
X130223262Y-90921644D01*
X129729597Y-91113125D01*
X129208146Y-91205070D01*
X128678765Y-91193982D01*
X128161612Y-91080278D01*
X127676404Y-90868296D01*
X127241608Y-90566104D01*
X126873786Y-90185213D01*
X126586955Y-89740139D01*
X126392034Y-89247824D01*
X126296448Y-88727020D01*
X126303842Y-88197576D01*
X126413930Y-87679652D01*
X126622522Y-87192970D01*
X126921671Y-86756075D01*
X127299984Y-86385603D01*
X127743047Y-86095670D01*
X128233989Y-85897317D01*
X128754104Y-85798100D01*
X129283592Y-85801797D01*
X129283592Y-85801797D01*
G37*
G36*
X71283592Y-85801797D02*
X71802277Y-85908268D01*
X72290398Y-86113455D01*
X72729373Y-86409546D01*
X73102477Y-86785265D01*
X73395496Y-87226293D01*
X73597271Y-87715836D01*
X73700050Y-88234908D01*
X73700050Y-88234917D01*
X73700116Y-88235251D01*
X73691671Y-88840037D01*
X73691595Y-88840371D01*
X73691595Y-88840383D01*
X73574365Y-89356375D01*
X73358998Y-89840097D01*
X73053779Y-90272772D01*
X72670327Y-90637928D01*
X72223262Y-90921644D01*
X71729597Y-91113125D01*
X71208146Y-91205070D01*
X70678765Y-91193982D01*
X70161612Y-91080278D01*
X69676404Y-90868296D01*
X69241608Y-90566104D01*
X68873786Y-90185213D01*
X68586955Y-89740139D01*
X68392034Y-89247824D01*
X68296448Y-88727020D01*
X68303842Y-88197576D01*
X68413930Y-87679652D01*
X68622522Y-87192970D01*
X68921671Y-86756075D01*
X69299984Y-86385603D01*
X69743047Y-86095670D01*
X70233989Y-85897317D01*
X70754104Y-85798100D01*
X71283592Y-85801797D01*
X71283592Y-85801797D01*
G37*
G36*
X48225349Y-88893467D02*
X48404805Y-88949705D01*
X48569920Y-89039728D01*
X48569947Y-89039751D01*
X48569955Y-89039755D01*
X48714407Y-89160108D01*
X48832727Y-89306221D01*
X48832730Y-89306227D01*
X48832757Y-89306260D01*
X48920465Y-89472616D01*
X48974193Y-89652839D01*
X48991891Y-89840066D01*
X48972886Y-90027166D01*
X48917902Y-90207011D01*
X48829033Y-90372750D01*
X48709665Y-90518071D01*
X48703071Y-90524665D01*
X48693491Y-90534112D01*
X48546517Y-90651440D01*
X48379553Y-90737986D01*
X48198958Y-90790453D01*
X48011613Y-90806845D01*
X47824651Y-90786534D01*
X47645195Y-90730295D01*
X47480080Y-90640272D01*
X47480053Y-90640249D01*
X47480045Y-90640245D01*
X47335593Y-90519892D01*
X47217273Y-90373779D01*
X47217270Y-90373773D01*
X47217243Y-90373740D01*
X47129534Y-90207384D01*
X47075807Y-90027161D01*
X47058109Y-89839934D01*
X47077114Y-89652834D01*
X47132098Y-89472989D01*
X47220967Y-89307251D01*
X47340335Y-89161929D01*
X47346929Y-89155335D01*
X47356509Y-89145888D01*
X47503483Y-89028560D01*
X47670446Y-88942014D01*
X47851041Y-88889547D01*
X48038387Y-88873156D01*
X48225349Y-88893467D01*
X48225349Y-88893467D01*
G37*
G36*
X50765349Y-88893467D02*
X50944805Y-88949705D01*
X51109920Y-89039728D01*
X51109947Y-89039751D01*
X51109955Y-89039755D01*
X51254407Y-89160108D01*
X51372727Y-89306221D01*
X51372730Y-89306227D01*
X51372757Y-89306260D01*
X51460465Y-89472616D01*
X51514193Y-89652839D01*
X51531891Y-89840066D01*
X51512886Y-90027166D01*
X51457902Y-90207011D01*
X51369033Y-90372750D01*
X51249665Y-90518071D01*
X51243071Y-90524665D01*
X51233491Y-90534112D01*
X51086517Y-90651440D01*
X50919553Y-90737986D01*
X50738958Y-90790453D01*
X50551613Y-90806845D01*
X50364651Y-90786534D01*
X50185195Y-90730295D01*
X50020080Y-90640272D01*
X50020053Y-90640249D01*
X50020045Y-90640245D01*
X49875593Y-90519892D01*
X49757273Y-90373779D01*
X49757270Y-90373773D01*
X49757243Y-90373740D01*
X49669534Y-90207384D01*
X49615807Y-90027161D01*
X49598109Y-89839934D01*
X49617114Y-89652834D01*
X49672098Y-89472989D01*
X49760967Y-89307251D01*
X49880335Y-89161929D01*
X49886929Y-89155335D01*
X49896509Y-89145888D01*
X50043483Y-89028560D01*
X50210446Y-88942014D01*
X50391041Y-88889547D01*
X50578387Y-88873156D01*
X50765349Y-88893467D01*
X50765349Y-88893467D01*
G37*
G36*
X53116920Y-88876451D02*
X53123116Y-88876494D01*
X53310006Y-88897457D01*
X53489264Y-88954321D01*
X53654064Y-89044921D01*
X53798128Y-89165804D01*
X53915968Y-89312368D01*
X54003096Y-89479029D01*
X54056194Y-89659439D01*
X54056198Y-89659478D01*
X54056200Y-89659486D01*
X54073241Y-89846725D01*
X54053588Y-90033710D01*
X54053585Y-90033719D01*
X54053581Y-90033759D01*
X53997969Y-90213410D01*
X53908523Y-90378838D01*
X53788648Y-90523742D01*
X53642910Y-90642603D01*
X53476861Y-90730893D01*
X53296826Y-90785248D01*
X53109662Y-90803600D01*
X53100303Y-90803600D01*
X53093080Y-90803549D01*
X53086884Y-90803506D01*
X52899994Y-90782543D01*
X52720736Y-90725679D01*
X52555936Y-90635079D01*
X52411872Y-90514196D01*
X52294032Y-90367632D01*
X52206904Y-90200971D01*
X52153806Y-90020561D01*
X52153802Y-90020522D01*
X52153800Y-90020514D01*
X52136759Y-89833275D01*
X52156412Y-89646290D01*
X52156415Y-89646281D01*
X52156419Y-89646241D01*
X52212031Y-89466590D01*
X52301477Y-89301162D01*
X52421352Y-89156258D01*
X52567090Y-89037397D01*
X52733139Y-88949107D01*
X52913174Y-88894752D01*
X53100338Y-88876400D01*
X53109697Y-88876400D01*
X53116920Y-88876451D01*
X53116920Y-88876451D01*
G37*
G36*
X110100000Y-88050000D02*
X108900000Y-88050000D01*
X108900000Y-85700000D01*
X110100000Y-85700000D01*
X110100000Y-88050000D01*
X110100000Y-88050000D01*
G37*
G36*
X108350000Y-88050000D02*
X107150000Y-88050000D01*
X107150000Y-85700000D01*
X108350000Y-85700000D01*
X108350000Y-88050000D01*
X108350000Y-88050000D01*
G37*
M02*
