G04 #@! TF.FileFunction,Legend,Bot*
%FSLAX46Y46*%
G04 Gerber Fmt 4.6, Leading zero omitted, Abs format (unit mm)*
G04 Created by KiCad (PCBNEW 4.0.5) date 01/10/17 14:27:18*
%MOMM*%
%LPD*%
G01*
G04 APERTURE LIST*
%ADD10C,0.100000*%
%ADD11C,0.300000*%
%ADD12C,0.150000*%
%ADD13C,0.200000*%
%ADD14C,0.187500*%
%ADD15C,2.450000*%
%ADD16C,0.250000*%
%ADD17C,0.400000*%
%ADD18C,0.500000*%
%ADD19C,0.010000*%
%ADD20C,1.200000*%
%ADD21C,0.600000*%
%ADD22R,1.200000X2.350000*%
%ADD23R,1.927200X1.927200*%
%ADD24C,1.927200*%
%ADD25O,1.927200X1.927200*%
%ADD26O,1.200000X2.200000*%
%ADD27C,5.400000*%
%ADD28C,2.000000*%
%ADD29O,2.700000X1.100000*%
%ADD30O,1.100000X2.700000*%
%ADD31R,6.200000X6.200000*%
%ADD32C,1.600000*%
G04 APERTURE END LIST*
D10*
D11*
X87471428Y-98328571D02*
X87971428Y-97614286D01*
X88328571Y-98328571D02*
X88328571Y-96828571D01*
X87757143Y-96828571D01*
X87614285Y-96900000D01*
X87542857Y-96971429D01*
X87471428Y-97114286D01*
X87471428Y-97328571D01*
X87542857Y-97471429D01*
X87614285Y-97542857D01*
X87757143Y-97614286D01*
X88328571Y-97614286D01*
X86900000Y-97900000D02*
X86185714Y-97900000D01*
X87042857Y-98328571D02*
X86542857Y-96828571D01*
X86042857Y-98328571D01*
X85542857Y-98328571D02*
X85542857Y-96828571D01*
X85185714Y-96828571D01*
X84971429Y-96900000D01*
X84828571Y-97042857D01*
X84757143Y-97185714D01*
X84685714Y-97471429D01*
X84685714Y-97685714D01*
X84757143Y-97971429D01*
X84828571Y-98114286D01*
X84971429Y-98257143D01*
X85185714Y-98328571D01*
X85542857Y-98328571D01*
X84042857Y-98328571D02*
X84042857Y-96828571D01*
X83042857Y-96828571D02*
X82757143Y-96828571D01*
X82614285Y-96900000D01*
X82471428Y-97042857D01*
X82400000Y-97328571D01*
X82400000Y-97828571D01*
X82471428Y-98114286D01*
X82614285Y-98257143D01*
X82757143Y-98328571D01*
X83042857Y-98328571D01*
X83185714Y-98257143D01*
X83328571Y-98114286D01*
X83400000Y-97828571D01*
X83400000Y-97328571D01*
X83328571Y-97042857D01*
X83185714Y-96900000D01*
X83042857Y-96828571D01*
X118414285Y-99192857D02*
X117914285Y-99192857D01*
X117699999Y-99978571D02*
X118414285Y-99978571D01*
X118414285Y-98478571D01*
X117699999Y-98478571D01*
X117128571Y-99907143D02*
X116914285Y-99978571D01*
X116557142Y-99978571D01*
X116414285Y-99907143D01*
X116342856Y-99835714D01*
X116271428Y-99692857D01*
X116271428Y-99550000D01*
X116342856Y-99407143D01*
X116414285Y-99335714D01*
X116557142Y-99264286D01*
X116842856Y-99192857D01*
X116985714Y-99121429D01*
X117057142Y-99050000D01*
X117128571Y-98907143D01*
X117128571Y-98764286D01*
X117057142Y-98621429D01*
X116985714Y-98550000D01*
X116842856Y-98478571D01*
X116485714Y-98478571D01*
X116271428Y-98550000D01*
X115628571Y-99978571D02*
X115628571Y-98478571D01*
X115057143Y-98478571D01*
X114914285Y-98550000D01*
X114842857Y-98621429D01*
X114771428Y-98764286D01*
X114771428Y-98978571D01*
X114842857Y-99121429D01*
X114914285Y-99192857D01*
X115057143Y-99264286D01*
X115628571Y-99264286D01*
X114271428Y-98478571D02*
X113342857Y-98478571D01*
X113842857Y-99050000D01*
X113628571Y-99050000D01*
X113485714Y-99121429D01*
X113414285Y-99192857D01*
X113342857Y-99335714D01*
X113342857Y-99692857D01*
X113414285Y-99835714D01*
X113485714Y-99907143D01*
X113628571Y-99978571D01*
X114057143Y-99978571D01*
X114200000Y-99907143D01*
X114271428Y-99835714D01*
X112771429Y-98621429D02*
X112700000Y-98550000D01*
X112557143Y-98478571D01*
X112200000Y-98478571D01*
X112057143Y-98550000D01*
X111985714Y-98621429D01*
X111914286Y-98764286D01*
X111914286Y-98907143D01*
X111985714Y-99121429D01*
X112842857Y-99978571D01*
X111914286Y-99978571D01*
D12*
X57500000Y-100350000D02*
X57500000Y-99550000D01*
X57650000Y-100450000D02*
X57350000Y-100450000D01*
X57200000Y-100600000D02*
X57800000Y-100600000D01*
X57650000Y-99450000D02*
X57350000Y-99450000D01*
X57200000Y-99300000D02*
X57800000Y-99300000D01*
X59100000Y-100350000D02*
X59100000Y-99550000D01*
X59250000Y-100450000D02*
X58950000Y-100450000D01*
X58800000Y-100600000D02*
X59400000Y-100600000D01*
X58950000Y-99450000D02*
X59250000Y-99450000D01*
X59400000Y-99300000D02*
X58800000Y-99300000D01*
X59900000Y-99150000D02*
X56700000Y-99150000D01*
X56700000Y-100750000D02*
X59900000Y-100750000D01*
D13*
X57080952Y-99971429D02*
X56319047Y-99971429D01*
X58680952Y-99971429D02*
X57919047Y-99971429D01*
X58299999Y-100352381D02*
X58299999Y-99590476D01*
X60185714Y-100354762D02*
X60042857Y-100402381D01*
X59804761Y-100402381D01*
X59709523Y-100354762D01*
X59661904Y-100307143D01*
X59614285Y-100211905D01*
X59614285Y-100116667D01*
X59661904Y-100021429D01*
X59709523Y-99973810D01*
X59804761Y-99926190D01*
X59995238Y-99878571D01*
X60090476Y-99830952D01*
X60138095Y-99783333D01*
X60185714Y-99688095D01*
X60185714Y-99592857D01*
X60138095Y-99497619D01*
X60090476Y-99450000D01*
X59995238Y-99402381D01*
X59757142Y-99402381D01*
X59614285Y-99450000D01*
D12*
X57500000Y-99950000D02*
G75*
G03X57500000Y-99950000I-800000J0D01*
G01*
X59100000Y-99950000D02*
G75*
G03X59100000Y-99950000I-800000J0D01*
G01*
X60700000Y-99950000D02*
G75*
G03X60700000Y-99950000I-800000J0D01*
G01*
X56300000Y-91230000D02*
X56300000Y-93530000D01*
D14*
X59578570Y-92739286D02*
X59828570Y-92382143D01*
X60007142Y-92739286D02*
X60007142Y-91989286D01*
X59721427Y-91989286D01*
X59649999Y-92025000D01*
X59614284Y-92060714D01*
X59578570Y-92132143D01*
X59578570Y-92239286D01*
X59614284Y-92310714D01*
X59649999Y-92346429D01*
X59721427Y-92382143D01*
X60007142Y-92382143D01*
X58828570Y-92667857D02*
X58864284Y-92703571D01*
X58971427Y-92739286D01*
X59042856Y-92739286D01*
X59149999Y-92703571D01*
X59221427Y-92632143D01*
X59257142Y-92560714D01*
X59292856Y-92417857D01*
X59292856Y-92310714D01*
X59257142Y-92167857D01*
X59221427Y-92096429D01*
X59149999Y-92025000D01*
X59042856Y-91989286D01*
X58971427Y-91989286D01*
X58864284Y-92025000D01*
X58828570Y-92060714D01*
X58399999Y-92739286D02*
X58471427Y-92703571D01*
X58507142Y-92667857D01*
X58542856Y-92596429D01*
X58542856Y-92382143D01*
X58507142Y-92310714D01*
X58471427Y-92275000D01*
X58399999Y-92239286D01*
X58292856Y-92239286D01*
X58221427Y-92275000D01*
X58185713Y-92310714D01*
X58149999Y-92382143D01*
X58149999Y-92596429D01*
X58185713Y-92667857D01*
X58221427Y-92703571D01*
X58292856Y-92739286D01*
X58399999Y-92739286D01*
X57507142Y-92239286D02*
X57507142Y-92739286D01*
X57828571Y-92239286D02*
X57828571Y-92632143D01*
X57792856Y-92703571D01*
X57721428Y-92739286D01*
X57614285Y-92739286D01*
X57542856Y-92703571D01*
X57507142Y-92667857D01*
X57257142Y-92239286D02*
X56971428Y-92239286D01*
X57150000Y-91989286D02*
X57150000Y-92632143D01*
X57114285Y-92703571D01*
X57042857Y-92739286D01*
X56971428Y-92739286D01*
D11*
X55452381Y-107049524D02*
X55392857Y-106990000D01*
X55273809Y-106930476D01*
X54976190Y-106930476D01*
X54857143Y-106990000D01*
X54797619Y-107049524D01*
X54738095Y-107168571D01*
X54738095Y-107287619D01*
X54797619Y-107466190D01*
X55511905Y-108180476D01*
X54738095Y-108180476D01*
X55511905Y-104390476D02*
X54738095Y-104390476D01*
X55154762Y-104866667D01*
X54976190Y-104866667D01*
X54857143Y-104926190D01*
X54797619Y-104985714D01*
X54738095Y-105104762D01*
X54738095Y-105402381D01*
X54797619Y-105521429D01*
X54857143Y-105580952D01*
X54976190Y-105640476D01*
X55333333Y-105640476D01*
X55452381Y-105580952D01*
X55511905Y-105521429D01*
X54857143Y-102267143D02*
X54857143Y-103100476D01*
X55154762Y-101790952D02*
X55452381Y-102683810D01*
X54678571Y-102683810D01*
X54797619Y-99310476D02*
X55392857Y-99310476D01*
X55452381Y-99905714D01*
X55392857Y-99846190D01*
X55273809Y-99786667D01*
X54976190Y-99786667D01*
X54857143Y-99846190D01*
X54797619Y-99905714D01*
X54738095Y-100024762D01*
X54738095Y-100322381D01*
X54797619Y-100441429D01*
X54857143Y-100500952D01*
X54976190Y-100560476D01*
X55273809Y-100560476D01*
X55392857Y-100500952D01*
X55452381Y-100441429D01*
X54857143Y-96770476D02*
X55095238Y-96770476D01*
X55214286Y-96830000D01*
X55273809Y-96889524D01*
X55392857Y-97068095D01*
X55452381Y-97306190D01*
X55452381Y-97782381D01*
X55392857Y-97901429D01*
X55333333Y-97960952D01*
X55214286Y-98020476D01*
X54976190Y-98020476D01*
X54857143Y-97960952D01*
X54797619Y-97901429D01*
X54738095Y-97782381D01*
X54738095Y-97484762D01*
X54797619Y-97365714D01*
X54857143Y-97306190D01*
X54976190Y-97246667D01*
X55214286Y-97246667D01*
X55333333Y-97306190D01*
X55392857Y-97365714D01*
X55452381Y-97484762D01*
X55511905Y-94230476D02*
X54678571Y-94230476D01*
X55214286Y-95480476D01*
X55214286Y-92226190D02*
X55333333Y-92166667D01*
X55392857Y-92107143D01*
X55452381Y-91988095D01*
X55452381Y-91928571D01*
X55392857Y-91809524D01*
X55333333Y-91750000D01*
X55214286Y-91690476D01*
X54976190Y-91690476D01*
X54857143Y-91750000D01*
X54797619Y-91809524D01*
X54738095Y-91928571D01*
X54738095Y-91988095D01*
X54797619Y-92107143D01*
X54857143Y-92166667D01*
X54976190Y-92226190D01*
X55214286Y-92226190D01*
X55333333Y-92285714D01*
X55392857Y-92345238D01*
X55452381Y-92464286D01*
X55452381Y-92702381D01*
X55392857Y-92821429D01*
X55333333Y-92880952D01*
X55214286Y-92940476D01*
X54976190Y-92940476D01*
X54857143Y-92880952D01*
X54797619Y-92821429D01*
X54738095Y-92702381D01*
X54738095Y-92464286D01*
X54797619Y-92345238D01*
X54857143Y-92285714D01*
X54976190Y-92226190D01*
D12*
X77910714Y-109250000D02*
X77910714Y-108785714D01*
X77625000Y-109035714D01*
X77625000Y-108928572D01*
X77589286Y-108857143D01*
X77553571Y-108821429D01*
X77482143Y-108785714D01*
X77303571Y-108785714D01*
X77232143Y-108821429D01*
X77196429Y-108857143D01*
X77160714Y-108928572D01*
X77160714Y-109142857D01*
X77196429Y-109214286D01*
X77232143Y-109250000D01*
X95860714Y-108542857D02*
X95860714Y-108971429D01*
X95860714Y-108757143D02*
X96610714Y-108757143D01*
X96503571Y-108828572D01*
X96432143Y-108900000D01*
X96396429Y-108971429D01*
X96610714Y-108292857D02*
X96610714Y-107792857D01*
X95860714Y-108114286D01*
X59500000Y-93530000D02*
X48025000Y-93530000D01*
X59500000Y-91230000D02*
X48025000Y-91230000D01*
X48025000Y-91230000D02*
G75*
G03X48025000Y-93530000I0J-1150000D01*
G01*
X53105000Y-93530000D02*
G75*
G03X53105000Y-91230000I0J1150000D01*
G01*
D15*
X48025000Y-89840000D02*
X53105000Y-89840000D01*
D11*
X64921429Y-102107143D02*
X66421429Y-102107143D01*
X66421429Y-101535715D01*
X66350000Y-101392857D01*
X66278571Y-101321429D01*
X66135714Y-101250000D01*
X65921429Y-101250000D01*
X65778571Y-101321429D01*
X65707143Y-101392857D01*
X65635714Y-101535715D01*
X65635714Y-102107143D01*
X66421429Y-100750000D02*
X64921429Y-100392857D01*
X65992857Y-100107143D01*
X64921429Y-99821429D01*
X66421429Y-99464286D01*
X64921429Y-98892857D02*
X66421429Y-98892857D01*
X65350000Y-98392857D01*
X66421429Y-97892857D01*
X64921429Y-97892857D01*
D12*
X62600000Y-101900000D02*
X63700000Y-101900000D01*
X64200000Y-102400000D02*
G75*
G03X63700000Y-101900000I-500000J0D01*
G01*
X64200000Y-102400000D02*
X64200000Y-103400000D01*
D16*
X63747619Y-106609523D02*
X63747619Y-107180952D01*
X63747619Y-106895238D02*
X64747619Y-106895238D01*
X64604762Y-106990476D01*
X64509524Y-107085714D01*
X64461905Y-107180952D01*
X64128571Y-106180952D02*
X64128571Y-105419047D01*
X64414286Y-104514285D02*
X63747619Y-104514285D01*
X64795238Y-104752381D02*
X64080952Y-104990476D01*
X64080952Y-104371428D01*
D12*
X64200000Y-108200000D02*
X64200000Y-109300000D01*
X63700000Y-109800000D02*
G75*
G03X64200000Y-109300000I0J500000D01*
G01*
X63700000Y-109800000D02*
X62600000Y-109800000D01*
X63700000Y-98100000D02*
X62600000Y-98100000D01*
X63700000Y-98100000D02*
G75*
G03X64200000Y-97600000I0J500000D01*
G01*
X64200000Y-96500000D02*
X64200000Y-97600000D01*
D16*
X64747619Y-94957142D02*
X64747619Y-95433333D01*
X64271429Y-95480952D01*
X64319048Y-95433333D01*
X64366667Y-95338095D01*
X64366667Y-95099999D01*
X64319048Y-95004761D01*
X64271429Y-94957142D01*
X64176190Y-94909523D01*
X63938095Y-94909523D01*
X63842857Y-94957142D01*
X63795238Y-95004761D01*
X63747619Y-95099999D01*
X63747619Y-95338095D01*
X63795238Y-95433333D01*
X63842857Y-95480952D01*
X64128571Y-94480952D02*
X64128571Y-93719047D01*
X64319048Y-93100000D02*
X64366667Y-93195238D01*
X64414286Y-93242857D01*
X64509524Y-93290476D01*
X64557143Y-93290476D01*
X64652381Y-93242857D01*
X64700000Y-93195238D01*
X64747619Y-93100000D01*
X64747619Y-92909523D01*
X64700000Y-92814285D01*
X64652381Y-92766666D01*
X64557143Y-92719047D01*
X64509524Y-92719047D01*
X64414286Y-92766666D01*
X64366667Y-92814285D01*
X64319048Y-92909523D01*
X64319048Y-93100000D01*
X64271429Y-93195238D01*
X64223810Y-93242857D01*
X64128571Y-93290476D01*
X63938095Y-93290476D01*
X63842857Y-93242857D01*
X63795238Y-93195238D01*
X63747619Y-93100000D01*
X63747619Y-92909523D01*
X63795238Y-92814285D01*
X63842857Y-92766666D01*
X63938095Y-92719047D01*
X64128571Y-92719047D01*
X64223810Y-92766666D01*
X64271429Y-92814285D01*
X64319048Y-92909523D01*
D12*
X64200000Y-90700000D02*
X64200000Y-91700000D01*
X64200000Y-90700000D02*
G75*
G03X63700000Y-90200000I-500000J0D01*
G01*
X62600000Y-90200000D02*
X63700000Y-90200000D01*
X131900000Y-101800000D02*
X130800000Y-101800000D01*
X130300000Y-101300000D02*
G75*
G03X130800000Y-101800000I500000J0D01*
G01*
X130300000Y-101300000D02*
X130300000Y-100100000D01*
X130300000Y-95500000D02*
X130300000Y-94400000D01*
X130800000Y-93900000D02*
G75*
G03X130300000Y-94400000I0J-500000D01*
G01*
X130800000Y-93900000D02*
X131900000Y-93900000D01*
X114400000Y-86100000D02*
X114400000Y-85600000D01*
X106500000Y-86700000D02*
G75*
G03X107000000Y-87200000I500000J0D01*
G01*
X106500000Y-86700000D02*
X106500000Y-85600000D01*
X118700000Y-87200000D02*
X119100000Y-87200000D01*
X123100000Y-87200000D02*
X122700000Y-87200000D01*
X118200000Y-86700000D02*
X118200000Y-85600000D01*
X118200000Y-86700000D02*
G75*
G03X118700000Y-87200000I500000J0D01*
G01*
X123100000Y-87200000D02*
G75*
G03X123600000Y-86700000I0J500000D01*
G01*
X123600000Y-85600000D02*
X123600000Y-86700000D01*
X102700000Y-85600000D02*
X102700000Y-86700000D01*
X97300000Y-86700000D02*
X97300000Y-85600000D01*
X102200000Y-87200000D02*
G75*
G03X102700000Y-86700000I0J500000D01*
G01*
X97300000Y-86700000D02*
G75*
G03X97800000Y-87200000I500000J0D01*
G01*
X88100000Y-86700000D02*
X88100000Y-85600000D01*
X88100000Y-86700000D02*
G75*
G03X88600000Y-87200000I500000J0D01*
G01*
X88700000Y-87200000D02*
X88600000Y-87200000D01*
X93000000Y-87200000D02*
X93000000Y-87200000D01*
X93000000Y-87200000D02*
G75*
G03X93500000Y-86700000I0J500000D01*
G01*
X93500000Y-85600000D02*
X93500000Y-86700000D01*
X76400000Y-86700000D02*
G75*
G03X76900000Y-87200000I500000J0D01*
G01*
X83800000Y-87200000D02*
G75*
G03X84300000Y-86700000I0J500000D01*
G01*
X76400000Y-86700000D02*
X76400000Y-85600000D01*
X78000000Y-87200000D02*
X76900000Y-87200000D01*
X83800000Y-87200000D02*
X82700000Y-87200000D01*
X84300000Y-85600000D02*
X84300000Y-86700000D01*
X59500000Y-93530000D02*
G75*
G03X59500000Y-91230000I0J1150000D01*
G01*
X59500000Y-90990000D02*
G75*
G03X59500000Y-88690000I0J1150000D01*
G01*
D11*
X54738095Y-110720476D02*
X55452381Y-110720476D01*
X55095238Y-110720476D02*
X55095238Y-109470476D01*
X55214286Y-109649048D01*
X55333333Y-109768095D01*
X55452381Y-109827619D01*
D12*
X59500000Y-90990000D02*
X53100000Y-90990000D01*
X59500000Y-88690000D02*
X53100000Y-88690000D01*
D11*
X57714285Y-90405476D02*
X58130952Y-89810238D01*
X58428571Y-90405476D02*
X58428571Y-89155476D01*
X57952380Y-89155476D01*
X57833333Y-89215000D01*
X57773809Y-89274524D01*
X57714285Y-89393571D01*
X57714285Y-89572143D01*
X57773809Y-89691190D01*
X57833333Y-89750714D01*
X57952380Y-89810238D01*
X58428571Y-89810238D01*
X56464285Y-90286429D02*
X56523809Y-90345952D01*
X56702380Y-90405476D01*
X56821428Y-90405476D01*
X57000000Y-90345952D01*
X57119047Y-90226905D01*
X57178571Y-90107857D01*
X57238095Y-89869762D01*
X57238095Y-89691190D01*
X57178571Y-89453095D01*
X57119047Y-89334048D01*
X57000000Y-89215000D01*
X56821428Y-89155476D01*
X56702380Y-89155476D01*
X56523809Y-89215000D01*
X56464285Y-89274524D01*
X55928571Y-90405476D02*
X55928571Y-89572143D01*
X55928571Y-89155476D02*
X55988095Y-89215000D01*
X55928571Y-89274524D01*
X55869047Y-89215000D01*
X55928571Y-89155476D01*
X55928571Y-89274524D01*
X55333333Y-89572143D02*
X55333333Y-90405476D01*
X55333333Y-89691190D02*
X55273809Y-89631667D01*
X55154762Y-89572143D01*
X54976190Y-89572143D01*
X54857142Y-89631667D01*
X54797619Y-89750714D01*
X54797619Y-90405476D01*
X131150000Y-98871428D02*
X131221429Y-99014285D01*
X131221429Y-99228571D01*
X131150000Y-99442856D01*
X131007143Y-99585714D01*
X130864286Y-99657142D01*
X130578571Y-99728571D01*
X130364286Y-99728571D01*
X130078571Y-99657142D01*
X129935714Y-99585714D01*
X129792857Y-99442856D01*
X129721429Y-99228571D01*
X129721429Y-99085714D01*
X129792857Y-98871428D01*
X129864286Y-98799999D01*
X130364286Y-98799999D01*
X130364286Y-99085714D01*
X129721429Y-98157142D02*
X131221429Y-98157142D01*
X131221429Y-97585714D01*
X131150000Y-97442856D01*
X131078571Y-97371428D01*
X130935714Y-97299999D01*
X130721429Y-97299999D01*
X130578571Y-97371428D01*
X130507143Y-97442856D01*
X130435714Y-97585714D01*
X130435714Y-98157142D01*
X129792857Y-96728571D02*
X129721429Y-96514285D01*
X129721429Y-96157142D01*
X129792857Y-96014285D01*
X129864286Y-95942856D01*
X130007143Y-95871428D01*
X130150000Y-95871428D01*
X130292857Y-95942856D01*
X130364286Y-96014285D01*
X130435714Y-96157142D01*
X130507143Y-96442856D01*
X130578571Y-96585714D01*
X130650000Y-96657142D01*
X130792857Y-96728571D01*
X130935714Y-96728571D01*
X131078571Y-96657142D01*
X131150000Y-96585714D01*
X131221429Y-96442856D01*
X131221429Y-96085714D01*
X131150000Y-95871428D01*
X82400000Y-87878571D02*
X82400000Y-86378571D01*
X81828572Y-86378571D01*
X81685714Y-86450000D01*
X81614286Y-86521429D01*
X81542857Y-86664286D01*
X81542857Y-86878571D01*
X81614286Y-87021429D01*
X81685714Y-87092857D01*
X81828572Y-87164286D01*
X82400000Y-87164286D01*
X81042857Y-86378571D02*
X80685714Y-87878571D01*
X80400000Y-86807143D01*
X80114286Y-87878571D01*
X79757143Y-86378571D01*
X78328571Y-87878571D02*
X78828571Y-87164286D01*
X79185714Y-87878571D02*
X79185714Y-86378571D01*
X78614286Y-86378571D01*
X78471428Y-86450000D01*
X78400000Y-86521429D01*
X78328571Y-86664286D01*
X78328571Y-86878571D01*
X78400000Y-87021429D01*
X78471428Y-87092857D01*
X78614286Y-87164286D01*
X79185714Y-87164286D01*
X91764285Y-87735714D02*
X91835714Y-87807143D01*
X92050000Y-87878571D01*
X92192857Y-87878571D01*
X92407142Y-87807143D01*
X92550000Y-87664286D01*
X92621428Y-87521429D01*
X92692857Y-87235714D01*
X92692857Y-87021429D01*
X92621428Y-86735714D01*
X92550000Y-86592857D01*
X92407142Y-86450000D01*
X92192857Y-86378571D01*
X92050000Y-86378571D01*
X91835714Y-86450000D01*
X91764285Y-86521429D01*
X91192857Y-87450000D02*
X90478571Y-87450000D01*
X91335714Y-87878571D02*
X90835714Y-86378571D01*
X90335714Y-87878571D01*
X89835714Y-87878571D02*
X89835714Y-86378571D01*
X88978571Y-87878571D01*
X88978571Y-86378571D01*
X101892857Y-86378571D02*
X101892857Y-87592857D01*
X101821429Y-87735714D01*
X101750000Y-87807143D01*
X101607143Y-87878571D01*
X101321429Y-87878571D01*
X101178571Y-87807143D01*
X101107143Y-87735714D01*
X101035714Y-87592857D01*
X101035714Y-86378571D01*
X100392857Y-87807143D02*
X100178571Y-87878571D01*
X99821428Y-87878571D01*
X99678571Y-87807143D01*
X99607142Y-87735714D01*
X99535714Y-87592857D01*
X99535714Y-87450000D01*
X99607142Y-87307143D01*
X99678571Y-87235714D01*
X99821428Y-87164286D01*
X100107142Y-87092857D01*
X100250000Y-87021429D01*
X100321428Y-86950000D01*
X100392857Y-86807143D01*
X100392857Y-86664286D01*
X100321428Y-86521429D01*
X100250000Y-86450000D01*
X100107142Y-86378571D01*
X99750000Y-86378571D01*
X99535714Y-86450000D01*
X98392857Y-87092857D02*
X98178571Y-87164286D01*
X98107143Y-87235714D01*
X98035714Y-87378571D01*
X98035714Y-87592857D01*
X98107143Y-87735714D01*
X98178571Y-87807143D01*
X98321429Y-87878571D01*
X98892857Y-87878571D01*
X98892857Y-86378571D01*
X98392857Y-86378571D01*
X98250000Y-86450000D01*
X98178571Y-86521429D01*
X98107143Y-86664286D01*
X98107143Y-86807143D01*
X98178571Y-86950000D01*
X98250000Y-87021429D01*
X98392857Y-87092857D01*
X98892857Y-87092857D01*
X116850000Y-86378571D02*
X115992857Y-86378571D01*
X116421428Y-87878571D02*
X116421428Y-86378571D01*
X115492857Y-87092857D02*
X114992857Y-87092857D01*
X114778571Y-87878571D02*
X115492857Y-87878571D01*
X115492857Y-86378571D01*
X114778571Y-86378571D01*
X113421428Y-87878571D02*
X114135714Y-87878571D01*
X114135714Y-86378571D01*
X112921428Y-87092857D02*
X112421428Y-87092857D01*
X112207142Y-87878571D02*
X112921428Y-87878571D01*
X112921428Y-86378571D01*
X112207142Y-86378571D01*
X111564285Y-87878571D02*
X111564285Y-86378571D01*
X111064285Y-87450000D01*
X110564285Y-86378571D01*
X110564285Y-87878571D01*
X122364285Y-87878571D02*
X122364285Y-86378571D01*
X121721428Y-86521429D02*
X121649999Y-86450000D01*
X121507142Y-86378571D01*
X121149999Y-86378571D01*
X121007142Y-86450000D01*
X120935713Y-86521429D01*
X120864285Y-86664286D01*
X120864285Y-86807143D01*
X120935713Y-87021429D01*
X121792856Y-87878571D01*
X120864285Y-87878571D01*
X119364285Y-87735714D02*
X119435714Y-87807143D01*
X119650000Y-87878571D01*
X119792857Y-87878571D01*
X120007142Y-87807143D01*
X120150000Y-87664286D01*
X120221428Y-87521429D01*
X120292857Y-87235714D01*
X120292857Y-87021429D01*
X120221428Y-86735714D01*
X120150000Y-86592857D01*
X120007142Y-86450000D01*
X119792857Y-86378571D01*
X119650000Y-86378571D01*
X119435714Y-86450000D01*
X119364285Y-86521429D01*
D13*
X68814286Y-107166666D02*
X68004762Y-107166666D01*
X67909524Y-107214285D01*
X67861905Y-107261904D01*
X67814286Y-107357143D01*
X67814286Y-107500000D01*
X67861905Y-107595238D01*
X68195238Y-107166666D02*
X68147619Y-107261904D01*
X68147619Y-107452381D01*
X68195238Y-107547619D01*
X68242857Y-107595238D01*
X68338095Y-107642857D01*
X68623810Y-107642857D01*
X68719048Y-107595238D01*
X68766667Y-107547619D01*
X68814286Y-107452381D01*
X68814286Y-107261904D01*
X68766667Y-107166666D01*
X68147619Y-106690476D02*
X68814286Y-106690476D01*
X69147619Y-106690476D02*
X69100000Y-106738095D01*
X69052381Y-106690476D01*
X69100000Y-106642857D01*
X69147619Y-106690476D01*
X69052381Y-106690476D01*
X68814286Y-106357143D02*
X68814286Y-105976191D01*
X69147619Y-106214286D02*
X68290476Y-106214286D01*
X68195238Y-106166667D01*
X68147619Y-106071429D01*
X68147619Y-105976191D01*
X68147619Y-105642857D02*
X69147619Y-105642857D01*
X68147619Y-105214285D02*
X68671429Y-105214285D01*
X68766667Y-105261904D01*
X68814286Y-105357142D01*
X68814286Y-105500000D01*
X68766667Y-105595238D01*
X68719048Y-105642857D01*
X68814286Y-104309523D02*
X68147619Y-104309523D01*
X68814286Y-104738095D02*
X68290476Y-104738095D01*
X68195238Y-104690476D01*
X68147619Y-104595238D01*
X68147619Y-104452380D01*
X68195238Y-104357142D01*
X68242857Y-104309523D01*
X68147619Y-103833333D02*
X69147619Y-103833333D01*
X68766667Y-103833333D02*
X68814286Y-103738095D01*
X68814286Y-103547618D01*
X68766667Y-103452380D01*
X68719048Y-103404761D01*
X68623810Y-103357142D01*
X68338095Y-103357142D01*
X68242857Y-103404761D01*
X68195238Y-103452380D01*
X68147619Y-103547618D01*
X68147619Y-103738095D01*
X68195238Y-103833333D01*
X68242857Y-102928571D02*
X68195238Y-102880952D01*
X68147619Y-102928571D01*
X68195238Y-102976190D01*
X68242857Y-102928571D01*
X68147619Y-102928571D01*
X68195238Y-102023809D02*
X68147619Y-102119047D01*
X68147619Y-102309524D01*
X68195238Y-102404762D01*
X68242857Y-102452381D01*
X68338095Y-102500000D01*
X68623810Y-102500000D01*
X68719048Y-102452381D01*
X68766667Y-102404762D01*
X68814286Y-102309524D01*
X68814286Y-102119047D01*
X68766667Y-102023809D01*
X68147619Y-101452381D02*
X68195238Y-101547619D01*
X68242857Y-101595238D01*
X68338095Y-101642857D01*
X68623810Y-101642857D01*
X68719048Y-101595238D01*
X68766667Y-101547619D01*
X68814286Y-101452381D01*
X68814286Y-101309523D01*
X68766667Y-101214285D01*
X68719048Y-101166666D01*
X68623810Y-101119047D01*
X68338095Y-101119047D01*
X68242857Y-101166666D01*
X68195238Y-101214285D01*
X68147619Y-101309523D01*
X68147619Y-101452381D01*
X68147619Y-100690476D02*
X68814286Y-100690476D01*
X68719048Y-100690476D02*
X68766667Y-100642857D01*
X68814286Y-100547619D01*
X68814286Y-100404761D01*
X68766667Y-100309523D01*
X68671429Y-100261904D01*
X68147619Y-100261904D01*
X68671429Y-100261904D02*
X68766667Y-100214285D01*
X68814286Y-100119047D01*
X68814286Y-99976190D01*
X68766667Y-99880952D01*
X68671429Y-99833333D01*
X68147619Y-99833333D01*
X69195238Y-98642857D02*
X67909524Y-99500000D01*
X68814286Y-98309524D02*
X68147619Y-98309524D01*
X68719048Y-98309524D02*
X68766667Y-98261905D01*
X68814286Y-98166667D01*
X68814286Y-98023809D01*
X68766667Y-97928571D01*
X68671429Y-97880952D01*
X68147619Y-97880952D01*
X68147619Y-97261905D02*
X68195238Y-97357143D01*
X68242857Y-97404762D01*
X68338095Y-97452381D01*
X68623810Y-97452381D01*
X68719048Y-97404762D01*
X68766667Y-97357143D01*
X68814286Y-97261905D01*
X68814286Y-97119047D01*
X68766667Y-97023809D01*
X68719048Y-96976190D01*
X68623810Y-96928571D01*
X68338095Y-96928571D01*
X68242857Y-96976190D01*
X68195238Y-97023809D01*
X68147619Y-97119047D01*
X68147619Y-97261905D01*
X68814286Y-96595238D02*
X68147619Y-96357143D01*
X68814286Y-96119047D01*
X68147619Y-95738095D02*
X68814286Y-95738095D01*
X69147619Y-95738095D02*
X69100000Y-95785714D01*
X69052381Y-95738095D01*
X69100000Y-95690476D01*
X69147619Y-95738095D01*
X69052381Y-95738095D01*
X68147619Y-95261905D02*
X68814286Y-95261905D01*
X68623810Y-95261905D02*
X68719048Y-95214286D01*
X68766667Y-95166667D01*
X68814286Y-95071429D01*
X68814286Y-94976190D01*
X68147619Y-94642857D02*
X68814286Y-94642857D01*
X69147619Y-94642857D02*
X69100000Y-94690476D01*
X69052381Y-94642857D01*
X69100000Y-94595238D01*
X69147619Y-94642857D01*
X69052381Y-94642857D01*
X68814286Y-93738095D02*
X68147619Y-93738095D01*
X68814286Y-94166667D02*
X68290476Y-94166667D01*
X68195238Y-94119048D01*
X68147619Y-94023810D01*
X68147619Y-93880952D01*
X68195238Y-93785714D01*
X68242857Y-93738095D01*
X68147619Y-93261905D02*
X68814286Y-93261905D01*
X68719048Y-93261905D02*
X68766667Y-93214286D01*
X68814286Y-93119048D01*
X68814286Y-92976190D01*
X68766667Y-92880952D01*
X68671429Y-92833333D01*
X68147619Y-92833333D01*
X68671429Y-92833333D02*
X68766667Y-92785714D01*
X68814286Y-92690476D01*
X68814286Y-92547619D01*
X68766667Y-92452381D01*
X68671429Y-92404762D01*
X68147619Y-92404762D01*
D17*
X102400000Y-96100000D02*
X99200000Y-96100000D01*
X102400000Y-95700000D02*
X99200000Y-95700000D01*
X100842857Y-106900001D02*
X100842857Y-106233334D01*
X99795238Y-105947620D02*
X99795238Y-106900001D01*
X101795238Y-106900001D01*
X101795238Y-105947620D01*
X99890476Y-105185715D02*
X99795238Y-104900000D01*
X99795238Y-104423810D01*
X99890476Y-104233334D01*
X99985714Y-104138096D01*
X100176190Y-104042857D01*
X100366667Y-104042857D01*
X100557143Y-104138096D01*
X100652381Y-104233334D01*
X100747619Y-104423810D01*
X100842857Y-104804762D01*
X100938095Y-104995238D01*
X101033333Y-105090477D01*
X101223810Y-105185715D01*
X101414286Y-105185715D01*
X101604762Y-105090477D01*
X101700000Y-104995238D01*
X101795238Y-104804762D01*
X101795238Y-104328572D01*
X101700000Y-104042857D01*
X99795238Y-103185715D02*
X101795238Y-103185715D01*
X101795238Y-102423810D01*
X101700000Y-102233334D01*
X101604762Y-102138095D01*
X101414286Y-102042857D01*
X101128571Y-102042857D01*
X100938095Y-102138095D01*
X100842857Y-102233334D01*
X100747619Y-102423810D01*
X100747619Y-103185715D01*
X99795238Y-101185715D02*
X101128571Y-101185715D01*
X101795238Y-101185715D02*
X101700000Y-101280953D01*
X101604762Y-101185715D01*
X101700000Y-101090476D01*
X101795238Y-101185715D01*
X101604762Y-101185715D01*
X99795238Y-99947619D02*
X99890476Y-100138095D01*
X100080952Y-100233334D01*
X101795238Y-100233334D01*
X99795238Y-98900000D02*
X99890476Y-99090476D01*
X99985714Y-99185715D01*
X100176190Y-99280953D01*
X100747619Y-99280953D01*
X100938095Y-99185715D01*
X101033333Y-99090476D01*
X101128571Y-98900000D01*
X101128571Y-98614286D01*
X101033333Y-98423810D01*
X100938095Y-98328572D01*
X100747619Y-98233334D01*
X100176190Y-98233334D01*
X99985714Y-98328572D01*
X99890476Y-98423810D01*
X99795238Y-98614286D01*
X99795238Y-98900000D01*
X101128571Y-97661905D02*
X101128571Y-96900000D01*
X101795238Y-97376191D02*
X100080952Y-97376191D01*
X99890476Y-97280952D01*
X99795238Y-97090476D01*
X99795238Y-96900000D01*
X101795238Y-94328571D02*
X101795238Y-94138095D01*
X101700000Y-93947619D01*
X101604762Y-93852381D01*
X101414286Y-93757143D01*
X101033333Y-93661904D01*
X100557143Y-93661904D01*
X100176190Y-93757143D01*
X99985714Y-93852381D01*
X99890476Y-93947619D01*
X99795238Y-94138095D01*
X99795238Y-94328571D01*
X99890476Y-94519047D01*
X99985714Y-94614285D01*
X100176190Y-94709524D01*
X100557143Y-94804762D01*
X101033333Y-94804762D01*
X101414286Y-94709524D01*
X101604762Y-94614285D01*
X101700000Y-94519047D01*
X101795238Y-94328571D01*
X99985714Y-92804762D02*
X99890476Y-92709523D01*
X99795238Y-92804762D01*
X99890476Y-92900000D01*
X99985714Y-92804762D01*
X99795238Y-92804762D01*
X99795238Y-90804761D02*
X99795238Y-91947619D01*
X99795238Y-91376190D02*
X101795238Y-91376190D01*
X101509524Y-91566666D01*
X101319048Y-91757142D01*
X101223810Y-91947619D01*
X102400000Y-90900000D02*
X102400000Y-106800000D01*
X102400000Y-106800000D02*
G75*
G02X99200000Y-106800000I-1600000J0D01*
G01*
X99200000Y-90900000D02*
G75*
G02X102400000Y-90900000I1600000J0D01*
G01*
X99200000Y-106800000D02*
X99200000Y-90900000D01*
D12*
X124225736Y-92055635D02*
X123094365Y-90924264D01*
X126205635Y-90075736D02*
X125074264Y-88944365D01*
X126205634Y-90075735D02*
G75*
G02X124225736Y-92055635I-989949J-989950D01*
G01*
X123094366Y-90924265D02*
G75*
G02X125074264Y-88944365I989949J989950D01*
G01*
D13*
X110000000Y-89800000D02*
X110000000Y-88300000D01*
X109000000Y-89800000D02*
X110000000Y-89800000D01*
X109000000Y-88300000D02*
X109000000Y-89800000D01*
X108250000Y-89800000D02*
X108250000Y-88300000D01*
X107250000Y-89800000D02*
X108250000Y-89800000D01*
X107250000Y-88300000D02*
X107250000Y-89800000D01*
D16*
X73650000Y-106500000D02*
G75*
G02X72900000Y-107250000I-750000J0D01*
G01*
X70900000Y-107250000D02*
G75*
G02X70150000Y-106500000I0J750000D01*
G01*
X70150000Y-102500000D02*
G75*
G02X70900000Y-101750000I750000J0D01*
G01*
X72900000Y-101750000D02*
G75*
G02X73650000Y-102500000I0J-750000D01*
G01*
X73650000Y-106500000D02*
X73650000Y-102500000D01*
X70900000Y-107250000D02*
X72900000Y-107250000D01*
X70150000Y-102500000D02*
X70150000Y-106500000D01*
X70900000Y-101750000D02*
X72900000Y-101750000D01*
D18*
X71900000Y-106500000D02*
X70900000Y-106500000D01*
X71900000Y-104500000D02*
X70900000Y-104500000D01*
X71900000Y-102500000D02*
X70900000Y-102500000D01*
X72900000Y-103500000D02*
X72900000Y-104000000D01*
X71900000Y-104500000D02*
G75*
G02X71900000Y-106500000I0J-1000000D01*
G01*
X71900000Y-102500000D02*
G75*
G02X72900000Y-103500000I0J-1000000D01*
G01*
D19*
G36*
X75631069Y-94644186D02*
X75186445Y-94560365D01*
X75058947Y-94251080D01*
X74931449Y-93941794D01*
X75183754Y-93570754D01*
X75254004Y-93466843D01*
X75316728Y-93372913D01*
X75369062Y-93293348D01*
X75408143Y-93232530D01*
X75431107Y-93194843D01*
X75436058Y-93184579D01*
X75423324Y-93166090D01*
X75388118Y-93126580D01*
X75334938Y-93070478D01*
X75268282Y-93002213D01*
X75192646Y-92926214D01*
X75112528Y-92846908D01*
X75032426Y-92768725D01*
X74956836Y-92696093D01*
X74890255Y-92633441D01*
X74837182Y-92585197D01*
X74802113Y-92555790D01*
X74790377Y-92548759D01*
X74768740Y-92558877D01*
X74721338Y-92587241D01*
X74652807Y-92630871D01*
X74567785Y-92686782D01*
X74470907Y-92751994D01*
X74415650Y-92789781D01*
X74314752Y-92858657D01*
X74223701Y-92919860D01*
X74147030Y-92970422D01*
X74089272Y-93007372D01*
X74054957Y-93027742D01*
X74047746Y-93030803D01*
X74027252Y-93023864D01*
X73979487Y-93004949D01*
X73911168Y-92976913D01*
X73829011Y-92942609D01*
X73739730Y-92904891D01*
X73650042Y-92866613D01*
X73566662Y-92830630D01*
X73496306Y-92799794D01*
X73445690Y-92776961D01*
X73421529Y-92764983D01*
X73420578Y-92764276D01*
X73415964Y-92745469D01*
X73405672Y-92695382D01*
X73390713Y-92619207D01*
X73372099Y-92522135D01*
X73350841Y-92409357D01*
X73338582Y-92343558D01*
X73315638Y-92223050D01*
X73293805Y-92114203D01*
X73274278Y-92022524D01*
X73258252Y-91953519D01*
X73246921Y-91912696D01*
X73243326Y-91904489D01*
X73218994Y-91896452D01*
X73164041Y-91889967D01*
X73084892Y-91885030D01*
X72987974Y-91881636D01*
X72879713Y-91879782D01*
X72766535Y-91879462D01*
X72654865Y-91880673D01*
X72551132Y-91883410D01*
X72461759Y-91887669D01*
X72393174Y-91893445D01*
X72351803Y-91900733D01*
X72343190Y-91905105D01*
X72332867Y-91931236D01*
X72318108Y-91986607D01*
X72300648Y-92063893D01*
X72282220Y-92155770D01*
X72276259Y-92187842D01*
X72247934Y-92342476D01*
X72225124Y-92464625D01*
X72206920Y-92558327D01*
X72192417Y-92627616D01*
X72180708Y-92676529D01*
X72170885Y-92709103D01*
X72162044Y-92729372D01*
X72153276Y-92741374D01*
X72151543Y-92743053D01*
X72123629Y-92759816D01*
X72069305Y-92785386D01*
X71995223Y-92817212D01*
X71908035Y-92852740D01*
X71814392Y-92889417D01*
X71720948Y-92924689D01*
X71634353Y-92956004D01*
X71561260Y-92980807D01*
X71508322Y-92996546D01*
X71482189Y-93000668D01*
X71481274Y-93000324D01*
X71459914Y-92986359D01*
X71412916Y-92954678D01*
X71345173Y-92908609D01*
X71261577Y-92851482D01*
X71167018Y-92786627D01*
X71140146Y-92768157D01*
X71042725Y-92702301D01*
X70953837Y-92644350D01*
X70878588Y-92597462D01*
X70822080Y-92564793D01*
X70789419Y-92549500D01*
X70785407Y-92548759D01*
X70764316Y-92561608D01*
X70722536Y-92597112D01*
X70664555Y-92650707D01*
X70594865Y-92717829D01*
X70517955Y-92793913D01*
X70438317Y-92874396D01*
X70360439Y-92954713D01*
X70288814Y-93030301D01*
X70227930Y-93096595D01*
X70182279Y-93149031D01*
X70156350Y-93183045D01*
X70152117Y-93192455D01*
X70162088Y-93214357D01*
X70188980Y-93259200D01*
X70228264Y-93319679D01*
X70259883Y-93366211D01*
X70317902Y-93450525D01*
X70386216Y-93550374D01*
X70454421Y-93650527D01*
X70490925Y-93704373D01*
X70614200Y-93886629D01*
X70531480Y-94039619D01*
X70495241Y-94109318D01*
X70467074Y-94168586D01*
X70451009Y-94208689D01*
X70448774Y-94218897D01*
X70465278Y-94231171D01*
X70511918Y-94255387D01*
X70584391Y-94289737D01*
X70678394Y-94332412D01*
X70789626Y-94381606D01*
X70913785Y-94435510D01*
X71046568Y-94492316D01*
X71183673Y-94550218D01*
X71320798Y-94607407D01*
X71453642Y-94662076D01*
X71577902Y-94712416D01*
X71689275Y-94756620D01*
X71783461Y-94792881D01*
X71856156Y-94819391D01*
X71903059Y-94834342D01*
X71919167Y-94836746D01*
X71939714Y-94817689D01*
X71973067Y-94775964D01*
X72012298Y-94720294D01*
X72015401Y-94715622D01*
X72130577Y-94571736D01*
X72264947Y-94455717D01*
X72414216Y-94368570D01*
X72574087Y-94311301D01*
X72740263Y-94284914D01*
X72908448Y-94290415D01*
X73074345Y-94328810D01*
X73233658Y-94401105D01*
X73268513Y-94422374D01*
X73409263Y-94533004D01*
X73522286Y-94663698D01*
X73606997Y-94809936D01*
X73662806Y-94967192D01*
X73689126Y-95130943D01*
X73685370Y-95296667D01*
X73650950Y-95459838D01*
X73585277Y-95615935D01*
X73487765Y-95760433D01*
X73448187Y-95805131D01*
X73324297Y-95918888D01*
X73193876Y-96001782D01*
X73047685Y-96058644D01*
X72902912Y-96090313D01*
X72740140Y-96098131D01*
X72576560Y-96072062D01*
X72417702Y-96014755D01*
X72269094Y-95928856D01*
X72136265Y-95817014D01*
X72024744Y-95681877D01*
X72012989Y-95664117D01*
X71974492Y-95607850D01*
X71941137Y-95565077D01*
X71919840Y-95544628D01*
X71919167Y-95544331D01*
X71896129Y-95548721D01*
X71843843Y-95566124D01*
X71766610Y-95594732D01*
X71668732Y-95632735D01*
X71554509Y-95678326D01*
X71428242Y-95729697D01*
X71294233Y-95785038D01*
X71156782Y-95842542D01*
X71020192Y-95900399D01*
X70888763Y-95956802D01*
X70766795Y-96009942D01*
X70658591Y-96058010D01*
X70568451Y-96099199D01*
X70500677Y-96131699D01*
X70459570Y-96153703D01*
X70448774Y-96162564D01*
X70457181Y-96189640D01*
X70479728Y-96240303D01*
X70512387Y-96305817D01*
X70531480Y-96341841D01*
X70614200Y-96494832D01*
X70490925Y-96677088D01*
X70427772Y-96770125D01*
X70358273Y-96871985D01*
X70292835Y-96967438D01*
X70259883Y-97015250D01*
X70214727Y-97082495D01*
X70178943Y-97139436D01*
X70157062Y-97178646D01*
X70152437Y-97191381D01*
X70164915Y-97209917D01*
X70199748Y-97250941D01*
X70253322Y-97310475D01*
X70322017Y-97384542D01*
X70402219Y-97469165D01*
X70453714Y-97522685D01*
X70545714Y-97616319D01*
X70628001Y-97697241D01*
X70697055Y-97762177D01*
X70749356Y-97807858D01*
X70781384Y-97831011D01*
X70787884Y-97833232D01*
X70812606Y-97822924D01*
X70862595Y-97794439D01*
X70932788Y-97750937D01*
X71018125Y-97695577D01*
X71113544Y-97631520D01*
X71140146Y-97613303D01*
X71236833Y-97546927D01*
X71323883Y-97487378D01*
X71396405Y-97437984D01*
X71449507Y-97402075D01*
X71478297Y-97382981D01*
X71481274Y-97381136D01*
X71504218Y-97383895D01*
X71554664Y-97398538D01*
X71625959Y-97422513D01*
X71711453Y-97453266D01*
X71804493Y-97488244D01*
X71898426Y-97524893D01*
X71986601Y-97560661D01*
X72062366Y-97592994D01*
X72119069Y-97619338D01*
X72150057Y-97637142D01*
X72151543Y-97638407D01*
X72160399Y-97649294D01*
X72169157Y-97667682D01*
X72178723Y-97697606D01*
X72190004Y-97743103D01*
X72203907Y-97808209D01*
X72221337Y-97896961D01*
X72243202Y-98013393D01*
X72270409Y-98161542D01*
X72276259Y-98193618D01*
X72294626Y-98288686D01*
X72312595Y-98371565D01*
X72328431Y-98434930D01*
X72340400Y-98471458D01*
X72343190Y-98476356D01*
X72367928Y-98484427D01*
X72423210Y-98490987D01*
X72502611Y-98496033D01*
X72599704Y-98499559D01*
X72708062Y-98501561D01*
X72821260Y-98502036D01*
X72932872Y-98500977D01*
X73036471Y-98498382D01*
X73125632Y-98494246D01*
X73193928Y-98488563D01*
X73234934Y-98481331D01*
X73243326Y-98476971D01*
X73251792Y-98452698D01*
X73265565Y-98397426D01*
X73283450Y-98316662D01*
X73304252Y-98215912D01*
X73326777Y-98100683D01*
X73338582Y-98037902D01*
X73360849Y-97918787D01*
X73381021Y-97812565D01*
X73398085Y-97724427D01*
X73411031Y-97659566D01*
X73418845Y-97623174D01*
X73420578Y-97617184D01*
X73440110Y-97607061D01*
X73487157Y-97585662D01*
X73554997Y-97555839D01*
X73636909Y-97520445D01*
X73726172Y-97482332D01*
X73816065Y-97444353D01*
X73899865Y-97409360D01*
X73970853Y-97380206D01*
X74022306Y-97359743D01*
X74047503Y-97350823D01*
X74048604Y-97350657D01*
X74068481Y-97360769D01*
X74114223Y-97389117D01*
X74181283Y-97432723D01*
X74265116Y-97488606D01*
X74361174Y-97553787D01*
X74416350Y-97591679D01*
X74517519Y-97660725D01*
X74609370Y-97722050D01*
X74687256Y-97772663D01*
X74746531Y-97809571D01*
X74782549Y-97829782D01*
X74790623Y-97832701D01*
X74809416Y-97820153D01*
X74849543Y-97785463D01*
X74906507Y-97733063D01*
X74975815Y-97667384D01*
X75052969Y-97592856D01*
X75133475Y-97513913D01*
X75212837Y-97434983D01*
X75286560Y-97360500D01*
X75350148Y-97294894D01*
X75399106Y-97242596D01*
X75428939Y-97208039D01*
X75436058Y-97196478D01*
X75426047Y-97177654D01*
X75397922Y-97132631D01*
X75354546Y-97065787D01*
X75298782Y-96981499D01*
X75233494Y-96884144D01*
X75183754Y-96810707D01*
X74931449Y-96439667D01*
X75186445Y-95821095D01*
X75631069Y-95737275D01*
X76075693Y-95653454D01*
X76075693Y-94728006D01*
X75631069Y-94644186D01*
X75631069Y-94644186D01*
G37*
X75631069Y-94644186D02*
X75186445Y-94560365D01*
X75058947Y-94251080D01*
X74931449Y-93941794D01*
X75183754Y-93570754D01*
X75254004Y-93466843D01*
X75316728Y-93372913D01*
X75369062Y-93293348D01*
X75408143Y-93232530D01*
X75431107Y-93194843D01*
X75436058Y-93184579D01*
X75423324Y-93166090D01*
X75388118Y-93126580D01*
X75334938Y-93070478D01*
X75268282Y-93002213D01*
X75192646Y-92926214D01*
X75112528Y-92846908D01*
X75032426Y-92768725D01*
X74956836Y-92696093D01*
X74890255Y-92633441D01*
X74837182Y-92585197D01*
X74802113Y-92555790D01*
X74790377Y-92548759D01*
X74768740Y-92558877D01*
X74721338Y-92587241D01*
X74652807Y-92630871D01*
X74567785Y-92686782D01*
X74470907Y-92751994D01*
X74415650Y-92789781D01*
X74314752Y-92858657D01*
X74223701Y-92919860D01*
X74147030Y-92970422D01*
X74089272Y-93007372D01*
X74054957Y-93027742D01*
X74047746Y-93030803D01*
X74027252Y-93023864D01*
X73979487Y-93004949D01*
X73911168Y-92976913D01*
X73829011Y-92942609D01*
X73739730Y-92904891D01*
X73650042Y-92866613D01*
X73566662Y-92830630D01*
X73496306Y-92799794D01*
X73445690Y-92776961D01*
X73421529Y-92764983D01*
X73420578Y-92764276D01*
X73415964Y-92745469D01*
X73405672Y-92695382D01*
X73390713Y-92619207D01*
X73372099Y-92522135D01*
X73350841Y-92409357D01*
X73338582Y-92343558D01*
X73315638Y-92223050D01*
X73293805Y-92114203D01*
X73274278Y-92022524D01*
X73258252Y-91953519D01*
X73246921Y-91912696D01*
X73243326Y-91904489D01*
X73218994Y-91896452D01*
X73164041Y-91889967D01*
X73084892Y-91885030D01*
X72987974Y-91881636D01*
X72879713Y-91879782D01*
X72766535Y-91879462D01*
X72654865Y-91880673D01*
X72551132Y-91883410D01*
X72461759Y-91887669D01*
X72393174Y-91893445D01*
X72351803Y-91900733D01*
X72343190Y-91905105D01*
X72332867Y-91931236D01*
X72318108Y-91986607D01*
X72300648Y-92063893D01*
X72282220Y-92155770D01*
X72276259Y-92187842D01*
X72247934Y-92342476D01*
X72225124Y-92464625D01*
X72206920Y-92558327D01*
X72192417Y-92627616D01*
X72180708Y-92676529D01*
X72170885Y-92709103D01*
X72162044Y-92729372D01*
X72153276Y-92741374D01*
X72151543Y-92743053D01*
X72123629Y-92759816D01*
X72069305Y-92785386D01*
X71995223Y-92817212D01*
X71908035Y-92852740D01*
X71814392Y-92889417D01*
X71720948Y-92924689D01*
X71634353Y-92956004D01*
X71561260Y-92980807D01*
X71508322Y-92996546D01*
X71482189Y-93000668D01*
X71481274Y-93000324D01*
X71459914Y-92986359D01*
X71412916Y-92954678D01*
X71345173Y-92908609D01*
X71261577Y-92851482D01*
X71167018Y-92786627D01*
X71140146Y-92768157D01*
X71042725Y-92702301D01*
X70953837Y-92644350D01*
X70878588Y-92597462D01*
X70822080Y-92564793D01*
X70789419Y-92549500D01*
X70785407Y-92548759D01*
X70764316Y-92561608D01*
X70722536Y-92597112D01*
X70664555Y-92650707D01*
X70594865Y-92717829D01*
X70517955Y-92793913D01*
X70438317Y-92874396D01*
X70360439Y-92954713D01*
X70288814Y-93030301D01*
X70227930Y-93096595D01*
X70182279Y-93149031D01*
X70156350Y-93183045D01*
X70152117Y-93192455D01*
X70162088Y-93214357D01*
X70188980Y-93259200D01*
X70228264Y-93319679D01*
X70259883Y-93366211D01*
X70317902Y-93450525D01*
X70386216Y-93550374D01*
X70454421Y-93650527D01*
X70490925Y-93704373D01*
X70614200Y-93886629D01*
X70531480Y-94039619D01*
X70495241Y-94109318D01*
X70467074Y-94168586D01*
X70451009Y-94208689D01*
X70448774Y-94218897D01*
X70465278Y-94231171D01*
X70511918Y-94255387D01*
X70584391Y-94289737D01*
X70678394Y-94332412D01*
X70789626Y-94381606D01*
X70913785Y-94435510D01*
X71046568Y-94492316D01*
X71183673Y-94550218D01*
X71320798Y-94607407D01*
X71453642Y-94662076D01*
X71577902Y-94712416D01*
X71689275Y-94756620D01*
X71783461Y-94792881D01*
X71856156Y-94819391D01*
X71903059Y-94834342D01*
X71919167Y-94836746D01*
X71939714Y-94817689D01*
X71973067Y-94775964D01*
X72012298Y-94720294D01*
X72015401Y-94715622D01*
X72130577Y-94571736D01*
X72264947Y-94455717D01*
X72414216Y-94368570D01*
X72574087Y-94311301D01*
X72740263Y-94284914D01*
X72908448Y-94290415D01*
X73074345Y-94328810D01*
X73233658Y-94401105D01*
X73268513Y-94422374D01*
X73409263Y-94533004D01*
X73522286Y-94663698D01*
X73606997Y-94809936D01*
X73662806Y-94967192D01*
X73689126Y-95130943D01*
X73685370Y-95296667D01*
X73650950Y-95459838D01*
X73585277Y-95615935D01*
X73487765Y-95760433D01*
X73448187Y-95805131D01*
X73324297Y-95918888D01*
X73193876Y-96001782D01*
X73047685Y-96058644D01*
X72902912Y-96090313D01*
X72740140Y-96098131D01*
X72576560Y-96072062D01*
X72417702Y-96014755D01*
X72269094Y-95928856D01*
X72136265Y-95817014D01*
X72024744Y-95681877D01*
X72012989Y-95664117D01*
X71974492Y-95607850D01*
X71941137Y-95565077D01*
X71919840Y-95544628D01*
X71919167Y-95544331D01*
X71896129Y-95548721D01*
X71843843Y-95566124D01*
X71766610Y-95594732D01*
X71668732Y-95632735D01*
X71554509Y-95678326D01*
X71428242Y-95729697D01*
X71294233Y-95785038D01*
X71156782Y-95842542D01*
X71020192Y-95900399D01*
X70888763Y-95956802D01*
X70766795Y-96009942D01*
X70658591Y-96058010D01*
X70568451Y-96099199D01*
X70500677Y-96131699D01*
X70459570Y-96153703D01*
X70448774Y-96162564D01*
X70457181Y-96189640D01*
X70479728Y-96240303D01*
X70512387Y-96305817D01*
X70531480Y-96341841D01*
X70614200Y-96494832D01*
X70490925Y-96677088D01*
X70427772Y-96770125D01*
X70358273Y-96871985D01*
X70292835Y-96967438D01*
X70259883Y-97015250D01*
X70214727Y-97082495D01*
X70178943Y-97139436D01*
X70157062Y-97178646D01*
X70152437Y-97191381D01*
X70164915Y-97209917D01*
X70199748Y-97250941D01*
X70253322Y-97310475D01*
X70322017Y-97384542D01*
X70402219Y-97469165D01*
X70453714Y-97522685D01*
X70545714Y-97616319D01*
X70628001Y-97697241D01*
X70697055Y-97762177D01*
X70749356Y-97807858D01*
X70781384Y-97831011D01*
X70787884Y-97833232D01*
X70812606Y-97822924D01*
X70862595Y-97794439D01*
X70932788Y-97750937D01*
X71018125Y-97695577D01*
X71113544Y-97631520D01*
X71140146Y-97613303D01*
X71236833Y-97546927D01*
X71323883Y-97487378D01*
X71396405Y-97437984D01*
X71449507Y-97402075D01*
X71478297Y-97382981D01*
X71481274Y-97381136D01*
X71504218Y-97383895D01*
X71554664Y-97398538D01*
X71625959Y-97422513D01*
X71711453Y-97453266D01*
X71804493Y-97488244D01*
X71898426Y-97524893D01*
X71986601Y-97560661D01*
X72062366Y-97592994D01*
X72119069Y-97619338D01*
X72150057Y-97637142D01*
X72151543Y-97638407D01*
X72160399Y-97649294D01*
X72169157Y-97667682D01*
X72178723Y-97697606D01*
X72190004Y-97743103D01*
X72203907Y-97808209D01*
X72221337Y-97896961D01*
X72243202Y-98013393D01*
X72270409Y-98161542D01*
X72276259Y-98193618D01*
X72294626Y-98288686D01*
X72312595Y-98371565D01*
X72328431Y-98434930D01*
X72340400Y-98471458D01*
X72343190Y-98476356D01*
X72367928Y-98484427D01*
X72423210Y-98490987D01*
X72502611Y-98496033D01*
X72599704Y-98499559D01*
X72708062Y-98501561D01*
X72821260Y-98502036D01*
X72932872Y-98500977D01*
X73036471Y-98498382D01*
X73125632Y-98494246D01*
X73193928Y-98488563D01*
X73234934Y-98481331D01*
X73243326Y-98476971D01*
X73251792Y-98452698D01*
X73265565Y-98397426D01*
X73283450Y-98316662D01*
X73304252Y-98215912D01*
X73326777Y-98100683D01*
X73338582Y-98037902D01*
X73360849Y-97918787D01*
X73381021Y-97812565D01*
X73398085Y-97724427D01*
X73411031Y-97659566D01*
X73418845Y-97623174D01*
X73420578Y-97617184D01*
X73440110Y-97607061D01*
X73487157Y-97585662D01*
X73554997Y-97555839D01*
X73636909Y-97520445D01*
X73726172Y-97482332D01*
X73816065Y-97444353D01*
X73899865Y-97409360D01*
X73970853Y-97380206D01*
X74022306Y-97359743D01*
X74047503Y-97350823D01*
X74048604Y-97350657D01*
X74068481Y-97360769D01*
X74114223Y-97389117D01*
X74181283Y-97432723D01*
X74265116Y-97488606D01*
X74361174Y-97553787D01*
X74416350Y-97591679D01*
X74517519Y-97660725D01*
X74609370Y-97722050D01*
X74687256Y-97772663D01*
X74746531Y-97809571D01*
X74782549Y-97829782D01*
X74790623Y-97832701D01*
X74809416Y-97820153D01*
X74849543Y-97785463D01*
X74906507Y-97733063D01*
X74975815Y-97667384D01*
X75052969Y-97592856D01*
X75133475Y-97513913D01*
X75212837Y-97434983D01*
X75286560Y-97360500D01*
X75350148Y-97294894D01*
X75399106Y-97242596D01*
X75428939Y-97208039D01*
X75436058Y-97196478D01*
X75426047Y-97177654D01*
X75397922Y-97132631D01*
X75354546Y-97065787D01*
X75298782Y-96981499D01*
X75233494Y-96884144D01*
X75183754Y-96810707D01*
X74931449Y-96439667D01*
X75186445Y-95821095D01*
X75631069Y-95737275D01*
X76075693Y-95653454D01*
X76075693Y-94728006D01*
X75631069Y-94644186D01*
D13*
X93380000Y-91750000D02*
X93180000Y-91750000D01*
X93380000Y-107750000D02*
X93380000Y-91750000D01*
X93180000Y-107750000D02*
X93380000Y-107750000D01*
X91180000Y-107750000D02*
X91580000Y-107750000D01*
X89180000Y-107750000D02*
X89580000Y-107750000D01*
X87180000Y-107750000D02*
X87580000Y-107750000D01*
X85180000Y-107750000D02*
X85580000Y-107750000D01*
X83180000Y-107750000D02*
X83580000Y-107750000D01*
X81180000Y-107750000D02*
X81580000Y-107750000D01*
X79180000Y-107750000D02*
X79580000Y-107750000D01*
X77380000Y-107750000D02*
X77580000Y-107750000D01*
X91180000Y-91750000D02*
X91580000Y-91750000D01*
X77580000Y-91750000D02*
X77380000Y-91750000D01*
X77580000Y-90750000D02*
X77580000Y-91750000D01*
X79580000Y-91750000D02*
X79180000Y-91750000D01*
X81580000Y-91750000D02*
X81180000Y-91750000D01*
X83180000Y-91750000D02*
X83580000Y-91750000D01*
X85180000Y-91750000D02*
X85580000Y-91750000D01*
X87180000Y-91750000D02*
X87580000Y-91750000D01*
X89180000Y-91750000D02*
X89580000Y-91750000D01*
X77380000Y-91750000D02*
X77380000Y-107750000D01*
X74929500Y-111098500D02*
X76834500Y-111098500D01*
X74929500Y-109193500D02*
X74929500Y-111098500D01*
X76390000Y-110146000D02*
G75*
G03X76390000Y-110146000I-508000J0D01*
G01*
X76834500Y-111098500D02*
X76834500Y-109193500D01*
X76834500Y-109193500D02*
X74929500Y-109193500D01*
D12*
X106500000Y-114950000D02*
X106500000Y-113100000D01*
X106500000Y-94450000D02*
X109150000Y-94450000D01*
X106500000Y-94450000D02*
X106500000Y-95300000D01*
X124500000Y-94450000D02*
X121850000Y-94450000D01*
X124500000Y-94450000D02*
X124500000Y-95300000D01*
D18*
X105877981Y-113804000D02*
G75*
G03X105877981Y-113804000I-283981J0D01*
G01*
D12*
X124500000Y-113950000D02*
X106500000Y-113950000D01*
X124500000Y-114950000D02*
X124500000Y-113100000D01*
D13*
X93540607Y-111035790D02*
G75*
G02X93630000Y-111500000I-1160607J-464210D01*
G01*
X90630000Y-112000000D02*
X90630000Y-111000000D01*
X92880000Y-113250000D02*
X91880000Y-113250000D01*
X94130000Y-111000000D02*
X94130000Y-112000000D01*
X91880000Y-109750000D02*
X92880000Y-109750000D01*
X92844210Y-110339393D02*
G75*
G03X92380000Y-110250000I-464210J-1160607D01*
G01*
X92844210Y-112660607D02*
G75*
G02X92380000Y-112750000I-464210J1160607D01*
G01*
X91219393Y-111964210D02*
G75*
G02X91130000Y-111500000I1160607J464210D01*
G01*
X91219393Y-111035790D02*
G75*
G03X91130000Y-111500000I1160607J-464210D01*
G01*
X91915790Y-112660607D02*
G75*
G03X92380000Y-112750000I464210J1160607D01*
G01*
X93540607Y-111964210D02*
G75*
G03X93630000Y-111500000I-1160607J464210D01*
G01*
X91915790Y-110339393D02*
G75*
G02X92380000Y-110250000I464210J-1160607D01*
G01*
%LPC*%
X123306497Y-90712132D02*
X124437868Y-91843503D01*
X125993503Y-90287868D02*
X124862132Y-89156497D01*
D20*
X124684315Y-89934315D02*
G75*
G03X124684315Y-89934315I-600000J0D01*
G01*
X125815685Y-91065685D02*
G75*
G03X125815685Y-91065685I-600000J0D01*
G01*
D13*
X125427817Y-90005025D02*
X125144975Y-89722183D01*
X124155025Y-91277817D02*
X123872183Y-90994975D01*
D21*
X61600000Y-92150000D03*
X61600000Y-93150000D03*
X61600000Y-94150000D03*
X61600000Y-95150000D03*
X61600000Y-96150000D03*
X61600000Y-103850000D03*
X61600000Y-104850000D03*
X61600000Y-105850000D03*
X61600000Y-106850000D03*
X61600000Y-107850000D03*
X61600000Y-92150000D03*
X61600000Y-93150000D03*
D22*
X109500000Y-86875000D03*
X107750000Y-86875000D03*
D23*
X53105000Y-110160000D03*
D24*
X50565000Y-110160000D02*
X50565000Y-110160000D01*
X48025000Y-110160000D02*
X48025000Y-110160000D01*
D25*
X53105000Y-107620000D03*
D24*
X50565000Y-107620000D02*
X50565000Y-107620000D01*
X48025000Y-107620000D02*
X48025000Y-107620000D01*
D25*
X53105000Y-105080000D03*
D24*
X50565000Y-105080000D02*
X50565000Y-105080000D01*
X48025000Y-105080000D02*
X48025000Y-105080000D01*
D25*
X53105000Y-102540000D03*
D24*
X50565000Y-102540000D02*
X50565000Y-102540000D01*
X48025000Y-102540000D02*
X48025000Y-102540000D01*
D25*
X53105000Y-100000000D03*
D24*
X50565000Y-100000000D02*
X50565000Y-100000000D01*
X48025000Y-100000000D02*
X48025000Y-100000000D01*
D25*
X53105000Y-97460000D03*
D24*
X50565000Y-97460000D02*
X50565000Y-97460000D01*
X48025000Y-97460000D02*
X48025000Y-97460000D01*
D25*
X53105000Y-94920000D03*
D24*
X50565000Y-94920000D02*
X50565000Y-94920000D01*
X48025000Y-94920000D02*
X48025000Y-94920000D01*
D25*
X53105000Y-92380000D03*
D24*
X50565000Y-92380000D02*
X50565000Y-92380000D01*
X48025000Y-92380000D02*
X48025000Y-92380000D01*
X48025000Y-89840000D02*
X48025000Y-89840000D01*
D25*
X53105000Y-89840000D03*
D24*
X50565000Y-89840000D02*
X50565000Y-89840000D01*
D26*
X78380000Y-91750000D03*
X80380000Y-91750000D03*
X82380000Y-91750000D03*
X84380000Y-91750000D03*
X86380000Y-91750000D03*
X88380000Y-91750000D03*
X90380000Y-91750000D03*
X92380000Y-91750000D03*
X92380000Y-107750000D03*
X90380000Y-107750000D03*
X88380000Y-107750000D03*
X86380000Y-107750000D03*
X84380000Y-107750000D03*
X82380000Y-107750000D03*
X80380000Y-107750000D03*
X78380000Y-107750000D03*
D27*
X71000000Y-111500000D03*
X129000000Y-111500000D03*
X129000000Y-88500000D03*
X71000000Y-88500000D03*
D28*
X101270000Y-110230000D03*
X103810000Y-110230000D03*
X98730000Y-110230000D03*
X88570000Y-110230000D03*
X86030000Y-110230000D03*
X83490000Y-110230000D03*
X80950000Y-110230000D03*
X78410000Y-110230000D03*
X78410000Y-112770000D03*
X80950000Y-112770000D03*
X83490000Y-112770000D03*
X86030000Y-112770000D03*
X88570000Y-112770000D03*
X98730000Y-112770000D03*
X101270000Y-112770000D03*
X103810000Y-112770000D03*
X96190000Y-112770000D03*
X96190000Y-110230000D03*
D29*
X124500000Y-112450000D03*
X124500000Y-111180000D03*
X124500000Y-109910000D03*
X124500000Y-108640000D03*
X124500000Y-107370000D03*
X124500000Y-106100000D03*
X124500000Y-104830000D03*
X124500000Y-103560000D03*
X124500000Y-102290000D03*
X124500000Y-101020000D03*
X124500000Y-99750000D03*
X124500000Y-98480000D03*
X124500000Y-97210000D03*
X124500000Y-95940000D03*
D30*
X121215000Y-94450000D03*
X119945000Y-94450000D03*
X118675000Y-94450000D03*
X117405000Y-94450000D03*
X116135000Y-94450000D03*
X114865000Y-94450000D03*
X113595000Y-94450000D03*
X112325000Y-94450000D03*
X111055000Y-94450000D03*
X109785000Y-94450000D03*
D29*
X106500000Y-95940000D03*
X106500000Y-97210000D03*
X106500000Y-98480000D03*
X106500000Y-99750000D03*
X106500000Y-101020000D03*
X106500000Y-102290000D03*
X106500000Y-103560000D03*
X106500000Y-104830000D03*
X106500000Y-106100000D03*
X106500000Y-107370000D03*
X106500000Y-108640000D03*
X106500000Y-109910000D03*
X106500000Y-111180000D03*
X106500000Y-112450000D03*
D31*
X115200000Y-104750000D03*
D32*
X92380000Y-111500000D03*
X93650000Y-110230000D03*
X93650000Y-112770000D03*
X91110000Y-112770000D03*
X91110000Y-110230000D03*
M02*
