M48
;DRILL file {KiCad 4.0.5} date 01/10/17 14:17:29
;FORMAT={-:-/ absolute / inch / decimal}
FMAT,2
INCH,TZ
T1C0.012
T2C0.016
T3C0.031
T4C0.039
T5C0.040
T6C0.016
T7C0.108
%
G90
G05
M72
T1
X2.7205Y-3.9193
X2.7205Y-3.9547
X2.7559Y-3.9193
X2.7559Y-3.9547
X2.7913Y-3.9193
X2.7913Y-3.9547
X2.8268Y-3.9193
X2.8268Y-3.9547
X2.9134Y-4.4882
X2.9823Y-4.3848
X3.0177Y-4.0069
X3.1614Y-3.3858
X3.2096Y-3.7303
X3.253Y-3.7766
X3.2677Y-4.1801
X3.4193Y-4.0728
X3.5118Y-3.7313
X3.5553Y-4.1309
X3.564Y-3.7766
X3.5748Y-3.3858
X3.5984Y-4.1781
X3.624Y-3.9902
X3.6772Y-4.1781
X3.6872Y-4.2421
X3.7379Y-4.0027
X3.7667Y-4.0628
X3.7667Y-4.0266
X3.7823Y-3.7754
X3.8196Y-3.6104
X3.8297Y-4.003
X3.8652Y-4.0036
X3.9035Y-4.003
X3.9065Y-4.1506
X3.9124Y-3.4961
X3.9232Y-3.8661
X3.937Y-3.3858
X3.9419Y-4.1506
X3.9508Y-3.8415
X3.9616Y-3.4961
X3.9754Y-4.003
X3.9774Y-4.1506
X4.0128Y-4.1506
X4.0197Y-3.7244
X4.0453Y-3.9656
X4.0482Y-4.1506
X4.0837Y-4.1506
X4.2648Y-4.1831
X4.2825Y-3.997
X4.2825Y-4.0344
X4.2826Y-3.9606
X4.3661Y-3.3858
X4.368Y-3.8602
X4.3728Y-3.4961
X4.3927Y-4.0059
X4.4291Y-3.9646
X4.4724Y-3.9646
X4.5226Y-3.9646
X4.5728Y-3.9646
X4.5768Y-3.5433
X4.622Y-3.9646
X4.6585Y-3.9646
X4.6703Y-3.8199
X4.7011Y-3.7943
X4.7067Y-3.8455
X4.7067Y-4.3268
X4.7146Y-3.9764
X4.7146Y-4.0284
X4.7224Y-3.6467
X4.749Y-4.064
X4.7598Y-3.3858
X4.7805Y-3.8514
X4.7805Y-3.8907
X4.7835Y-4.3829
X4.7972Y-4.2589
X4.8159Y-3.6742
X4.8258Y-4.3829
X4.8337Y-4.2589
X4.9398Y-3.6547
X4.9606Y-3.3858
X5.1772Y-3.6024
X5.1772Y-3.937
X5.1772Y-4.2717
T2
X2.3317Y-3.5472
X2.3317Y-3.8661
X2.3317Y-4.0079
X2.3317Y-4.3268
X2.3711Y-3.5472
X2.3711Y-3.8661
X2.3711Y-4.0079
X2.3711Y-4.3268
X2.6329Y-3.5472
X2.6329Y-3.8661
X2.6329Y-4.0079
X2.6329Y-4.3268
X2.6722Y-3.5472
X2.6722Y-3.8661
X2.6722Y-4.0079
X2.6722Y-4.3268
X2.748Y-4.2126
X2.8435Y-3.6752
X2.8465Y-4.1437
X2.8848Y-4.2736
X2.8936Y-3.5806
X2.9026Y-3.8819
X2.9134Y-3.3858
X2.9193Y-4.1289
X2.9724Y-3.6378
X2.9921Y-3.6988
X3.0039Y-3.5354
X3.0039Y-3.5728
X3.0748Y-3.9961
X3.0896Y-3.4941
X3.1181Y-3.9744
X3.1654Y-4.127
X3.2037Y-3.7746
X3.2372Y-3.4941
X3.2864Y-3.4941
X3.3228Y-3.5354
X3.3376Y-4.1781
X3.3541Y-3.9871
X3.3583Y-3.6929
X3.374Y-4.127
X3.375Y-3.9537
X3.4646Y-3.9715
X3.498Y-3.69
X3.501Y-3.4941
X3.6486Y-3.4941
X3.6614Y-3.9872
X3.6978Y-4.0964
X3.7116Y-3.751
X3.7195Y-3.5394
X3.7776Y-3.5394
X3.8632Y-3.6142
X3.9094Y-3.6417
X4.0108Y-3.4941
X4.1083Y-3.9902
X4.122Y-4.1585
X4.19Y-3.5276
X4.2667Y-4.377
X4.2667Y-4.4272
X4.2707Y-3.7785
X4.3295Y-3.7909
X4.3921Y-4.124
X4.4715Y-3.4941
X4.6732Y-4.3878
X4.686Y-4.124
X4.686Y-3.4941
X4.7933Y-4.0915
X4.8258Y-4.124
X4.8337Y-3.4941
X4.9715Y-3.69
X4.9724Y-4.4882
X5.0295Y-3.9754
T3
X3.587Y-4.3398
X3.587Y-4.4398
X3.637Y-4.3898
X3.687Y-4.3398
X3.687Y-4.4398
T4
X3.087Y-4.3398
X3.087Y-4.4398
X3.187Y-4.3398
X3.187Y-4.4398
X3.287Y-4.3398
X3.287Y-4.4398
X3.387Y-4.3398
X3.387Y-4.4398
X3.487Y-4.3398
X3.487Y-4.4398
X3.787Y-4.3398
X3.787Y-4.4398
X3.887Y-4.3398
X3.887Y-4.4398
X3.987Y-4.3398
X3.987Y-4.4398
X4.087Y-4.3398
X4.087Y-4.4398
T5
X1.8907Y-3.537
X1.8907Y-3.637
X1.8907Y-3.737
X1.8907Y-3.837
X1.8907Y-3.937
X1.8907Y-4.037
X1.8907Y-4.137
X1.8907Y-4.237
X1.8907Y-4.337
X1.9907Y-3.537
X1.9907Y-3.637
X1.9907Y-3.737
X1.9907Y-3.837
X1.9907Y-3.937
X1.9907Y-4.037
X1.9907Y-4.137
X1.9907Y-4.237
X1.9907Y-4.337
X2.0907Y-3.537
X2.0907Y-3.637
X2.0907Y-3.737
X2.0907Y-3.837
X2.0907Y-3.937
X2.0907Y-4.037
X2.0907Y-4.137
X2.0907Y-4.237
X2.0907Y-4.337
T6
X2.4252Y-3.628
X2.4252Y-3.628
X2.4252Y-3.6673
X2.4252Y-3.6673
X2.4252Y-3.7067
X2.4252Y-3.7461
X2.4252Y-3.7854
X2.4252Y-4.0886
X2.4252Y-4.128
X2.4252Y-4.1673
X2.4252Y-4.2067
X2.4252Y-4.2461
T7
X2.7953Y-3.4843
X2.7953Y-4.3898
X5.0787Y-3.4843
X5.0787Y-4.3898
T0
M30
