G04 #@! TF.FileFunction,Legend,Top*
%FSLAX46Y46*%
G04 Gerber Fmt 4.6, Leading zero omitted, Abs format (unit mm)*
G04 Created by KiCad (PCBNEW 4.0.5) date 01/10/17 14:27:18*
%MOMM*%
%LPD*%
G01*
G04 APERTURE LIST*
%ADD10C,0.100000*%
%ADD11C,0.150000*%
%ADD12C,0.250000*%
%ADD13C,2.450000*%
%ADD14C,0.300000*%
%ADD15C,0.120000*%
%ADD16C,0.200000*%
%ADD17C,1.200000*%
%ADD18R,0.950000X1.000000*%
%ADD19R,1.000000X0.950000*%
%ADD20R,1.100000X0.700000*%
%ADD21R,0.700000X1.100000*%
%ADD22R,0.400000X0.750000*%
%ADD23R,0.750000X0.400000*%
%ADD24R,1.000000X1.075000*%
%ADD25R,0.600000X1.300000*%
%ADD26R,1.650000X0.650000*%
%ADD27R,0.650000X1.650000*%
%ADD28R,1.260000X0.850000*%
%ADD29R,1.450000X1.200000*%
%ADD30R,1.200000X1.800000*%
%ADD31R,1.800000X1.200000*%
%ADD32C,0.600000*%
%ADD33R,1.000000X1.700000*%
%ADD34R,1.600000X2.100000*%
%ADD35R,2.000000X1.600000*%
%ADD36R,0.850000X0.550000*%
%ADD37R,0.975000X1.400000*%
%ADD38R,1.200000X1.200000*%
%ADD39R,0.800000X1.400000*%
%ADD40R,1.927200X1.927200*%
%ADD41C,1.927200*%
%ADD42O,1.927200X1.927200*%
%ADD43C,5.400000*%
%ADD44C,2.000000*%
%ADD45R,0.800000X2.000000*%
%ADD46R,1.200000X3.000000*%
%ADD47R,2.000000X0.800000*%
%ADD48R,3.000000X1.200000*%
%ADD49R,0.997560X0.997560*%
%ADD50C,1.600000*%
%ADD51R,0.700000X1.000000*%
%ADD52R,0.600000X1.000000*%
G04 APERTURE END LIST*
D10*
D11*
X93085715Y-108414286D02*
X93585715Y-108414286D01*
X93085715Y-109164286D01*
X93585715Y-109164286D01*
X93871429Y-108878571D02*
X94442858Y-108878571D01*
X94157144Y-109164286D02*
X94157144Y-108592857D01*
X90335715Y-108182143D02*
X90335715Y-108539286D01*
X90085715Y-107789286D02*
X90335715Y-108182143D01*
X90585715Y-107789286D01*
X90835714Y-108253571D02*
X91407143Y-108253571D01*
X91121429Y-108539286D02*
X91121429Y-107967857D01*
X92614286Y-107839285D02*
X93364286Y-107339285D01*
X92614286Y-107339285D02*
X93364286Y-107839285D01*
X93078571Y-107053571D02*
X93078571Y-106482142D01*
X93364286Y-106767856D02*
X92792857Y-106767856D01*
D12*
X118442858Y-91978571D02*
X118585715Y-92026190D01*
X118633334Y-92073810D01*
X118680953Y-92169048D01*
X118680953Y-92311905D01*
X118633334Y-92407143D01*
X118585715Y-92454762D01*
X118490477Y-92502381D01*
X118109524Y-92502381D01*
X118109524Y-91502381D01*
X118442858Y-91502381D01*
X118538096Y-91550000D01*
X118585715Y-91597619D01*
X118633334Y-91692857D01*
X118633334Y-91788095D01*
X118585715Y-91883333D01*
X118538096Y-91930952D01*
X118442858Y-91978571D01*
X118109524Y-91978571D01*
X119300000Y-91502381D02*
X119490477Y-91502381D01*
X119585715Y-91550000D01*
X119680953Y-91645238D01*
X119728572Y-91835714D01*
X119728572Y-92169048D01*
X119680953Y-92359524D01*
X119585715Y-92454762D01*
X119490477Y-92502381D01*
X119300000Y-92502381D01*
X119204762Y-92454762D01*
X119109524Y-92359524D01*
X119061905Y-92169048D01*
X119061905Y-91835714D01*
X119109524Y-91645238D01*
X119204762Y-91550000D01*
X119300000Y-91502381D01*
X120347619Y-91502381D02*
X120538096Y-91502381D01*
X120633334Y-91550000D01*
X120728572Y-91645238D01*
X120776191Y-91835714D01*
X120776191Y-92169048D01*
X120728572Y-92359524D01*
X120633334Y-92454762D01*
X120538096Y-92502381D01*
X120347619Y-92502381D01*
X120252381Y-92454762D01*
X120157143Y-92359524D01*
X120109524Y-92169048D01*
X120109524Y-91835714D01*
X120157143Y-91645238D01*
X120252381Y-91550000D01*
X120347619Y-91502381D01*
X121061905Y-91502381D02*
X121633334Y-91502381D01*
X121347619Y-92502381D02*
X121347619Y-91502381D01*
X127572619Y-108227381D02*
X127239285Y-107751190D01*
X127001190Y-108227381D02*
X127001190Y-107227381D01*
X127382143Y-107227381D01*
X127477381Y-107275000D01*
X127525000Y-107322619D01*
X127572619Y-107417857D01*
X127572619Y-107560714D01*
X127525000Y-107655952D01*
X127477381Y-107703571D01*
X127382143Y-107751190D01*
X127001190Y-107751190D01*
X128001190Y-107703571D02*
X128334524Y-107703571D01*
X128477381Y-108227381D02*
X128001190Y-108227381D01*
X128001190Y-107227381D01*
X128477381Y-107227381D01*
X128858333Y-108179762D02*
X129001190Y-108227381D01*
X129239286Y-108227381D01*
X129334524Y-108179762D01*
X129382143Y-108132143D01*
X129429762Y-108036905D01*
X129429762Y-107941667D01*
X129382143Y-107846429D01*
X129334524Y-107798810D01*
X129239286Y-107751190D01*
X129048809Y-107703571D01*
X128953571Y-107655952D01*
X128905952Y-107608333D01*
X128858333Y-107513095D01*
X128858333Y-107417857D01*
X128905952Y-107322619D01*
X128953571Y-107275000D01*
X129048809Y-107227381D01*
X129286905Y-107227381D01*
X129429762Y-107275000D01*
X129858333Y-107703571D02*
X130191667Y-107703571D01*
X130334524Y-108227381D02*
X129858333Y-108227381D01*
X129858333Y-107227381D01*
X130334524Y-107227381D01*
X130620238Y-107227381D02*
X131191667Y-107227381D01*
X130905952Y-108227381D02*
X130905952Y-107227381D01*
D11*
X96539286Y-108542857D02*
X96539286Y-108971429D01*
X96539286Y-108757143D02*
X95789286Y-108757143D01*
X95896429Y-108828572D01*
X95967857Y-108900000D01*
X96003571Y-108971429D01*
X95789286Y-108292857D02*
X95789286Y-107792857D01*
X96539286Y-108114286D01*
X77989286Y-109050000D02*
X77989286Y-108585714D01*
X78275000Y-108835714D01*
X78275000Y-108728572D01*
X78310714Y-108657143D01*
X78346429Y-108621429D01*
X78417857Y-108585714D01*
X78596429Y-108585714D01*
X78667857Y-108621429D01*
X78703571Y-108657143D01*
X78739286Y-108728572D01*
X78739286Y-108942857D01*
X78703571Y-109014286D01*
X78667857Y-109050000D01*
X53105000Y-93530000D02*
G75*
G03X53105000Y-91230000I0J1150000D01*
G01*
X53105000Y-91230000D02*
X48025000Y-91230000D01*
X53105000Y-93530000D02*
X48025000Y-93530000D01*
X48025000Y-91230000D02*
G75*
G03X48025000Y-93530000I0J-1150000D01*
G01*
D13*
X48025000Y-89840000D02*
X53105000Y-89840000D01*
D14*
X100500000Y-98000000D02*
X100500000Y-100500000D01*
X100800000Y-98000000D02*
X100800000Y-100500000D01*
X92500000Y-98000000D02*
X104100000Y-98000000D01*
X104100000Y-100500000D02*
X92500000Y-100500000D01*
X92500000Y-98000000D02*
G75*
G03X92500000Y-100500000I0J-1250000D01*
G01*
X104100000Y-100500000D02*
G75*
G03X104100000Y-98000000I0J1250000D01*
G01*
D11*
X101289286Y-94975000D02*
X100539286Y-94975000D01*
X100539286Y-94689285D01*
X100575000Y-94617857D01*
X100610714Y-94582142D01*
X100682143Y-94546428D01*
X100789286Y-94546428D01*
X100860714Y-94582142D01*
X100896429Y-94617857D01*
X100932143Y-94689285D01*
X100932143Y-94975000D01*
X101289286Y-94225000D02*
X100789286Y-94225000D01*
X100539286Y-94225000D02*
X100575000Y-94260714D01*
X100610714Y-94225000D01*
X100575000Y-94189285D01*
X100539286Y-94225000D01*
X100610714Y-94225000D01*
X106196429Y-95492857D02*
X106196429Y-95242857D01*
X106589286Y-95135714D02*
X106589286Y-95492857D01*
X105839286Y-95492857D01*
X105839286Y-95135714D01*
X106553571Y-94850000D02*
X106589286Y-94742857D01*
X106589286Y-94564286D01*
X106553571Y-94492857D01*
X106517857Y-94457143D01*
X106446429Y-94421428D01*
X106375000Y-94421428D01*
X106303571Y-94457143D01*
X106267857Y-94492857D01*
X106232143Y-94564286D01*
X106196429Y-94707143D01*
X106160714Y-94778571D01*
X106125000Y-94814286D01*
X106053571Y-94850000D01*
X105982143Y-94850000D01*
X105910714Y-94814286D01*
X105875000Y-94778571D01*
X105839286Y-94707143D01*
X105839286Y-94528571D01*
X105875000Y-94421428D01*
X106589286Y-94100000D02*
X105839286Y-94100000D01*
X105839286Y-93814285D01*
X105875000Y-93742857D01*
X105910714Y-93707142D01*
X105982143Y-93671428D01*
X106089286Y-93671428D01*
X106160714Y-93707142D01*
X106196429Y-93742857D01*
X106232143Y-93814285D01*
X106232143Y-94100000D01*
D14*
X92300001Y-99217857D02*
X92800001Y-99217857D01*
X93014287Y-100003571D02*
X92300001Y-100003571D01*
X92300001Y-98503571D01*
X93014287Y-98503571D01*
X93585715Y-99932143D02*
X93800001Y-100003571D01*
X94157144Y-100003571D01*
X94300001Y-99932143D01*
X94371430Y-99860714D01*
X94442858Y-99717857D01*
X94442858Y-99575000D01*
X94371430Y-99432143D01*
X94300001Y-99360714D01*
X94157144Y-99289286D01*
X93871430Y-99217857D01*
X93728572Y-99146429D01*
X93657144Y-99075000D01*
X93585715Y-98932143D01*
X93585715Y-98789286D01*
X93657144Y-98646429D01*
X93728572Y-98575000D01*
X93871430Y-98503571D01*
X94228572Y-98503571D01*
X94442858Y-98575000D01*
X95085715Y-100003571D02*
X95085715Y-98503571D01*
X95657143Y-98503571D01*
X95800001Y-98575000D01*
X95871429Y-98646429D01*
X95942858Y-98789286D01*
X95942858Y-99003571D01*
X95871429Y-99146429D01*
X95800001Y-99217857D01*
X95657143Y-99289286D01*
X95085715Y-99289286D01*
X96585715Y-100003571D02*
X96585715Y-99003571D01*
X96585715Y-98503571D02*
X96514286Y-98575000D01*
X96585715Y-98646429D01*
X96657143Y-98575000D01*
X96585715Y-98503571D01*
X96585715Y-98646429D01*
X97514287Y-100003571D02*
X97371429Y-99932143D01*
X97300001Y-99789286D01*
X97300001Y-98503571D01*
X98300001Y-100003571D02*
X98157143Y-99932143D01*
X98085715Y-99860714D01*
X98014286Y-99717857D01*
X98014286Y-99289286D01*
X98085715Y-99146429D01*
X98157143Y-99075000D01*
X98300001Y-99003571D01*
X98514286Y-99003571D01*
X98657143Y-99075000D01*
X98728572Y-99146429D01*
X98800001Y-99289286D01*
X98800001Y-99717857D01*
X98728572Y-99860714D01*
X98657143Y-99932143D01*
X98514286Y-100003571D01*
X98300001Y-100003571D01*
X99228572Y-99003571D02*
X99800001Y-99003571D01*
X99442858Y-98503571D02*
X99442858Y-99789286D01*
X99514286Y-99932143D01*
X99657144Y-100003571D01*
X99800001Y-100003571D01*
X101728572Y-98503571D02*
X101871429Y-98503571D01*
X102014286Y-98575000D01*
X102085715Y-98646429D01*
X102157144Y-98789286D01*
X102228572Y-99075000D01*
X102228572Y-99432143D01*
X102157144Y-99717857D01*
X102085715Y-99860714D01*
X102014286Y-99932143D01*
X101871429Y-100003571D01*
X101728572Y-100003571D01*
X101585715Y-99932143D01*
X101514286Y-99860714D01*
X101442858Y-99717857D01*
X101371429Y-99432143D01*
X101371429Y-99075000D01*
X101442858Y-98789286D01*
X101514286Y-98646429D01*
X101585715Y-98575000D01*
X101728572Y-98503571D01*
X102871429Y-99860714D02*
X102942857Y-99932143D01*
X102871429Y-100003571D01*
X102800000Y-99932143D01*
X102871429Y-99860714D01*
X102871429Y-100003571D01*
X104371429Y-100003571D02*
X103514286Y-100003571D01*
X103942858Y-100003571D02*
X103942858Y-98503571D01*
X103800001Y-98717857D01*
X103657143Y-98860714D01*
X103514286Y-98932143D01*
D11*
X124675000Y-106650000D02*
X124675000Y-105950000D01*
X125875000Y-105950000D02*
X125875000Y-106650000D01*
X105775000Y-107050000D02*
X105775000Y-107750000D01*
X104575000Y-107750000D02*
X104575000Y-107050000D01*
X93400000Y-102225000D02*
X93400000Y-101525000D01*
X94600000Y-101525000D02*
X94600000Y-102225000D01*
X93100000Y-103900000D02*
X93100000Y-104600000D01*
X91900000Y-104600000D02*
X91900000Y-103900000D01*
X87425000Y-94100000D02*
X86725000Y-94100000D01*
X86725000Y-92900000D02*
X87425000Y-92900000D01*
X87600000Y-105975000D02*
X88300000Y-105975000D01*
X88300000Y-107175000D02*
X87600000Y-107175000D01*
X90075000Y-100425000D02*
X89375000Y-100425000D01*
X89375000Y-99225000D02*
X90075000Y-99225000D01*
X98725000Y-93225000D02*
X98725000Y-93925000D01*
X97525000Y-93925000D02*
X97525000Y-93225000D01*
X95050000Y-90300000D02*
X95750000Y-90300000D01*
X95750000Y-91500000D02*
X95050000Y-91500000D01*
X124675000Y-103750000D02*
X124675000Y-103050000D01*
X125875000Y-103050000D02*
X125875000Y-103750000D01*
X71900000Y-106850000D02*
X71200000Y-106850000D01*
X71200000Y-105650000D02*
X71900000Y-105650000D01*
X73900000Y-92000000D02*
X73900000Y-91300000D01*
X75100000Y-91300000D02*
X75100000Y-92000000D01*
X71900000Y-108350000D02*
X71200000Y-108350000D01*
X71200000Y-107150000D02*
X71900000Y-107150000D01*
X72650000Y-92950000D02*
X71950000Y-92950000D01*
X71950000Y-91750000D02*
X72650000Y-91750000D01*
X81000000Y-102700000D02*
X81000000Y-103400000D01*
X79800000Y-103400000D02*
X79800000Y-102700000D01*
X79500000Y-98825000D02*
X79500000Y-99525000D01*
X78300000Y-99525000D02*
X78300000Y-98825000D01*
X85100000Y-103400000D02*
X85100000Y-102700000D01*
X86300000Y-102700000D02*
X86300000Y-103400000D01*
X84800000Y-99800000D02*
X84800000Y-100500000D01*
X83600000Y-100500000D02*
X83600000Y-99800000D01*
X124250000Y-111100000D02*
X124250000Y-110100000D01*
X125600000Y-110100000D02*
X125600000Y-111100000D01*
X124400000Y-93425000D02*
X123400000Y-93425000D01*
X123400000Y-92075000D02*
X124400000Y-92075000D01*
X113685000Y-92670000D02*
X113685000Y-93670000D01*
X112335000Y-93670000D02*
X112335000Y-92670000D01*
X116125000Y-93650000D02*
X116125000Y-94650000D01*
X114775000Y-94650000D02*
X114775000Y-93650000D01*
X125925000Y-109225000D02*
X124925000Y-109225000D01*
X124925000Y-107875000D02*
X125925000Y-107875000D01*
X116800000Y-92225000D02*
X115800000Y-92225000D01*
X115800000Y-90875000D02*
X116800000Y-90875000D01*
X83250000Y-106725000D02*
X84250000Y-106725000D01*
X84250000Y-108075000D02*
X83250000Y-108075000D01*
X86825000Y-107450000D02*
X87825000Y-107450000D01*
X87825000Y-108800000D02*
X86825000Y-108800000D01*
X91875000Y-93125000D02*
X90875000Y-93125000D01*
X90875000Y-91775000D02*
X91875000Y-91775000D01*
X123050000Y-93675000D02*
X124050000Y-93675000D01*
X124050000Y-95025000D02*
X123050000Y-95025000D01*
X123050000Y-95275000D02*
X124050000Y-95275000D01*
X124050000Y-96625000D02*
X123050000Y-96625000D01*
X121775000Y-98550000D02*
X121775000Y-97550000D01*
X123125000Y-97550000D02*
X123125000Y-98550000D01*
X123375000Y-98550000D02*
X123375000Y-97550000D01*
X124725000Y-97550000D02*
X124725000Y-98550000D01*
X124725000Y-100150000D02*
X124725000Y-101150000D01*
X123375000Y-101150000D02*
X123375000Y-100150000D01*
X123125000Y-100150000D02*
X123125000Y-101150000D01*
X121775000Y-101150000D02*
X121775000Y-100150000D01*
X122650000Y-110250000D02*
X122650000Y-109250000D01*
X124000000Y-109250000D02*
X124000000Y-110250000D01*
X121050000Y-110250000D02*
X121050000Y-109250000D01*
X122400000Y-109250000D02*
X122400000Y-110250000D01*
X79625000Y-92925000D02*
X79625000Y-93925000D01*
X78275000Y-93925000D02*
X78275000Y-92925000D01*
X84425000Y-92450000D02*
X84425000Y-93450000D01*
X83075000Y-93450000D02*
X83075000Y-92450000D01*
X81225000Y-92450000D02*
X81225000Y-93450000D01*
X79875000Y-93450000D02*
X79875000Y-92450000D01*
X82825000Y-92450000D02*
X82825000Y-93450000D01*
X81475000Y-93450000D02*
X81475000Y-92450000D01*
X75475000Y-109300000D02*
X75475000Y-110300000D01*
X74125000Y-110300000D02*
X74125000Y-109300000D01*
X75725000Y-110300000D02*
X75725000Y-109300000D01*
X77075000Y-109300000D02*
X77075000Y-110300000D01*
X75975000Y-98050000D02*
X75975000Y-97050000D01*
X77325000Y-97050000D02*
X77325000Y-98050000D01*
X75975000Y-100650000D02*
X75975000Y-99650000D01*
X77325000Y-99650000D02*
X77325000Y-100650000D01*
X80975000Y-107000000D02*
X80975000Y-106000000D01*
X82325000Y-106000000D02*
X82325000Y-107000000D01*
X73900000Y-101125000D02*
X74900000Y-101125000D01*
X74900000Y-102475000D02*
X73900000Y-102475000D01*
X91325000Y-104200000D02*
X90925000Y-104200000D01*
X91325000Y-104200000D02*
X91325000Y-103800000D01*
X91325000Y-101000000D02*
X90925000Y-101000000D01*
X91325000Y-101000000D02*
X91325000Y-101400000D01*
X88125000Y-101000000D02*
X88525000Y-101000000D01*
X88125000Y-101000000D02*
X88125000Y-101400000D01*
X88125000Y-104200000D02*
X88125000Y-103800000D01*
X124350000Y-103275000D02*
X124225000Y-103275000D01*
X124350000Y-106525000D02*
X124125000Y-106525000D01*
X121100000Y-106525000D02*
X121325000Y-106525000D01*
X121100000Y-103275000D02*
X121325000Y-103275000D01*
X124350000Y-103275000D02*
X124350000Y-106525000D01*
X121100000Y-103275000D02*
X121100000Y-106525000D01*
X124225000Y-103275000D02*
X124225000Y-102200000D01*
X79225000Y-108325000D02*
X79225000Y-108225000D01*
X74575000Y-108325000D02*
X74575000Y-108125000D01*
X74575000Y-105075000D02*
X74575000Y-105275000D01*
X79225000Y-105075000D02*
X79225000Y-105275000D01*
X79225000Y-108325000D02*
X74575000Y-108325000D01*
X79225000Y-105075000D02*
X74575000Y-105075000D01*
X79225000Y-108225000D02*
X80575000Y-108225000D01*
X72425000Y-99375000D02*
X72525000Y-99375000D01*
X72425000Y-94725000D02*
X72625000Y-94725000D01*
X75675000Y-94725000D02*
X75475000Y-94725000D01*
X75675000Y-99375000D02*
X75475000Y-99375000D01*
X72425000Y-99375000D02*
X72425000Y-94725000D01*
X75675000Y-99375000D02*
X75675000Y-94725000D01*
X72525000Y-99375000D02*
X72525000Y-100725000D01*
D15*
X82150000Y-105010000D02*
X83950000Y-105010000D01*
X83950000Y-101790000D02*
X81500000Y-101790000D01*
X80650000Y-101410000D02*
X82450000Y-101410000D01*
X82450000Y-98190000D02*
X80000000Y-98190000D01*
D11*
X104325000Y-91625000D02*
X102725000Y-91625000D01*
X104325000Y-94425000D02*
X102725000Y-94425000D01*
X104325000Y-94425000D02*
G75*
G03X104325000Y-91625000I0J1400000D01*
G01*
X102725000Y-91625000D02*
G75*
G03X102725000Y-94425000I0J-1400000D01*
G01*
X104325000Y-94775000D02*
X102725000Y-94775000D01*
X104325000Y-97575000D02*
X102725000Y-97575000D01*
X104325000Y-97575000D02*
G75*
G03X104325000Y-94775000I0J1400000D01*
G01*
X102725000Y-94775000D02*
G75*
G03X102725000Y-97575000I0J-1400000D01*
G01*
X79550000Y-97525000D02*
X79750000Y-97525000D01*
X79550000Y-94725000D02*
X79750000Y-94725000D01*
X79550000Y-94725000D02*
G75*
G03X79550000Y-97525000I0J-1400000D01*
G01*
X79750000Y-97525000D02*
G75*
G03X79750000Y-94725000I0J1400000D01*
G01*
X104075000Y-102975000D02*
X104075000Y-103975000D01*
X105775000Y-103975000D02*
X105775000Y-102975000D01*
X73550000Y-104775000D02*
X75550000Y-104775000D01*
X75550000Y-102725000D02*
X73550000Y-102725000D01*
X75975000Y-92950000D02*
X75975000Y-94950000D01*
X78025000Y-94950000D02*
X78025000Y-92950000D01*
D16*
X120425000Y-96850000D02*
X115425000Y-96850000D01*
X109725000Y-96850000D02*
X112925000Y-96850000D01*
X106425000Y-96850000D02*
X107225000Y-96850000D01*
X108425000Y-109350000D02*
X107925000Y-110350000D01*
X116425000Y-109350000D02*
X108425000Y-109350000D01*
X117925000Y-112250000D02*
X116425000Y-109350000D01*
X119025000Y-112250000D02*
X117925000Y-112250000D01*
X120425000Y-96850000D02*
X120425000Y-110150000D01*
X106425000Y-109150000D02*
X106425000Y-96850000D01*
D11*
X96450000Y-91825000D02*
X94000000Y-91825000D01*
X97175000Y-95075000D02*
X94000000Y-95075000D01*
X79650000Y-103500000D02*
X79650000Y-103300000D01*
X76850000Y-103500000D02*
X76850000Y-103300000D01*
X76850000Y-103500000D02*
G75*
G03X79650000Y-103500000I1400000J0D01*
G01*
X79650000Y-103300000D02*
G75*
G03X76850000Y-103300000I-1400000J0D01*
G01*
D16*
X121450000Y-94150000D02*
X121450000Y-94150000D01*
X118050000Y-95550000D02*
X120450000Y-95550000D01*
X117050000Y-94150000D02*
X117050000Y-94150000D01*
X120450000Y-92750000D02*
X118050000Y-92750000D01*
X126825000Y-105500000D02*
X126825000Y-105500000D01*
X130225000Y-104100000D02*
X127825000Y-104100000D01*
X131225000Y-105500000D02*
X131225000Y-105500000D01*
X127825000Y-106900000D02*
X130225000Y-106900000D01*
D12*
X88975000Y-94625000D02*
X88975000Y-94125000D01*
X89075000Y-94625000D02*
X88975000Y-94625000D01*
X83825000Y-97875000D02*
X83825000Y-94625000D01*
X89075000Y-94625000D02*
X89075000Y-97875000D01*
D11*
X51581000Y-92126000D02*
X52089000Y-92126000D01*
X51581000Y-92634000D02*
X52089000Y-92634000D01*
X51581000Y-97714000D02*
X52089000Y-97714000D01*
X51581000Y-97206000D02*
X52089000Y-97206000D01*
X51581000Y-95174000D02*
X52089000Y-95174000D01*
X51581000Y-94666000D02*
X52089000Y-94666000D01*
X51581000Y-99746000D02*
X52089000Y-99746000D01*
X51581000Y-100254000D02*
X52089000Y-100254000D01*
X51581000Y-102286000D02*
X52089000Y-102286000D01*
X51581000Y-102794000D02*
X52089000Y-102794000D01*
X51581000Y-110414000D02*
X52089000Y-110414000D01*
X51581000Y-109906000D02*
X52089000Y-109906000D01*
X51581000Y-104826000D02*
X52089000Y-104826000D01*
X51581000Y-105334000D02*
X52089000Y-105334000D01*
X51581000Y-107366000D02*
X52089000Y-107366000D01*
X51581000Y-107874000D02*
X52089000Y-107874000D01*
X46501000Y-95174000D02*
X47009000Y-95174000D01*
X46501000Y-94666000D02*
X47009000Y-94666000D01*
X46501000Y-92634000D02*
X47009000Y-92634000D01*
X46501000Y-92126000D02*
X47009000Y-92126000D01*
X46501000Y-97206000D02*
X47009000Y-97206000D01*
X46501000Y-97714000D02*
X47009000Y-97714000D01*
X46501000Y-99746000D02*
X47009000Y-99746000D01*
X46501000Y-100254000D02*
X47009000Y-100254000D01*
X46501000Y-110414000D02*
X47009000Y-110414000D01*
X46501000Y-109906000D02*
X47009000Y-109906000D01*
X46501000Y-107874000D02*
X47009000Y-107874000D01*
X46501000Y-107366000D02*
X47009000Y-107366000D01*
X46501000Y-102286000D02*
X47009000Y-102286000D01*
X46501000Y-102794000D02*
X47009000Y-102794000D01*
X46501000Y-104826000D02*
X47009000Y-104826000D01*
X46501000Y-105334000D02*
X47009000Y-105334000D01*
X53105000Y-111320000D02*
X54255000Y-111320000D01*
X54255000Y-111320000D02*
X54255000Y-110160000D01*
X49041000Y-95174000D02*
X49549000Y-95174000D01*
X49041000Y-92634000D02*
X49549000Y-92634000D01*
X49041000Y-94666000D02*
X49549000Y-94666000D01*
X49041000Y-97714000D02*
X49549000Y-97714000D01*
X49041000Y-97206000D02*
X49549000Y-97206000D01*
X49041000Y-92126000D02*
X49549000Y-92126000D01*
X49041000Y-110414000D02*
X49549000Y-110414000D01*
X49041000Y-109906000D02*
X49549000Y-109906000D01*
X49041000Y-107366000D02*
X49549000Y-107366000D01*
X49041000Y-105334000D02*
X49549000Y-105334000D01*
X49041000Y-104826000D02*
X49549000Y-104826000D01*
X49041000Y-107874000D02*
X49549000Y-107874000D01*
X49041000Y-99746000D02*
X49549000Y-99746000D01*
X49041000Y-100254000D02*
X49549000Y-100254000D01*
X49041000Y-102286000D02*
X49549000Y-102286000D01*
X49041000Y-102794000D02*
X49549000Y-102794000D01*
X46501000Y-90094000D02*
X47009000Y-90094000D01*
X46501000Y-89586000D02*
X47009000Y-89586000D01*
X49041000Y-90094000D02*
X49549000Y-90094000D01*
X51581000Y-89586000D02*
X52089000Y-89586000D01*
X51581000Y-90094000D02*
X52089000Y-90094000D01*
X49041000Y-89586000D02*
X49549000Y-89586000D01*
X102500000Y-85625000D02*
X97500000Y-85625000D01*
X97500000Y-85625000D02*
X97500000Y-86125000D01*
X97500000Y-86125000D02*
X102500000Y-86125000D01*
X102500000Y-86125000D02*
X102500000Y-85625000D01*
X104200000Y-88825000D02*
X104200000Y-89925000D01*
X104200000Y-89925000D02*
X102550000Y-89925000D01*
X102550000Y-89925000D02*
X102550000Y-89425000D01*
X102550000Y-89425000D02*
X103700000Y-89425000D01*
X103700000Y-89425000D02*
X103700000Y-88825000D01*
X103700000Y-88825000D02*
X104200000Y-88825000D01*
X95800000Y-88825000D02*
X95800000Y-89925000D01*
X95800000Y-89925000D02*
X97450000Y-89925000D01*
X97450000Y-89925000D02*
X97450000Y-89425000D01*
X97450000Y-89425000D02*
X96300000Y-89425000D01*
X96300000Y-89425000D02*
X96300000Y-88825000D01*
X96300000Y-88825000D02*
X95800000Y-88825000D01*
X96875000Y-90600000D02*
X96375000Y-90350000D01*
X96375000Y-90350000D02*
X96375000Y-90850000D01*
X96375000Y-90850000D02*
X96875000Y-90600000D01*
X102125000Y-88275000D02*
X102125000Y-87775000D01*
X102125000Y-87775000D02*
X101625000Y-87775000D01*
X101625000Y-87775000D02*
X101625000Y-88275000D01*
X101625000Y-88275000D02*
X102125000Y-88275000D01*
X100875000Y-88275000D02*
X100875000Y-87775000D01*
X100875000Y-87775000D02*
X100375000Y-87775000D01*
X100375000Y-87775000D02*
X100375000Y-88275000D01*
X100375000Y-88275000D02*
X100875000Y-88275000D01*
X99625000Y-88275000D02*
X99625000Y-87775000D01*
X99625000Y-87775000D02*
X99125000Y-87775000D01*
X99125000Y-87775000D02*
X99125000Y-88275000D01*
X99125000Y-88275000D02*
X99625000Y-88275000D01*
X98375000Y-88275000D02*
X98375000Y-87775000D01*
X98375000Y-87775000D02*
X97875000Y-87775000D01*
X97875000Y-87775000D02*
X97875000Y-88275000D01*
X97875000Y-88275000D02*
X98375000Y-88275000D01*
X123400000Y-85625000D02*
X118400000Y-85625000D01*
X118400000Y-85625000D02*
X118400000Y-86125000D01*
X118400000Y-86125000D02*
X123400000Y-86125000D01*
X123400000Y-86125000D02*
X123400000Y-85625000D01*
X125100000Y-88825000D02*
X125100000Y-89925000D01*
X125100000Y-89925000D02*
X123450000Y-89925000D01*
X123450000Y-89925000D02*
X123450000Y-89425000D01*
X123450000Y-89425000D02*
X124600000Y-89425000D01*
X124600000Y-89425000D02*
X124600000Y-88825000D01*
X124600000Y-88825000D02*
X125100000Y-88825000D01*
X116700000Y-88825000D02*
X116700000Y-89925000D01*
X116700000Y-89925000D02*
X118350000Y-89925000D01*
X118350000Y-89925000D02*
X118350000Y-89425000D01*
X118350000Y-89425000D02*
X117200000Y-89425000D01*
X117200000Y-89425000D02*
X117200000Y-88825000D01*
X117200000Y-88825000D02*
X116700000Y-88825000D01*
X117775000Y-90600000D02*
X117275000Y-90350000D01*
X117275000Y-90350000D02*
X117275000Y-90850000D01*
X117275000Y-90850000D02*
X117775000Y-90600000D01*
X123025000Y-88275000D02*
X123025000Y-87775000D01*
X123025000Y-87775000D02*
X122525000Y-87775000D01*
X122525000Y-87775000D02*
X122525000Y-88275000D01*
X122525000Y-88275000D02*
X123025000Y-88275000D01*
X121775000Y-88275000D02*
X121775000Y-87775000D01*
X121775000Y-87775000D02*
X121275000Y-87775000D01*
X121275000Y-87775000D02*
X121275000Y-88275000D01*
X121275000Y-88275000D02*
X121775000Y-88275000D01*
X120525000Y-88275000D02*
X120525000Y-87775000D01*
X120525000Y-87775000D02*
X120025000Y-87775000D01*
X120025000Y-87775000D02*
X120025000Y-88275000D01*
X120025000Y-88275000D02*
X120525000Y-88275000D01*
X119275000Y-88275000D02*
X119275000Y-87775000D01*
X119275000Y-87775000D02*
X118775000Y-87775000D01*
X118775000Y-87775000D02*
X118775000Y-88275000D01*
X118775000Y-88275000D02*
X119275000Y-88275000D01*
X93300000Y-85625000D02*
X88300000Y-85625000D01*
X88300000Y-85625000D02*
X88300000Y-86125000D01*
X88300000Y-86125000D02*
X93300000Y-86125000D01*
X93300000Y-86125000D02*
X93300000Y-85625000D01*
X95000000Y-88825000D02*
X95000000Y-89925000D01*
X95000000Y-89925000D02*
X93350000Y-89925000D01*
X93350000Y-89925000D02*
X93350000Y-89425000D01*
X93350000Y-89425000D02*
X94500000Y-89425000D01*
X94500000Y-89425000D02*
X94500000Y-88825000D01*
X94500000Y-88825000D02*
X95000000Y-88825000D01*
X86600000Y-88825000D02*
X86600000Y-89925000D01*
X86600000Y-89925000D02*
X88250000Y-89925000D01*
X88250000Y-89925000D02*
X88250000Y-89425000D01*
X88250000Y-89425000D02*
X87100000Y-89425000D01*
X87100000Y-89425000D02*
X87100000Y-88825000D01*
X87100000Y-88825000D02*
X86600000Y-88825000D01*
X87675000Y-90600000D02*
X87175000Y-90350000D01*
X87175000Y-90350000D02*
X87175000Y-90850000D01*
X87175000Y-90850000D02*
X87675000Y-90600000D01*
X92925000Y-88275000D02*
X92925000Y-87775000D01*
X92925000Y-87775000D02*
X92425000Y-87775000D01*
X92425000Y-87775000D02*
X92425000Y-88275000D01*
X92425000Y-88275000D02*
X92925000Y-88275000D01*
X91675000Y-88275000D02*
X91675000Y-87775000D01*
X91675000Y-87775000D02*
X91175000Y-87775000D01*
X91175000Y-87775000D02*
X91175000Y-88275000D01*
X91175000Y-88275000D02*
X91675000Y-88275000D01*
X90425000Y-88275000D02*
X90425000Y-87775000D01*
X90425000Y-87775000D02*
X89925000Y-87775000D01*
X89925000Y-87775000D02*
X89925000Y-88275000D01*
X89925000Y-88275000D02*
X90425000Y-88275000D01*
X89175000Y-88275000D02*
X89175000Y-87775000D01*
X89175000Y-87775000D02*
X88675000Y-87775000D01*
X88675000Y-87775000D02*
X88675000Y-88275000D01*
X88675000Y-88275000D02*
X89175000Y-88275000D01*
X55075000Y-90400000D02*
X55075000Y-97900000D01*
X55075000Y-97900000D02*
X55575000Y-97900000D01*
X55575000Y-97900000D02*
X55575000Y-90400000D01*
X55575000Y-90400000D02*
X55075000Y-90400000D01*
X58275000Y-88700000D02*
X59375000Y-88700000D01*
X59375000Y-88700000D02*
X59375000Y-90350000D01*
X59375000Y-90350000D02*
X58875000Y-90350000D01*
X58875000Y-90350000D02*
X58875000Y-89200000D01*
X58875000Y-89200000D02*
X58275000Y-89200000D01*
X58275000Y-89200000D02*
X58275000Y-88700000D01*
X58275000Y-99600000D02*
X59375000Y-99600000D01*
X59375000Y-99600000D02*
X59375000Y-97950000D01*
X59375000Y-97950000D02*
X58875000Y-97950000D01*
X58875000Y-97950000D02*
X58875000Y-99100000D01*
X58875000Y-99100000D02*
X58275000Y-99100000D01*
X58275000Y-99100000D02*
X58275000Y-99600000D01*
X57725000Y-90775000D02*
X57225000Y-90775000D01*
X57225000Y-90775000D02*
X57225000Y-91275000D01*
X57225000Y-91275000D02*
X57725000Y-91275000D01*
X57725000Y-91275000D02*
X57725000Y-90775000D01*
X57725000Y-92025000D02*
X57225000Y-92025000D01*
X57225000Y-92025000D02*
X57225000Y-92525000D01*
X57225000Y-92525000D02*
X57725000Y-92525000D01*
X57725000Y-92525000D02*
X57725000Y-92025000D01*
X57725000Y-93275000D02*
X57225000Y-93275000D01*
X57225000Y-93275000D02*
X57225000Y-93775000D01*
X57225000Y-93775000D02*
X57725000Y-93775000D01*
X57725000Y-93775000D02*
X57725000Y-93275000D01*
X57725000Y-94525000D02*
X57225000Y-94525000D01*
X57225000Y-94525000D02*
X57225000Y-95025000D01*
X57225000Y-95025000D02*
X57725000Y-95025000D01*
X57725000Y-95025000D02*
X57725000Y-94525000D01*
X57725000Y-95775000D02*
X57225000Y-95775000D01*
X57225000Y-95775000D02*
X57225000Y-96275000D01*
X57225000Y-96275000D02*
X57725000Y-96275000D01*
X57725000Y-96275000D02*
X57725000Y-95775000D01*
X57725000Y-97025000D02*
X57225000Y-97025000D01*
X57225000Y-97025000D02*
X57225000Y-97525000D01*
X57225000Y-97525000D02*
X57725000Y-97525000D01*
X57725000Y-97525000D02*
X57725000Y-97025000D01*
X60050000Y-98525000D02*
X59800000Y-99025000D01*
X60300000Y-99025000D02*
X60050000Y-98525000D01*
X59800000Y-99025000D02*
X60300000Y-99025000D01*
X55075000Y-102100000D02*
X55075000Y-109600000D01*
X55075000Y-109600000D02*
X55575000Y-109600000D01*
X55575000Y-109600000D02*
X55575000Y-102100000D01*
X55575000Y-102100000D02*
X55075000Y-102100000D01*
X58275000Y-100400000D02*
X59375000Y-100400000D01*
X59375000Y-100400000D02*
X59375000Y-102050000D01*
X59375000Y-102050000D02*
X58875000Y-102050000D01*
X58875000Y-102050000D02*
X58875000Y-100900000D01*
X58875000Y-100900000D02*
X58275000Y-100900000D01*
X58275000Y-100900000D02*
X58275000Y-100400000D01*
X58275000Y-111300000D02*
X59375000Y-111300000D01*
X59375000Y-111300000D02*
X59375000Y-109650000D01*
X59375000Y-109650000D02*
X58875000Y-109650000D01*
X58875000Y-109650000D02*
X58875000Y-110800000D01*
X58875000Y-110800000D02*
X58275000Y-110800000D01*
X58275000Y-110800000D02*
X58275000Y-111300000D01*
X57725000Y-102475000D02*
X57225000Y-102475000D01*
X57225000Y-102475000D02*
X57225000Y-102975000D01*
X57225000Y-102975000D02*
X57725000Y-102975000D01*
X57725000Y-102975000D02*
X57725000Y-102475000D01*
X57725000Y-103725000D02*
X57225000Y-103725000D01*
X57225000Y-103725000D02*
X57225000Y-104225000D01*
X57225000Y-104225000D02*
X57725000Y-104225000D01*
X57725000Y-104225000D02*
X57725000Y-103725000D01*
X57725000Y-104975000D02*
X57225000Y-104975000D01*
X57225000Y-104975000D02*
X57225000Y-105475000D01*
X57225000Y-105475000D02*
X57725000Y-105475000D01*
X57725000Y-105475000D02*
X57725000Y-104975000D01*
X57725000Y-106225000D02*
X57225000Y-106225000D01*
X57225000Y-106225000D02*
X57225000Y-106725000D01*
X57225000Y-106725000D02*
X57725000Y-106725000D01*
X57725000Y-106725000D02*
X57725000Y-106225000D01*
X57725000Y-107475000D02*
X57225000Y-107475000D01*
X57225000Y-107475000D02*
X57225000Y-107975000D01*
X57225000Y-107975000D02*
X57725000Y-107975000D01*
X57725000Y-107975000D02*
X57725000Y-107475000D01*
X57725000Y-108725000D02*
X57225000Y-108725000D01*
X57225000Y-108725000D02*
X57225000Y-109225000D01*
X57225000Y-109225000D02*
X57725000Y-109225000D01*
X57725000Y-109225000D02*
X57725000Y-108725000D01*
X60050000Y-110225000D02*
X59800000Y-110725000D01*
X60300000Y-110725000D02*
X60050000Y-110225000D01*
X59800000Y-110725000D02*
X60300000Y-110725000D01*
X62725000Y-90400000D02*
X62725000Y-97900000D01*
X62725000Y-97900000D02*
X63225000Y-97900000D01*
X63225000Y-97900000D02*
X63225000Y-90400000D01*
X63225000Y-90400000D02*
X62725000Y-90400000D01*
X65925000Y-88700000D02*
X67025000Y-88700000D01*
X67025000Y-88700000D02*
X67025000Y-90350000D01*
X67025000Y-90350000D02*
X66525000Y-90350000D01*
X66525000Y-90350000D02*
X66525000Y-89200000D01*
X66525000Y-89200000D02*
X65925000Y-89200000D01*
X65925000Y-89200000D02*
X65925000Y-88700000D01*
X65925000Y-99600000D02*
X67025000Y-99600000D01*
X67025000Y-99600000D02*
X67025000Y-97950000D01*
X67025000Y-97950000D02*
X66525000Y-97950000D01*
X66525000Y-97950000D02*
X66525000Y-99100000D01*
X66525000Y-99100000D02*
X65925000Y-99100000D01*
X65925000Y-99100000D02*
X65925000Y-99600000D01*
X65375000Y-90775000D02*
X64875000Y-90775000D01*
X64875000Y-90775000D02*
X64875000Y-91275000D01*
X64875000Y-91275000D02*
X65375000Y-91275000D01*
X65375000Y-91275000D02*
X65375000Y-90775000D01*
X65375000Y-92025000D02*
X64875000Y-92025000D01*
X64875000Y-92025000D02*
X64875000Y-92525000D01*
X64875000Y-92525000D02*
X65375000Y-92525000D01*
X65375000Y-92525000D02*
X65375000Y-92025000D01*
X65375000Y-93275000D02*
X64875000Y-93275000D01*
X64875000Y-93275000D02*
X64875000Y-93775000D01*
X64875000Y-93775000D02*
X65375000Y-93775000D01*
X65375000Y-93775000D02*
X65375000Y-93275000D01*
X65375000Y-94525000D02*
X64875000Y-94525000D01*
X64875000Y-94525000D02*
X64875000Y-95025000D01*
X64875000Y-95025000D02*
X65375000Y-95025000D01*
X65375000Y-95025000D02*
X65375000Y-94525000D01*
X65375000Y-95775000D02*
X64875000Y-95775000D01*
X64875000Y-95775000D02*
X64875000Y-96275000D01*
X64875000Y-96275000D02*
X65375000Y-96275000D01*
X65375000Y-96275000D02*
X65375000Y-95775000D01*
X65375000Y-97025000D02*
X64875000Y-97025000D01*
X64875000Y-97025000D02*
X64875000Y-97525000D01*
X64875000Y-97525000D02*
X65375000Y-97525000D01*
X65375000Y-97525000D02*
X65375000Y-97025000D01*
X67700000Y-98525000D02*
X67450000Y-99025000D01*
X67950000Y-99025000D02*
X67700000Y-98525000D01*
X67450000Y-99025000D02*
X67950000Y-99025000D01*
X62725000Y-102100000D02*
X62725000Y-109600000D01*
X62725000Y-109600000D02*
X63225000Y-109600000D01*
X63225000Y-109600000D02*
X63225000Y-102100000D01*
X63225000Y-102100000D02*
X62725000Y-102100000D01*
X65925000Y-100400000D02*
X67025000Y-100400000D01*
X67025000Y-100400000D02*
X67025000Y-102050000D01*
X67025000Y-102050000D02*
X66525000Y-102050000D01*
X66525000Y-102050000D02*
X66525000Y-100900000D01*
X66525000Y-100900000D02*
X65925000Y-100900000D01*
X65925000Y-100900000D02*
X65925000Y-100400000D01*
X65925000Y-111300000D02*
X67025000Y-111300000D01*
X67025000Y-111300000D02*
X67025000Y-109650000D01*
X67025000Y-109650000D02*
X66525000Y-109650000D01*
X66525000Y-109650000D02*
X66525000Y-110800000D01*
X66525000Y-110800000D02*
X65925000Y-110800000D01*
X65925000Y-110800000D02*
X65925000Y-111300000D01*
X65375000Y-102475000D02*
X64875000Y-102475000D01*
X64875000Y-102475000D02*
X64875000Y-102975000D01*
X64875000Y-102975000D02*
X65375000Y-102975000D01*
X65375000Y-102975000D02*
X65375000Y-102475000D01*
X65375000Y-103725000D02*
X64875000Y-103725000D01*
X64875000Y-103725000D02*
X64875000Y-104225000D01*
X64875000Y-104225000D02*
X65375000Y-104225000D01*
X65375000Y-104225000D02*
X65375000Y-103725000D01*
X65375000Y-104975000D02*
X64875000Y-104975000D01*
X64875000Y-104975000D02*
X64875000Y-105475000D01*
X64875000Y-105475000D02*
X65375000Y-105475000D01*
X65375000Y-105475000D02*
X65375000Y-104975000D01*
X65375000Y-106225000D02*
X64875000Y-106225000D01*
X64875000Y-106225000D02*
X64875000Y-106725000D01*
X64875000Y-106725000D02*
X65375000Y-106725000D01*
X65375000Y-106725000D02*
X65375000Y-106225000D01*
X65375000Y-107475000D02*
X64875000Y-107475000D01*
X64875000Y-107475000D02*
X64875000Y-107975000D01*
X64875000Y-107975000D02*
X65375000Y-107975000D01*
X65375000Y-107975000D02*
X65375000Y-107475000D01*
X65375000Y-108725000D02*
X64875000Y-108725000D01*
X64875000Y-108725000D02*
X64875000Y-109225000D01*
X64875000Y-109225000D02*
X65375000Y-109225000D01*
X65375000Y-109225000D02*
X65375000Y-108725000D01*
X67700000Y-110225000D02*
X67450000Y-110725000D01*
X67950000Y-110725000D02*
X67700000Y-110225000D01*
X67450000Y-110725000D02*
X67950000Y-110725000D01*
X84100000Y-85625000D02*
X76600000Y-85625000D01*
X76600000Y-85625000D02*
X76600000Y-86125000D01*
X76600000Y-86125000D02*
X84100000Y-86125000D01*
X84100000Y-86125000D02*
X84100000Y-85625000D01*
X85800000Y-88825000D02*
X85800000Y-89925000D01*
X85800000Y-89925000D02*
X84150000Y-89925000D01*
X84150000Y-89925000D02*
X84150000Y-89425000D01*
X84150000Y-89425000D02*
X85300000Y-89425000D01*
X85300000Y-89425000D02*
X85300000Y-88825000D01*
X85300000Y-88825000D02*
X85800000Y-88825000D01*
X74900000Y-88825000D02*
X74900000Y-89925000D01*
X74900000Y-89925000D02*
X76550000Y-89925000D01*
X76550000Y-89925000D02*
X76550000Y-89425000D01*
X76550000Y-89425000D02*
X75400000Y-89425000D01*
X75400000Y-89425000D02*
X75400000Y-88825000D01*
X75400000Y-88825000D02*
X74900000Y-88825000D01*
X83725000Y-88275000D02*
X83725000Y-87775000D01*
X83725000Y-87775000D02*
X83225000Y-87775000D01*
X83225000Y-87775000D02*
X83225000Y-88275000D01*
X83225000Y-88275000D02*
X83725000Y-88275000D01*
X82475000Y-88275000D02*
X82475000Y-87775000D01*
X82475000Y-87775000D02*
X81975000Y-87775000D01*
X81975000Y-87775000D02*
X81975000Y-88275000D01*
X81975000Y-88275000D02*
X82475000Y-88275000D01*
X81225000Y-88275000D02*
X81225000Y-87775000D01*
X81225000Y-87775000D02*
X80725000Y-87775000D01*
X80725000Y-87775000D02*
X80725000Y-88275000D01*
X80725000Y-88275000D02*
X81225000Y-88275000D01*
X79975000Y-88275000D02*
X79975000Y-87775000D01*
X79975000Y-87775000D02*
X79475000Y-87775000D01*
X79475000Y-87775000D02*
X79475000Y-88275000D01*
X79475000Y-88275000D02*
X79975000Y-88275000D01*
X78725000Y-88275000D02*
X78725000Y-87775000D01*
X78725000Y-87775000D02*
X78225000Y-87775000D01*
X78225000Y-87775000D02*
X78225000Y-88275000D01*
X78225000Y-88275000D02*
X78725000Y-88275000D01*
X77475000Y-88275000D02*
X77475000Y-87775000D01*
X77475000Y-87775000D02*
X76975000Y-87775000D01*
X76975000Y-87775000D02*
X76975000Y-88275000D01*
X76975000Y-88275000D02*
X77475000Y-88275000D01*
X75975000Y-90600000D02*
X75475000Y-90350000D01*
X75475000Y-90850000D02*
X75975000Y-90600000D01*
X75475000Y-90350000D02*
X75475000Y-90850000D01*
X130875000Y-101600000D02*
X130875000Y-94100000D01*
X130875000Y-94100000D02*
X130375000Y-94100000D01*
X130375000Y-94100000D02*
X130375000Y-101600000D01*
X130375000Y-101600000D02*
X130875000Y-101600000D01*
X127675000Y-103300000D02*
X126575000Y-103300000D01*
X126575000Y-103300000D02*
X126575000Y-101650000D01*
X126575000Y-101650000D02*
X127075000Y-101650000D01*
X127075000Y-101650000D02*
X127075000Y-102800000D01*
X127075000Y-102800000D02*
X127675000Y-102800000D01*
X127675000Y-102800000D02*
X127675000Y-103300000D01*
X127675000Y-92400000D02*
X126575000Y-92400000D01*
X126575000Y-92400000D02*
X126575000Y-94050000D01*
X126575000Y-94050000D02*
X127075000Y-94050000D01*
X127075000Y-94050000D02*
X127075000Y-92900000D01*
X127075000Y-92900000D02*
X127675000Y-92900000D01*
X127675000Y-92900000D02*
X127675000Y-92400000D01*
X128225000Y-101225000D02*
X128725000Y-101225000D01*
X128725000Y-101225000D02*
X128725000Y-100725000D01*
X128725000Y-100725000D02*
X128225000Y-100725000D01*
X128225000Y-100725000D02*
X128225000Y-101225000D01*
X128225000Y-99975000D02*
X128725000Y-99975000D01*
X128725000Y-99975000D02*
X128725000Y-99475000D01*
X128725000Y-99475000D02*
X128225000Y-99475000D01*
X128225000Y-99475000D02*
X128225000Y-99975000D01*
X128225000Y-98725000D02*
X128725000Y-98725000D01*
X128725000Y-98725000D02*
X128725000Y-98225000D01*
X128725000Y-98225000D02*
X128225000Y-98225000D01*
X128225000Y-98225000D02*
X128225000Y-98725000D01*
X128225000Y-97475000D02*
X128725000Y-97475000D01*
X128725000Y-97475000D02*
X128725000Y-96975000D01*
X128725000Y-96975000D02*
X128225000Y-96975000D01*
X128225000Y-96975000D02*
X128225000Y-97475000D01*
X128225000Y-96225000D02*
X128725000Y-96225000D01*
X128725000Y-96225000D02*
X128725000Y-95725000D01*
X128725000Y-95725000D02*
X128225000Y-95725000D01*
X128225000Y-95725000D02*
X128225000Y-96225000D01*
X128225000Y-94975000D02*
X128725000Y-94975000D01*
X128725000Y-94975000D02*
X128725000Y-94475000D01*
X128725000Y-94475000D02*
X128225000Y-94475000D01*
X128225000Y-94475000D02*
X128225000Y-94975000D01*
X125900000Y-93475000D02*
X126150000Y-92975000D01*
X125650000Y-92975000D02*
X125900000Y-93475000D01*
X126150000Y-92975000D02*
X125650000Y-92975000D01*
X114200000Y-85625000D02*
X106700000Y-85625000D01*
X106700000Y-85625000D02*
X106700000Y-86125000D01*
X106700000Y-86125000D02*
X114200000Y-86125000D01*
X114200000Y-86125000D02*
X114200000Y-85625000D01*
X115900000Y-88825000D02*
X115900000Y-89925000D01*
X115900000Y-89925000D02*
X114250000Y-89925000D01*
X114250000Y-89925000D02*
X114250000Y-89425000D01*
X114250000Y-89425000D02*
X115400000Y-89425000D01*
X115400000Y-89425000D02*
X115400000Y-88825000D01*
X115400000Y-88825000D02*
X115900000Y-88825000D01*
X105000000Y-88825000D02*
X105000000Y-89925000D01*
X105000000Y-89925000D02*
X106650000Y-89925000D01*
X106650000Y-89925000D02*
X106650000Y-89425000D01*
X106650000Y-89425000D02*
X105500000Y-89425000D01*
X105500000Y-89425000D02*
X105500000Y-88825000D01*
X105500000Y-88825000D02*
X105000000Y-88825000D01*
X113825000Y-88275000D02*
X113825000Y-87775000D01*
X113825000Y-87775000D02*
X113325000Y-87775000D01*
X113325000Y-87775000D02*
X113325000Y-88275000D01*
X113325000Y-88275000D02*
X113825000Y-88275000D01*
X112575000Y-88275000D02*
X112575000Y-87775000D01*
X112575000Y-87775000D02*
X112075000Y-87775000D01*
X112075000Y-87775000D02*
X112075000Y-88275000D01*
X112075000Y-88275000D02*
X112575000Y-88275000D01*
X111325000Y-88275000D02*
X111325000Y-87775000D01*
X111325000Y-87775000D02*
X110825000Y-87775000D01*
X110825000Y-87775000D02*
X110825000Y-88275000D01*
X110825000Y-88275000D02*
X111325000Y-88275000D01*
X110075000Y-88275000D02*
X110075000Y-87775000D01*
X110075000Y-87775000D02*
X109575000Y-87775000D01*
X109575000Y-87775000D02*
X109575000Y-88275000D01*
X109575000Y-88275000D02*
X110075000Y-88275000D01*
X108825000Y-88275000D02*
X108825000Y-87775000D01*
X108825000Y-87775000D02*
X108325000Y-87775000D01*
X108325000Y-87775000D02*
X108325000Y-88275000D01*
X108325000Y-88275000D02*
X108825000Y-88275000D01*
X107575000Y-88275000D02*
X107575000Y-87775000D01*
X107575000Y-87775000D02*
X107075000Y-87775000D01*
X107075000Y-87775000D02*
X107075000Y-88275000D01*
X107075000Y-88275000D02*
X107575000Y-88275000D01*
X106075000Y-90600000D02*
X105575000Y-90350000D01*
X105575000Y-90850000D02*
X106075000Y-90600000D01*
X105575000Y-90350000D02*
X105575000Y-90850000D01*
X125800000Y-114350000D02*
X125800000Y-112450000D01*
X124700000Y-114350000D02*
X124700000Y-112450000D01*
X125250000Y-113450000D02*
X125250000Y-113000000D01*
X125000000Y-113500000D02*
X125500000Y-113500000D01*
X125250000Y-113500000D02*
X125000000Y-113250000D01*
X125000000Y-113250000D02*
X125500000Y-113250000D01*
X125500000Y-113250000D02*
X125250000Y-113500000D01*
X122700000Y-112025000D02*
X123700000Y-112025000D01*
X123700000Y-113375000D02*
X122700000Y-113375000D01*
D16*
X91915790Y-110339393D02*
G75*
G02X92380000Y-110250000I464210J-1160607D01*
G01*
X93540607Y-111035790D02*
G75*
G02X93630000Y-111500000I-1160607J-464210D01*
G01*
X93540596Y-111964238D02*
G75*
G03X93630000Y-111500000I-1160596J464238D01*
G01*
X92844238Y-110339404D02*
G75*
G03X92380000Y-110250000I-464238J-1160596D01*
G01*
X91219404Y-111035762D02*
G75*
G03X91130000Y-111500000I1160596J-464238D01*
G01*
X91219393Y-111964210D02*
G75*
G02X91130000Y-111500000I1160607J464210D01*
G01*
X91915762Y-112660596D02*
G75*
G03X92380000Y-112750000I464238J1160596D01*
G01*
X92844210Y-112660607D02*
G75*
G02X92380000Y-112750000I-464210J1160607D01*
G01*
X92880000Y-113250000D02*
X91880000Y-113250000D01*
X94130000Y-111000000D02*
X94130000Y-112000000D01*
X91880000Y-109750000D02*
X92880000Y-109750000D01*
X90630000Y-112000000D02*
X90630000Y-111000000D01*
D11*
X91900000Y-108250000D02*
X92200000Y-108550000D01*
X91900000Y-108550000D02*
X91900000Y-108250000D01*
X91900000Y-108550000D02*
X92200000Y-108550000D01*
D16*
X92450000Y-108800000D02*
G75*
G03X92450000Y-108800000I-100000J0D01*
G01*
X89650000Y-108500000D02*
X89650000Y-109100000D01*
X92050000Y-106100000D02*
X92650000Y-106100000D01*
X89850000Y-108300001D02*
G75*
G03X89850000Y-109300000I2500000J-499999D01*
G01*
X92849999Y-106300000D02*
G75*
G03X91850000Y-106300000I-499999J-2500000D01*
G01*
X89350000Y-108800000D02*
X89850000Y-109300000D01*
X89350000Y-108800000D02*
X89850000Y-108300000D01*
X91850000Y-108800000D02*
X89350000Y-108800000D01*
X92350000Y-105800000D02*
X92850000Y-106300000D01*
X91850000Y-106300000D02*
X92350000Y-105800000D01*
X92350000Y-108300000D02*
X92350000Y-105800000D01*
X92850000Y-108800000D02*
G75*
G03X92850000Y-108800000I-500000J0D01*
G01*
D11*
X104350000Y-106800000D02*
X104350000Y-107800000D01*
X101000000Y-106800000D02*
X101000000Y-107800000D01*
X100850000Y-106800000D02*
X100850000Y-107800000D01*
X97500000Y-106800000D02*
X97500000Y-107800000D01*
X103850000Y-103050000D02*
X103850000Y-104050000D01*
X100500000Y-103050000D02*
X100500000Y-104050000D01*
X100350000Y-103050000D02*
X100350000Y-104050000D01*
X97000000Y-103050000D02*
X97000000Y-104050000D01*
X68825000Y-102850000D02*
X68825000Y-101850000D01*
X72175000Y-102850000D02*
X72175000Y-101850000D01*
X72175000Y-97150000D02*
X72175000Y-98150000D01*
X68825000Y-97150000D02*
X68825000Y-98150000D01*
X112125000Y-92700000D02*
X112125000Y-93700000D01*
X108775000Y-92700000D02*
X108775000Y-93700000D01*
%LPC*%
D16*
X102725000Y-91925000D02*
X104325000Y-91925000D01*
X104325000Y-94125000D02*
X102725000Y-94125000D01*
D17*
X103325000Y-93025000D02*
G75*
G03X103325000Y-93025000I-600000J0D01*
G01*
X104925000Y-93025000D02*
G75*
G03X104925000Y-93025000I-600000J0D01*
G01*
D16*
X103725000Y-93925000D02*
X103325000Y-93925000D01*
X103725000Y-92125000D02*
X103325000Y-92125000D01*
X102725000Y-95075000D02*
X104325000Y-95075000D01*
X104325000Y-97275000D02*
X102725000Y-97275000D01*
D17*
X103325000Y-96175000D02*
G75*
G03X103325000Y-96175000I-600000J0D01*
G01*
X104925000Y-96175000D02*
G75*
G03X104925000Y-96175000I-600000J0D01*
G01*
D16*
X103725000Y-97075000D02*
X103325000Y-97075000D01*
X103725000Y-95275000D02*
X103325000Y-95275000D01*
X79750000Y-97225000D02*
X79550000Y-97225000D01*
X79550000Y-95025000D02*
X79750000Y-95025000D01*
D17*
X80350000Y-96125000D02*
G75*
G03X80350000Y-96125000I-600000J0D01*
G01*
X80150000Y-96125000D02*
G75*
G03X80150000Y-96125000I-600000J0D01*
G01*
D16*
X79350000Y-103300000D02*
X79350000Y-103500000D01*
X77150000Y-103500000D02*
X77150000Y-103300000D01*
D17*
X78850000Y-103300000D02*
G75*
G03X78850000Y-103300000I-600000J0D01*
G01*
X78850000Y-103500000D02*
G75*
G03X78850000Y-103500000I-600000J0D01*
G01*
D18*
X125275000Y-107050000D03*
X125275000Y-105550000D03*
X105175000Y-106650000D03*
X105175000Y-108150000D03*
X94000000Y-102625000D03*
X94000000Y-101125000D03*
X92500000Y-103500000D03*
X92500000Y-105000000D03*
D19*
X87825000Y-93500000D03*
X86325000Y-93500000D03*
X87200000Y-106575000D03*
X88700000Y-106575000D03*
X90475000Y-99825000D03*
X88975000Y-99825000D03*
D18*
X98125000Y-92825000D03*
X98125000Y-94325000D03*
D19*
X94650000Y-90900000D03*
X96150000Y-90900000D03*
D18*
X125275000Y-104150000D03*
X125275000Y-102650000D03*
D19*
X72300000Y-106250000D03*
X70800000Y-106250000D03*
D18*
X74500000Y-92400000D03*
X74500000Y-90900000D03*
D19*
X72300000Y-107750000D03*
X70800000Y-107750000D03*
X73050000Y-92350000D03*
X71550000Y-92350000D03*
D18*
X80400000Y-102300000D03*
X80400000Y-103800000D03*
X78900000Y-98425000D03*
X78900000Y-99925000D03*
X85700000Y-103800000D03*
X85700000Y-102300000D03*
X84200000Y-99400000D03*
X84200000Y-100900000D03*
D20*
X124925000Y-109850000D03*
X124925000Y-111350000D03*
D21*
X123150000Y-92750000D03*
X124650000Y-92750000D03*
D20*
X113010000Y-93920000D03*
X113010000Y-92420000D03*
X115450000Y-94900000D03*
X115450000Y-93400000D03*
D21*
X124675000Y-108550000D03*
X126175000Y-108550000D03*
X115550000Y-91550000D03*
X117050000Y-91550000D03*
X84500000Y-107400000D03*
X83000000Y-107400000D03*
X88075000Y-108125000D03*
X86575000Y-108125000D03*
X90625000Y-92450000D03*
X92125000Y-92450000D03*
X124300000Y-94350000D03*
X122800000Y-94350000D03*
X124300000Y-95950000D03*
X122800000Y-95950000D03*
D20*
X122450000Y-97300000D03*
X122450000Y-98800000D03*
X124050000Y-97300000D03*
X124050000Y-98800000D03*
X124050000Y-101400000D03*
X124050000Y-99900000D03*
X122450000Y-101400000D03*
X122450000Y-99900000D03*
X123325000Y-109000000D03*
X123325000Y-110500000D03*
X121725000Y-109000000D03*
X121725000Y-110500000D03*
X78950000Y-94175000D03*
X78950000Y-92675000D03*
X83750000Y-93700000D03*
X83750000Y-92200000D03*
X80550000Y-93700000D03*
X80550000Y-92200000D03*
X82150000Y-93700000D03*
X82150000Y-92200000D03*
X74800000Y-110550000D03*
X74800000Y-109050000D03*
X76400000Y-109050000D03*
X76400000Y-110550000D03*
X76650000Y-96800000D03*
X76650000Y-98300000D03*
X76650000Y-99400000D03*
X76650000Y-100900000D03*
X81650000Y-105750000D03*
X81650000Y-107250000D03*
D21*
X75150000Y-101800000D03*
X73650000Y-101800000D03*
D22*
X88725000Y-104100000D03*
X89125000Y-104100000D03*
X89525000Y-104100000D03*
X89925000Y-104100000D03*
X90325000Y-104100000D03*
X90725000Y-104100000D03*
D23*
X91225000Y-103600000D03*
X91225000Y-103200000D03*
X91225000Y-102800000D03*
X91225000Y-102400000D03*
X91225000Y-102000000D03*
X91225000Y-101600000D03*
D22*
X90725000Y-101100000D03*
X90325000Y-101100000D03*
X89925000Y-101100000D03*
X89525000Y-101100000D03*
X89125000Y-101100000D03*
X88725000Y-101100000D03*
D23*
X88225000Y-101600000D03*
X88225000Y-102000000D03*
X88225000Y-102400000D03*
X88225000Y-102800000D03*
X88225000Y-103200000D03*
X88225000Y-103600000D03*
D24*
X90125000Y-102165000D03*
X89325000Y-102165000D03*
X90125000Y-103035000D03*
X89325000Y-103035000D03*
D25*
X123700000Y-102750000D03*
X123050000Y-102750000D03*
X122400000Y-102750000D03*
X121750000Y-102750000D03*
X121750000Y-107050000D03*
X122400000Y-107050000D03*
X123050000Y-107050000D03*
X123700000Y-107050000D03*
D26*
X79850000Y-107675000D03*
X79850000Y-107025000D03*
X79850000Y-106375000D03*
X79850000Y-105725000D03*
X73950000Y-105725000D03*
X73950000Y-106375000D03*
X73950000Y-107025000D03*
X73950000Y-107675000D03*
D27*
X73075000Y-100000000D03*
X73725000Y-100000000D03*
X74375000Y-100000000D03*
X75025000Y-100000000D03*
X75025000Y-94100000D03*
X74375000Y-94100000D03*
X73725000Y-94100000D03*
X73075000Y-94100000D03*
D28*
X81950000Y-102450000D03*
X81950000Y-103400000D03*
X81950000Y-104350000D03*
X84150000Y-104350000D03*
X84150000Y-102450000D03*
X80450000Y-98850000D03*
X80450000Y-99800000D03*
X80450000Y-100750000D03*
X82650000Y-100750000D03*
X82650000Y-98850000D03*
D29*
X104925000Y-104475000D03*
X104925000Y-102475000D03*
D30*
X76050000Y-103750000D03*
X73050000Y-103750000D03*
D31*
X77000000Y-95450000D03*
X77000000Y-92450000D03*
D32*
X61600000Y-92150000D03*
X61600000Y-93150000D03*
X61600000Y-94150000D03*
X61600000Y-95150000D03*
X61600000Y-96150000D03*
X61600000Y-103850000D03*
X61600000Y-104850000D03*
X61600000Y-105850000D03*
X61600000Y-106850000D03*
X61600000Y-107850000D03*
D33*
X115365000Y-107600000D03*
X114265000Y-107200000D03*
X113165000Y-107600000D03*
X112065000Y-107900000D03*
X110965000Y-107600000D03*
X109865000Y-107900000D03*
X108765000Y-107600000D03*
X107665000Y-107600000D03*
D34*
X120025000Y-111450000D03*
X106875000Y-110450000D03*
D35*
X114175000Y-97300000D03*
X108475000Y-97300000D03*
D36*
X96775000Y-94425000D03*
X96775000Y-93775000D03*
X96775000Y-93125000D03*
X96775000Y-92475000D03*
X93675000Y-92475000D03*
X93675000Y-93125000D03*
X93675000Y-93775000D03*
X93675000Y-94425000D03*
D37*
X94837500Y-92850000D03*
X94837500Y-94050000D03*
X95612500Y-92850000D03*
X95612500Y-94050000D03*
D32*
X61600000Y-92150000D03*
X61600000Y-93150000D03*
D38*
X121250000Y-94950000D03*
X117250000Y-94950000D03*
X121250000Y-93350000D03*
X117250000Y-93350000D03*
X127025000Y-104700000D03*
X131025000Y-104700000D03*
X127025000Y-106300000D03*
X131025000Y-106300000D03*
D39*
X88325000Y-95125000D03*
X87075000Y-95125000D03*
X85825000Y-95125000D03*
X84575000Y-95125000D03*
X84575000Y-97375000D03*
X85825000Y-97375000D03*
X87075000Y-97375000D03*
X88325000Y-97375000D03*
D40*
X53105000Y-110160000D03*
D41*
X50565000Y-110160000D02*
X50565000Y-110160000D01*
X48025000Y-110160000D02*
X48025000Y-110160000D01*
D42*
X53105000Y-107620000D03*
D41*
X50565000Y-107620000D02*
X50565000Y-107620000D01*
X48025000Y-107620000D02*
X48025000Y-107620000D01*
D42*
X53105000Y-105080000D03*
D41*
X50565000Y-105080000D02*
X50565000Y-105080000D01*
X48025000Y-105080000D02*
X48025000Y-105080000D01*
D42*
X53105000Y-102540000D03*
D41*
X50565000Y-102540000D02*
X50565000Y-102540000D01*
X48025000Y-102540000D02*
X48025000Y-102540000D01*
D42*
X53105000Y-100000000D03*
D41*
X50565000Y-100000000D02*
X50565000Y-100000000D01*
X48025000Y-100000000D02*
X48025000Y-100000000D01*
D42*
X53105000Y-97460000D03*
D41*
X50565000Y-97460000D02*
X50565000Y-97460000D01*
X48025000Y-97460000D02*
X48025000Y-97460000D01*
D42*
X53105000Y-94920000D03*
D41*
X50565000Y-94920000D02*
X50565000Y-94920000D01*
X48025000Y-94920000D02*
X48025000Y-94920000D01*
D42*
X53105000Y-92380000D03*
D41*
X50565000Y-92380000D02*
X50565000Y-92380000D01*
X48025000Y-92380000D02*
X48025000Y-92380000D01*
X48025000Y-89840000D02*
X48025000Y-89840000D01*
D42*
X53105000Y-89840000D03*
D41*
X50565000Y-89840000D02*
X50565000Y-89840000D01*
D43*
X71000000Y-111500000D03*
X129000000Y-111500000D03*
X129000000Y-88500000D03*
X71000000Y-88500000D03*
D44*
X101270000Y-110230000D03*
X103810000Y-110230000D03*
X98730000Y-110230000D03*
X88570000Y-110230000D03*
X86030000Y-110230000D03*
X83490000Y-110230000D03*
X80950000Y-110230000D03*
X78410000Y-110230000D03*
X78410000Y-112770000D03*
X80950000Y-112770000D03*
X83490000Y-112770000D03*
X86030000Y-112770000D03*
X88570000Y-112770000D03*
X98730000Y-112770000D03*
X101270000Y-112770000D03*
X103810000Y-112770000D03*
X96190000Y-112770000D03*
X96190000Y-110230000D03*
D45*
X101875000Y-90275000D03*
X100625000Y-90275000D03*
X99375000Y-90275000D03*
X98125000Y-90275000D03*
D46*
X96400000Y-86925000D03*
X103600000Y-86925000D03*
D45*
X122775000Y-90275000D03*
X121525000Y-90275000D03*
X120275000Y-90275000D03*
X119025000Y-90275000D03*
D46*
X117300000Y-86925000D03*
X124500000Y-86925000D03*
D45*
X92675000Y-90275000D03*
X91425000Y-90275000D03*
X90175000Y-90275000D03*
X88925000Y-90275000D03*
D46*
X87200000Y-86925000D03*
X94400000Y-86925000D03*
D47*
X59725000Y-91025000D03*
X59725000Y-92275000D03*
X59725000Y-93525000D03*
X59725000Y-94775000D03*
X59725000Y-96025000D03*
X59725000Y-97275000D03*
D48*
X56375000Y-99000000D03*
X56375000Y-89300000D03*
D47*
X59725000Y-102725000D03*
X59725000Y-103975000D03*
X59725000Y-105225000D03*
X59725000Y-106475000D03*
X59725000Y-107725000D03*
X59725000Y-108975000D03*
D48*
X56375000Y-110700000D03*
X56375000Y-101000000D03*
D47*
X67375000Y-91025000D03*
X67375000Y-92275000D03*
X67375000Y-93525000D03*
X67375000Y-94775000D03*
X67375000Y-96025000D03*
X67375000Y-97275000D03*
D48*
X64025000Y-99000000D03*
X64025000Y-89300000D03*
D47*
X67375000Y-102725000D03*
X67375000Y-103975000D03*
X67375000Y-105225000D03*
X67375000Y-106475000D03*
X67375000Y-107725000D03*
X67375000Y-108975000D03*
D48*
X64025000Y-110700000D03*
X64025000Y-101000000D03*
D45*
X83475000Y-90275000D03*
X82225000Y-90275000D03*
X80975000Y-90275000D03*
X79725000Y-90275000D03*
X78475000Y-90275000D03*
X77225000Y-90275000D03*
D46*
X75500000Y-86925000D03*
X85200000Y-86925000D03*
D47*
X126225000Y-100975000D03*
X126225000Y-99725000D03*
X126225000Y-98475000D03*
X126225000Y-97225000D03*
X126225000Y-95975000D03*
X126225000Y-94725000D03*
D48*
X129575000Y-93000000D03*
X129575000Y-102700000D03*
D45*
X113575000Y-90275000D03*
X112325000Y-90275000D03*
X111075000Y-90275000D03*
X109825000Y-90275000D03*
X108575000Y-90275000D03*
X107325000Y-90275000D03*
D46*
X105600000Y-86925000D03*
X115300000Y-86925000D03*
D49*
X125250000Y-112500700D03*
X125250000Y-113999300D03*
D21*
X123950000Y-112700000D03*
X122450000Y-112700000D03*
D50*
X92380000Y-111500000D03*
X93650000Y-110230000D03*
X93650000Y-112770000D03*
X91110000Y-112770000D03*
X91110000Y-110230000D03*
D51*
X101475000Y-108200000D03*
D52*
X103075000Y-108200000D03*
X102275000Y-108200000D03*
D51*
X103875000Y-108200000D03*
D52*
X102275000Y-106400000D03*
D51*
X101475000Y-106400000D03*
D52*
X103075000Y-106400000D03*
D51*
X103875000Y-106400000D03*
X97975000Y-108200000D03*
D52*
X99575000Y-108200000D03*
X98775000Y-108200000D03*
D51*
X100375000Y-108200000D03*
D52*
X98775000Y-106400000D03*
D51*
X97975000Y-106400000D03*
D52*
X99575000Y-106400000D03*
D51*
X100375000Y-106400000D03*
X100975000Y-104450000D03*
D52*
X102575000Y-104450000D03*
X101775000Y-104450000D03*
D51*
X103375000Y-104450000D03*
D52*
X101775000Y-102650000D03*
D51*
X100975000Y-102650000D03*
D52*
X102575000Y-102650000D03*
D51*
X103375000Y-102650000D03*
X97475000Y-104450000D03*
D52*
X99075000Y-104450000D03*
X98275000Y-104450000D03*
D51*
X99875000Y-104450000D03*
D52*
X98275000Y-102650000D03*
D51*
X97475000Y-102650000D03*
D52*
X99075000Y-102650000D03*
D51*
X99875000Y-102650000D03*
X71700000Y-101450000D03*
D52*
X70100000Y-101450000D03*
X70900000Y-101450000D03*
D51*
X69300000Y-101450000D03*
D52*
X70900000Y-103250000D03*
D51*
X71700000Y-103250000D03*
D52*
X70100000Y-103250000D03*
D51*
X69300000Y-103250000D03*
X69300000Y-98550000D03*
D52*
X70900000Y-98550000D03*
X70100000Y-98550000D03*
D51*
X71700000Y-98550000D03*
D52*
X70100000Y-96750000D03*
D51*
X69300000Y-96750000D03*
D52*
X70900000Y-96750000D03*
D51*
X71700000Y-96750000D03*
X109250000Y-94100000D03*
D52*
X110850000Y-94100000D03*
X110050000Y-94100000D03*
D51*
X111650000Y-94100000D03*
D52*
X110050000Y-92300000D03*
D51*
X109250000Y-92300000D03*
D52*
X110850000Y-92300000D03*
D51*
X111650000Y-92300000D03*
M02*
