G04 #@! TF.FileFunction,Soldermask,Top*
%FSLAX46Y46*%
G04 Gerber Fmt 4.6, Leading zero omitted, Abs format (unit mm)*
G04 Created by KiCad (PCBNEW 4.0.5) date 01/10/17 14:27:18*
%MOMM*%
%LPD*%
G01*
G04 APERTURE LIST*
%ADD10C,0.100000*%
%ADD11C,0.200000*%
%ADD12C,1.200000*%
G04 APERTURE END LIST*
D10*
D11*
X102725000Y-91925000D02*
X104325000Y-91925000D01*
X104325000Y-94125000D02*
X102725000Y-94125000D01*
D12*
X103325000Y-93025000D02*
G75*
G03X103325000Y-93025000I-600000J0D01*
G01*
X104925000Y-93025000D02*
G75*
G03X104925000Y-93025000I-600000J0D01*
G01*
D11*
X103725000Y-93925000D02*
X103325000Y-93925000D01*
X103725000Y-92125000D02*
X103325000Y-92125000D01*
X102725000Y-95075000D02*
X104325000Y-95075000D01*
X104325000Y-97275000D02*
X102725000Y-97275000D01*
D12*
X103325000Y-96175000D02*
G75*
G03X103325000Y-96175000I-600000J0D01*
G01*
X104925000Y-96175000D02*
G75*
G03X104925000Y-96175000I-600000J0D01*
G01*
D11*
X103725000Y-97075000D02*
X103325000Y-97075000D01*
X103725000Y-95275000D02*
X103325000Y-95275000D01*
X79750000Y-97225000D02*
X79550000Y-97225000D01*
X79550000Y-95025000D02*
X79750000Y-95025000D01*
D12*
X80350000Y-96125000D02*
G75*
G03X80350000Y-96125000I-600000J0D01*
G01*
X80150000Y-96125000D02*
G75*
G03X80150000Y-96125000I-600000J0D01*
G01*
D11*
X79350000Y-103300000D02*
X79350000Y-103500000D01*
X77150000Y-103500000D02*
X77150000Y-103300000D01*
D12*
X78850000Y-103300000D02*
G75*
G03X78850000Y-103300000I-600000J0D01*
G01*
X78850000Y-103500000D02*
G75*
G03X78850000Y-103500000I-600000J0D01*
G01*
D10*
G36*
X125748780Y-114498080D02*
X124751220Y-114498080D01*
X124751220Y-113500520D01*
X125748780Y-113500520D01*
X125748780Y-114498080D01*
X125748780Y-114498080D01*
G37*
G36*
X71283592Y-108801797D02*
X71802277Y-108908268D01*
X72290398Y-109113455D01*
X72729373Y-109409546D01*
X73102477Y-109785265D01*
X73395496Y-110226293D01*
X73597271Y-110715836D01*
X73700050Y-111234908D01*
X73700050Y-111234917D01*
X73700116Y-111235251D01*
X73691671Y-111840037D01*
X73691595Y-111840371D01*
X73691595Y-111840383D01*
X73574365Y-112356375D01*
X73358998Y-112840097D01*
X73053779Y-113272772D01*
X72670327Y-113637928D01*
X72223262Y-113921644D01*
X71729597Y-114113125D01*
X71208146Y-114205070D01*
X70678765Y-114193982D01*
X70161612Y-114080278D01*
X69676404Y-113868296D01*
X69241608Y-113566104D01*
X68873786Y-113185213D01*
X68586955Y-112740139D01*
X68392034Y-112247824D01*
X68296448Y-111727020D01*
X68303842Y-111197576D01*
X68413930Y-110679652D01*
X68622522Y-110192970D01*
X68921671Y-109756075D01*
X69299984Y-109385603D01*
X69743047Y-109095670D01*
X70233989Y-108897317D01*
X70754104Y-108798100D01*
X71283592Y-108801797D01*
X71283592Y-108801797D01*
G37*
G36*
X129283592Y-108801797D02*
X129802277Y-108908268D01*
X130290398Y-109113455D01*
X130729373Y-109409546D01*
X131102477Y-109785265D01*
X131395496Y-110226293D01*
X131597271Y-110715836D01*
X131700050Y-111234908D01*
X131700050Y-111234917D01*
X131700116Y-111235251D01*
X131691671Y-111840037D01*
X131691595Y-111840371D01*
X131691595Y-111840383D01*
X131574365Y-112356375D01*
X131358998Y-112840097D01*
X131053779Y-113272772D01*
X130670327Y-113637928D01*
X130223262Y-113921644D01*
X129729597Y-114113125D01*
X129208146Y-114205070D01*
X128678765Y-114193982D01*
X128161612Y-114080278D01*
X127676404Y-113868296D01*
X127241608Y-113566104D01*
X126873786Y-113185213D01*
X126586955Y-112740139D01*
X126392034Y-112247824D01*
X126296448Y-111727020D01*
X126303842Y-111197576D01*
X126413930Y-110679652D01*
X126622522Y-110192970D01*
X126921671Y-109756075D01*
X127299984Y-109385603D01*
X127743047Y-109095670D01*
X128233989Y-108897317D01*
X128754104Y-108798100D01*
X129283592Y-108801797D01*
X129283592Y-108801797D01*
G37*
G36*
X81055034Y-111770664D02*
X81247141Y-111810098D01*
X81427925Y-111886093D01*
X81590509Y-111995756D01*
X81728697Y-112134913D01*
X81837223Y-112298256D01*
X81911954Y-112479567D01*
X81949978Y-112671601D01*
X81949978Y-112671616D01*
X81950043Y-112671945D01*
X81946916Y-112895940D01*
X81946839Y-112896278D01*
X81946839Y-112896286D01*
X81903471Y-113087175D01*
X81823705Y-113266333D01*
X81710661Y-113426583D01*
X81568639Y-113561828D01*
X81403061Y-113666906D01*
X81220221Y-113737827D01*
X81027093Y-113771879D01*
X80831025Y-113767773D01*
X80639485Y-113725660D01*
X80459779Y-113647147D01*
X80298742Y-113535225D01*
X80162511Y-113394153D01*
X80056279Y-113229313D01*
X79984085Y-113046974D01*
X79948682Y-112854080D01*
X79951421Y-112657990D01*
X79992194Y-112466168D01*
X80069451Y-112285914D01*
X80180247Y-112124101D01*
X80320364Y-111986887D01*
X80484461Y-111879505D01*
X80666292Y-111806041D01*
X80858925Y-111769294D01*
X81055034Y-111770664D01*
X81055034Y-111770664D01*
G37*
G36*
X98835034Y-111770664D02*
X99027141Y-111810098D01*
X99207925Y-111886093D01*
X99370509Y-111995756D01*
X99508697Y-112134913D01*
X99617223Y-112298256D01*
X99691954Y-112479567D01*
X99729978Y-112671601D01*
X99729978Y-112671616D01*
X99730043Y-112671945D01*
X99726916Y-112895940D01*
X99726839Y-112896278D01*
X99726839Y-112896286D01*
X99683471Y-113087175D01*
X99603705Y-113266333D01*
X99490661Y-113426583D01*
X99348639Y-113561828D01*
X99183061Y-113666906D01*
X99000221Y-113737827D01*
X98807093Y-113771879D01*
X98611025Y-113767773D01*
X98419485Y-113725660D01*
X98239779Y-113647147D01*
X98078742Y-113535225D01*
X97942511Y-113394153D01*
X97836279Y-113229313D01*
X97764085Y-113046974D01*
X97728682Y-112854080D01*
X97731421Y-112657990D01*
X97772194Y-112466168D01*
X97849451Y-112285914D01*
X97960247Y-112124101D01*
X98100364Y-111986887D01*
X98264461Y-111879505D01*
X98446292Y-111806041D01*
X98638925Y-111769294D01*
X98835034Y-111770664D01*
X98835034Y-111770664D01*
G37*
G36*
X78515034Y-111770664D02*
X78707141Y-111810098D01*
X78887925Y-111886093D01*
X79050509Y-111995756D01*
X79188697Y-112134913D01*
X79297223Y-112298256D01*
X79371954Y-112479567D01*
X79409978Y-112671601D01*
X79409978Y-112671616D01*
X79410043Y-112671945D01*
X79406916Y-112895940D01*
X79406839Y-112896278D01*
X79406839Y-112896286D01*
X79363471Y-113087175D01*
X79283705Y-113266333D01*
X79170661Y-113426583D01*
X79028639Y-113561828D01*
X78863061Y-113666906D01*
X78680221Y-113737827D01*
X78487093Y-113771879D01*
X78291025Y-113767773D01*
X78099485Y-113725660D01*
X77919779Y-113647147D01*
X77758742Y-113535225D01*
X77622511Y-113394153D01*
X77516279Y-113229313D01*
X77444085Y-113046974D01*
X77408682Y-112854080D01*
X77411421Y-112657990D01*
X77452194Y-112466168D01*
X77529451Y-112285914D01*
X77640247Y-112124101D01*
X77780364Y-111986887D01*
X77944461Y-111879505D01*
X78126292Y-111806041D01*
X78318925Y-111769294D01*
X78515034Y-111770664D01*
X78515034Y-111770664D01*
G37*
G36*
X83595034Y-111770664D02*
X83787141Y-111810098D01*
X83967925Y-111886093D01*
X84130509Y-111995756D01*
X84268697Y-112134913D01*
X84377223Y-112298256D01*
X84451954Y-112479567D01*
X84489978Y-112671601D01*
X84489978Y-112671616D01*
X84490043Y-112671945D01*
X84486916Y-112895940D01*
X84486839Y-112896278D01*
X84486839Y-112896286D01*
X84443471Y-113087175D01*
X84363705Y-113266333D01*
X84250661Y-113426583D01*
X84108639Y-113561828D01*
X83943061Y-113666906D01*
X83760221Y-113737827D01*
X83567093Y-113771879D01*
X83371025Y-113767773D01*
X83179485Y-113725660D01*
X82999779Y-113647147D01*
X82838742Y-113535225D01*
X82702511Y-113394153D01*
X82596279Y-113229313D01*
X82524085Y-113046974D01*
X82488682Y-112854080D01*
X82491421Y-112657990D01*
X82532194Y-112466168D01*
X82609451Y-112285914D01*
X82720247Y-112124101D01*
X82860364Y-111986887D01*
X83024461Y-111879505D01*
X83206292Y-111806041D01*
X83398925Y-111769294D01*
X83595034Y-111770664D01*
X83595034Y-111770664D01*
G37*
G36*
X86135034Y-111770664D02*
X86327141Y-111810098D01*
X86507925Y-111886093D01*
X86670509Y-111995756D01*
X86808697Y-112134913D01*
X86917223Y-112298256D01*
X86991954Y-112479567D01*
X87029978Y-112671601D01*
X87029978Y-112671616D01*
X87030043Y-112671945D01*
X87026916Y-112895940D01*
X87026839Y-112896278D01*
X87026839Y-112896286D01*
X86983471Y-113087175D01*
X86903705Y-113266333D01*
X86790661Y-113426583D01*
X86648639Y-113561828D01*
X86483061Y-113666906D01*
X86300221Y-113737827D01*
X86107093Y-113771879D01*
X85911025Y-113767773D01*
X85719485Y-113725660D01*
X85539779Y-113647147D01*
X85378742Y-113535225D01*
X85242511Y-113394153D01*
X85136279Y-113229313D01*
X85064085Y-113046974D01*
X85028682Y-112854080D01*
X85031421Y-112657990D01*
X85072194Y-112466168D01*
X85149451Y-112285914D01*
X85260247Y-112124101D01*
X85400364Y-111986887D01*
X85564461Y-111879505D01*
X85746292Y-111806041D01*
X85938925Y-111769294D01*
X86135034Y-111770664D01*
X86135034Y-111770664D01*
G37*
G36*
X96295034Y-111770664D02*
X96487141Y-111810098D01*
X96667925Y-111886093D01*
X96830509Y-111995756D01*
X96968697Y-112134913D01*
X97077223Y-112298256D01*
X97151954Y-112479567D01*
X97189978Y-112671601D01*
X97189978Y-112671616D01*
X97190043Y-112671945D01*
X97186916Y-112895940D01*
X97186839Y-112896278D01*
X97186839Y-112896286D01*
X97143471Y-113087175D01*
X97063705Y-113266333D01*
X96950661Y-113426583D01*
X96808639Y-113561828D01*
X96643061Y-113666906D01*
X96460221Y-113737827D01*
X96267093Y-113771879D01*
X96071025Y-113767773D01*
X95879485Y-113725660D01*
X95699779Y-113647147D01*
X95538742Y-113535225D01*
X95402511Y-113394153D01*
X95296279Y-113229313D01*
X95224085Y-113046974D01*
X95188682Y-112854080D01*
X95191421Y-112657990D01*
X95232194Y-112466168D01*
X95309451Y-112285914D01*
X95420247Y-112124101D01*
X95560364Y-111986887D01*
X95724461Y-111879505D01*
X95906292Y-111806041D01*
X96098925Y-111769294D01*
X96295034Y-111770664D01*
X96295034Y-111770664D01*
G37*
G36*
X88675034Y-111770664D02*
X88867141Y-111810098D01*
X89047925Y-111886093D01*
X89210509Y-111995756D01*
X89348697Y-112134913D01*
X89457223Y-112298256D01*
X89531954Y-112479567D01*
X89569978Y-112671601D01*
X89569978Y-112671616D01*
X89570043Y-112671945D01*
X89566916Y-112895940D01*
X89566839Y-112896278D01*
X89566839Y-112896286D01*
X89523471Y-113087175D01*
X89443705Y-113266333D01*
X89330661Y-113426583D01*
X89188639Y-113561828D01*
X89023061Y-113666906D01*
X88840221Y-113737827D01*
X88647093Y-113771879D01*
X88451025Y-113767773D01*
X88259485Y-113725660D01*
X88079779Y-113647147D01*
X87918742Y-113535225D01*
X87782511Y-113394153D01*
X87676279Y-113229313D01*
X87604085Y-113046974D01*
X87568682Y-112854080D01*
X87571421Y-112657990D01*
X87612194Y-112466168D01*
X87689451Y-112285914D01*
X87800247Y-112124101D01*
X87940364Y-111986887D01*
X88104461Y-111879505D01*
X88286292Y-111806041D01*
X88478925Y-111769294D01*
X88675034Y-111770664D01*
X88675034Y-111770664D01*
G37*
G36*
X103915034Y-111770664D02*
X104107141Y-111810098D01*
X104287925Y-111886093D01*
X104450509Y-111995756D01*
X104588697Y-112134913D01*
X104697223Y-112298256D01*
X104771954Y-112479567D01*
X104809978Y-112671601D01*
X104809978Y-112671616D01*
X104810043Y-112671945D01*
X104806916Y-112895940D01*
X104806839Y-112896278D01*
X104806839Y-112896286D01*
X104763471Y-113087175D01*
X104683705Y-113266333D01*
X104570661Y-113426583D01*
X104428639Y-113561828D01*
X104263061Y-113666906D01*
X104080221Y-113737827D01*
X103887093Y-113771879D01*
X103691025Y-113767773D01*
X103499485Y-113725660D01*
X103319779Y-113647147D01*
X103158742Y-113535225D01*
X103022511Y-113394153D01*
X102916279Y-113229313D01*
X102844085Y-113046974D01*
X102808682Y-112854080D01*
X102811421Y-112657990D01*
X102852194Y-112466168D01*
X102929451Y-112285914D01*
X103040247Y-112124101D01*
X103180364Y-111986887D01*
X103344461Y-111879505D01*
X103526292Y-111806041D01*
X103718925Y-111769294D01*
X103915034Y-111770664D01*
X103915034Y-111770664D01*
G37*
G36*
X101375034Y-111770664D02*
X101567141Y-111810098D01*
X101747925Y-111886093D01*
X101910509Y-111995756D01*
X102048697Y-112134913D01*
X102157223Y-112298256D01*
X102231954Y-112479567D01*
X102269978Y-112671601D01*
X102269978Y-112671616D01*
X102270043Y-112671945D01*
X102266916Y-112895940D01*
X102266839Y-112896278D01*
X102266839Y-112896286D01*
X102223471Y-113087175D01*
X102143705Y-113266333D01*
X102030661Y-113426583D01*
X101888639Y-113561828D01*
X101723061Y-113666906D01*
X101540221Y-113737827D01*
X101347093Y-113771879D01*
X101151025Y-113767773D01*
X100959485Y-113725660D01*
X100779779Y-113647147D01*
X100618742Y-113535225D01*
X100482511Y-113394153D01*
X100376279Y-113229313D01*
X100304085Y-113046974D01*
X100268682Y-112854080D01*
X100271421Y-112657990D01*
X100312194Y-112466168D01*
X100389451Y-112285914D01*
X100500247Y-112124101D01*
X100640364Y-111986887D01*
X100804461Y-111879505D01*
X100986292Y-111806041D01*
X101178925Y-111769294D01*
X101375034Y-111770664D01*
X101375034Y-111770664D01*
G37*
G36*
X93734027Y-111970531D02*
X93887713Y-112002078D01*
X94032340Y-112062874D01*
X94162407Y-112150605D01*
X94272958Y-112261931D01*
X94359779Y-112392605D01*
X94419563Y-112537653D01*
X94449969Y-112691212D01*
X94449969Y-112691227D01*
X94450034Y-112691556D01*
X94447532Y-112870752D01*
X94447456Y-112871086D01*
X94447456Y-112871097D01*
X94412776Y-113023741D01*
X94348964Y-113167066D01*
X94258529Y-113295266D01*
X94144910Y-113403463D01*
X94012449Y-113487526D01*
X93866177Y-113544262D01*
X93711675Y-113571504D01*
X93554821Y-113568219D01*
X93401588Y-113534528D01*
X93257825Y-113471720D01*
X93128991Y-113382178D01*
X93020008Y-113269322D01*
X92935023Y-113137451D01*
X92877268Y-112991579D01*
X92848946Y-112837263D01*
X92851137Y-112680391D01*
X92883754Y-112526936D01*
X92945561Y-112382731D01*
X93034197Y-112253281D01*
X93146292Y-112143509D01*
X93277567Y-112057605D01*
X93423035Y-111998832D01*
X93577140Y-111969435D01*
X93734027Y-111970531D01*
X93734027Y-111970531D01*
G37*
G36*
X91194027Y-111970531D02*
X91347713Y-112002078D01*
X91492340Y-112062874D01*
X91622407Y-112150605D01*
X91732958Y-112261931D01*
X91819779Y-112392605D01*
X91879563Y-112537653D01*
X91909969Y-112691212D01*
X91909969Y-112691227D01*
X91910034Y-112691556D01*
X91907532Y-112870752D01*
X91907456Y-112871086D01*
X91907456Y-112871097D01*
X91872776Y-113023741D01*
X91808964Y-113167066D01*
X91718529Y-113295266D01*
X91604910Y-113403463D01*
X91472449Y-113487526D01*
X91326177Y-113544262D01*
X91171675Y-113571504D01*
X91014821Y-113568219D01*
X90861588Y-113534528D01*
X90717825Y-113471720D01*
X90588991Y-113382178D01*
X90480008Y-113269322D01*
X90395023Y-113137451D01*
X90337268Y-112991579D01*
X90308946Y-112837263D01*
X90311137Y-112680391D01*
X90343754Y-112526936D01*
X90405561Y-112382731D01*
X90494197Y-112253281D01*
X90606292Y-112143509D01*
X90737567Y-112057605D01*
X90883035Y-111998832D01*
X91037140Y-111969435D01*
X91194027Y-111970531D01*
X91194027Y-111970531D01*
G37*
G36*
X124300000Y-113250000D02*
X123600000Y-113250000D01*
X123600000Y-112150000D01*
X124300000Y-112150000D01*
X124300000Y-113250000D01*
X124300000Y-113250000D01*
G37*
G36*
X122800000Y-113250000D02*
X122100000Y-113250000D01*
X122100000Y-112150000D01*
X122800000Y-112150000D01*
X122800000Y-113250000D01*
X122800000Y-113250000D01*
G37*
G36*
X125748780Y-112999480D02*
X124751220Y-112999480D01*
X124751220Y-112001920D01*
X125748780Y-112001920D01*
X125748780Y-112999480D01*
X125748780Y-112999480D01*
G37*
G36*
X120825000Y-112500000D02*
X119225000Y-112500000D01*
X119225000Y-110400000D01*
X120825000Y-110400000D01*
X120825000Y-112500000D01*
X120825000Y-112500000D01*
G37*
G36*
X92464027Y-110700531D02*
X92617713Y-110732078D01*
X92762340Y-110792874D01*
X92892407Y-110880605D01*
X93002958Y-110991931D01*
X93089779Y-111122605D01*
X93149563Y-111267653D01*
X93179969Y-111421212D01*
X93179969Y-111421227D01*
X93180034Y-111421556D01*
X93177532Y-111600752D01*
X93177456Y-111601086D01*
X93177456Y-111601097D01*
X93142776Y-111753741D01*
X93078964Y-111897066D01*
X92988529Y-112025266D01*
X92874910Y-112133463D01*
X92742449Y-112217526D01*
X92596177Y-112274262D01*
X92441675Y-112301504D01*
X92284821Y-112298219D01*
X92131588Y-112264528D01*
X91987825Y-112201720D01*
X91858991Y-112112178D01*
X91750008Y-111999322D01*
X91665023Y-111867451D01*
X91607268Y-111721579D01*
X91578946Y-111567263D01*
X91581137Y-111410391D01*
X91613754Y-111256936D01*
X91675561Y-111112731D01*
X91764197Y-110983281D01*
X91876292Y-110873509D01*
X92007567Y-110787605D01*
X92153035Y-110728832D01*
X92307140Y-110699435D01*
X92464027Y-110700531D01*
X92464027Y-110700531D01*
G37*
G36*
X125475000Y-111700000D02*
X124375000Y-111700000D01*
X124375000Y-111000000D01*
X125475000Y-111000000D01*
X125475000Y-111700000D01*
X125475000Y-111700000D01*
G37*
G36*
X107675000Y-111500000D02*
X106075000Y-111500000D01*
X106075000Y-109400000D01*
X107675000Y-109400000D01*
X107675000Y-111500000D01*
X107675000Y-111500000D01*
G37*
G36*
X57875000Y-111300000D02*
X54875000Y-111300000D01*
X54875000Y-110100000D01*
X57875000Y-110100000D01*
X57875000Y-111300000D01*
X57875000Y-111300000D01*
G37*
G36*
X65525000Y-111300000D02*
X62525000Y-111300000D01*
X62525000Y-110100000D01*
X65525000Y-110100000D01*
X65525000Y-111300000D01*
X65525000Y-111300000D01*
G37*
G36*
X103915034Y-109230664D02*
X104107141Y-109270098D01*
X104287925Y-109346093D01*
X104450509Y-109455756D01*
X104588697Y-109594913D01*
X104697223Y-109758256D01*
X104771954Y-109939567D01*
X104809978Y-110131601D01*
X104809978Y-110131616D01*
X104810043Y-110131945D01*
X104806916Y-110355940D01*
X104806839Y-110356278D01*
X104806839Y-110356286D01*
X104763471Y-110547175D01*
X104683705Y-110726333D01*
X104570661Y-110886583D01*
X104428639Y-111021828D01*
X104263061Y-111126906D01*
X104080221Y-111197827D01*
X103887093Y-111231879D01*
X103691025Y-111227773D01*
X103499485Y-111185660D01*
X103319779Y-111107147D01*
X103158742Y-110995225D01*
X103022511Y-110854153D01*
X102916279Y-110689313D01*
X102844085Y-110506974D01*
X102808682Y-110314080D01*
X102811421Y-110117990D01*
X102852194Y-109926168D01*
X102929451Y-109745914D01*
X103040247Y-109584101D01*
X103180364Y-109446887D01*
X103344461Y-109339505D01*
X103526292Y-109266041D01*
X103718925Y-109229294D01*
X103915034Y-109230664D01*
X103915034Y-109230664D01*
G37*
G36*
X101375034Y-109230664D02*
X101567141Y-109270098D01*
X101747925Y-109346093D01*
X101910509Y-109455756D01*
X102048697Y-109594913D01*
X102157223Y-109758256D01*
X102231954Y-109939567D01*
X102269978Y-110131601D01*
X102269978Y-110131616D01*
X102270043Y-110131945D01*
X102266916Y-110355940D01*
X102266839Y-110356278D01*
X102266839Y-110356286D01*
X102223471Y-110547175D01*
X102143705Y-110726333D01*
X102030661Y-110886583D01*
X101888639Y-111021828D01*
X101723061Y-111126906D01*
X101540221Y-111197827D01*
X101347093Y-111231879D01*
X101151025Y-111227773D01*
X100959485Y-111185660D01*
X100779779Y-111107147D01*
X100618742Y-110995225D01*
X100482511Y-110854153D01*
X100376279Y-110689313D01*
X100304085Y-110506974D01*
X100268682Y-110314080D01*
X100271421Y-110117990D01*
X100312194Y-109926168D01*
X100389451Y-109745914D01*
X100500247Y-109584101D01*
X100640364Y-109446887D01*
X100804461Y-109339505D01*
X100986292Y-109266041D01*
X101178925Y-109229294D01*
X101375034Y-109230664D01*
X101375034Y-109230664D01*
G37*
G36*
X88675034Y-109230664D02*
X88867141Y-109270098D01*
X89047925Y-109346093D01*
X89210509Y-109455756D01*
X89348697Y-109594913D01*
X89457223Y-109758256D01*
X89531954Y-109939567D01*
X89569978Y-110131601D01*
X89569978Y-110131616D01*
X89570043Y-110131945D01*
X89566916Y-110355940D01*
X89566839Y-110356278D01*
X89566839Y-110356286D01*
X89523471Y-110547175D01*
X89443705Y-110726333D01*
X89330661Y-110886583D01*
X89188639Y-111021828D01*
X89023061Y-111126906D01*
X88840221Y-111197827D01*
X88647093Y-111231879D01*
X88451025Y-111227773D01*
X88259485Y-111185660D01*
X88079779Y-111107147D01*
X87918742Y-110995225D01*
X87782511Y-110854153D01*
X87676279Y-110689313D01*
X87604085Y-110506974D01*
X87568682Y-110314080D01*
X87571421Y-110117990D01*
X87612194Y-109926168D01*
X87689451Y-109745914D01*
X87800247Y-109584101D01*
X87940364Y-109446887D01*
X88104461Y-109339505D01*
X88286292Y-109266041D01*
X88478925Y-109229294D01*
X88675034Y-109230664D01*
X88675034Y-109230664D01*
G37*
G36*
X96295034Y-109230664D02*
X96487141Y-109270098D01*
X96667925Y-109346093D01*
X96830509Y-109455756D01*
X96968697Y-109594913D01*
X97077223Y-109758256D01*
X97151954Y-109939567D01*
X97189978Y-110131601D01*
X97189978Y-110131616D01*
X97190043Y-110131945D01*
X97186916Y-110355940D01*
X97186839Y-110356278D01*
X97186839Y-110356286D01*
X97143471Y-110547175D01*
X97063705Y-110726333D01*
X96950661Y-110886583D01*
X96808639Y-111021828D01*
X96643061Y-111126906D01*
X96460221Y-111197827D01*
X96267093Y-111231879D01*
X96071025Y-111227773D01*
X95879485Y-111185660D01*
X95699779Y-111107147D01*
X95538742Y-110995225D01*
X95402511Y-110854153D01*
X95296279Y-110689313D01*
X95224085Y-110506974D01*
X95188682Y-110314080D01*
X95191421Y-110117990D01*
X95232194Y-109926168D01*
X95309451Y-109745914D01*
X95420247Y-109584101D01*
X95560364Y-109446887D01*
X95724461Y-109339505D01*
X95906292Y-109266041D01*
X96098925Y-109229294D01*
X96295034Y-109230664D01*
X96295034Y-109230664D01*
G37*
G36*
X86135034Y-109230664D02*
X86327141Y-109270098D01*
X86507925Y-109346093D01*
X86670509Y-109455756D01*
X86808697Y-109594913D01*
X86917223Y-109758256D01*
X86991954Y-109939567D01*
X87029978Y-110131601D01*
X87029978Y-110131616D01*
X87030043Y-110131945D01*
X87026916Y-110355940D01*
X87026839Y-110356278D01*
X87026839Y-110356286D01*
X86983471Y-110547175D01*
X86903705Y-110726333D01*
X86790661Y-110886583D01*
X86648639Y-111021828D01*
X86483061Y-111126906D01*
X86300221Y-111197827D01*
X86107093Y-111231879D01*
X85911025Y-111227773D01*
X85719485Y-111185660D01*
X85539779Y-111107147D01*
X85378742Y-110995225D01*
X85242511Y-110854153D01*
X85136279Y-110689313D01*
X85064085Y-110506974D01*
X85028682Y-110314080D01*
X85031421Y-110117990D01*
X85072194Y-109926168D01*
X85149451Y-109745914D01*
X85260247Y-109584101D01*
X85400364Y-109446887D01*
X85564461Y-109339505D01*
X85746292Y-109266041D01*
X85938925Y-109229294D01*
X86135034Y-109230664D01*
X86135034Y-109230664D01*
G37*
G36*
X83595034Y-109230664D02*
X83787141Y-109270098D01*
X83967925Y-109346093D01*
X84130509Y-109455756D01*
X84268697Y-109594913D01*
X84377223Y-109758256D01*
X84451954Y-109939567D01*
X84489978Y-110131601D01*
X84489978Y-110131616D01*
X84490043Y-110131945D01*
X84486916Y-110355940D01*
X84486839Y-110356278D01*
X84486839Y-110356286D01*
X84443471Y-110547175D01*
X84363705Y-110726333D01*
X84250661Y-110886583D01*
X84108639Y-111021828D01*
X83943061Y-111126906D01*
X83760221Y-111197827D01*
X83567093Y-111231879D01*
X83371025Y-111227773D01*
X83179485Y-111185660D01*
X82999779Y-111107147D01*
X82838742Y-110995225D01*
X82702511Y-110854153D01*
X82596279Y-110689313D01*
X82524085Y-110506974D01*
X82488682Y-110314080D01*
X82491421Y-110117990D01*
X82532194Y-109926168D01*
X82609451Y-109745914D01*
X82720247Y-109584101D01*
X82860364Y-109446887D01*
X83024461Y-109339505D01*
X83206292Y-109266041D01*
X83398925Y-109229294D01*
X83595034Y-109230664D01*
X83595034Y-109230664D01*
G37*
G36*
X78515034Y-109230664D02*
X78707141Y-109270098D01*
X78887925Y-109346093D01*
X79050509Y-109455756D01*
X79188697Y-109594913D01*
X79297223Y-109758256D01*
X79371954Y-109939567D01*
X79409978Y-110131601D01*
X79409978Y-110131616D01*
X79410043Y-110131945D01*
X79406916Y-110355940D01*
X79406839Y-110356278D01*
X79406839Y-110356286D01*
X79363471Y-110547175D01*
X79283705Y-110726333D01*
X79170661Y-110886583D01*
X79028639Y-111021828D01*
X78863061Y-111126906D01*
X78680221Y-111197827D01*
X78487093Y-111231879D01*
X78291025Y-111227773D01*
X78099485Y-111185660D01*
X77919779Y-111107147D01*
X77758742Y-110995225D01*
X77622511Y-110854153D01*
X77516279Y-110689313D01*
X77444085Y-110506974D01*
X77408682Y-110314080D01*
X77411421Y-110117990D01*
X77452194Y-109926168D01*
X77529451Y-109745914D01*
X77640247Y-109584101D01*
X77780364Y-109446887D01*
X77944461Y-109339505D01*
X78126292Y-109266041D01*
X78318925Y-109229294D01*
X78515034Y-109230664D01*
X78515034Y-109230664D01*
G37*
G36*
X81055034Y-109230664D02*
X81247141Y-109270098D01*
X81427925Y-109346093D01*
X81590509Y-109455756D01*
X81728697Y-109594913D01*
X81837223Y-109758256D01*
X81911954Y-109939567D01*
X81949978Y-110131601D01*
X81949978Y-110131616D01*
X81950043Y-110131945D01*
X81946916Y-110355940D01*
X81946839Y-110356278D01*
X81946839Y-110356286D01*
X81903471Y-110547175D01*
X81823705Y-110726333D01*
X81710661Y-110886583D01*
X81568639Y-111021828D01*
X81403061Y-111126906D01*
X81220221Y-111197827D01*
X81027093Y-111231879D01*
X80831025Y-111227773D01*
X80639485Y-111185660D01*
X80459779Y-111107147D01*
X80298742Y-110995225D01*
X80162511Y-110854153D01*
X80056279Y-110689313D01*
X79984085Y-110506974D01*
X79948682Y-110314080D01*
X79951421Y-110117990D01*
X79992194Y-109926168D01*
X80069451Y-109745914D01*
X80180247Y-109584101D01*
X80320364Y-109446887D01*
X80484461Y-109339505D01*
X80666292Y-109266041D01*
X80858925Y-109229294D01*
X81055034Y-109230664D01*
X81055034Y-109230664D01*
G37*
G36*
X98835034Y-109230664D02*
X99027141Y-109270098D01*
X99207925Y-109346093D01*
X99370509Y-109455756D01*
X99508697Y-109594913D01*
X99617223Y-109758256D01*
X99691954Y-109939567D01*
X99729978Y-110131601D01*
X99729978Y-110131616D01*
X99730043Y-110131945D01*
X99726916Y-110355940D01*
X99726839Y-110356278D01*
X99726839Y-110356286D01*
X99683471Y-110547175D01*
X99603705Y-110726333D01*
X99490661Y-110886583D01*
X99348639Y-111021828D01*
X99183061Y-111126906D01*
X99000221Y-111197827D01*
X98807093Y-111231879D01*
X98611025Y-111227773D01*
X98419485Y-111185660D01*
X98239779Y-111107147D01*
X98078742Y-110995225D01*
X97942511Y-110854153D01*
X97836279Y-110689313D01*
X97764085Y-110506974D01*
X97728682Y-110314080D01*
X97731421Y-110117990D01*
X97772194Y-109926168D01*
X97849451Y-109745914D01*
X97960247Y-109584101D01*
X98100364Y-109446887D01*
X98264461Y-109339505D01*
X98446292Y-109266041D01*
X98638925Y-109229294D01*
X98835034Y-109230664D01*
X98835034Y-109230664D01*
G37*
G36*
X50765349Y-109213467D02*
X50944805Y-109269705D01*
X51109920Y-109359728D01*
X51109947Y-109359751D01*
X51109955Y-109359755D01*
X51254407Y-109480108D01*
X51372727Y-109626221D01*
X51372730Y-109626227D01*
X51372757Y-109626260D01*
X51460465Y-109792616D01*
X51514193Y-109972839D01*
X51531891Y-110160066D01*
X51512886Y-110347166D01*
X51457902Y-110527011D01*
X51369033Y-110692750D01*
X51249665Y-110838071D01*
X51243071Y-110844665D01*
X51233491Y-110854112D01*
X51086517Y-110971440D01*
X50919553Y-111057986D01*
X50738958Y-111110453D01*
X50551613Y-111126845D01*
X50364651Y-111106534D01*
X50185195Y-111050295D01*
X50020080Y-110960272D01*
X50020053Y-110960249D01*
X50020045Y-110960245D01*
X49875593Y-110839892D01*
X49757273Y-110693779D01*
X49757270Y-110693773D01*
X49757243Y-110693740D01*
X49669534Y-110527384D01*
X49615807Y-110347161D01*
X49598109Y-110159934D01*
X49617114Y-109972834D01*
X49672098Y-109792989D01*
X49760967Y-109627251D01*
X49880335Y-109481929D01*
X49886929Y-109475335D01*
X49896509Y-109465888D01*
X50043483Y-109348560D01*
X50210446Y-109262014D01*
X50391041Y-109209547D01*
X50578387Y-109193156D01*
X50765349Y-109213467D01*
X50765349Y-109213467D01*
G37*
G36*
X48225349Y-109213467D02*
X48404805Y-109269705D01*
X48569920Y-109359728D01*
X48569947Y-109359751D01*
X48569955Y-109359755D01*
X48714407Y-109480108D01*
X48832727Y-109626221D01*
X48832730Y-109626227D01*
X48832757Y-109626260D01*
X48920465Y-109792616D01*
X48974193Y-109972839D01*
X48991891Y-110160066D01*
X48972886Y-110347166D01*
X48917902Y-110527011D01*
X48829033Y-110692750D01*
X48709665Y-110838071D01*
X48703071Y-110844665D01*
X48693491Y-110854112D01*
X48546517Y-110971440D01*
X48379553Y-111057986D01*
X48198958Y-111110453D01*
X48011613Y-111126845D01*
X47824651Y-111106534D01*
X47645195Y-111050295D01*
X47480080Y-110960272D01*
X47480053Y-110960249D01*
X47480045Y-110960245D01*
X47335593Y-110839892D01*
X47217273Y-110693779D01*
X47217270Y-110693773D01*
X47217243Y-110693740D01*
X47129534Y-110527384D01*
X47075807Y-110347161D01*
X47058109Y-110159934D01*
X47077114Y-109972834D01*
X47132098Y-109792989D01*
X47220967Y-109627251D01*
X47340335Y-109481929D01*
X47346929Y-109475335D01*
X47356509Y-109465888D01*
X47503483Y-109348560D01*
X47670446Y-109262014D01*
X47851041Y-109209547D01*
X48038387Y-109193156D01*
X48225349Y-109213467D01*
X48225349Y-109213467D01*
G37*
G36*
X54068600Y-111123600D02*
X52141400Y-111123600D01*
X52141400Y-109196400D01*
X54068600Y-109196400D01*
X54068600Y-111123600D01*
X54068600Y-111123600D01*
G37*
G36*
X93734027Y-109430531D02*
X93887713Y-109462078D01*
X94032340Y-109522874D01*
X94162407Y-109610605D01*
X94272958Y-109721931D01*
X94359779Y-109852605D01*
X94419563Y-109997653D01*
X94449969Y-110151212D01*
X94449969Y-110151227D01*
X94450034Y-110151556D01*
X94447532Y-110330752D01*
X94447456Y-110331086D01*
X94447456Y-110331097D01*
X94412776Y-110483741D01*
X94348964Y-110627066D01*
X94258529Y-110755266D01*
X94144910Y-110863463D01*
X94012449Y-110947526D01*
X93866177Y-111004262D01*
X93711675Y-111031504D01*
X93554821Y-111028219D01*
X93401588Y-110994528D01*
X93257825Y-110931720D01*
X93128991Y-110842178D01*
X93020008Y-110729322D01*
X92935023Y-110597451D01*
X92877268Y-110451579D01*
X92848946Y-110297263D01*
X92851137Y-110140391D01*
X92883754Y-109986936D01*
X92945561Y-109842731D01*
X93034197Y-109713281D01*
X93146292Y-109603509D01*
X93277567Y-109517605D01*
X93423035Y-109458832D01*
X93577140Y-109429435D01*
X93734027Y-109430531D01*
X93734027Y-109430531D01*
G37*
G36*
X91194027Y-109430531D02*
X91347713Y-109462078D01*
X91492340Y-109522874D01*
X91622407Y-109610605D01*
X91732958Y-109721931D01*
X91819779Y-109852605D01*
X91879563Y-109997653D01*
X91909969Y-110151212D01*
X91909969Y-110151227D01*
X91910034Y-110151556D01*
X91907532Y-110330752D01*
X91907456Y-110331086D01*
X91907456Y-110331097D01*
X91872776Y-110483741D01*
X91808964Y-110627066D01*
X91718529Y-110755266D01*
X91604910Y-110863463D01*
X91472449Y-110947526D01*
X91326177Y-111004262D01*
X91171675Y-111031504D01*
X91014821Y-111028219D01*
X90861588Y-110994528D01*
X90717825Y-110931720D01*
X90588991Y-110842178D01*
X90480008Y-110729322D01*
X90395023Y-110597451D01*
X90337268Y-110451579D01*
X90308946Y-110297263D01*
X90311137Y-110140391D01*
X90343754Y-109986936D01*
X90405561Y-109842731D01*
X90494197Y-109713281D01*
X90606292Y-109603509D01*
X90737567Y-109517605D01*
X90883035Y-109458832D01*
X91037140Y-109429435D01*
X91194027Y-109430531D01*
X91194027Y-109430531D01*
G37*
G36*
X76950000Y-110900000D02*
X75850000Y-110900000D01*
X75850000Y-110200000D01*
X76950000Y-110200000D01*
X76950000Y-110900000D01*
X76950000Y-110900000D01*
G37*
G36*
X75350000Y-110900000D02*
X74250000Y-110900000D01*
X74250000Y-110200000D01*
X75350000Y-110200000D01*
X75350000Y-110900000D01*
X75350000Y-110900000D01*
G37*
G36*
X122275000Y-110850000D02*
X121175000Y-110850000D01*
X121175000Y-110150000D01*
X122275000Y-110150000D01*
X122275000Y-110850000D01*
X122275000Y-110850000D01*
G37*
G36*
X123875000Y-110850000D02*
X122775000Y-110850000D01*
X122775000Y-110150000D01*
X123875000Y-110150000D01*
X123875000Y-110850000D01*
X123875000Y-110850000D01*
G37*
G36*
X125475000Y-110200000D02*
X124375000Y-110200000D01*
X124375000Y-109500000D01*
X125475000Y-109500000D01*
X125475000Y-110200000D01*
X125475000Y-110200000D01*
G37*
G36*
X76950000Y-109400000D02*
X75850000Y-109400000D01*
X75850000Y-108700000D01*
X76950000Y-108700000D01*
X76950000Y-109400000D01*
X76950000Y-109400000D01*
G37*
G36*
X75350000Y-109400000D02*
X74250000Y-109400000D01*
X74250000Y-108700000D01*
X75350000Y-108700000D01*
X75350000Y-109400000D01*
X75350000Y-109400000D01*
G37*
G36*
X68375000Y-109375000D02*
X66375000Y-109375000D01*
X66375000Y-108575000D01*
X68375000Y-108575000D01*
X68375000Y-109375000D01*
X68375000Y-109375000D01*
G37*
G36*
X60725000Y-109375000D02*
X58725000Y-109375000D01*
X58725000Y-108575000D01*
X60725000Y-108575000D01*
X60725000Y-109375000D01*
X60725000Y-109375000D01*
G37*
G36*
X122275000Y-109350000D02*
X121175000Y-109350000D01*
X121175000Y-108650000D01*
X122275000Y-108650000D01*
X122275000Y-109350000D01*
X122275000Y-109350000D01*
G37*
G36*
X123875000Y-109350000D02*
X122775000Y-109350000D01*
X122775000Y-108650000D01*
X123875000Y-108650000D01*
X123875000Y-109350000D01*
X123875000Y-109350000D01*
G37*
G36*
X126525000Y-109100000D02*
X125825000Y-109100000D01*
X125825000Y-108000000D01*
X126525000Y-108000000D01*
X126525000Y-109100000D01*
X126525000Y-109100000D01*
G37*
G36*
X125025000Y-109100000D02*
X124325000Y-109100000D01*
X124325000Y-108000000D01*
X125025000Y-108000000D01*
X125025000Y-109100000D01*
X125025000Y-109100000D01*
G37*
G36*
X114765000Y-106700000D02*
X114766980Y-106713930D01*
X114772761Y-106726756D01*
X114781888Y-106737464D01*
X114793636Y-106745206D01*
X114807076Y-106749368D01*
X114815000Y-106750000D01*
X115865000Y-106750000D01*
X115865000Y-108450000D01*
X114865000Y-108450000D01*
X114865000Y-108100000D01*
X114863020Y-108086070D01*
X114857239Y-108073244D01*
X114848112Y-108062536D01*
X114836364Y-108054794D01*
X114822924Y-108050632D01*
X114815000Y-108050000D01*
X113715000Y-108050000D01*
X113701070Y-108051980D01*
X113688244Y-108057761D01*
X113677536Y-108066888D01*
X113669794Y-108078636D01*
X113665632Y-108092076D01*
X113665000Y-108100000D01*
X113665000Y-108450000D01*
X112615000Y-108450000D01*
X112601070Y-108451980D01*
X112588244Y-108457761D01*
X112577536Y-108466888D01*
X112569794Y-108478636D01*
X112565632Y-108492076D01*
X112565000Y-108500000D01*
X112565000Y-108750000D01*
X111565000Y-108750000D01*
X111565000Y-108500000D01*
X111563020Y-108486070D01*
X111557239Y-108473244D01*
X111548112Y-108462536D01*
X111536364Y-108454794D01*
X111522924Y-108450632D01*
X111515000Y-108450000D01*
X110415000Y-108450000D01*
X110401070Y-108451980D01*
X110388244Y-108457761D01*
X110377536Y-108466888D01*
X110369794Y-108478636D01*
X110365632Y-108492076D01*
X110365000Y-108500000D01*
X110365000Y-108750000D01*
X109365000Y-108750000D01*
X109365000Y-108500000D01*
X109363020Y-108486070D01*
X109357239Y-108473244D01*
X109348112Y-108462536D01*
X109336364Y-108454794D01*
X109322924Y-108450632D01*
X109315000Y-108450000D01*
X107165000Y-108450000D01*
X107165000Y-106750000D01*
X109265000Y-106750000D01*
X109265000Y-107000000D01*
X109266980Y-107013930D01*
X109272761Y-107026756D01*
X109281888Y-107037464D01*
X109293636Y-107045206D01*
X109307076Y-107049368D01*
X109315000Y-107050000D01*
X110415000Y-107050000D01*
X110428930Y-107048020D01*
X110441756Y-107042239D01*
X110452464Y-107033112D01*
X110460206Y-107021364D01*
X110464368Y-107007924D01*
X110465000Y-107000000D01*
X110465000Y-106750000D01*
X111465000Y-106750000D01*
X111465000Y-107000000D01*
X111466980Y-107013930D01*
X111472761Y-107026756D01*
X111481888Y-107037464D01*
X111493636Y-107045206D01*
X111507076Y-107049368D01*
X111515000Y-107050000D01*
X112615000Y-107050000D01*
X112628930Y-107048020D01*
X112641756Y-107042239D01*
X112652464Y-107033112D01*
X112660206Y-107021364D01*
X112664368Y-107007924D01*
X112665000Y-107000000D01*
X112665000Y-106750000D01*
X113715000Y-106750000D01*
X113728930Y-106748020D01*
X113741756Y-106742239D01*
X113752464Y-106733112D01*
X113760206Y-106721364D01*
X113764368Y-106707924D01*
X113765000Y-106700000D01*
X113765000Y-106350000D01*
X114765000Y-106350000D01*
X114765000Y-106700000D01*
X114765000Y-106700000D01*
G37*
G36*
X98325000Y-108700000D02*
X97625000Y-108700000D01*
X97625000Y-107700000D01*
X98325000Y-107700000D01*
X98325000Y-108700000D01*
X98325000Y-108700000D01*
G37*
G36*
X101825000Y-108700000D02*
X101125000Y-108700000D01*
X101125000Y-107700000D01*
X101825000Y-107700000D01*
X101825000Y-108700000D01*
X101825000Y-108700000D01*
G37*
G36*
X103375000Y-108700000D02*
X102775000Y-108700000D01*
X102775000Y-107700000D01*
X103375000Y-107700000D01*
X103375000Y-108700000D01*
X103375000Y-108700000D01*
G37*
G36*
X102575000Y-108700000D02*
X101975000Y-108700000D01*
X101975000Y-107700000D01*
X102575000Y-107700000D01*
X102575000Y-108700000D01*
X102575000Y-108700000D01*
G37*
G36*
X100725000Y-108700000D02*
X100025000Y-108700000D01*
X100025000Y-107700000D01*
X100725000Y-107700000D01*
X100725000Y-108700000D01*
X100725000Y-108700000D01*
G37*
G36*
X99875000Y-108700000D02*
X99275000Y-108700000D01*
X99275000Y-107700000D01*
X99875000Y-107700000D01*
X99875000Y-108700000D01*
X99875000Y-108700000D01*
G37*
G36*
X99075000Y-108700000D02*
X98475000Y-108700000D01*
X98475000Y-107700000D01*
X99075000Y-107700000D01*
X99075000Y-108700000D01*
X99075000Y-108700000D01*
G37*
G36*
X104225000Y-108700000D02*
X103525000Y-108700000D01*
X103525000Y-107700000D01*
X104225000Y-107700000D01*
X104225000Y-108700000D01*
X104225000Y-108700000D01*
G37*
G36*
X88425000Y-108675000D02*
X87725000Y-108675000D01*
X87725000Y-107575000D01*
X88425000Y-107575000D01*
X88425000Y-108675000D01*
X88425000Y-108675000D01*
G37*
G36*
X86925000Y-108675000D02*
X86225000Y-108675000D01*
X86225000Y-107575000D01*
X86925000Y-107575000D01*
X86925000Y-108675000D01*
X86925000Y-108675000D01*
G37*
G36*
X105650000Y-108650000D02*
X104700000Y-108650000D01*
X104700000Y-107650000D01*
X105650000Y-107650000D01*
X105650000Y-108650000D01*
X105650000Y-108650000D01*
G37*
G36*
X48225349Y-106673467D02*
X48404805Y-106729705D01*
X48569920Y-106819728D01*
X48569947Y-106819751D01*
X48569955Y-106819755D01*
X48714407Y-106940108D01*
X48832727Y-107086221D01*
X48832730Y-107086227D01*
X48832757Y-107086260D01*
X48920465Y-107252616D01*
X48974193Y-107432839D01*
X48991891Y-107620066D01*
X48972886Y-107807166D01*
X48917902Y-107987011D01*
X48829033Y-108152750D01*
X48709665Y-108298071D01*
X48703071Y-108304665D01*
X48693491Y-108314112D01*
X48546517Y-108431440D01*
X48379553Y-108517986D01*
X48198958Y-108570453D01*
X48011613Y-108586845D01*
X47824651Y-108566534D01*
X47645195Y-108510295D01*
X47480080Y-108420272D01*
X47480053Y-108420249D01*
X47480045Y-108420245D01*
X47335593Y-108299892D01*
X47217273Y-108153779D01*
X47217270Y-108153773D01*
X47217243Y-108153740D01*
X47129534Y-107987384D01*
X47075807Y-107807161D01*
X47058109Y-107619934D01*
X47077114Y-107432834D01*
X47132098Y-107252989D01*
X47220967Y-107087251D01*
X47340335Y-106941929D01*
X47346929Y-106935335D01*
X47356509Y-106925888D01*
X47503483Y-106808560D01*
X47670446Y-106722014D01*
X47851041Y-106669547D01*
X48038387Y-106653156D01*
X48225349Y-106673467D01*
X48225349Y-106673467D01*
G37*
G36*
X50765349Y-106673467D02*
X50944805Y-106729705D01*
X51109920Y-106819728D01*
X51109947Y-106819751D01*
X51109955Y-106819755D01*
X51254407Y-106940108D01*
X51372727Y-107086221D01*
X51372730Y-107086227D01*
X51372757Y-107086260D01*
X51460465Y-107252616D01*
X51514193Y-107432839D01*
X51531891Y-107620066D01*
X51512886Y-107807166D01*
X51457902Y-107987011D01*
X51369033Y-108152750D01*
X51249665Y-108298071D01*
X51243071Y-108304665D01*
X51233491Y-108314112D01*
X51086517Y-108431440D01*
X50919553Y-108517986D01*
X50738958Y-108570453D01*
X50551613Y-108586845D01*
X50364651Y-108566534D01*
X50185195Y-108510295D01*
X50020080Y-108420272D01*
X50020053Y-108420249D01*
X50020045Y-108420245D01*
X49875593Y-108299892D01*
X49757273Y-108153779D01*
X49757270Y-108153773D01*
X49757243Y-108153740D01*
X49669534Y-107987384D01*
X49615807Y-107807161D01*
X49598109Y-107619934D01*
X49617114Y-107432834D01*
X49672098Y-107252989D01*
X49760967Y-107087251D01*
X49880335Y-106941929D01*
X49886929Y-106935335D01*
X49896509Y-106925888D01*
X50043483Y-106808560D01*
X50210446Y-106722014D01*
X50391041Y-106669547D01*
X50578387Y-106653156D01*
X50765349Y-106673467D01*
X50765349Y-106673467D01*
G37*
G36*
X53116920Y-106656451D02*
X53123116Y-106656494D01*
X53310006Y-106677457D01*
X53489264Y-106734321D01*
X53654064Y-106824921D01*
X53798128Y-106945804D01*
X53915968Y-107092368D01*
X54003096Y-107259029D01*
X54056194Y-107439439D01*
X54056198Y-107439478D01*
X54056200Y-107439486D01*
X54073241Y-107626725D01*
X54053588Y-107813710D01*
X54053585Y-107813719D01*
X54053581Y-107813759D01*
X53997969Y-107993410D01*
X53908523Y-108158838D01*
X53788648Y-108303742D01*
X53642910Y-108422603D01*
X53476861Y-108510893D01*
X53296826Y-108565248D01*
X53109662Y-108583600D01*
X53100303Y-108583600D01*
X53093080Y-108583549D01*
X53086884Y-108583506D01*
X52899994Y-108562543D01*
X52720736Y-108505679D01*
X52555936Y-108415079D01*
X52411872Y-108294196D01*
X52294032Y-108147632D01*
X52206904Y-107980971D01*
X52153806Y-107800561D01*
X52153802Y-107800522D01*
X52153800Y-107800514D01*
X52136759Y-107613275D01*
X52156412Y-107426290D01*
X52156415Y-107426281D01*
X52156419Y-107426241D01*
X52212031Y-107246590D01*
X52301477Y-107081162D01*
X52421352Y-106936258D01*
X52567090Y-106817397D01*
X52733139Y-106729107D01*
X52913174Y-106674752D01*
X53100338Y-106656400D01*
X53109697Y-106656400D01*
X53116920Y-106656451D01*
X53116920Y-106656451D01*
G37*
G36*
X71300000Y-108225000D02*
X70300000Y-108225000D01*
X70300000Y-107275000D01*
X71300000Y-107275000D01*
X71300000Y-108225000D01*
X71300000Y-108225000D01*
G37*
G36*
X72800000Y-108225000D02*
X71800000Y-108225000D01*
X71800000Y-107275000D01*
X72800000Y-107275000D01*
X72800000Y-108225000D01*
X72800000Y-108225000D01*
G37*
G36*
X61631511Y-107550198D02*
X61689143Y-107562027D01*
X61743377Y-107584825D01*
X61792153Y-107617725D01*
X61833613Y-107659476D01*
X61866168Y-107708475D01*
X61888588Y-107762868D01*
X61899948Y-107820239D01*
X61899948Y-107820254D01*
X61900013Y-107820583D01*
X61899075Y-107887782D01*
X61898999Y-107888116D01*
X61898999Y-107888127D01*
X61886043Y-107945153D01*
X61862112Y-107998902D01*
X61828203Y-108046973D01*
X61785590Y-108087552D01*
X61735921Y-108119073D01*
X61681067Y-108140349D01*
X61623129Y-108150565D01*
X61564309Y-108149334D01*
X61506845Y-108136699D01*
X61452936Y-108113147D01*
X61404619Y-108079566D01*
X61363751Y-108037246D01*
X61331883Y-107987797D01*
X61310224Y-107933093D01*
X61299603Y-107875222D01*
X61300425Y-107816397D01*
X61312656Y-107758851D01*
X61335834Y-107704773D01*
X61369073Y-107656229D01*
X61411109Y-107615065D01*
X61460336Y-107582851D01*
X61514889Y-107560810D01*
X61572675Y-107549786D01*
X61631511Y-107550198D01*
X61631511Y-107550198D01*
G37*
G36*
X60725000Y-108125000D02*
X58725000Y-108125000D01*
X58725000Y-107325000D01*
X60725000Y-107325000D01*
X60725000Y-108125000D01*
X60725000Y-108125000D01*
G37*
G36*
X68375000Y-108125000D02*
X66375000Y-108125000D01*
X66375000Y-107325000D01*
X68375000Y-107325000D01*
X68375000Y-108125000D01*
X68375000Y-108125000D01*
G37*
G36*
X80675000Y-108000000D02*
X79025000Y-108000000D01*
X79025000Y-105400000D01*
X80675000Y-105400000D01*
X80675000Y-108000000D01*
X80675000Y-108000000D01*
G37*
G36*
X74775000Y-108000000D02*
X73125000Y-108000000D01*
X73125000Y-105400000D01*
X74775000Y-105400000D01*
X74775000Y-108000000D01*
X74775000Y-108000000D01*
G37*
G36*
X83350000Y-107950000D02*
X82650000Y-107950000D01*
X82650000Y-106850000D01*
X83350000Y-106850000D01*
X83350000Y-107950000D01*
X83350000Y-107950000D01*
G37*
G36*
X84850000Y-107950000D02*
X84150000Y-107950000D01*
X84150000Y-106850000D01*
X84850000Y-106850000D01*
X84850000Y-107950000D01*
X84850000Y-107950000D01*
G37*
G36*
X124000000Y-107700000D02*
X121450000Y-107700000D01*
X121450000Y-106400000D01*
X124000000Y-106400000D01*
X124000000Y-107700000D01*
X124000000Y-107700000D01*
G37*
G36*
X82200000Y-107600000D02*
X81100000Y-107600000D01*
X81100000Y-106900000D01*
X82200000Y-106900000D01*
X82200000Y-107600000D01*
X82200000Y-107600000D01*
G37*
G36*
X125750000Y-107550000D02*
X124800000Y-107550000D01*
X124800000Y-106550000D01*
X125750000Y-106550000D01*
X125750000Y-107550000D01*
X125750000Y-107550000D01*
G37*
G36*
X61631511Y-106550198D02*
X61689143Y-106562027D01*
X61743377Y-106584825D01*
X61792153Y-106617725D01*
X61833613Y-106659476D01*
X61866168Y-106708475D01*
X61888588Y-106762868D01*
X61899948Y-106820239D01*
X61899948Y-106820254D01*
X61900013Y-106820583D01*
X61899075Y-106887782D01*
X61898999Y-106888116D01*
X61898999Y-106888127D01*
X61886043Y-106945153D01*
X61862112Y-106998902D01*
X61828203Y-107046973D01*
X61785590Y-107087552D01*
X61735921Y-107119073D01*
X61681067Y-107140349D01*
X61623129Y-107150565D01*
X61564309Y-107149334D01*
X61506845Y-107136699D01*
X61452936Y-107113147D01*
X61404619Y-107079566D01*
X61363751Y-107037246D01*
X61331883Y-106987797D01*
X61310224Y-106933093D01*
X61299603Y-106875222D01*
X61300425Y-106816397D01*
X61312656Y-106758851D01*
X61335834Y-106704773D01*
X61369073Y-106656229D01*
X61411109Y-106615065D01*
X61460336Y-106582851D01*
X61514889Y-106560810D01*
X61572675Y-106549786D01*
X61631511Y-106550198D01*
X61631511Y-106550198D01*
G37*
G36*
X105650000Y-107150000D02*
X104700000Y-107150000D01*
X104700000Y-106150000D01*
X105650000Y-106150000D01*
X105650000Y-107150000D01*
X105650000Y-107150000D01*
G37*
G36*
X87700000Y-107050000D02*
X86700000Y-107050000D01*
X86700000Y-106100000D01*
X87700000Y-106100000D01*
X87700000Y-107050000D01*
X87700000Y-107050000D01*
G37*
G36*
X89200000Y-107050000D02*
X88200000Y-107050000D01*
X88200000Y-106100000D01*
X89200000Y-106100000D01*
X89200000Y-107050000D01*
X89200000Y-107050000D01*
G37*
G36*
X102575000Y-106900000D02*
X101975000Y-106900000D01*
X101975000Y-105900000D01*
X102575000Y-105900000D01*
X102575000Y-106900000D01*
X102575000Y-106900000D01*
G37*
G36*
X131625000Y-106900000D02*
X130425000Y-106900000D01*
X130425000Y-105700000D01*
X131625000Y-105700000D01*
X131625000Y-106900000D01*
X131625000Y-106900000D01*
G37*
G36*
X127625000Y-106900000D02*
X126425000Y-106900000D01*
X126425000Y-105700000D01*
X127625000Y-105700000D01*
X127625000Y-106900000D01*
X127625000Y-106900000D01*
G37*
G36*
X98325000Y-106900000D02*
X97625000Y-106900000D01*
X97625000Y-105900000D01*
X98325000Y-105900000D01*
X98325000Y-106900000D01*
X98325000Y-106900000D01*
G37*
G36*
X99075000Y-106900000D02*
X98475000Y-106900000D01*
X98475000Y-105900000D01*
X99075000Y-105900000D01*
X99075000Y-106900000D01*
X99075000Y-106900000D01*
G37*
G36*
X100725000Y-106900000D02*
X100025000Y-106900000D01*
X100025000Y-105900000D01*
X100725000Y-105900000D01*
X100725000Y-106900000D01*
X100725000Y-106900000D01*
G37*
G36*
X99875000Y-106900000D02*
X99275000Y-106900000D01*
X99275000Y-105900000D01*
X99875000Y-105900000D01*
X99875000Y-106900000D01*
X99875000Y-106900000D01*
G37*
G36*
X104225000Y-106900000D02*
X103525000Y-106900000D01*
X103525000Y-105900000D01*
X104225000Y-105900000D01*
X104225000Y-106900000D01*
X104225000Y-106900000D01*
G37*
G36*
X103375000Y-106900000D02*
X102775000Y-106900000D01*
X102775000Y-105900000D01*
X103375000Y-105900000D01*
X103375000Y-106900000D01*
X103375000Y-106900000D01*
G37*
G36*
X101825000Y-106900000D02*
X101125000Y-106900000D01*
X101125000Y-105900000D01*
X101825000Y-105900000D01*
X101825000Y-106900000D01*
X101825000Y-106900000D01*
G37*
G36*
X68375000Y-106875000D02*
X66375000Y-106875000D01*
X66375000Y-106075000D01*
X68375000Y-106075000D01*
X68375000Y-106875000D01*
X68375000Y-106875000D01*
G37*
G36*
X60725000Y-106875000D02*
X58725000Y-106875000D01*
X58725000Y-106075000D01*
X60725000Y-106075000D01*
X60725000Y-106875000D01*
X60725000Y-106875000D01*
G37*
G36*
X72800000Y-106725000D02*
X71800000Y-106725000D01*
X71800000Y-105775000D01*
X72800000Y-105775000D01*
X72800000Y-106725000D01*
X72800000Y-106725000D01*
G37*
G36*
X71300000Y-106725000D02*
X70300000Y-106725000D01*
X70300000Y-105775000D01*
X71300000Y-105775000D01*
X71300000Y-106725000D01*
X71300000Y-106725000D01*
G37*
G36*
X61631511Y-105550198D02*
X61689143Y-105562027D01*
X61743377Y-105584825D01*
X61792153Y-105617725D01*
X61833613Y-105659476D01*
X61866168Y-105708475D01*
X61888588Y-105762868D01*
X61899948Y-105820239D01*
X61899948Y-105820254D01*
X61900013Y-105820583D01*
X61899075Y-105887782D01*
X61898999Y-105888116D01*
X61898999Y-105888127D01*
X61886043Y-105945153D01*
X61862112Y-105998902D01*
X61828203Y-106046973D01*
X61785590Y-106087552D01*
X61735921Y-106119073D01*
X61681067Y-106140349D01*
X61623129Y-106150565D01*
X61564309Y-106149334D01*
X61506845Y-106136699D01*
X61452936Y-106113147D01*
X61404619Y-106079566D01*
X61363751Y-106037246D01*
X61331883Y-105987797D01*
X61310224Y-105933093D01*
X61299603Y-105875222D01*
X61300425Y-105816397D01*
X61312656Y-105758851D01*
X61335834Y-105704773D01*
X61369073Y-105656229D01*
X61411109Y-105615065D01*
X61460336Y-105582851D01*
X61514889Y-105560810D01*
X61572675Y-105549786D01*
X61631511Y-105550198D01*
X61631511Y-105550198D01*
G37*
G36*
X82200000Y-106100000D02*
X81100000Y-106100000D01*
X81100000Y-105400000D01*
X82200000Y-105400000D01*
X82200000Y-106100000D01*
X82200000Y-106100000D01*
G37*
G36*
X125750000Y-106050000D02*
X124800000Y-106050000D01*
X124800000Y-105050000D01*
X125750000Y-105050000D01*
X125750000Y-106050000D01*
X125750000Y-106050000D01*
G37*
G36*
X50765349Y-104133467D02*
X50944805Y-104189705D01*
X51109920Y-104279728D01*
X51109947Y-104279751D01*
X51109955Y-104279755D01*
X51254407Y-104400108D01*
X51372727Y-104546221D01*
X51372730Y-104546227D01*
X51372757Y-104546260D01*
X51460465Y-104712616D01*
X51514193Y-104892839D01*
X51531891Y-105080066D01*
X51512886Y-105267166D01*
X51457902Y-105447011D01*
X51369033Y-105612750D01*
X51249665Y-105758071D01*
X51243071Y-105764665D01*
X51233491Y-105774112D01*
X51086517Y-105891440D01*
X50919553Y-105977986D01*
X50738958Y-106030453D01*
X50551613Y-106046845D01*
X50364651Y-106026534D01*
X50185195Y-105970295D01*
X50020080Y-105880272D01*
X50020053Y-105880249D01*
X50020045Y-105880245D01*
X49875593Y-105759892D01*
X49757273Y-105613779D01*
X49757270Y-105613773D01*
X49757243Y-105613740D01*
X49669534Y-105447384D01*
X49615807Y-105267161D01*
X49598109Y-105079934D01*
X49617114Y-104892834D01*
X49672098Y-104712989D01*
X49760967Y-104547251D01*
X49880335Y-104401929D01*
X49886929Y-104395335D01*
X49896509Y-104385888D01*
X50043483Y-104268560D01*
X50210446Y-104182014D01*
X50391041Y-104129547D01*
X50578387Y-104113156D01*
X50765349Y-104133467D01*
X50765349Y-104133467D01*
G37*
G36*
X48225349Y-104133467D02*
X48404805Y-104189705D01*
X48569920Y-104279728D01*
X48569947Y-104279751D01*
X48569955Y-104279755D01*
X48714407Y-104400108D01*
X48832727Y-104546221D01*
X48832730Y-104546227D01*
X48832757Y-104546260D01*
X48920465Y-104712616D01*
X48974193Y-104892839D01*
X48991891Y-105080066D01*
X48972886Y-105267166D01*
X48917902Y-105447011D01*
X48829033Y-105612750D01*
X48709665Y-105758071D01*
X48703071Y-105764665D01*
X48693491Y-105774112D01*
X48546517Y-105891440D01*
X48379553Y-105977986D01*
X48198958Y-106030453D01*
X48011613Y-106046845D01*
X47824651Y-106026534D01*
X47645195Y-105970295D01*
X47480080Y-105880272D01*
X47480053Y-105880249D01*
X47480045Y-105880245D01*
X47335593Y-105759892D01*
X47217273Y-105613779D01*
X47217270Y-105613773D01*
X47217243Y-105613740D01*
X47129534Y-105447384D01*
X47075807Y-105267161D01*
X47058109Y-105079934D01*
X47077114Y-104892834D01*
X47132098Y-104712989D01*
X47220967Y-104547251D01*
X47340335Y-104401929D01*
X47346929Y-104395335D01*
X47356509Y-104385888D01*
X47503483Y-104268560D01*
X47670446Y-104182014D01*
X47851041Y-104129547D01*
X48038387Y-104113156D01*
X48225349Y-104133467D01*
X48225349Y-104133467D01*
G37*
G36*
X53116920Y-104116451D02*
X53123116Y-104116494D01*
X53310006Y-104137457D01*
X53489264Y-104194321D01*
X53654064Y-104284921D01*
X53798128Y-104405804D01*
X53915968Y-104552368D01*
X54003096Y-104719029D01*
X54056194Y-104899439D01*
X54056198Y-104899478D01*
X54056200Y-104899486D01*
X54073241Y-105086725D01*
X54053588Y-105273710D01*
X54053585Y-105273719D01*
X54053581Y-105273759D01*
X53997969Y-105453410D01*
X53908523Y-105618838D01*
X53788648Y-105763742D01*
X53642910Y-105882603D01*
X53476861Y-105970893D01*
X53296826Y-106025248D01*
X53109662Y-106043600D01*
X53100303Y-106043600D01*
X53093080Y-106043549D01*
X53086884Y-106043506D01*
X52899994Y-106022543D01*
X52720736Y-105965679D01*
X52555936Y-105875079D01*
X52411872Y-105754196D01*
X52294032Y-105607632D01*
X52206904Y-105440971D01*
X52153806Y-105260561D01*
X52153802Y-105260522D01*
X52153800Y-105260514D01*
X52136759Y-105073275D01*
X52156412Y-104886290D01*
X52156415Y-104886281D01*
X52156419Y-104886241D01*
X52212031Y-104706590D01*
X52301477Y-104541162D01*
X52421352Y-104396258D01*
X52567090Y-104277397D01*
X52733139Y-104189107D01*
X52913174Y-104134752D01*
X53100338Y-104116400D01*
X53109697Y-104116400D01*
X53116920Y-104116451D01*
X53116920Y-104116451D01*
G37*
G36*
X60725000Y-105625000D02*
X58725000Y-105625000D01*
X58725000Y-104825000D01*
X60725000Y-104825000D01*
X60725000Y-105625000D01*
X60725000Y-105625000D01*
G37*
G36*
X68375000Y-105625000D02*
X66375000Y-105625000D01*
X66375000Y-104825000D01*
X68375000Y-104825000D01*
X68375000Y-105625000D01*
X68375000Y-105625000D01*
G37*
G36*
X92975000Y-105500000D02*
X92025000Y-105500000D01*
X92025000Y-104500000D01*
X92975000Y-104500000D01*
X92975000Y-105500000D01*
X92975000Y-105500000D01*
G37*
G36*
X127625000Y-105300000D02*
X126425000Y-105300000D01*
X126425000Y-104100000D01*
X127625000Y-104100000D01*
X127625000Y-105300000D01*
X127625000Y-105300000D01*
G37*
G36*
X131625000Y-105300000D02*
X130425000Y-105300000D01*
X130425000Y-104100000D01*
X131625000Y-104100000D01*
X131625000Y-105300000D01*
X131625000Y-105300000D01*
G37*
G36*
X61631511Y-104550198D02*
X61689143Y-104562027D01*
X61743377Y-104584825D01*
X61792153Y-104617725D01*
X61833613Y-104659476D01*
X61866168Y-104708475D01*
X61888588Y-104762868D01*
X61899948Y-104820239D01*
X61899948Y-104820254D01*
X61900013Y-104820583D01*
X61899075Y-104887782D01*
X61898999Y-104888116D01*
X61898999Y-104888127D01*
X61886043Y-104945153D01*
X61862112Y-104998902D01*
X61828203Y-105046973D01*
X61785590Y-105087552D01*
X61735921Y-105119073D01*
X61681067Y-105140349D01*
X61623129Y-105150565D01*
X61564309Y-105149334D01*
X61506845Y-105136699D01*
X61452936Y-105113147D01*
X61404619Y-105079566D01*
X61363751Y-105037246D01*
X61331883Y-104987797D01*
X61310224Y-104933093D01*
X61299603Y-104875222D01*
X61300425Y-104816397D01*
X61312656Y-104758851D01*
X61335834Y-104704773D01*
X61369073Y-104656229D01*
X61411109Y-104615065D01*
X61460336Y-104582851D01*
X61514889Y-104560810D01*
X61572675Y-104549786D01*
X61631511Y-104550198D01*
X61631511Y-104550198D01*
G37*
G36*
X105650000Y-105075000D02*
X104200000Y-105075000D01*
X104200000Y-103875000D01*
X105650000Y-103875000D01*
X105650000Y-105075000D01*
X105650000Y-105075000D01*
G37*
G36*
X98575000Y-104950000D02*
X97975000Y-104950000D01*
X97975000Y-103950000D01*
X98575000Y-103950000D01*
X98575000Y-104950000D01*
X98575000Y-104950000D01*
G37*
G36*
X97825000Y-104950000D02*
X97125000Y-104950000D01*
X97125000Y-103950000D01*
X97825000Y-103950000D01*
X97825000Y-104950000D01*
X97825000Y-104950000D01*
G37*
G36*
X100225000Y-104950000D02*
X99525000Y-104950000D01*
X99525000Y-103950000D01*
X100225000Y-103950000D01*
X100225000Y-104950000D01*
X100225000Y-104950000D01*
G37*
G36*
X101325000Y-104950000D02*
X100625000Y-104950000D01*
X100625000Y-103950000D01*
X101325000Y-103950000D01*
X101325000Y-104950000D01*
X101325000Y-104950000D01*
G37*
G36*
X102075000Y-104950000D02*
X101475000Y-104950000D01*
X101475000Y-103950000D01*
X102075000Y-103950000D01*
X102075000Y-104950000D01*
X102075000Y-104950000D01*
G37*
G36*
X102875000Y-104950000D02*
X102275000Y-104950000D01*
X102275000Y-103950000D01*
X102875000Y-103950000D01*
X102875000Y-104950000D01*
X102875000Y-104950000D01*
G37*
G36*
X99375000Y-104950000D02*
X98775000Y-104950000D01*
X98775000Y-103950000D01*
X99375000Y-103950000D01*
X99375000Y-104950000D01*
X99375000Y-104950000D01*
G37*
G36*
X103725000Y-104950000D02*
X103025000Y-104950000D01*
X103025000Y-103950000D01*
X103725000Y-103950000D01*
X103725000Y-104950000D01*
X103725000Y-104950000D01*
G37*
G36*
X84780000Y-104775000D02*
X83520000Y-104775000D01*
X83520000Y-103925000D01*
X84780000Y-103925000D01*
X84780000Y-104775000D01*
X84780000Y-104775000D01*
G37*
G36*
X82580000Y-104775000D02*
X81320000Y-104775000D01*
X81320000Y-102025000D01*
X82580000Y-102025000D01*
X82580000Y-104775000D01*
X82580000Y-104775000D01*
G37*
G36*
X125750000Y-104650000D02*
X124800000Y-104650000D01*
X124800000Y-103650000D01*
X125750000Y-103650000D01*
X125750000Y-104650000D01*
X125750000Y-104650000D01*
G37*
G36*
X76650000Y-104650000D02*
X75450000Y-104650000D01*
X75450000Y-102850000D01*
X76650000Y-102850000D01*
X76650000Y-104650000D01*
X76650000Y-104650000D01*
G37*
G36*
X73650000Y-104650000D02*
X72450000Y-104650000D01*
X72450000Y-102850000D01*
X73650000Y-102850000D01*
X73650000Y-104650000D01*
X73650000Y-104650000D01*
G37*
G36*
X90925000Y-101350000D02*
X90926980Y-101363930D01*
X90932761Y-101376756D01*
X90941888Y-101387464D01*
X90953636Y-101395206D01*
X90967076Y-101399368D01*
X90975000Y-101400000D01*
X91600000Y-101400000D01*
X91600000Y-103800000D01*
X90975000Y-103800000D01*
X90961070Y-103801980D01*
X90948244Y-103807761D01*
X90937536Y-103816888D01*
X90929794Y-103828636D01*
X90925632Y-103842076D01*
X90925000Y-103850000D01*
X90925000Y-104475000D01*
X88525000Y-104475000D01*
X88525000Y-103850000D01*
X88523020Y-103836070D01*
X88517239Y-103823244D01*
X88508112Y-103812536D01*
X88496364Y-103804794D01*
X88482924Y-103800632D01*
X88475000Y-103800000D01*
X87850000Y-103800000D01*
X87850000Y-101525000D01*
X88600000Y-101525000D01*
X88600000Y-103675000D01*
X88601980Y-103688930D01*
X88607761Y-103701756D01*
X88616888Y-103712464D01*
X88628636Y-103720206D01*
X88642076Y-103724368D01*
X88650000Y-103725000D01*
X90800000Y-103725000D01*
X90813930Y-103723020D01*
X90826756Y-103717239D01*
X90837464Y-103708112D01*
X90845206Y-103696364D01*
X90849368Y-103682924D01*
X90850000Y-103675000D01*
X90850000Y-101525000D01*
X90848020Y-101511070D01*
X90842239Y-101498244D01*
X90833112Y-101487536D01*
X90821364Y-101479794D01*
X90807924Y-101475632D01*
X90800000Y-101475000D01*
X88650000Y-101475000D01*
X88636070Y-101476980D01*
X88623244Y-101482761D01*
X88612536Y-101491888D01*
X88604794Y-101503636D01*
X88600632Y-101517076D01*
X88600000Y-101525000D01*
X87850000Y-101525000D01*
X87850000Y-101400000D01*
X88475000Y-101400000D01*
X88488930Y-101398020D01*
X88501756Y-101392239D01*
X88512464Y-101383112D01*
X88520206Y-101371364D01*
X88524368Y-101357924D01*
X88525000Y-101350000D01*
X88525000Y-100725000D01*
X90925000Y-100725000D01*
X90925000Y-101350000D01*
X90925000Y-101350000D01*
G37*
G36*
X90625000Y-103572500D02*
X88825000Y-103572500D01*
X88825000Y-101627500D01*
X90625000Y-101627500D01*
X90625000Y-103572500D01*
X90625000Y-103572500D01*
G37*
G36*
X60725000Y-104375000D02*
X58725000Y-104375000D01*
X58725000Y-103575000D01*
X60725000Y-103575000D01*
X60725000Y-104375000D01*
X60725000Y-104375000D01*
G37*
G36*
X68375000Y-104375000D02*
X66375000Y-104375000D01*
X66375000Y-103575000D01*
X68375000Y-103575000D01*
X68375000Y-104375000D01*
X68375000Y-104375000D01*
G37*
G36*
X80875000Y-104300000D02*
X79925000Y-104300000D01*
X79925000Y-103300000D01*
X80875000Y-103300000D01*
X80875000Y-104300000D01*
X80875000Y-104300000D01*
G37*
G36*
X86175000Y-104300000D02*
X85225000Y-104300000D01*
X85225000Y-103300000D01*
X86175000Y-103300000D01*
X86175000Y-104300000D01*
X86175000Y-104300000D01*
G37*
G36*
X61631511Y-103550198D02*
X61689143Y-103562027D01*
X61743377Y-103584825D01*
X61792153Y-103617725D01*
X61833613Y-103659476D01*
X61866168Y-103708475D01*
X61888588Y-103762868D01*
X61899948Y-103820239D01*
X61899948Y-103820254D01*
X61900013Y-103820583D01*
X61899075Y-103887782D01*
X61898999Y-103888116D01*
X61898999Y-103888127D01*
X61886043Y-103945153D01*
X61862112Y-103998902D01*
X61828203Y-104046973D01*
X61785590Y-104087552D01*
X61735921Y-104119073D01*
X61681067Y-104140349D01*
X61623129Y-104150565D01*
X61564309Y-104149334D01*
X61506845Y-104136699D01*
X61452936Y-104113147D01*
X61404619Y-104079566D01*
X61363751Y-104037246D01*
X61331883Y-103987797D01*
X61310224Y-103933093D01*
X61299603Y-103875222D01*
X61300425Y-103816397D01*
X61312656Y-103758851D01*
X61335834Y-103704773D01*
X61369073Y-103656229D01*
X61411109Y-103615065D01*
X61460336Y-103582851D01*
X61514889Y-103560810D01*
X61572675Y-103549786D01*
X61631511Y-103550198D01*
X61631511Y-103550198D01*
G37*
G36*
X92975000Y-104000000D02*
X92025000Y-104000000D01*
X92025000Y-103000000D01*
X92975000Y-103000000D01*
X92975000Y-104000000D01*
X92975000Y-104000000D01*
G37*
G36*
X70400000Y-103750000D02*
X69800000Y-103750000D01*
X69800000Y-102750000D01*
X70400000Y-102750000D01*
X70400000Y-103750000D01*
X70400000Y-103750000D01*
G37*
G36*
X69650000Y-103750000D02*
X68950000Y-103750000D01*
X68950000Y-102750000D01*
X69650000Y-102750000D01*
X69650000Y-103750000D01*
X69650000Y-103750000D01*
G37*
G36*
X71200000Y-103750000D02*
X70600000Y-103750000D01*
X70600000Y-102750000D01*
X71200000Y-102750000D01*
X71200000Y-103750000D01*
X71200000Y-103750000D01*
G37*
G36*
X72050000Y-103750000D02*
X71350000Y-103750000D01*
X71350000Y-102750000D01*
X72050000Y-102750000D01*
X72050000Y-103750000D01*
X72050000Y-103750000D01*
G37*
G36*
X50765349Y-101593467D02*
X50944805Y-101649705D01*
X51109920Y-101739728D01*
X51109947Y-101739751D01*
X51109955Y-101739755D01*
X51254407Y-101860108D01*
X51372727Y-102006221D01*
X51372730Y-102006227D01*
X51372757Y-102006260D01*
X51460465Y-102172616D01*
X51514193Y-102352839D01*
X51531891Y-102540066D01*
X51512886Y-102727166D01*
X51457902Y-102907011D01*
X51369033Y-103072750D01*
X51249665Y-103218071D01*
X51243071Y-103224665D01*
X51233491Y-103234112D01*
X51086517Y-103351440D01*
X50919553Y-103437986D01*
X50738958Y-103490453D01*
X50551613Y-103506845D01*
X50364651Y-103486534D01*
X50185195Y-103430295D01*
X50020080Y-103340272D01*
X50020053Y-103340249D01*
X50020045Y-103340245D01*
X49875593Y-103219892D01*
X49757273Y-103073779D01*
X49757270Y-103073773D01*
X49757243Y-103073740D01*
X49669534Y-102907384D01*
X49615807Y-102727161D01*
X49598109Y-102539934D01*
X49617114Y-102352834D01*
X49672098Y-102172989D01*
X49760967Y-102007251D01*
X49880335Y-101861929D01*
X49886929Y-101855335D01*
X49896509Y-101845888D01*
X50043483Y-101728560D01*
X50210446Y-101642014D01*
X50391041Y-101589547D01*
X50578387Y-101573156D01*
X50765349Y-101593467D01*
X50765349Y-101593467D01*
G37*
G36*
X48225349Y-101593467D02*
X48404805Y-101649705D01*
X48569920Y-101739728D01*
X48569947Y-101739751D01*
X48569955Y-101739755D01*
X48714407Y-101860108D01*
X48832727Y-102006221D01*
X48832730Y-102006227D01*
X48832757Y-102006260D01*
X48920465Y-102172616D01*
X48974193Y-102352839D01*
X48991891Y-102540066D01*
X48972886Y-102727166D01*
X48917902Y-102907011D01*
X48829033Y-103072750D01*
X48709665Y-103218071D01*
X48703071Y-103224665D01*
X48693491Y-103234112D01*
X48546517Y-103351440D01*
X48379553Y-103437986D01*
X48198958Y-103490453D01*
X48011613Y-103506845D01*
X47824651Y-103486534D01*
X47645195Y-103430295D01*
X47480080Y-103340272D01*
X47480053Y-103340249D01*
X47480045Y-103340245D01*
X47335593Y-103219892D01*
X47217273Y-103073779D01*
X47217270Y-103073773D01*
X47217243Y-103073740D01*
X47129534Y-102907384D01*
X47075807Y-102727161D01*
X47058109Y-102539934D01*
X47077114Y-102352834D01*
X47132098Y-102172989D01*
X47220967Y-102007251D01*
X47340335Y-101861929D01*
X47346929Y-101855335D01*
X47356509Y-101845888D01*
X47503483Y-101728560D01*
X47670446Y-101642014D01*
X47851041Y-101589547D01*
X48038387Y-101573156D01*
X48225349Y-101593467D01*
X48225349Y-101593467D01*
G37*
G36*
X53116920Y-101576451D02*
X53123116Y-101576494D01*
X53310006Y-101597457D01*
X53489264Y-101654321D01*
X53654064Y-101744921D01*
X53798128Y-101865804D01*
X53915968Y-102012368D01*
X54003096Y-102179029D01*
X54056194Y-102359439D01*
X54056198Y-102359478D01*
X54056200Y-102359486D01*
X54073241Y-102546725D01*
X54053588Y-102733710D01*
X54053585Y-102733719D01*
X54053581Y-102733759D01*
X53997969Y-102913410D01*
X53908523Y-103078838D01*
X53788648Y-103223742D01*
X53642910Y-103342603D01*
X53476861Y-103430893D01*
X53296826Y-103485248D01*
X53109662Y-103503600D01*
X53100303Y-103503600D01*
X53093080Y-103503549D01*
X53086884Y-103503506D01*
X52899994Y-103482543D01*
X52720736Y-103425679D01*
X52555936Y-103335079D01*
X52411872Y-103214196D01*
X52294032Y-103067632D01*
X52206904Y-102900971D01*
X52153806Y-102720561D01*
X52153802Y-102720522D01*
X52153800Y-102720514D01*
X52136759Y-102533275D01*
X52156412Y-102346290D01*
X52156415Y-102346281D01*
X52156419Y-102346241D01*
X52212031Y-102166590D01*
X52301477Y-102001162D01*
X52421352Y-101856258D01*
X52567090Y-101737397D01*
X52733139Y-101649107D01*
X52913174Y-101594752D01*
X53100338Y-101576400D01*
X53109697Y-101576400D01*
X53116920Y-101576451D01*
X53116920Y-101576451D01*
G37*
G36*
X124000000Y-103400000D02*
X121450000Y-103400000D01*
X121450000Y-102100000D01*
X124000000Y-102100000D01*
X124000000Y-103400000D01*
X124000000Y-103400000D01*
G37*
G36*
X131075000Y-103300000D02*
X128075000Y-103300000D01*
X128075000Y-102100000D01*
X131075000Y-102100000D01*
X131075000Y-103300000D01*
X131075000Y-103300000D01*
G37*
G36*
X101325000Y-103150000D02*
X100625000Y-103150000D01*
X100625000Y-102150000D01*
X101325000Y-102150000D01*
X101325000Y-103150000D01*
X101325000Y-103150000D01*
G37*
G36*
X102875000Y-103150000D02*
X102275000Y-103150000D01*
X102275000Y-102150000D01*
X102875000Y-102150000D01*
X102875000Y-103150000D01*
X102875000Y-103150000D01*
G37*
G36*
X125750000Y-103150000D02*
X124800000Y-103150000D01*
X124800000Y-102150000D01*
X125750000Y-102150000D01*
X125750000Y-103150000D01*
X125750000Y-103150000D01*
G37*
G36*
X103725000Y-103150000D02*
X103025000Y-103150000D01*
X103025000Y-102150000D01*
X103725000Y-102150000D01*
X103725000Y-103150000D01*
X103725000Y-103150000D01*
G37*
G36*
X100225000Y-103150000D02*
X99525000Y-103150000D01*
X99525000Y-102150000D01*
X100225000Y-102150000D01*
X100225000Y-103150000D01*
X100225000Y-103150000D01*
G37*
G36*
X98575000Y-103150000D02*
X97975000Y-103150000D01*
X97975000Y-102150000D01*
X98575000Y-102150000D01*
X98575000Y-103150000D01*
X98575000Y-103150000D01*
G37*
G36*
X97825000Y-103150000D02*
X97125000Y-103150000D01*
X97125000Y-102150000D01*
X97825000Y-102150000D01*
X97825000Y-103150000D01*
X97825000Y-103150000D01*
G37*
G36*
X102075000Y-103150000D02*
X101475000Y-103150000D01*
X101475000Y-102150000D01*
X102075000Y-102150000D01*
X102075000Y-103150000D01*
X102075000Y-103150000D01*
G37*
G36*
X99375000Y-103150000D02*
X98775000Y-103150000D01*
X98775000Y-102150000D01*
X99375000Y-102150000D01*
X99375000Y-103150000D01*
X99375000Y-103150000D01*
G37*
G36*
X94475000Y-103125000D02*
X93525000Y-103125000D01*
X93525000Y-102125000D01*
X94475000Y-102125000D01*
X94475000Y-103125000D01*
X94475000Y-103125000D01*
G37*
G36*
X68375000Y-103125000D02*
X66375000Y-103125000D01*
X66375000Y-102325000D01*
X68375000Y-102325000D01*
X68375000Y-103125000D01*
X68375000Y-103125000D01*
G37*
G36*
X60725000Y-103125000D02*
X58725000Y-103125000D01*
X58725000Y-102325000D01*
X60725000Y-102325000D01*
X60725000Y-103125000D01*
X60725000Y-103125000D01*
G37*
G36*
X105650000Y-103075000D02*
X104200000Y-103075000D01*
X104200000Y-101875000D01*
X105650000Y-101875000D01*
X105650000Y-103075000D01*
X105650000Y-103075000D01*
G37*
G36*
X84780000Y-102875000D02*
X83520000Y-102875000D01*
X83520000Y-102025000D01*
X84780000Y-102025000D01*
X84780000Y-102875000D01*
X84780000Y-102875000D01*
G37*
G36*
X80875000Y-102800000D02*
X79925000Y-102800000D01*
X79925000Y-101800000D01*
X80875000Y-101800000D01*
X80875000Y-102800000D01*
X80875000Y-102800000D01*
G37*
G36*
X86175000Y-102800000D02*
X85225000Y-102800000D01*
X85225000Y-101800000D01*
X86175000Y-101800000D01*
X86175000Y-102800000D01*
X86175000Y-102800000D01*
G37*
G36*
X75500000Y-102350000D02*
X74800000Y-102350000D01*
X74800000Y-101250000D01*
X75500000Y-101250000D01*
X75500000Y-102350000D01*
X75500000Y-102350000D01*
G37*
G36*
X74000000Y-102350000D02*
X73300000Y-102350000D01*
X73300000Y-101250000D01*
X74000000Y-101250000D01*
X74000000Y-102350000D01*
X74000000Y-102350000D01*
G37*
G36*
X70400000Y-101950000D02*
X69800000Y-101950000D01*
X69800000Y-100950000D01*
X70400000Y-100950000D01*
X70400000Y-101950000D01*
X70400000Y-101950000D01*
G37*
G36*
X71200000Y-101950000D02*
X70600000Y-101950000D01*
X70600000Y-100950000D01*
X71200000Y-100950000D01*
X71200000Y-101950000D01*
X71200000Y-101950000D01*
G37*
G36*
X69650000Y-101950000D02*
X68950000Y-101950000D01*
X68950000Y-100950000D01*
X69650000Y-100950000D01*
X69650000Y-101950000D01*
X69650000Y-101950000D01*
G37*
G36*
X72050000Y-101950000D02*
X71350000Y-101950000D01*
X71350000Y-100950000D01*
X72050000Y-100950000D01*
X72050000Y-101950000D01*
X72050000Y-101950000D01*
G37*
G36*
X123000000Y-101750000D02*
X121900000Y-101750000D01*
X121900000Y-101050000D01*
X123000000Y-101050000D01*
X123000000Y-101750000D01*
X123000000Y-101750000D01*
G37*
G36*
X124600000Y-101750000D02*
X123500000Y-101750000D01*
X123500000Y-101050000D01*
X124600000Y-101050000D01*
X124600000Y-101750000D01*
X124600000Y-101750000D01*
G37*
G36*
X94475000Y-101625000D02*
X93525000Y-101625000D01*
X93525000Y-100625000D01*
X94475000Y-100625000D01*
X94475000Y-101625000D01*
X94475000Y-101625000D01*
G37*
G36*
X65525000Y-101600000D02*
X62525000Y-101600000D01*
X62525000Y-100400000D01*
X65525000Y-100400000D01*
X65525000Y-101600000D01*
X65525000Y-101600000D01*
G37*
G36*
X57875000Y-101600000D02*
X54875000Y-101600000D01*
X54875000Y-100400000D01*
X57875000Y-100400000D01*
X57875000Y-101600000D01*
X57875000Y-101600000D01*
G37*
G36*
X84675000Y-101400000D02*
X83725000Y-101400000D01*
X83725000Y-100400000D01*
X84675000Y-100400000D01*
X84675000Y-101400000D01*
X84675000Y-101400000D01*
G37*
G36*
X127225000Y-101375000D02*
X125225000Y-101375000D01*
X125225000Y-100575000D01*
X127225000Y-100575000D01*
X127225000Y-101375000D01*
X127225000Y-101375000D01*
G37*
G36*
X77200000Y-101250000D02*
X76100000Y-101250000D01*
X76100000Y-100550000D01*
X77200000Y-100550000D01*
X77200000Y-101250000D01*
X77200000Y-101250000D01*
G37*
G36*
X81080000Y-101175000D02*
X79820000Y-101175000D01*
X79820000Y-98425000D01*
X81080000Y-98425000D01*
X81080000Y-101175000D01*
X81080000Y-101175000D01*
G37*
G36*
X83280000Y-101175000D02*
X82020000Y-101175000D01*
X82020000Y-100325000D01*
X83280000Y-100325000D01*
X83280000Y-101175000D01*
X83280000Y-101175000D01*
G37*
G36*
X48225349Y-99053467D02*
X48404805Y-99109705D01*
X48569920Y-99199728D01*
X48569947Y-99199751D01*
X48569955Y-99199755D01*
X48714407Y-99320108D01*
X48832727Y-99466221D01*
X48832730Y-99466227D01*
X48832757Y-99466260D01*
X48920465Y-99632616D01*
X48974193Y-99812839D01*
X48991891Y-100000066D01*
X48972886Y-100187166D01*
X48917902Y-100367011D01*
X48829033Y-100532750D01*
X48709665Y-100678071D01*
X48703071Y-100684665D01*
X48693491Y-100694112D01*
X48546517Y-100811440D01*
X48379553Y-100897986D01*
X48198958Y-100950453D01*
X48011613Y-100966845D01*
X47824651Y-100946534D01*
X47645195Y-100890295D01*
X47480080Y-100800272D01*
X47480053Y-100800249D01*
X47480045Y-100800245D01*
X47335593Y-100679892D01*
X47217273Y-100533779D01*
X47217270Y-100533773D01*
X47217243Y-100533740D01*
X47129534Y-100367384D01*
X47075807Y-100187161D01*
X47058109Y-99999934D01*
X47077114Y-99812834D01*
X47132098Y-99632989D01*
X47220967Y-99467251D01*
X47340335Y-99321929D01*
X47346929Y-99315335D01*
X47356509Y-99305888D01*
X47503483Y-99188560D01*
X47670446Y-99102014D01*
X47851041Y-99049547D01*
X48038387Y-99033156D01*
X48225349Y-99053467D01*
X48225349Y-99053467D01*
G37*
G36*
X50765349Y-99053467D02*
X50944805Y-99109705D01*
X51109920Y-99199728D01*
X51109947Y-99199751D01*
X51109955Y-99199755D01*
X51254407Y-99320108D01*
X51372727Y-99466221D01*
X51372730Y-99466227D01*
X51372757Y-99466260D01*
X51460465Y-99632616D01*
X51514193Y-99812839D01*
X51531891Y-100000066D01*
X51512886Y-100187166D01*
X51457902Y-100367011D01*
X51369033Y-100532750D01*
X51249665Y-100678071D01*
X51243071Y-100684665D01*
X51233491Y-100694112D01*
X51086517Y-100811440D01*
X50919553Y-100897986D01*
X50738958Y-100950453D01*
X50551613Y-100966845D01*
X50364651Y-100946534D01*
X50185195Y-100890295D01*
X50020080Y-100800272D01*
X50020053Y-100800249D01*
X50020045Y-100800245D01*
X49875593Y-100679892D01*
X49757273Y-100533779D01*
X49757270Y-100533773D01*
X49757243Y-100533740D01*
X49669534Y-100367384D01*
X49615807Y-100187161D01*
X49598109Y-99999934D01*
X49617114Y-99812834D01*
X49672098Y-99632989D01*
X49760967Y-99467251D01*
X49880335Y-99321929D01*
X49886929Y-99315335D01*
X49896509Y-99305888D01*
X50043483Y-99188560D01*
X50210446Y-99102014D01*
X50391041Y-99049547D01*
X50578387Y-99033156D01*
X50765349Y-99053467D01*
X50765349Y-99053467D01*
G37*
G36*
X53116920Y-99036451D02*
X53123116Y-99036494D01*
X53310006Y-99057457D01*
X53489264Y-99114321D01*
X53654064Y-99204921D01*
X53798128Y-99325804D01*
X53915968Y-99472368D01*
X54003096Y-99639029D01*
X54056194Y-99819439D01*
X54056198Y-99819478D01*
X54056200Y-99819486D01*
X54073241Y-100006725D01*
X54053588Y-100193710D01*
X54053585Y-100193719D01*
X54053581Y-100193759D01*
X53997969Y-100373410D01*
X53908523Y-100538838D01*
X53788648Y-100683742D01*
X53642910Y-100802603D01*
X53476861Y-100890893D01*
X53296826Y-100945248D01*
X53109662Y-100963600D01*
X53100303Y-100963600D01*
X53093080Y-100963549D01*
X53086884Y-100963506D01*
X52899994Y-100942543D01*
X52720736Y-100885679D01*
X52555936Y-100795079D01*
X52411872Y-100674196D01*
X52294032Y-100527632D01*
X52206904Y-100360971D01*
X52153806Y-100180561D01*
X52153802Y-100180522D01*
X52153800Y-100180514D01*
X52136759Y-99993275D01*
X52156412Y-99806290D01*
X52156415Y-99806281D01*
X52156419Y-99806241D01*
X52212031Y-99626590D01*
X52301477Y-99461162D01*
X52421352Y-99316258D01*
X52567090Y-99197397D01*
X52733139Y-99109107D01*
X52913174Y-99054752D01*
X53100338Y-99036400D01*
X53109697Y-99036400D01*
X53116920Y-99036451D01*
X53116920Y-99036451D01*
G37*
G36*
X75350000Y-100825000D02*
X72750000Y-100825000D01*
X72750000Y-99175000D01*
X75350000Y-99175000D01*
X75350000Y-100825000D01*
X75350000Y-100825000D01*
G37*
G36*
X79375000Y-100425000D02*
X78425000Y-100425000D01*
X78425000Y-99425000D01*
X79375000Y-99425000D01*
X79375000Y-100425000D01*
X79375000Y-100425000D01*
G37*
G36*
X89475000Y-100300000D02*
X88475000Y-100300000D01*
X88475000Y-99350000D01*
X89475000Y-99350000D01*
X89475000Y-100300000D01*
X89475000Y-100300000D01*
G37*
G36*
X90975000Y-100300000D02*
X89975000Y-100300000D01*
X89975000Y-99350000D01*
X90975000Y-99350000D01*
X90975000Y-100300000D01*
X90975000Y-100300000D01*
G37*
G36*
X124600000Y-100250000D02*
X123500000Y-100250000D01*
X123500000Y-99550000D01*
X124600000Y-99550000D01*
X124600000Y-100250000D01*
X124600000Y-100250000D01*
G37*
G36*
X123000000Y-100250000D02*
X121900000Y-100250000D01*
X121900000Y-99550000D01*
X123000000Y-99550000D01*
X123000000Y-100250000D01*
X123000000Y-100250000D01*
G37*
G36*
X127225000Y-100125000D02*
X125225000Y-100125000D01*
X125225000Y-99325000D01*
X127225000Y-99325000D01*
X127225000Y-100125000D01*
X127225000Y-100125000D01*
G37*
G36*
X84675000Y-99900000D02*
X83725000Y-99900000D01*
X83725000Y-98900000D01*
X84675000Y-98900000D01*
X84675000Y-99900000D01*
X84675000Y-99900000D01*
G37*
G36*
X77200000Y-99750000D02*
X76100000Y-99750000D01*
X76100000Y-99050000D01*
X77200000Y-99050000D01*
X77200000Y-99750000D01*
X77200000Y-99750000D01*
G37*
G36*
X65525000Y-99600000D02*
X62525000Y-99600000D01*
X62525000Y-98400000D01*
X65525000Y-98400000D01*
X65525000Y-99600000D01*
X65525000Y-99600000D01*
G37*
G36*
X57875000Y-99600000D02*
X54875000Y-99600000D01*
X54875000Y-98400000D01*
X57875000Y-98400000D01*
X57875000Y-99600000D01*
X57875000Y-99600000D01*
G37*
G36*
X83280000Y-99275000D02*
X82020000Y-99275000D01*
X82020000Y-98425000D01*
X83280000Y-98425000D01*
X83280000Y-99275000D01*
X83280000Y-99275000D01*
G37*
G36*
X123000000Y-99150000D02*
X121900000Y-99150000D01*
X121900000Y-98450000D01*
X123000000Y-98450000D01*
X123000000Y-99150000D01*
X123000000Y-99150000D01*
G37*
G36*
X124600000Y-99150000D02*
X123500000Y-99150000D01*
X123500000Y-98450000D01*
X124600000Y-98450000D01*
X124600000Y-99150000D01*
X124600000Y-99150000D01*
G37*
G36*
X71200000Y-99050000D02*
X70600000Y-99050000D01*
X70600000Y-98050000D01*
X71200000Y-98050000D01*
X71200000Y-99050000D01*
X71200000Y-99050000D01*
G37*
G36*
X69650000Y-99050000D02*
X68950000Y-99050000D01*
X68950000Y-98050000D01*
X69650000Y-98050000D01*
X69650000Y-99050000D01*
X69650000Y-99050000D01*
G37*
G36*
X72050000Y-99050000D02*
X71350000Y-99050000D01*
X71350000Y-98050000D01*
X72050000Y-98050000D01*
X72050000Y-99050000D01*
X72050000Y-99050000D01*
G37*
G36*
X70400000Y-99050000D02*
X69800000Y-99050000D01*
X69800000Y-98050000D01*
X70400000Y-98050000D01*
X70400000Y-99050000D01*
X70400000Y-99050000D01*
G37*
G36*
X79375000Y-98925000D02*
X78425000Y-98925000D01*
X78425000Y-97925000D01*
X79375000Y-97925000D01*
X79375000Y-98925000D01*
X79375000Y-98925000D01*
G37*
G36*
X127225000Y-98875000D02*
X125225000Y-98875000D01*
X125225000Y-98075000D01*
X127225000Y-98075000D01*
X127225000Y-98875000D01*
X127225000Y-98875000D01*
G37*
G36*
X77200000Y-98650000D02*
X76100000Y-98650000D01*
X76100000Y-97950000D01*
X77200000Y-97950000D01*
X77200000Y-98650000D01*
X77200000Y-98650000D01*
G37*
G36*
X50765349Y-96513467D02*
X50944805Y-96569705D01*
X51109920Y-96659728D01*
X51109947Y-96659751D01*
X51109955Y-96659755D01*
X51254407Y-96780108D01*
X51372727Y-96926221D01*
X51372730Y-96926227D01*
X51372757Y-96926260D01*
X51460465Y-97092616D01*
X51514193Y-97272839D01*
X51531891Y-97460066D01*
X51512886Y-97647166D01*
X51457902Y-97827011D01*
X51369033Y-97992750D01*
X51249665Y-98138071D01*
X51243071Y-98144665D01*
X51233491Y-98154112D01*
X51086517Y-98271440D01*
X50919553Y-98357986D01*
X50738958Y-98410453D01*
X50551613Y-98426845D01*
X50364651Y-98406534D01*
X50185195Y-98350295D01*
X50020080Y-98260272D01*
X50020053Y-98260249D01*
X50020045Y-98260245D01*
X49875593Y-98139892D01*
X49757273Y-97993779D01*
X49757270Y-97993773D01*
X49757243Y-97993740D01*
X49669534Y-97827384D01*
X49615807Y-97647161D01*
X49598109Y-97459934D01*
X49617114Y-97272834D01*
X49672098Y-97092989D01*
X49760967Y-96927251D01*
X49880335Y-96781929D01*
X49886929Y-96775335D01*
X49896509Y-96765888D01*
X50043483Y-96648560D01*
X50210446Y-96562014D01*
X50391041Y-96509547D01*
X50578387Y-96493156D01*
X50765349Y-96513467D01*
X50765349Y-96513467D01*
G37*
G36*
X48225349Y-96513467D02*
X48404805Y-96569705D01*
X48569920Y-96659728D01*
X48569947Y-96659751D01*
X48569955Y-96659755D01*
X48714407Y-96780108D01*
X48832727Y-96926221D01*
X48832730Y-96926227D01*
X48832757Y-96926260D01*
X48920465Y-97092616D01*
X48974193Y-97272839D01*
X48991891Y-97460066D01*
X48972886Y-97647166D01*
X48917902Y-97827011D01*
X48829033Y-97992750D01*
X48709665Y-98138071D01*
X48703071Y-98144665D01*
X48693491Y-98154112D01*
X48546517Y-98271440D01*
X48379553Y-98357986D01*
X48198958Y-98410453D01*
X48011613Y-98426845D01*
X47824651Y-98406534D01*
X47645195Y-98350295D01*
X47480080Y-98260272D01*
X47480053Y-98260249D01*
X47480045Y-98260245D01*
X47335593Y-98139892D01*
X47217273Y-97993779D01*
X47217270Y-97993773D01*
X47217243Y-97993740D01*
X47129534Y-97827384D01*
X47075807Y-97647161D01*
X47058109Y-97459934D01*
X47077114Y-97272834D01*
X47132098Y-97092989D01*
X47220967Y-96927251D01*
X47340335Y-96781929D01*
X47346929Y-96775335D01*
X47356509Y-96765888D01*
X47503483Y-96648560D01*
X47670446Y-96562014D01*
X47851041Y-96509547D01*
X48038387Y-96493156D01*
X48225349Y-96513467D01*
X48225349Y-96513467D01*
G37*
G36*
X53116920Y-96496451D02*
X53123116Y-96496494D01*
X53310006Y-96517457D01*
X53489264Y-96574321D01*
X53654064Y-96664921D01*
X53798128Y-96785804D01*
X53915968Y-96932368D01*
X54003096Y-97099029D01*
X54056194Y-97279439D01*
X54056198Y-97279478D01*
X54056200Y-97279486D01*
X54073241Y-97466725D01*
X54053588Y-97653710D01*
X54053585Y-97653719D01*
X54053581Y-97653759D01*
X53997969Y-97833410D01*
X53908523Y-97998838D01*
X53788648Y-98143742D01*
X53642910Y-98262603D01*
X53476861Y-98350893D01*
X53296826Y-98405248D01*
X53109662Y-98423600D01*
X53100303Y-98423600D01*
X53093080Y-98423549D01*
X53086884Y-98423506D01*
X52899994Y-98402543D01*
X52720736Y-98345679D01*
X52555936Y-98255079D01*
X52411872Y-98134196D01*
X52294032Y-97987632D01*
X52206904Y-97820971D01*
X52153806Y-97640561D01*
X52153802Y-97640522D01*
X52153800Y-97640514D01*
X52136759Y-97453275D01*
X52156412Y-97266290D01*
X52156415Y-97266281D01*
X52156419Y-97266241D01*
X52212031Y-97086590D01*
X52301477Y-96921162D01*
X52421352Y-96776258D01*
X52567090Y-96657397D01*
X52733139Y-96569107D01*
X52913174Y-96514752D01*
X53100338Y-96496400D01*
X53109697Y-96496400D01*
X53116920Y-96496451D01*
X53116920Y-96496451D01*
G37*
G36*
X115175000Y-98100000D02*
X113175000Y-98100000D01*
X113175000Y-96500000D01*
X115175000Y-96500000D01*
X115175000Y-98100000D01*
X115175000Y-98100000D01*
G37*
G36*
X109475000Y-98100000D02*
X107475000Y-98100000D01*
X107475000Y-96500000D01*
X109475000Y-96500000D01*
X109475000Y-98100000D01*
X109475000Y-98100000D01*
G37*
G36*
X86225000Y-98075000D02*
X85425000Y-98075000D01*
X85425000Y-96675000D01*
X86225000Y-96675000D01*
X86225000Y-98075000D01*
X86225000Y-98075000D01*
G37*
G36*
X84975000Y-98075000D02*
X84175000Y-98075000D01*
X84175000Y-96675000D01*
X84975000Y-96675000D01*
X84975000Y-98075000D01*
X84975000Y-98075000D01*
G37*
G36*
X88725000Y-98075000D02*
X87925000Y-98075000D01*
X87925000Y-96675000D01*
X88725000Y-96675000D01*
X88725000Y-98075000D01*
X88725000Y-98075000D01*
G37*
G36*
X87475000Y-98075000D02*
X86675000Y-98075000D01*
X86675000Y-96675000D01*
X87475000Y-96675000D01*
X87475000Y-98075000D01*
X87475000Y-98075000D01*
G37*
G36*
X60725000Y-97675000D02*
X58725000Y-97675000D01*
X58725000Y-96875000D01*
X60725000Y-96875000D01*
X60725000Y-97675000D01*
X60725000Y-97675000D01*
G37*
G36*
X68375000Y-97675000D02*
X66375000Y-97675000D01*
X66375000Y-96875000D01*
X68375000Y-96875000D01*
X68375000Y-97675000D01*
X68375000Y-97675000D01*
G37*
G36*
X124600000Y-97650000D02*
X123500000Y-97650000D01*
X123500000Y-96950000D01*
X124600000Y-96950000D01*
X124600000Y-97650000D01*
X124600000Y-97650000D01*
G37*
G36*
X123000000Y-97650000D02*
X121900000Y-97650000D01*
X121900000Y-96950000D01*
X123000000Y-96950000D01*
X123000000Y-97650000D01*
X123000000Y-97650000D01*
G37*
G36*
X127225000Y-97625000D02*
X125225000Y-97625000D01*
X125225000Y-96825000D01*
X127225000Y-96825000D01*
X127225000Y-97625000D01*
X127225000Y-97625000D01*
G37*
G36*
X71200000Y-97250000D02*
X70600000Y-97250000D01*
X70600000Y-96250000D01*
X71200000Y-96250000D01*
X71200000Y-97250000D01*
X71200000Y-97250000D01*
G37*
G36*
X69650000Y-97250000D02*
X68950000Y-97250000D01*
X68950000Y-96250000D01*
X69650000Y-96250000D01*
X69650000Y-97250000D01*
X69650000Y-97250000D01*
G37*
G36*
X70400000Y-97250000D02*
X69800000Y-97250000D01*
X69800000Y-96250000D01*
X70400000Y-96250000D01*
X70400000Y-97250000D01*
X70400000Y-97250000D01*
G37*
G36*
X72050000Y-97250000D02*
X71350000Y-97250000D01*
X71350000Y-96250000D01*
X72050000Y-96250000D01*
X72050000Y-97250000D01*
X72050000Y-97250000D01*
G37*
G36*
X77200000Y-97150000D02*
X76100000Y-97150000D01*
X76100000Y-96450000D01*
X77200000Y-96450000D01*
X77200000Y-97150000D01*
X77200000Y-97150000D01*
G37*
G36*
X124650000Y-96500000D02*
X123950000Y-96500000D01*
X123950000Y-95400000D01*
X124650000Y-95400000D01*
X124650000Y-96500000D01*
X124650000Y-96500000D01*
G37*
G36*
X123150000Y-96500000D02*
X122450000Y-96500000D01*
X122450000Y-95400000D01*
X123150000Y-95400000D01*
X123150000Y-96500000D01*
X123150000Y-96500000D01*
G37*
G36*
X61631511Y-95850198D02*
X61689143Y-95862027D01*
X61743377Y-95884825D01*
X61792153Y-95917725D01*
X61833613Y-95959476D01*
X61866168Y-96008475D01*
X61888588Y-96062868D01*
X61899948Y-96120239D01*
X61899948Y-96120254D01*
X61900013Y-96120583D01*
X61899075Y-96187782D01*
X61898999Y-96188116D01*
X61898999Y-96188127D01*
X61886043Y-96245153D01*
X61862112Y-96298902D01*
X61828203Y-96346973D01*
X61785590Y-96387552D01*
X61735921Y-96419073D01*
X61681067Y-96440349D01*
X61623129Y-96450565D01*
X61564309Y-96449334D01*
X61506845Y-96436699D01*
X61452936Y-96413147D01*
X61404619Y-96379566D01*
X61363751Y-96337246D01*
X61331883Y-96287797D01*
X61310224Y-96233093D01*
X61299603Y-96175222D01*
X61300425Y-96116397D01*
X61312656Y-96058851D01*
X61335834Y-96004773D01*
X61369073Y-95956229D01*
X61411109Y-95915065D01*
X61460336Y-95882851D01*
X61514889Y-95860810D01*
X61572675Y-95849786D01*
X61631511Y-95850198D01*
X61631511Y-95850198D01*
G37*
G36*
X68375000Y-96425000D02*
X66375000Y-96425000D01*
X66375000Y-95625000D01*
X68375000Y-95625000D01*
X68375000Y-96425000D01*
X68375000Y-96425000D01*
G37*
G36*
X60725000Y-96425000D02*
X58725000Y-96425000D01*
X58725000Y-95625000D01*
X60725000Y-95625000D01*
X60725000Y-96425000D01*
X60725000Y-96425000D01*
G37*
G36*
X127225000Y-96375000D02*
X125225000Y-96375000D01*
X125225000Y-95575000D01*
X127225000Y-95575000D01*
X127225000Y-96375000D01*
X127225000Y-96375000D01*
G37*
G36*
X77900000Y-96050000D02*
X76100000Y-96050000D01*
X76100000Y-94850000D01*
X77900000Y-94850000D01*
X77900000Y-96050000D01*
X77900000Y-96050000D01*
G37*
G36*
X48225349Y-93973467D02*
X48404805Y-94029705D01*
X48569920Y-94119728D01*
X48569947Y-94119751D01*
X48569955Y-94119755D01*
X48714407Y-94240108D01*
X48832727Y-94386221D01*
X48832730Y-94386227D01*
X48832757Y-94386260D01*
X48920465Y-94552616D01*
X48974193Y-94732839D01*
X48991891Y-94920066D01*
X48972886Y-95107166D01*
X48917902Y-95287011D01*
X48829033Y-95452750D01*
X48709665Y-95598071D01*
X48703071Y-95604665D01*
X48693491Y-95614112D01*
X48546517Y-95731440D01*
X48379553Y-95817986D01*
X48198958Y-95870453D01*
X48011613Y-95886845D01*
X47824651Y-95866534D01*
X47645195Y-95810295D01*
X47480080Y-95720272D01*
X47480053Y-95720249D01*
X47480045Y-95720245D01*
X47335593Y-95599892D01*
X47217273Y-95453779D01*
X47217270Y-95453773D01*
X47217243Y-95453740D01*
X47129534Y-95287384D01*
X47075807Y-95107161D01*
X47058109Y-94919934D01*
X47077114Y-94732834D01*
X47132098Y-94552989D01*
X47220967Y-94387251D01*
X47340335Y-94241929D01*
X47346929Y-94235335D01*
X47356509Y-94225888D01*
X47503483Y-94108560D01*
X47670446Y-94022014D01*
X47851041Y-93969547D01*
X48038387Y-93953156D01*
X48225349Y-93973467D01*
X48225349Y-93973467D01*
G37*
G36*
X50765349Y-93973467D02*
X50944805Y-94029705D01*
X51109920Y-94119728D01*
X51109947Y-94119751D01*
X51109955Y-94119755D01*
X51254407Y-94240108D01*
X51372727Y-94386221D01*
X51372730Y-94386227D01*
X51372757Y-94386260D01*
X51460465Y-94552616D01*
X51514193Y-94732839D01*
X51531891Y-94920066D01*
X51512886Y-95107166D01*
X51457902Y-95287011D01*
X51369033Y-95452750D01*
X51249665Y-95598071D01*
X51243071Y-95604665D01*
X51233491Y-95614112D01*
X51086517Y-95731440D01*
X50919553Y-95817986D01*
X50738958Y-95870453D01*
X50551613Y-95886845D01*
X50364651Y-95866534D01*
X50185195Y-95810295D01*
X50020080Y-95720272D01*
X50020053Y-95720249D01*
X50020045Y-95720245D01*
X49875593Y-95599892D01*
X49757273Y-95453779D01*
X49757270Y-95453773D01*
X49757243Y-95453740D01*
X49669534Y-95287384D01*
X49615807Y-95107161D01*
X49598109Y-94919934D01*
X49617114Y-94732834D01*
X49672098Y-94552989D01*
X49760967Y-94387251D01*
X49880335Y-94241929D01*
X49886929Y-94235335D01*
X49896509Y-94225888D01*
X50043483Y-94108560D01*
X50210446Y-94022014D01*
X50391041Y-93969547D01*
X50578387Y-93953156D01*
X50765349Y-93973467D01*
X50765349Y-93973467D01*
G37*
G36*
X53116920Y-93956451D02*
X53123116Y-93956494D01*
X53310006Y-93977457D01*
X53489264Y-94034321D01*
X53654064Y-94124921D01*
X53798128Y-94245804D01*
X53915968Y-94392368D01*
X54003096Y-94559029D01*
X54056194Y-94739439D01*
X54056198Y-94739478D01*
X54056200Y-94739486D01*
X54073241Y-94926725D01*
X54053588Y-95113710D01*
X54053585Y-95113719D01*
X54053581Y-95113759D01*
X53997969Y-95293410D01*
X53908523Y-95458838D01*
X53788648Y-95603742D01*
X53642910Y-95722603D01*
X53476861Y-95810893D01*
X53296826Y-95865248D01*
X53109662Y-95883600D01*
X53100303Y-95883600D01*
X53093080Y-95883549D01*
X53086884Y-95883506D01*
X52899994Y-95862543D01*
X52720736Y-95805679D01*
X52555936Y-95715079D01*
X52411872Y-95594196D01*
X52294032Y-95447632D01*
X52206904Y-95280971D01*
X52153806Y-95100561D01*
X52153802Y-95100522D01*
X52153800Y-95100514D01*
X52136759Y-94913275D01*
X52156412Y-94726290D01*
X52156415Y-94726281D01*
X52156419Y-94726241D01*
X52212031Y-94546590D01*
X52301477Y-94381162D01*
X52421352Y-94236258D01*
X52567090Y-94117397D01*
X52733139Y-94029107D01*
X52913174Y-93974752D01*
X53100338Y-93956400D01*
X53109697Y-93956400D01*
X53116920Y-93956451D01*
X53116920Y-93956451D01*
G37*
G36*
X86225000Y-95825000D02*
X85425000Y-95825000D01*
X85425000Y-94425000D01*
X86225000Y-94425000D01*
X86225000Y-95825000D01*
X86225000Y-95825000D01*
G37*
G36*
X84975000Y-95825000D02*
X84175000Y-95825000D01*
X84175000Y-94425000D01*
X84975000Y-94425000D01*
X84975000Y-95825000D01*
X84975000Y-95825000D01*
G37*
G36*
X87475000Y-95825000D02*
X86675000Y-95825000D01*
X86675000Y-94425000D01*
X87475000Y-94425000D01*
X87475000Y-95825000D01*
X87475000Y-95825000D01*
G37*
G36*
X88725000Y-95825000D02*
X87925000Y-95825000D01*
X87925000Y-94425000D01*
X88725000Y-94425000D01*
X88725000Y-95825000D01*
X88725000Y-95825000D01*
G37*
G36*
X117850000Y-95550000D02*
X116650000Y-95550000D01*
X116650000Y-94350000D01*
X117850000Y-94350000D01*
X117850000Y-95550000D01*
X117850000Y-95550000D01*
G37*
G36*
X121850000Y-95550000D02*
X120650000Y-95550000D01*
X120650000Y-94350000D01*
X121850000Y-94350000D01*
X121850000Y-95550000D01*
X121850000Y-95550000D01*
G37*
G36*
X61631511Y-94850198D02*
X61689143Y-94862027D01*
X61743377Y-94884825D01*
X61792153Y-94917725D01*
X61833613Y-94959476D01*
X61866168Y-95008475D01*
X61888588Y-95062868D01*
X61899948Y-95120239D01*
X61899948Y-95120254D01*
X61900013Y-95120583D01*
X61899075Y-95187782D01*
X61898999Y-95188116D01*
X61898999Y-95188127D01*
X61886043Y-95245153D01*
X61862112Y-95298902D01*
X61828203Y-95346973D01*
X61785590Y-95387552D01*
X61735921Y-95419073D01*
X61681067Y-95440349D01*
X61623129Y-95450565D01*
X61564309Y-95449334D01*
X61506845Y-95436699D01*
X61452936Y-95413147D01*
X61404619Y-95379566D01*
X61363751Y-95337246D01*
X61331883Y-95287797D01*
X61310224Y-95233093D01*
X61299603Y-95175222D01*
X61300425Y-95116397D01*
X61312656Y-95058851D01*
X61335834Y-95004773D01*
X61369073Y-94956229D01*
X61411109Y-94915065D01*
X61460336Y-94882851D01*
X61514889Y-94860810D01*
X61572675Y-94849786D01*
X61631511Y-94850198D01*
X61631511Y-94850198D01*
G37*
G36*
X116000000Y-95250000D02*
X114900000Y-95250000D01*
X114900000Y-94550000D01*
X116000000Y-94550000D01*
X116000000Y-95250000D01*
X116000000Y-95250000D01*
G37*
G36*
X68375000Y-95175000D02*
X66375000Y-95175000D01*
X66375000Y-94375000D01*
X68375000Y-94375000D01*
X68375000Y-95175000D01*
X68375000Y-95175000D01*
G37*
G36*
X60725000Y-95175000D02*
X58725000Y-95175000D01*
X58725000Y-94375000D01*
X60725000Y-94375000D01*
X60725000Y-95175000D01*
X60725000Y-95175000D01*
G37*
G36*
X127225000Y-95125000D02*
X125225000Y-95125000D01*
X125225000Y-94325000D01*
X127225000Y-94325000D01*
X127225000Y-95125000D01*
X127225000Y-95125000D01*
G37*
G36*
X75350000Y-94925000D02*
X72750000Y-94925000D01*
X72750000Y-93275000D01*
X75350000Y-93275000D01*
X75350000Y-94925000D01*
X75350000Y-94925000D01*
G37*
G36*
X124650000Y-94900000D02*
X123950000Y-94900000D01*
X123950000Y-93800000D01*
X124650000Y-93800000D01*
X124650000Y-94900000D01*
X124650000Y-94900000D01*
G37*
G36*
X123150000Y-94900000D02*
X122450000Y-94900000D01*
X122450000Y-93800000D01*
X123150000Y-93800000D01*
X123150000Y-94900000D01*
X123150000Y-94900000D01*
G37*
G36*
X98600000Y-94825000D02*
X97650000Y-94825000D01*
X97650000Y-93825000D01*
X98600000Y-93825000D01*
X98600000Y-94825000D01*
X98600000Y-94825000D01*
G37*
G36*
X96100000Y-94750000D02*
X94350000Y-94750000D01*
X94350000Y-92150000D01*
X96100000Y-92150000D01*
X96100000Y-94750000D01*
X96100000Y-94750000D01*
G37*
G36*
X94100000Y-94700000D02*
X93250000Y-94700000D01*
X93250000Y-92200000D01*
X94100000Y-92200000D01*
X94100000Y-94700000D01*
X94100000Y-94700000D01*
G37*
G36*
X97200000Y-94700000D02*
X96350000Y-94700000D01*
X96350000Y-92200000D01*
X97200000Y-92200000D01*
X97200000Y-94700000D01*
X97200000Y-94700000D01*
G37*
G36*
X109600000Y-94600000D02*
X108900000Y-94600000D01*
X108900000Y-93600000D01*
X109600000Y-93600000D01*
X109600000Y-94600000D01*
X109600000Y-94600000D01*
G37*
G36*
X111150000Y-94600000D02*
X110550000Y-94600000D01*
X110550000Y-93600000D01*
X111150000Y-93600000D01*
X111150000Y-94600000D01*
X111150000Y-94600000D01*
G37*
G36*
X110350000Y-94600000D02*
X109750000Y-94600000D01*
X109750000Y-93600000D01*
X110350000Y-93600000D01*
X110350000Y-94600000D01*
X110350000Y-94600000D01*
G37*
G36*
X112000000Y-94600000D02*
X111300000Y-94600000D01*
X111300000Y-93600000D01*
X112000000Y-93600000D01*
X112000000Y-94600000D01*
X112000000Y-94600000D01*
G37*
G36*
X79500000Y-94525000D02*
X78400000Y-94525000D01*
X78400000Y-93825000D01*
X79500000Y-93825000D01*
X79500000Y-94525000D01*
X79500000Y-94525000D01*
G37*
G36*
X61631511Y-93850198D02*
X61689143Y-93862027D01*
X61743377Y-93884825D01*
X61792153Y-93917725D01*
X61833613Y-93959476D01*
X61866168Y-94008475D01*
X61888588Y-94062868D01*
X61899948Y-94120239D01*
X61899948Y-94120254D01*
X61900013Y-94120583D01*
X61899075Y-94187782D01*
X61898999Y-94188116D01*
X61898999Y-94188127D01*
X61886043Y-94245153D01*
X61862112Y-94298902D01*
X61828203Y-94346973D01*
X61785590Y-94387552D01*
X61735921Y-94419073D01*
X61681067Y-94440349D01*
X61623129Y-94450565D01*
X61564309Y-94449334D01*
X61506845Y-94436699D01*
X61452936Y-94413147D01*
X61404619Y-94379566D01*
X61363751Y-94337246D01*
X61331883Y-94287797D01*
X61310224Y-94233093D01*
X61299603Y-94175222D01*
X61300425Y-94116397D01*
X61312656Y-94058851D01*
X61335834Y-94004773D01*
X61369073Y-93956229D01*
X61411109Y-93915065D01*
X61460336Y-93882851D01*
X61514889Y-93860810D01*
X61572675Y-93849786D01*
X61631511Y-93850198D01*
X61631511Y-93850198D01*
G37*
G36*
X113560000Y-94270000D02*
X112460000Y-94270000D01*
X112460000Y-93570000D01*
X113560000Y-93570000D01*
X113560000Y-94270000D01*
X113560000Y-94270000D01*
G37*
G36*
X84300000Y-94050000D02*
X83200000Y-94050000D01*
X83200000Y-93350000D01*
X84300000Y-93350000D01*
X84300000Y-94050000D01*
X84300000Y-94050000D01*
G37*
G36*
X81100000Y-94050000D02*
X80000000Y-94050000D01*
X80000000Y-93350000D01*
X81100000Y-93350000D01*
X81100000Y-94050000D01*
X81100000Y-94050000D01*
G37*
G36*
X82700000Y-94050000D02*
X81600000Y-94050000D01*
X81600000Y-93350000D01*
X82700000Y-93350000D01*
X82700000Y-94050000D01*
X82700000Y-94050000D01*
G37*
G36*
X86825000Y-93975000D02*
X85825000Y-93975000D01*
X85825000Y-93025000D01*
X86825000Y-93025000D01*
X86825000Y-93975000D01*
X86825000Y-93975000D01*
G37*
G36*
X88325000Y-93975000D02*
X87325000Y-93975000D01*
X87325000Y-93025000D01*
X88325000Y-93025000D01*
X88325000Y-93975000D01*
X88325000Y-93975000D01*
G37*
G36*
X121850000Y-93950000D02*
X120650000Y-93950000D01*
X120650000Y-92750000D01*
X121850000Y-92750000D01*
X121850000Y-93950000D01*
X121850000Y-93950000D01*
G37*
G36*
X117850000Y-93950000D02*
X116650000Y-93950000D01*
X116650000Y-92750000D01*
X117850000Y-92750000D01*
X117850000Y-93950000D01*
X117850000Y-93950000D01*
G37*
G36*
X68375000Y-93925000D02*
X66375000Y-93925000D01*
X66375000Y-93125000D01*
X68375000Y-93125000D01*
X68375000Y-93925000D01*
X68375000Y-93925000D01*
G37*
G36*
X60725000Y-93925000D02*
X58725000Y-93925000D01*
X58725000Y-93125000D01*
X60725000Y-93125000D01*
X60725000Y-93925000D01*
X60725000Y-93925000D01*
G37*
G36*
X116000000Y-93750000D02*
X114900000Y-93750000D01*
X114900000Y-93050000D01*
X116000000Y-93050000D01*
X116000000Y-93750000D01*
X116000000Y-93750000D01*
G37*
G36*
X131075000Y-93600000D02*
X128075000Y-93600000D01*
X128075000Y-92400000D01*
X131075000Y-92400000D01*
X131075000Y-93600000D01*
X131075000Y-93600000D01*
G37*
G36*
X61631511Y-92850198D02*
X61689143Y-92862027D01*
X61743377Y-92884825D01*
X61792153Y-92917725D01*
X61833613Y-92959476D01*
X61866168Y-93008475D01*
X61888588Y-93062868D01*
X61899948Y-93120239D01*
X61899948Y-93120254D01*
X61900013Y-93120583D01*
X61899075Y-93187782D01*
X61898999Y-93188116D01*
X61898999Y-93188127D01*
X61886043Y-93245153D01*
X61862112Y-93298902D01*
X61828203Y-93346973D01*
X61785590Y-93387552D01*
X61735921Y-93419073D01*
X61681067Y-93440349D01*
X61623129Y-93450565D01*
X61564309Y-93449334D01*
X61506845Y-93436699D01*
X61452936Y-93413147D01*
X61404619Y-93379566D01*
X61363751Y-93337246D01*
X61331883Y-93287797D01*
X61310224Y-93233093D01*
X61299603Y-93175222D01*
X61300425Y-93116397D01*
X61312656Y-93058851D01*
X61335834Y-93004773D01*
X61369073Y-92956229D01*
X61411109Y-92915065D01*
X61460336Y-92882851D01*
X61514889Y-92860810D01*
X61572675Y-92849786D01*
X61631511Y-92850198D01*
X61631511Y-92850198D01*
G37*
G36*
X50765349Y-91433467D02*
X50944805Y-91489705D01*
X51109920Y-91579728D01*
X51109947Y-91579751D01*
X51109955Y-91579755D01*
X51254407Y-91700108D01*
X51372727Y-91846221D01*
X51372730Y-91846227D01*
X51372757Y-91846260D01*
X51460465Y-92012616D01*
X51514193Y-92192839D01*
X51531891Y-92380066D01*
X51512886Y-92567166D01*
X51457902Y-92747011D01*
X51369033Y-92912750D01*
X51249665Y-93058071D01*
X51243071Y-93064665D01*
X51233491Y-93074112D01*
X51086517Y-93191440D01*
X50919553Y-93277986D01*
X50738958Y-93330453D01*
X50551613Y-93346845D01*
X50364651Y-93326534D01*
X50185195Y-93270295D01*
X50020080Y-93180272D01*
X50020053Y-93180249D01*
X50020045Y-93180245D01*
X49875593Y-93059892D01*
X49757273Y-92913779D01*
X49757270Y-92913773D01*
X49757243Y-92913740D01*
X49669534Y-92747384D01*
X49615807Y-92567161D01*
X49598109Y-92379934D01*
X49617114Y-92192834D01*
X49672098Y-92012989D01*
X49760967Y-91847251D01*
X49880335Y-91701929D01*
X49886929Y-91695335D01*
X49896509Y-91685888D01*
X50043483Y-91568560D01*
X50210446Y-91482014D01*
X50391041Y-91429547D01*
X50578387Y-91413156D01*
X50765349Y-91433467D01*
X50765349Y-91433467D01*
G37*
G36*
X48225349Y-91433467D02*
X48404805Y-91489705D01*
X48569920Y-91579728D01*
X48569947Y-91579751D01*
X48569955Y-91579755D01*
X48714407Y-91700108D01*
X48832727Y-91846221D01*
X48832730Y-91846227D01*
X48832757Y-91846260D01*
X48920465Y-92012616D01*
X48974193Y-92192839D01*
X48991891Y-92380066D01*
X48972886Y-92567166D01*
X48917902Y-92747011D01*
X48829033Y-92912750D01*
X48709665Y-93058071D01*
X48703071Y-93064665D01*
X48693491Y-93074112D01*
X48546517Y-93191440D01*
X48379553Y-93277986D01*
X48198958Y-93330453D01*
X48011613Y-93346845D01*
X47824651Y-93326534D01*
X47645195Y-93270295D01*
X47480080Y-93180272D01*
X47480053Y-93180249D01*
X47480045Y-93180245D01*
X47335593Y-93059892D01*
X47217273Y-92913779D01*
X47217270Y-92913773D01*
X47217243Y-92913740D01*
X47129534Y-92747384D01*
X47075807Y-92567161D01*
X47058109Y-92379934D01*
X47077114Y-92192834D01*
X47132098Y-92012989D01*
X47220967Y-91847251D01*
X47340335Y-91701929D01*
X47346929Y-91695335D01*
X47356509Y-91685888D01*
X47503483Y-91568560D01*
X47670446Y-91482014D01*
X47851041Y-91429547D01*
X48038387Y-91413156D01*
X48225349Y-91433467D01*
X48225349Y-91433467D01*
G37*
G36*
X53116920Y-91416451D02*
X53123116Y-91416494D01*
X53310006Y-91437457D01*
X53489264Y-91494321D01*
X53654064Y-91584921D01*
X53798128Y-91705804D01*
X53915968Y-91852368D01*
X54003096Y-92019029D01*
X54056194Y-92199439D01*
X54056198Y-92199478D01*
X54056200Y-92199486D01*
X54073241Y-92386725D01*
X54053588Y-92573710D01*
X54053585Y-92573719D01*
X54053581Y-92573759D01*
X53997969Y-92753410D01*
X53908523Y-92918838D01*
X53788648Y-93063742D01*
X53642910Y-93182603D01*
X53476861Y-93270893D01*
X53296826Y-93325248D01*
X53109662Y-93343600D01*
X53100303Y-93343600D01*
X53093080Y-93343549D01*
X53086884Y-93343506D01*
X52899994Y-93322543D01*
X52720736Y-93265679D01*
X52555936Y-93175079D01*
X52411872Y-93054196D01*
X52294032Y-92907632D01*
X52206904Y-92740971D01*
X52153806Y-92560561D01*
X52153802Y-92560522D01*
X52153800Y-92560514D01*
X52136759Y-92373275D01*
X52156412Y-92186290D01*
X52156415Y-92186281D01*
X52156419Y-92186241D01*
X52212031Y-92006590D01*
X52301477Y-91841162D01*
X52421352Y-91696258D01*
X52567090Y-91577397D01*
X52733139Y-91489107D01*
X52913174Y-91434752D01*
X53100338Y-91416400D01*
X53109697Y-91416400D01*
X53116920Y-91416451D01*
X53116920Y-91416451D01*
G37*
G36*
X98600000Y-93325000D02*
X97650000Y-93325000D01*
X97650000Y-92325000D01*
X98600000Y-92325000D01*
X98600000Y-93325000D01*
X98600000Y-93325000D01*
G37*
G36*
X123500000Y-93300000D02*
X122800000Y-93300000D01*
X122800000Y-92200000D01*
X123500000Y-92200000D01*
X123500000Y-93300000D01*
X123500000Y-93300000D01*
G37*
G36*
X125000000Y-93300000D02*
X124300000Y-93300000D01*
X124300000Y-92200000D01*
X125000000Y-92200000D01*
X125000000Y-93300000D01*
X125000000Y-93300000D01*
G37*
G36*
X77900000Y-93050000D02*
X76100000Y-93050000D01*
X76100000Y-91850000D01*
X77900000Y-91850000D01*
X77900000Y-93050000D01*
X77900000Y-93050000D01*
G37*
G36*
X79500000Y-93025000D02*
X78400000Y-93025000D01*
X78400000Y-92325000D01*
X79500000Y-92325000D01*
X79500000Y-93025000D01*
X79500000Y-93025000D01*
G37*
G36*
X90975000Y-93000000D02*
X90275000Y-93000000D01*
X90275000Y-91900000D01*
X90975000Y-91900000D01*
X90975000Y-93000000D01*
X90975000Y-93000000D01*
G37*
G36*
X92475000Y-93000000D02*
X91775000Y-93000000D01*
X91775000Y-91900000D01*
X92475000Y-91900000D01*
X92475000Y-93000000D01*
X92475000Y-93000000D01*
G37*
G36*
X74975000Y-92900000D02*
X74025000Y-92900000D01*
X74025000Y-91900000D01*
X74975000Y-91900000D01*
X74975000Y-92900000D01*
X74975000Y-92900000D01*
G37*
G36*
X72050000Y-92825000D02*
X71050000Y-92825000D01*
X71050000Y-91875000D01*
X72050000Y-91875000D01*
X72050000Y-92825000D01*
X72050000Y-92825000D01*
G37*
G36*
X73550000Y-92825000D02*
X72550000Y-92825000D01*
X72550000Y-91875000D01*
X73550000Y-91875000D01*
X73550000Y-92825000D01*
X73550000Y-92825000D01*
G37*
G36*
X112000000Y-92800000D02*
X111300000Y-92800000D01*
X111300000Y-91800000D01*
X112000000Y-91800000D01*
X112000000Y-92800000D01*
X112000000Y-92800000D01*
G37*
G36*
X109600000Y-92800000D02*
X108900000Y-92800000D01*
X108900000Y-91800000D01*
X109600000Y-91800000D01*
X109600000Y-92800000D01*
X109600000Y-92800000D01*
G37*
G36*
X111150000Y-92800000D02*
X110550000Y-92800000D01*
X110550000Y-91800000D01*
X111150000Y-91800000D01*
X111150000Y-92800000D01*
X111150000Y-92800000D01*
G37*
G36*
X110350000Y-92800000D02*
X109750000Y-92800000D01*
X109750000Y-91800000D01*
X110350000Y-91800000D01*
X110350000Y-92800000D01*
X110350000Y-92800000D01*
G37*
G36*
X113560000Y-92770000D02*
X112460000Y-92770000D01*
X112460000Y-92070000D01*
X113560000Y-92070000D01*
X113560000Y-92770000D01*
X113560000Y-92770000D01*
G37*
G36*
X68375000Y-92675000D02*
X66375000Y-92675000D01*
X66375000Y-91875000D01*
X68375000Y-91875000D01*
X68375000Y-92675000D01*
X68375000Y-92675000D01*
G37*
G36*
X60725000Y-92675000D02*
X58725000Y-92675000D01*
X58725000Y-91875000D01*
X60725000Y-91875000D01*
X60725000Y-92675000D01*
X60725000Y-92675000D01*
G37*
G36*
X81100000Y-92550000D02*
X80000000Y-92550000D01*
X80000000Y-91850000D01*
X81100000Y-91850000D01*
X81100000Y-92550000D01*
X81100000Y-92550000D01*
G37*
G36*
X82700000Y-92550000D02*
X81600000Y-92550000D01*
X81600000Y-91850000D01*
X82700000Y-91850000D01*
X82700000Y-92550000D01*
X82700000Y-92550000D01*
G37*
G36*
X84300000Y-92550000D02*
X83200000Y-92550000D01*
X83200000Y-91850000D01*
X84300000Y-91850000D01*
X84300000Y-92550000D01*
X84300000Y-92550000D01*
G37*
G36*
X61631511Y-91850198D02*
X61689143Y-91862027D01*
X61743377Y-91884825D01*
X61792153Y-91917725D01*
X61833613Y-91959476D01*
X61866168Y-92008475D01*
X61888588Y-92062868D01*
X61899948Y-92120239D01*
X61899948Y-92120254D01*
X61900013Y-92120583D01*
X61899075Y-92187782D01*
X61898999Y-92188116D01*
X61898999Y-92188127D01*
X61886043Y-92245153D01*
X61862112Y-92298902D01*
X61828203Y-92346973D01*
X61785590Y-92387552D01*
X61735921Y-92419073D01*
X61681067Y-92440349D01*
X61623129Y-92450565D01*
X61564309Y-92449334D01*
X61506845Y-92436699D01*
X61452936Y-92413147D01*
X61404619Y-92379566D01*
X61363751Y-92337246D01*
X61331883Y-92287797D01*
X61310224Y-92233093D01*
X61299603Y-92175222D01*
X61300425Y-92116397D01*
X61312656Y-92058851D01*
X61335834Y-92004773D01*
X61369073Y-91956229D01*
X61411109Y-91915065D01*
X61460336Y-91882851D01*
X61514889Y-91860810D01*
X61572675Y-91849786D01*
X61631511Y-91850198D01*
X61631511Y-91850198D01*
G37*
G36*
X115900000Y-92100000D02*
X115200000Y-92100000D01*
X115200000Y-91000000D01*
X115900000Y-91000000D01*
X115900000Y-92100000D01*
X115900000Y-92100000D01*
G37*
G36*
X117400000Y-92100000D02*
X116700000Y-92100000D01*
X116700000Y-91000000D01*
X117400000Y-91000000D01*
X117400000Y-92100000D01*
X117400000Y-92100000D01*
G37*
G36*
X60725000Y-91425000D02*
X58725000Y-91425000D01*
X58725000Y-90625000D01*
X60725000Y-90625000D01*
X60725000Y-91425000D01*
X60725000Y-91425000D01*
G37*
G36*
X68375000Y-91425000D02*
X66375000Y-91425000D01*
X66375000Y-90625000D01*
X68375000Y-90625000D01*
X68375000Y-91425000D01*
X68375000Y-91425000D01*
G37*
G36*
X74975000Y-91400000D02*
X74025000Y-91400000D01*
X74025000Y-90400000D01*
X74975000Y-90400000D01*
X74975000Y-91400000D01*
X74975000Y-91400000D01*
G37*
G36*
X95150000Y-91375000D02*
X94150000Y-91375000D01*
X94150000Y-90425000D01*
X95150000Y-90425000D01*
X95150000Y-91375000D01*
X95150000Y-91375000D01*
G37*
G36*
X96650000Y-91375000D02*
X95650000Y-91375000D01*
X95650000Y-90425000D01*
X96650000Y-90425000D01*
X96650000Y-91375000D01*
X96650000Y-91375000D01*
G37*
G36*
X99775000Y-91275000D02*
X98975000Y-91275000D01*
X98975000Y-89275000D01*
X99775000Y-89275000D01*
X99775000Y-91275000D01*
X99775000Y-91275000D01*
G37*
G36*
X93075000Y-91275000D02*
X92275000Y-91275000D01*
X92275000Y-89275000D01*
X93075000Y-89275000D01*
X93075000Y-91275000D01*
X93075000Y-91275000D01*
G37*
G36*
X98525000Y-91275000D02*
X97725000Y-91275000D01*
X97725000Y-89275000D01*
X98525000Y-89275000D01*
X98525000Y-91275000D01*
X98525000Y-91275000D01*
G37*
G36*
X91825000Y-91275000D02*
X91025000Y-91275000D01*
X91025000Y-89275000D01*
X91825000Y-89275000D01*
X91825000Y-91275000D01*
X91825000Y-91275000D01*
G37*
G36*
X83875000Y-91275000D02*
X83075000Y-91275000D01*
X83075000Y-89275000D01*
X83875000Y-89275000D01*
X83875000Y-91275000D01*
X83875000Y-91275000D01*
G37*
G36*
X82625000Y-91275000D02*
X81825000Y-91275000D01*
X81825000Y-89275000D01*
X82625000Y-89275000D01*
X82625000Y-91275000D01*
X82625000Y-91275000D01*
G37*
G36*
X81375000Y-91275000D02*
X80575000Y-91275000D01*
X80575000Y-89275000D01*
X81375000Y-89275000D01*
X81375000Y-91275000D01*
X81375000Y-91275000D01*
G37*
G36*
X80125000Y-91275000D02*
X79325000Y-91275000D01*
X79325000Y-89275000D01*
X80125000Y-89275000D01*
X80125000Y-91275000D01*
X80125000Y-91275000D01*
G37*
G36*
X78875000Y-91275000D02*
X78075000Y-91275000D01*
X78075000Y-89275000D01*
X78875000Y-89275000D01*
X78875000Y-91275000D01*
X78875000Y-91275000D01*
G37*
G36*
X77625000Y-91275000D02*
X76825000Y-91275000D01*
X76825000Y-89275000D01*
X77625000Y-89275000D01*
X77625000Y-91275000D01*
X77625000Y-91275000D01*
G37*
G36*
X123175000Y-91275000D02*
X122375000Y-91275000D01*
X122375000Y-89275000D01*
X123175000Y-89275000D01*
X123175000Y-91275000D01*
X123175000Y-91275000D01*
G37*
G36*
X101025000Y-91275000D02*
X100225000Y-91275000D01*
X100225000Y-89275000D01*
X101025000Y-89275000D01*
X101025000Y-91275000D01*
X101025000Y-91275000D01*
G37*
G36*
X108975000Y-91275000D02*
X108175000Y-91275000D01*
X108175000Y-89275000D01*
X108975000Y-89275000D01*
X108975000Y-91275000D01*
X108975000Y-91275000D01*
G37*
G36*
X110225000Y-91275000D02*
X109425000Y-91275000D01*
X109425000Y-89275000D01*
X110225000Y-89275000D01*
X110225000Y-91275000D01*
X110225000Y-91275000D01*
G37*
G36*
X111475000Y-91275000D02*
X110675000Y-91275000D01*
X110675000Y-89275000D01*
X111475000Y-89275000D01*
X111475000Y-91275000D01*
X111475000Y-91275000D01*
G37*
G36*
X112725000Y-91275000D02*
X111925000Y-91275000D01*
X111925000Y-89275000D01*
X112725000Y-89275000D01*
X112725000Y-91275000D01*
X112725000Y-91275000D01*
G37*
G36*
X113975000Y-91275000D02*
X113175000Y-91275000D01*
X113175000Y-89275000D01*
X113975000Y-89275000D01*
X113975000Y-91275000D01*
X113975000Y-91275000D01*
G37*
G36*
X119425000Y-91275000D02*
X118625000Y-91275000D01*
X118625000Y-89275000D01*
X119425000Y-89275000D01*
X119425000Y-91275000D01*
X119425000Y-91275000D01*
G37*
G36*
X120675000Y-91275000D02*
X119875000Y-91275000D01*
X119875000Y-89275000D01*
X120675000Y-89275000D01*
X120675000Y-91275000D01*
X120675000Y-91275000D01*
G37*
G36*
X121925000Y-91275000D02*
X121125000Y-91275000D01*
X121125000Y-89275000D01*
X121925000Y-89275000D01*
X121925000Y-91275000D01*
X121925000Y-91275000D01*
G37*
G36*
X90575000Y-91275000D02*
X89775000Y-91275000D01*
X89775000Y-89275000D01*
X90575000Y-89275000D01*
X90575000Y-91275000D01*
X90575000Y-91275000D01*
G37*
G36*
X89325000Y-91275000D02*
X88525000Y-91275000D01*
X88525000Y-89275000D01*
X89325000Y-89275000D01*
X89325000Y-91275000D01*
X89325000Y-91275000D01*
G37*
G36*
X107725000Y-91275000D02*
X106925000Y-91275000D01*
X106925000Y-89275000D01*
X107725000Y-89275000D01*
X107725000Y-91275000D01*
X107725000Y-91275000D01*
G37*
G36*
X102275000Y-91275000D02*
X101475000Y-91275000D01*
X101475000Y-89275000D01*
X102275000Y-89275000D01*
X102275000Y-91275000D01*
X102275000Y-91275000D01*
G37*
G36*
X71283592Y-85801797D02*
X71802277Y-85908268D01*
X72290398Y-86113455D01*
X72729373Y-86409546D01*
X73102477Y-86785265D01*
X73395496Y-87226293D01*
X73597271Y-87715836D01*
X73700050Y-88234908D01*
X73700050Y-88234917D01*
X73700116Y-88235251D01*
X73691671Y-88840037D01*
X73691595Y-88840371D01*
X73691595Y-88840383D01*
X73574365Y-89356375D01*
X73358998Y-89840097D01*
X73053779Y-90272772D01*
X72670327Y-90637928D01*
X72223262Y-90921644D01*
X71729597Y-91113125D01*
X71208146Y-91205070D01*
X70678765Y-91193982D01*
X70161612Y-91080278D01*
X69676404Y-90868296D01*
X69241608Y-90566104D01*
X68873786Y-90185213D01*
X68586955Y-89740139D01*
X68392034Y-89247824D01*
X68296448Y-88727020D01*
X68303842Y-88197576D01*
X68413930Y-87679652D01*
X68622522Y-87192970D01*
X68921671Y-86756075D01*
X69299984Y-86385603D01*
X69743047Y-86095670D01*
X70233989Y-85897317D01*
X70754104Y-85798100D01*
X71283592Y-85801797D01*
X71283592Y-85801797D01*
G37*
G36*
X129283592Y-85801797D02*
X129802277Y-85908268D01*
X130290398Y-86113455D01*
X130729373Y-86409546D01*
X131102477Y-86785265D01*
X131395496Y-87226293D01*
X131597271Y-87715836D01*
X131700050Y-88234908D01*
X131700050Y-88234917D01*
X131700116Y-88235251D01*
X131691671Y-88840037D01*
X131691595Y-88840371D01*
X131691595Y-88840383D01*
X131574365Y-89356375D01*
X131358998Y-89840097D01*
X131053779Y-90272772D01*
X130670327Y-90637928D01*
X130223262Y-90921644D01*
X129729597Y-91113125D01*
X129208146Y-91205070D01*
X128678765Y-91193982D01*
X128161612Y-91080278D01*
X127676404Y-90868296D01*
X127241608Y-90566104D01*
X126873786Y-90185213D01*
X126586955Y-89740139D01*
X126392034Y-89247824D01*
X126296448Y-88727020D01*
X126303842Y-88197576D01*
X126413930Y-87679652D01*
X126622522Y-87192970D01*
X126921671Y-86756075D01*
X127299984Y-86385603D01*
X127743047Y-86095670D01*
X128233989Y-85897317D01*
X128754104Y-85798100D01*
X129283592Y-85801797D01*
X129283592Y-85801797D01*
G37*
G36*
X48225349Y-88893467D02*
X48404805Y-88949705D01*
X48569920Y-89039728D01*
X48569947Y-89039751D01*
X48569955Y-89039755D01*
X48714407Y-89160108D01*
X48832727Y-89306221D01*
X48832730Y-89306227D01*
X48832757Y-89306260D01*
X48920465Y-89472616D01*
X48974193Y-89652839D01*
X48991891Y-89840066D01*
X48972886Y-90027166D01*
X48917902Y-90207011D01*
X48829033Y-90372750D01*
X48709665Y-90518071D01*
X48703071Y-90524665D01*
X48693491Y-90534112D01*
X48546517Y-90651440D01*
X48379553Y-90737986D01*
X48198958Y-90790453D01*
X48011613Y-90806845D01*
X47824651Y-90786534D01*
X47645195Y-90730295D01*
X47480080Y-90640272D01*
X47480053Y-90640249D01*
X47480045Y-90640245D01*
X47335593Y-90519892D01*
X47217273Y-90373779D01*
X47217270Y-90373773D01*
X47217243Y-90373740D01*
X47129534Y-90207384D01*
X47075807Y-90027161D01*
X47058109Y-89839934D01*
X47077114Y-89652834D01*
X47132098Y-89472989D01*
X47220967Y-89307251D01*
X47340335Y-89161929D01*
X47346929Y-89155335D01*
X47356509Y-89145888D01*
X47503483Y-89028560D01*
X47670446Y-88942014D01*
X47851041Y-88889547D01*
X48038387Y-88873156D01*
X48225349Y-88893467D01*
X48225349Y-88893467D01*
G37*
G36*
X50765349Y-88893467D02*
X50944805Y-88949705D01*
X51109920Y-89039728D01*
X51109947Y-89039751D01*
X51109955Y-89039755D01*
X51254407Y-89160108D01*
X51372727Y-89306221D01*
X51372730Y-89306227D01*
X51372757Y-89306260D01*
X51460465Y-89472616D01*
X51514193Y-89652839D01*
X51531891Y-89840066D01*
X51512886Y-90027166D01*
X51457902Y-90207011D01*
X51369033Y-90372750D01*
X51249665Y-90518071D01*
X51243071Y-90524665D01*
X51233491Y-90534112D01*
X51086517Y-90651440D01*
X50919553Y-90737986D01*
X50738958Y-90790453D01*
X50551613Y-90806845D01*
X50364651Y-90786534D01*
X50185195Y-90730295D01*
X50020080Y-90640272D01*
X50020053Y-90640249D01*
X50020045Y-90640245D01*
X49875593Y-90519892D01*
X49757273Y-90373779D01*
X49757270Y-90373773D01*
X49757243Y-90373740D01*
X49669534Y-90207384D01*
X49615807Y-90027161D01*
X49598109Y-89839934D01*
X49617114Y-89652834D01*
X49672098Y-89472989D01*
X49760967Y-89307251D01*
X49880335Y-89161929D01*
X49886929Y-89155335D01*
X49896509Y-89145888D01*
X50043483Y-89028560D01*
X50210446Y-88942014D01*
X50391041Y-88889547D01*
X50578387Y-88873156D01*
X50765349Y-88893467D01*
X50765349Y-88893467D01*
G37*
G36*
X53116920Y-88876451D02*
X53123116Y-88876494D01*
X53310006Y-88897457D01*
X53489264Y-88954321D01*
X53654064Y-89044921D01*
X53798128Y-89165804D01*
X53915968Y-89312368D01*
X54003096Y-89479029D01*
X54056194Y-89659439D01*
X54056198Y-89659478D01*
X54056200Y-89659486D01*
X54073241Y-89846725D01*
X54053588Y-90033710D01*
X54053585Y-90033719D01*
X54053581Y-90033759D01*
X53997969Y-90213410D01*
X53908523Y-90378838D01*
X53788648Y-90523742D01*
X53642910Y-90642603D01*
X53476861Y-90730893D01*
X53296826Y-90785248D01*
X53109662Y-90803600D01*
X53100303Y-90803600D01*
X53093080Y-90803549D01*
X53086884Y-90803506D01*
X52899994Y-90782543D01*
X52720736Y-90725679D01*
X52555936Y-90635079D01*
X52411872Y-90514196D01*
X52294032Y-90367632D01*
X52206904Y-90200971D01*
X52153806Y-90020561D01*
X52153802Y-90020522D01*
X52153800Y-90020514D01*
X52136759Y-89833275D01*
X52156412Y-89646290D01*
X52156415Y-89646281D01*
X52156419Y-89646241D01*
X52212031Y-89466590D01*
X52301477Y-89301162D01*
X52421352Y-89156258D01*
X52567090Y-89037397D01*
X52733139Y-88949107D01*
X52913174Y-88894752D01*
X53100338Y-88876400D01*
X53109697Y-88876400D01*
X53116920Y-88876451D01*
X53116920Y-88876451D01*
G37*
G36*
X57875000Y-89900000D02*
X54875000Y-89900000D01*
X54875000Y-88700000D01*
X57875000Y-88700000D01*
X57875000Y-89900000D01*
X57875000Y-89900000D01*
G37*
G36*
X65525000Y-89900000D02*
X62525000Y-89900000D01*
X62525000Y-88700000D01*
X65525000Y-88700000D01*
X65525000Y-89900000D01*
X65525000Y-89900000D01*
G37*
G36*
X85800000Y-88425000D02*
X84600000Y-88425000D01*
X84600000Y-85425000D01*
X85800000Y-85425000D01*
X85800000Y-88425000D01*
X85800000Y-88425000D01*
G37*
G36*
X125100000Y-88425000D02*
X123900000Y-88425000D01*
X123900000Y-85425000D01*
X125100000Y-85425000D01*
X125100000Y-88425000D01*
X125100000Y-88425000D01*
G37*
G36*
X95000000Y-88425000D02*
X93800000Y-88425000D01*
X93800000Y-85425000D01*
X95000000Y-85425000D01*
X95000000Y-88425000D01*
X95000000Y-88425000D01*
G37*
G36*
X104200000Y-88425000D02*
X103000000Y-88425000D01*
X103000000Y-85425000D01*
X104200000Y-85425000D01*
X104200000Y-88425000D01*
X104200000Y-88425000D01*
G37*
G36*
X87800000Y-88425000D02*
X86600000Y-88425000D01*
X86600000Y-85425000D01*
X87800000Y-85425000D01*
X87800000Y-88425000D01*
X87800000Y-88425000D01*
G37*
G36*
X97000000Y-88425000D02*
X95800000Y-88425000D01*
X95800000Y-85425000D01*
X97000000Y-85425000D01*
X97000000Y-88425000D01*
X97000000Y-88425000D01*
G37*
G36*
X106200000Y-88425000D02*
X105000000Y-88425000D01*
X105000000Y-85425000D01*
X106200000Y-85425000D01*
X106200000Y-88425000D01*
X106200000Y-88425000D01*
G37*
G36*
X115900000Y-88425000D02*
X114700000Y-88425000D01*
X114700000Y-85425000D01*
X115900000Y-85425000D01*
X115900000Y-88425000D01*
X115900000Y-88425000D01*
G37*
G36*
X76100000Y-88425000D02*
X74900000Y-88425000D01*
X74900000Y-85425000D01*
X76100000Y-85425000D01*
X76100000Y-88425000D01*
X76100000Y-88425000D01*
G37*
G36*
X117900000Y-88425000D02*
X116700000Y-88425000D01*
X116700000Y-85425000D01*
X117900000Y-85425000D01*
X117900000Y-88425000D01*
X117900000Y-88425000D01*
G37*
M02*
